<?xml version="1.0" encoding="UTF-8" standalone="no"?>
<!DOCTYPE svg PUBLIC "-//W3C//DTD SVG 1.1//EN" "http://www.w3.org/Graphics/SVG/1.1/DTD/svg11.dtd">
<svg width="100%" height="100%" viewBox="0 0 243 47" version="1.1" xmlns="http://www.w3.org/2000/svg" xmlns:xlink="http://www.w3.org/1999/xlink" xml:space="preserve" xmlns:serif="http://www.serif.com/" style="fill-rule:evenodd;clip-rule:evenodd;stroke-linejoin:round;stroke-miterlimit:2;">
    <g transform="matrix(1,0,0,1,-1026.05,-285.263)">
        <g transform="matrix(6.12323e-17,-1,5.13241,3.14269e-16,0,1920)">
            <g transform="matrix(6.12323e-17,0.19484,-1,1.19305e-17,1812.37,111.47)">
                <g>
                    <g transform="matrix(0.0821561,0,0,0.0736733,727.776,89.4728)">
                        <path d="M-3276,1274C-3276,1274 -3123.42,1237.28 -2797,1237C-2470.58,1236.72 -2169.4,1266.16 -1803,1237C-1436.6,1207.84 -1367.68,1245.94 -1044,1237C-720.318,1228.06 -486,1237 -486,1237L-397,1274L-397,1592L-443,1592L-397,1644L-397,1745C-397,1745 -1283.93,1730.3 -1535,1768C-1786.07,1805.7 -2832.42,1797.18 -2884,1800C-2935.58,1802.82 -3038.91,1770.73 -3097,1768C-3155.09,1765.27 -3198,1745 -3198,1745L-3312,1604C-3312,1604 -3297.14,1515.23 -3222,1514C-3222,1514 -3270.94,1515.32 -3276,1476C-3283.41,1418.44 -3278.49,1311.28 -3276,1274Z" style="fill:rgb(220,115,57);"/>
                    </g>
                    <g transform="matrix(0.0821561,0,0,0.0736733,727.361,89.4728)">
                        <path d="M-481.504,1233.89C-471.354,1251.34 -469.07,1269.84 -481.504,1290.31C-481.504,1290.31 -464.542,1321.39 -486,1352C-486,1352 -482.296,1398.92 -508,1414C-508,1414 -494.915,1470.32 -508,1517C-508,1517 -464.936,1562.81 -486,1599L-460.831,1611L-386,1599L-386,1269.43L-424,1247.46L-481.504,1233.89Z" style="fill:rgb(169,54,24);"/>
                    </g>
                    <g transform="matrix(0.0821561,0,0,0.0736733,85.0315,89.4728)">
                        <path d="M6711,1522L7310,1516C7310,1516 7314.32,1522.46 7316,1504C7316,1504 6718.35,1525.94 6711,1522Z" style="fill:rgb(255,162,87);"/>
                    </g>
                    <g transform="matrix(0.0821561,0,0,0.0736733,85.0315,89.4728)">
                        <path d="M4716,1509L4716,1519L4633,1564L4620,1576L4592,1564L4556,1538L4556,1519L4580,1509L4716,1509Z" style="fill:rgb(208,80,31);"/>
                    </g>
                    <g transform="matrix(0.0821561,0,0,0.0736733,727.361,89.4728)">
                        <path d="M-2383.25,1729.98C-2443.45,1746.54 -2674.4,1731.89 -2714.3,1731.6C-2881.15,1730.37 -2941.14,1775.48 -2955.57,1799.95L-2968.43,1792.05C-2956.63,1772.81 -2901.73,1707.01 -2668.8,1725.04C-2646.01,1726.81 -2436.79,1743 -2383.25,1729.98Z" style="fill:rgb(174,63,7);"/>
                    </g>
                    <g transform="matrix(0.0821561,0,0,0.0736733,727.361,89.4728)">
                        <path d="M-390.034,1353.88L-390.42,1370.67C-536.737,1362.52 -638.959,1336.95 -778.562,1349.42C-931.463,1363.09 -976.504,1384.11 -1196,1389C-965.03,1379.08 -918.927,1354.15 -758.65,1338.66C-642.402,1327.42 -502.858,1350.69 -390.034,1353.88Z" style="fill:rgb(113,21,10);"/>
                    </g>
                    <g transform="matrix(0.0821561,0,0,0.0736733,85.0315,89.4728)">
                        <path d="M4566,1614.1C4566,1614.1 4584.23,1633.84 4612,1673C4639.77,1712.16 4652.95,1737.83 4687,1750C4721.05,1762.17 4821.77,1779.14 4848,1773C4874.23,1766.86 4885,1761 4885,1761C4885,1761 4805.8,1781.16 4755.43,1750C4705.05,1718.84 4664,1673 4664,1673L4641,1614.1L4566,1587L4566,1614.1Z" style="fill:rgb(183,58,30);"/>
                    </g>
                    <g transform="matrix(0.0821561,0,0,0.0736733,727.361,89.4728)">
                        <path d="M-619,1237C-619,1237 -764.084,1262.18 -843,1274C-921.916,1285.82 -1561.35,1218.21 -1661,1237C-1760.65,1255.79 -1982.1,1262.12 -2248,1237C-2248,1237 -1699.78,1216.12 -1617,1214C-1534.22,1211.88 -1131.62,1245.94 -1088,1237C-1044.38,1228.06 -619,1237 -619,1237Z" style="fill:rgb(250,170,85);"/>
                    </g>
                    <g transform="matrix(0.0821561,0,0,0.0736733,727.361,89.4728)">
                        <path d="M-3191,1615C-3191,1615 -3195.26,1619.86 -3050,1615C-2904.74,1610.14 -2892.2,1596.76 -2828,1615C-2763.8,1633.24 -2590.54,1615.24 -2542,1615C-2493.46,1614.76 -1860.55,1610.62 -1805,1615C-1749.45,1619.38 -1625,1592 -1625,1592L-3230,1592L-3191,1615Z" style="fill:rgb(250,170,85);"/>
                    </g>
                    <g transform="matrix(0.0821561,0,0,0.0736733,727.361,89.4728)">
                        <path d="M-2845.31,1536.94C-2932.1,1521.61 -2973.66,1517.64 -3110.7,1536.94C-2988.22,1503.14 -2953.33,1500.75 -2845.31,1536.94Z" style="fill:rgb(250,170,85);"/>
                    </g>
                    <g transform="matrix(0.0821561,0,0,0.0736733,727.361,89.4728)">
                        <path d="M-3275,1547C-3275,1547 -3271.24,1520.31 -3250,1527C-3228.76,1533.69 -3223.49,1561.47 -3193,1560C-3193,1560 -3229.84,1593.27 -3250,1583C-3270.16,1572.73 -3271.56,1560.31 -3275,1547Z" style="fill:rgb(155,44,17);"/>
                    </g>
                    <g transform="matrix(0.0821561,0,0,0.0736733,727.361,89.4728)">
                        <path d="M-3300,1611C-3300,1611 -3280.64,1578.97 -3251,1611C-3221.36,1643.03 -3207.09,1654.25 -3195,1679C-3182.91,1703.75 -3170.08,1739.1 -3124,1751C-3077.92,1762.9 -2994.16,1780.51 -2917,1751L-2892,1751C-2892,1751 -2946.28,1763.51 -2967,1795L-3081,1795L-3195,1766L-3251,1708L-3328,1611L-3300,1611Z" style="fill:rgb(145,41,30);"/>
                    </g>
                    <g transform="matrix(0.0821561,0,0,0.0736733,727.361,89.5465)">
                        <path d="M-2550.69,1663.43L-2543.22,1672.56C-2547.81,1676.54 -2568.72,1694.68 -2611.45,1700.56C-2660.92,1707.35 -2706.87,1692.34 -2719.14,1688.61L-2718.86,1687.39C-2706.87,1690.24 -2660.56,1702.31 -2612.53,1692.64C-2570.45,1684.17 -2551.23,1663.92 -2550.69,1663.43Z" style="fill:rgb(176,58,20);"/>
                    </g>
                    <g transform="matrix(0.0821561,0,0,0.0736733,727.361,89.4728)">
                        <path d="M-390.322,1408.38L-390.605,1432.7C-555.165,1427.73 -610.517,1434.1 -735.139,1460.73C-774.239,1469.09 -821.988,1479.33 -887.689,1486.75C-940.604,1492.72 -871.845,1485.7 -794.029,1467.35C-734.157,1453.23 -686.171,1437.68 -623.291,1426.46C-526.531,1409.17 -428.283,1409.01 -390.322,1408.38Z" style="fill:rgb(71,0,0);"/>
                    </g>
                    <g transform="matrix(0.0821561,0,0,0.0736733,727.361,89.4728)">
                        <path d="M-398.293,1400.7C-624.289,1363.39 -710.326,1353.91 -852.617,1368.71C-951.628,1379.01 -1016.1,1387.21 -1181.08,1389.51C-901.485,1376.65 -870.634,1353.05 -744.837,1348.4C-629.025,1344.11 -483.318,1364.85 -395.303,1376.61L-398.293,1400.7Z" style="fill:rgb(169,54,24);"/>
                    </g>
                    <g transform="matrix(0.0821561,0,0,0.0736733,727.361,89.4728)">
                        <path d="M-387.13,1514.79L-387.176,1530.18C-744.289,1525.66 -744.294,1530.4 -1074.97,1523.44C-1186.79,1521.08 -1027.44,1523.49 -834.863,1520.98C-639.314,1518.43 -639.364,1516.81 -387.13,1514.79Z" style="fill:rgb(73,11,2);"/>
                    </g>
                    <g transform="matrix(0.0821561,0,0,0.0736733,727.361,89.4728)">
                        <path d="M-413.933,1592.97L-415.476,1619.6C-448.994,1617.02 -601.201,1605.33 -834.839,1594.45C-1051.9,1584.35 -1159.07,1584.2 -1186.97,1583.93C-1162.75,1583.31 -1054.9,1579.61 -834.552,1582.24C-741.002,1583.36 -547.943,1586.91 -413.933,1592.97Z" style="fill:rgb(71,0,0);"/>
                    </g>
                    <g transform="matrix(0.0821561,0,0,0.0736733,727.361,89.4728)">
                        <path d="M-1181.13,1769.12L-1189.47,1746.65C-977.157,1654.4 -866.677,1614.59 -718.843,1632.86C-670.954,1638.78 -628.05,1648.29 -517.265,1671.12L-517.455,1672.38C-696.469,1641.66 -773.588,1623.44 -896.666,1654.89C-998.494,1680.92 -1121.64,1740.95 -1181.13,1769.12Z" style="fill:rgb(173,62,17);"/>
                    </g>
                    <g transform="matrix(0.0821561,0,0,0.0736733,727.361,89.4728)">
                        <path d="M-1639.31,1351.31C-1705.2,1338.41 -1760.5,1327.85 -1829.22,1332.42C-1886.79,1336.24 -1922.87,1346.55 -2033.21,1351.22C-1893.41,1332.09 -1877.44,1321.37 -1820.59,1318.22C-1757.17,1314.7 -1689.95,1335.26 -1639.31,1351.31Z" style="fill:rgb(173,62,17);"/>
                    </g>
                    <g transform="matrix(0.0821561,0,0,0.0736733,727.361,89.4728)">
                        <path d="M-2035.64,1262.62L-2035.54,1259.61C-1842.37,1265.67 -1841.88,1270.38 -1696.77,1249.02C-1647.38,1241.75 -1601.14,1233.19 -1530.86,1235.42C-1450.01,1237.99 -1427.7,1246.4 -1239.08,1251.9L-1239.82,1276.2C-1513.73,1260.9 -1521.8,1239.78 -1661.92,1256.93C-1715.66,1263.51 -1774.1,1270.89 -1819.17,1272.51C-1864.73,1274.13 -1879.11,1271.72 -2035.64,1262.62Z" style="fill:rgb(213,82,30);"/>
                    </g>
                    <g transform="matrix(0.0821561,0,0,0.0736733,727.361,89.4728)">
                        <path d="M-3266.04,1415.11L-3265.45,1401.49C-3003.18,1416.87 -2944.97,1394.87 -2767.2,1469.77L-2767.96,1472.05C-2946.28,1401.41 -3003.1,1424.69 -3266.04,1415.11Z" style="fill:rgb(173,62,17);"/>
                    </g>
                    <g transform="matrix(0.0821561,0,0,0.0736733,727.361,89.4728)">
                        <path d="M-2179.28,1552.57L-2187.61,1574.93C-2266.47,1538.42 -2327.89,1520.92 -2461.58,1513.92C-2573.39,1508.06 -2639.58,1508.96 -2747.01,1479.74L-2746.7,1478.29C-2562.25,1520.71 -2449.91,1483.01 -2289.3,1516.87C-2229.01,1529.58 -2180.86,1551.9 -2179.28,1552.57Z" style="fill:rgb(173,62,17);"/>
                    </g>
                    <g transform="matrix(0.0821561,0,0,0.0736733,726.95,89.0308)">
                        <path d="M-2483.24,1369.81L-2484.45,1374.23C-2485.54,1373.89 -2723.06,1289.54 -3021.01,1307.4C-3068.76,1310.27 -3087.23,1313.63 -3092.93,1314.67L-3096.85,1290.75C-3053.87,1284.62 -2931.55,1278.82 -2783.06,1298.41C-2623.23,1319.51 -2514.12,1359.1 -2483.24,1369.81Z" style="fill:rgb(212,104,40);"/>
                    </g>
                    <g transform="matrix(0.0821561,0,0,0.0736733,727.361,89.4728)">
                        <path d="M-1200,1416C-1200,1416 -1017.01,1430.96 -938,1416C-858.989,1401.04 -660.275,1371.99 -604,1376C-604,1376 -760.75,1360.74 -920,1396C-1016.45,1417.35 -1168.06,1418.34 -1200,1416Z" style="fill:rgb(255,189,93);"/>
                    </g>
                    <g transform="matrix(0.0821561,0,0,0.0736733,727.361,89.4728)">
                        <path d="M-1099,1733C-1099,1733 -453.558,1729.28 -406,1725C-406,1725 -375.041,1752.44 -406,1752C-436.959,1751.56 -1160,1752 -1160,1752L-1099,1733Z" style="fill:rgb(109,21,7);"/>
                    </g>
                    <g transform="matrix(0.0821561,0,0,0.0736733,727.361,89.4728)">
                        <path d="M-386,1653C-386,1653 -507.711,1668.08 -548,1693C-588.289,1717.92 -637.989,1710.52 -681,1703C-724.011,1695.49 -800.753,1672.38 -828,1703C-855.247,1733.62 -902.871,1721.11 -920,1724C-937.129,1726.89 -1083.85,1722.67 -1112,1736C-1140.15,1749.33 -728,1736 -728,1736L-398,1736L-386,1653Z" style="fill:rgb(188,68,33);"/>
                    </g>
                    <g transform="matrix(0.0821561,0,0,0.0736733,727.361,89.4728)">
                        <path d="M-390.359,1294.91L-391.665,1305.58C-405.655,1303.06 -479.857,1288.73 -513.974,1286.01C-547.111,1283.37 -571.039,1287.14 -581.814,1288.39C-571.073,1286.54 -547.264,1281.41 -513.817,1282.19C-479.398,1282.99 -404.642,1293.15 -390.359,1294.91Z" style="fill:rgb(100,11,3);"/>
                    </g>
                    <g transform="matrix(0.0821561,0,0,0.0736733,727.361,89.4728)">
                        <path d="M-2542,1753C-2542,1753 -2530.35,1778.7 -2520,1788C-2509.65,1797.3 -2873,1788 -2873,1788C-2873,1788 -2579.14,1750.58 -2542,1753Z" style="fill:rgb(251,167,77);"/>
                    </g>
                    <g transform="matrix(0.0821561,0,0,0.0736733,727.361,89.4728)">
                        <path d="M-2494.62,1798.54L-2665.28,1803.42C-2715.75,1804.09 -2895.12,1801.78 -2915.11,1801.53C-2844.68,1796.67 -2704.84,1786.5 -2646.81,1784.84L-2495.04,1780.51L-2494.62,1798.54Z" style="fill:rgb(173,62,17);"/>
                    </g>
                    <g transform="matrix(0.0821561,0,0,0.0736733,727.361,89.4728)">
                        <path d="M-2916,1770C-2916,1770 -2847.78,1760.95 -2784,1754C-2720.22,1747.05 -2494,1733 -2494,1733L-2541,1733C-2541,1733 -2690.88,1736.9 -2757,1733C-2823.12,1729.1 -2896.41,1751.07 -2916,1770Z" style="fill:rgb(251,167,77);"/>
                    </g>
                    <g transform="matrix(0.0821561,0,0,0.0736733,727.361,89.4728)">
                        <path d="M-3172,1686C-3172,1686 -2972.92,1643.7 -2804,1677L-2722,1686C-2722,1686 -2885.68,1628.41 -2965,1640C-3044.32,1651.59 -3161.85,1660 -3172,1686Z" style="fill:rgb(255,162,87);"/>
                    </g>
                    <g transform="matrix(0.0821561,0,0,0.0736733,727.361,89.4728)">
                        <path d="M-3199.2,1690.92L-3196.81,1675C-3187.2,1677.57 -3114.26,1697.09 -3079.64,1718.47C-3067.34,1726.08 -3083.58,1716.59 -3104.94,1710.16C-3143.07,1698.66 -3183.93,1693.14 -3199.2,1690.92Z" style="fill:rgb(144,40,31);"/>
                    </g>
                    <g transform="matrix(0.0821561,0,0,0.0736733,727.607,89.4728)">
                        <path d="M-2810.2,1667.87C-2833.05,1663.84 -2877.15,1652.17 -3027.59,1659.87C-3125.3,1664.87 -3169.65,1677.35 -3174.85,1679.97C-3175.22,1680.16 -3175.77,1679.79 -3175.86,1679.86C-3176.14,1680.07 -3176.85,1681.58 -3176.87,1679.92C-3176.92,1675.27 -3107.24,1646.84 -3029.17,1637.31C-2944.09,1626.92 -2871.37,1643.24 -2809.8,1666.13L-2810.2,1667.87Z" style="fill:rgb(255,162,87);"/>
                    </g>
                    <g transform="matrix(0.0821561,0,0,0.0736733,727.361,89.4728)">
                        <path d="M-3197.78,1688.56L-3204.27,1665.4C-3103.46,1635.04 -2980.81,1622.09 -2877.22,1642.43C-2744.3,1668.51 -2731.87,1690.5 -2663.95,1696.73L-2664.05,1699.27C-2732.73,1695.72 -2745.52,1674.28 -2878.78,1653.57C-3035.83,1629.18 -3194.72,1687.52 -3197.78,1688.56Z" style="fill:rgb(144,40,31);"/>
                    </g>
                    <g transform="matrix(0.0821561,0,0,0.0736733,727.361,89.4728)">
                        <path d="M-3262.41,1616.31L-3268.25,1592.88C-3193.9,1571.01 -3186.7,1556.35 -3128.47,1527.73C-3072.75,1500.35 -3016.61,1494.96 -2998.81,1492.61L-2998.15,1498.13C-3029.77,1504.43 -3075.99,1512.75 -3129.68,1544.48C-3181.16,1574.9 -3189.95,1589.83 -3262.41,1616.31Z" style="fill:rgb(110,16,4);"/>
                    </g>
                    <g transform="matrix(0.0821561,0,0,0.0736733,725.307,89.0308)">
                        <path d="M-3050,1425C-3050,1425 -2982.93,1439.66 -2942,1453C-2901.07,1466.34 -2615.13,1539.23 -2566,1542C-2516.87,1544.77 -2513,1565.37 -2493,1579L-2478,1595L-2627,1595L-2648,1579C-2648,1579 -2851.18,1488.35 -2918,1480C-2984.82,1471.65 -3090.16,1436.91 -3090,1437C-3089.84,1437.09 -3050,1425 -3050,1425Z" style="fill:rgb(208,90,40);"/>
                    </g>
                    <g transform="matrix(0.0821561,0,0,0.0736733,727.361,89.4728)">
                        <path d="M-2996,1250C-2996,1250 -2380.34,1252.7 -2353,1250C-2325.66,1247.3 -2276,1250 -2276,1250C-2276,1250 -2518.22,1286.03 -2571,1285C-2623.78,1283.98 -3175.15,1265.67 -3212,1264L-2996,1250Z" style="fill:rgb(250,170,85);"/>
                    </g>
                    <g transform="matrix(0.0821561,0,0,0.0736733,727.361,89.4728)">
                        <path d="M-2489,1367C-2489,1367 -2563.6,1352.81 -2612,1353C-2660.4,1353.19 -2776.88,1333.53 -2818,1329C-2859.12,1324.48 -2929.5,1309.83 -2975,1306C-3013.53,1302.75 -3091,1306 -3091,1306C-3091,1306 -2830.56,1263.92 -2489,1367Z" style="fill:rgb(250,170,85);"/>
                    </g>
                    <g transform="matrix(0.0821561,0,0,0.0736733,727.361,89.4728)">
                        <path d="M-3190,1395C-3190,1395 -3046.11,1397.55 -2922,1406.68C-2797.89,1415.81 -2654,1419 -2654,1419C-2654,1419 -2677.48,1410.2 -2727,1395C-2806.04,1370.74 -2887.23,1369.88 -2929,1368C-2970.77,1366.12 -3142.41,1376.91 -3190,1395Z" style="fill:rgb(219,115,54);"/>
                    </g>
                    <g transform="matrix(0.0821561,0,0,0.0736733,727.361,89.4728)">
                        <path d="M-3266.56,1418.41L-3272.33,1394.95C-3190.59,1371.91 -3062.35,1335.66 -2925.99,1343.13C-2777.41,1351.27 -2673.14,1408.16 -2625.39,1434.48L-2626.4,1436.77C-2673.19,1412.88 -2776.73,1360.35 -2921.46,1356.1C-3057.53,1352.1 -3184.26,1392.31 -3266.56,1418.41Z" style="fill:rgb(173,62,17);"/>
                    </g>
                    <g transform="matrix(0.0821561,0,0,0.0736733,727.361,89.4728)">
                        <path d="M-2877,1513C-2877,1513 -2795.69,1543.97 -2767,1553C-2738.31,1562.03 -2683.99,1566.36 -2668,1571C-2668,1571 -2783.7,1534.3 -2877,1513Z" style="fill:rgb(250,170,85);"/>
                    </g>
                    <g transform="matrix(0.0821561,0,0,0.0736733,675.302,89.4728)">
                        <path d="M-1326.14,1311.38L-1329.52,1287.35C-1241.65,1275.01 -1189.01,1282.91 -1094.4,1289.83C-988.285,1297.59 -932.754,1290.12 -885.12,1283.4C-951.748,1296.53 -1001.63,1303.42 -1107.89,1301.08C-1194.1,1299.18 -1245.26,1295.48 -1326.14,1311.38Z" style="fill:rgb(255,189,93);"/>
                    </g>
                    <g transform="matrix(0.0821561,0,0,0.0736733,727.361,89.4728)">
                        <path d="M-1150,1616C-1150,1616 -838.567,1612.35 -774.546,1605.37C-710.526,1598.4 -446.89,1629.33 -403,1652C-403,1652 -419.243,1617.72 -439.312,1616C-771.038,1587.59 -1162,1590 -1162,1590L-1150,1616Z" style="fill:rgb(253,183,98);"/>
                    </g>
                    <g transform="matrix(0.0821561,0,0,0.0736733,727.361,89.4728)">
                        <path d="M-520,1414L-386,1414L-386,1354C-386,1354 -383.472,1412.66 -520,1414Z" style="fill:rgb(113,21,10);"/>
                    </g>
                    <g transform="matrix(0.0821561,0,0,0.0736733,727.361,89.4728)">
                        <path d="M-1137,1494C-1137,1494 -1135.77,1506.74 -1116,1506C-1096.23,1505.26 -1095,1494 -1095,1494C-1095,1494 -1111.22,1481.73 -1137,1494Z" style="fill:rgb(215,100,43);"/>
                    </g>
                    <g transform="matrix(0.0821561,0,0,0.0736733,727.361,89.4728)">
                        <path d="M-1151,1668C-1151,1668 -1078.24,1669.75 -999,1647C-919.762,1624.25 -836.736,1606.89 -788,1607L-1151,1607L-1151,1668Z" style="fill:rgb(237,144,67);"/>
                    </g>
                    <g transform="matrix(0.0821561,0,0,0.0736733,727.361,89.4728)">
                        <path d="M-1020,1698C-1020,1698 -700.22,1623.01 -570,1668C-570,1668 -792.52,1603.35 -1020,1698Z" style="fill:rgb(237,144,67);"/>
                    </g>
                    <g transform="matrix(0.0821561,0,0,0.0736733,727.361,89.4728)">
                        <path d="M-739,1292C-739,1292 -776.795,1332.29 -875,1325C-912.601,1322.21 -970.62,1289.22 -860.117,1285.05C-780.389,1282.04 -739,1292 -739,1292Z" style="fill:rgb(218,109,42);"/>
                    </g>
                    <g transform="matrix(0.0821561,0,0,0.0736733,727.361,89.4728)">
                        <path d="M-751,1292C-751,1292 -854.439,1272.34 -875,1292C-895.561,1311.66 -854.1,1308.38 -835,1308C-815.9,1307.62 -751,1292 -751,1292Z" style="fill:rgb(206,89,45);"/>
                    </g>
                    <g transform="matrix(0.0821561,0,0,0.0736733,727.114,89.2518)">
                        <path d="M-3295.79,1628.24L-3304.3,1605.83C-3239.16,1577.87 -3211.87,1579.25 -3180.83,1578.64C-3006.52,1575.21 -2414.88,1590.73 -1886.38,1590.33C-1656.85,1590.15 -1600.4,1609.05 -1599.91,1595.52L-1599.91,1600.52C-1679.4,1593.07 -1865.17,1595.12 -1952.47,1595.52C-2272.46,1597 -3090.86,1598.43 -3204.41,1603.17C-3238.61,1604.6 -3273.36,1618.61 -3295.79,1628.24Z" style="fill:rgb(71,0,0);"/>
                    </g>
                    <g transform="matrix(0.0821561,0,0,0.0736733,727.361,89.4728)">
                        <path d="M-3281.41,1505.55L-3274.57,1482.45C-3200.17,1509.63 -3108.84,1501.02 -3094.43,1499.66C-3026.95,1493.3 -3001.42,1483.37 -2946.49,1490.94C-2882.01,1499.82 -2771.82,1535.4 -2665.88,1569.5L-2666.12,1570.5C-2950.3,1490.43 -2958.04,1494.72 -3054.41,1511.1C-3065.06,1512.91 -3184.07,1537.12 -3281.41,1505.55Z" style="fill:rgb(71,0,0);"/>
                    </g>
                    <g transform="matrix(0.995898,0,0,1,-11.3706,113.519)">
                        <path d="M702.228,65.114L711,68L710.97,95.179L709.895,95.179L710.94,96.209L710.91,106.477C710.91,106.477 636.009,106.082 620,108C603.991,109.918 521.887,111.419 504.429,110.436C502.344,110.806 492.909,109.134 491.779,108.772C490.296,108.297 481.67,108.237 477.631,106.034L467.233,94.662C467.233,94.662 468.229,88.653 471.427,87.251C471.427,87.251 470.145,86.933 470,81C469.855,75.067 470,68 470,68C470,68 493.66,63.3 553,65C553,65 581.312,66.063 591.951,64.886C611.342,63.486 620.519,64.327 633.403,64.801C647.738,65.742 680.499,63.891 702.228,65.114ZM476.753,87.505C470.593,87.605 469.374,94.135 469.374,94.135L478.74,104.523C478.74,104.523 482.265,106.016 487.037,106.217C491.81,106.419 500.299,108.782 504.537,108.575C506.089,108.499 518.613,108.535 534.874,108.475C562.995,108.37 602.296,107.978 615.365,106.217C635.992,103.44 708.859,104.523 708.859,104.523L708.859,97.082L705.08,93.251L708.859,93.251L708.859,69.823L701.547,67.097C701.547,67.097 682.296,66.438 655.704,67.097C629.111,67.756 623.45,64.949 593.347,67.097C563.245,69.245 538.502,67.077 511.684,67.097C484.867,67.117 472.331,69.823 472.331,69.823C472.127,72.569 471.723,80.465 472.331,84.705C472.732,87.5 476.49,87.508 476.753,87.505Z" style="fill:rgb(71,0,0);"/>
                    </g>
                    <g transform="matrix(0.0821561,0,0,0.0736733,85.0315,89.4728)">
                        <path d="M4564,1594C4984.5,1631.06 5574.27,1618.76 6073,1625L6165.83,1594C6539.5,1580.96 6941.42,1583.67 7357,1594L7431,1594L7431,1753C7431,1753 6791.53,1746.81 6546,1753C6220.91,1761.2 6057.08,1813.95 5963,1815C5757.86,1817.3 4858,1815 4858,1815L4625,1753L4504,1594L4564,1594Z" style="fill:rgb(100,22,12);fill-opacity:0.2;"/>
                    </g>
                </g>
            </g>
            <g transform="matrix(1,4.62223e-33,0,0.19484,1292.58,137.058)">
                <g transform="matrix(2.77229e-17,0.45275,-0.45275,2.77229e-17,453.896,131.697)">
                    <path d="M554.325,316.058L554.325,318.886L551.225,318.723C550.584,318.689 549.96,318.639 549.32,318.568L549.288,318.563C548.892,318.511 548.497,318.471 548.094,318.444L548.087,318.444C547.751,318.42 547.499,318.405 547.331,318.405C546.172,318.405 545.014,318.42 543.837,318.45C542.713,318.509 541.603,318.596 540.507,318.711L537.174,319.062L537.254,315.712C537.284,314.448 537.299,313.213 537.299,311.973L537.3,311.937C537.33,310.703 537.345,309.454 537.345,308.19C537.345,308.04 537.345,307.89 537.345,307.74L532.998,317.571L527.541,317.398C526.477,314.506 525.351,311.659 524.161,308.851L524.512,319.694L521.47,319.694C521.093,319.694 520.701,319.678 520.296,319.648L519.353,319.648C518.268,319.648 517.198,319.69 516.141,319.776C515.037,319.868 513.917,319.96 512.781,320.052L509.421,320.324L509.602,316.959C509.756,314.105 509.909,311.267 510.063,308.444C510.213,305.675 510.288,302.89 510.288,300.091C510.288,296.766 510.258,293.455 510.197,290.147L510.197,290.133C510.166,286.82 510.135,283.491 510.104,280.148L510.077,277.176L513.049,277.176C515.199,277.176 517.289,277.116 519.32,276.997C521.4,276.876 523.525,276.71 525.695,276.499L528.105,276.265L528.8,278.584C529.53,281.017 530.275,283.434 531.035,285.836C531.082,285.976 531.129,286.117 531.176,286.255C531.252,286.115 531.328,285.975 531.413,285.821L531.42,285.807C532.656,283.615 533.906,281.438 535.172,279.276L535.997,277.869L537.627,277.821C539.712,277.76 541.767,277.698 543.791,277.637C545.861,277.575 547.947,277.529 550.048,277.498L552.939,277.456L553.035,280.345C553.126,283.088 553.233,285.801 553.355,288.484C553.508,291.19 553.647,293.928 553.77,296.698C553.861,298.844 553.937,300.992 553.998,303.138C554.167,301.187 554.338,299.241 554.511,297.298C554.971,292.151 555.415,286.988 555.844,281.81L556.033,279.525L558.295,279.148C560.556,278.772 562.802,278.457 565.033,278.206C567.349,277.949 569.683,277.82 572.031,277.82C574.795,277.82 577.558,277.866 580.321,277.96L582.762,278.042L583.133,280.455C583.624,283.649 584.1,286.843 584.561,290.037C585.05,293.184 585.554,296.346 586.077,299.548L586.081,299.573C586.095,299.665 586.108,299.756 586.122,299.848C586.158,298.732 586.183,297.618 586.195,296.505L586.195,296.493C586.288,291.506 586.426,286.518 586.611,281.53L586.711,278.841L589.398,278.698C592.27,278.545 595.128,278.377 597.971,278.194C600.917,278.006 603.864,277.912 606.81,277.912C607.578,277.912 608.411,277.928 609.308,277.96C610.285,277.995 611.262,278.098 612.207,278.265C613.246,278.41 614.232,278.627 615.166,278.913C616.255,279.237 617.221,279.668 618.077,280.198L618.084,280.203C619.129,280.859 620.048,281.63 620.84,282.518L620.656,278.243L623.813,278.327C626.094,278.388 628.345,278.434 630.566,278.464C632.855,278.464 635.159,278.495 637.479,278.557L640.421,278.636L640.277,284.175C641.529,282.67 642.813,281.143 644.13,279.594L644.94,278.64L646.19,278.562C647.654,278.47 649.133,278.379 650.627,278.287C652.118,278.166 653.595,278.044 655.056,277.922L655.491,277.886L655.48,277.505L658.55,277.544C660.955,277.574 663.344,277.59 665.719,277.59C668.148,277.559 670.593,277.544 673.053,277.544C674.965,277.544 676.861,277.591 678.717,277.683C679.885,277.722 681.053,277.766 682.22,277.816L682.205,276.747L685.251,276.808C689.869,276.9 694.456,277.039 699.012,277.224C703.543,277.377 708.089,277.514 712.65,277.637L715.261,277.707L715.378,278.961L716.503,278.885C719.633,278.672 722.778,278.414 725.938,278.11C729.256,277.763 732.558,277.59 735.845,277.59C736.455,277.59 737.417,277.651 738.715,277.784C739.994,277.883 741.339,278.063 742.723,278.32C744.178,278.557 745.514,278.863 746.732,279.235C747.939,279.596 748.85,280.051 749.507,280.518L749.379,277.451L752.404,277.406C754.428,277.376 756.422,277.315 758.386,277.225C760.351,277.134 762.331,277.013 764.327,276.862L768.005,276.583L767.462,280.231C767.128,282.481 766.809,284.746 766.505,287.027C766.236,289.237 766.027,291.462 765.878,293.703C765.757,295.611 765.65,297.519 765.559,299.427C765.53,300.343 765.5,301.262 765.471,302.185C766.46,302.2 767.441,302.208 768.415,302.208C770.439,302.208 772.463,302.239 774.487,302.301L775.153,302.322C775.299,300.644 775.446,298.97 775.596,297.298C776.055,292.151 776.499,286.988 776.928,281.81L777.118,279.525L779.379,279.148C781.64,278.772 783.886,278.457 786.117,278.206C788.433,277.949 790.767,277.82 793.116,277.82C795.879,277.82 798.642,277.866 801.406,277.96L803.846,278.042L804.217,280.455C804.696,283.569 805.161,286.683 805.611,289.797C805.924,288.617 806.31,287.469 806.775,286.336L806.788,286.306C807.397,284.909 808.133,283.62 809.021,282.399L809.05,282.362C809.284,282.06 809.586,281.691 809.955,281.255C810.565,280.534 811.195,280.031 811.785,279.709C812.786,279.152 813.898,278.685 815.133,278.311L815.145,278.308C816.313,277.964 817.515,277.705 818.739,277.533C819.929,277.336 821.102,277.204 822.259,277.137C823.437,277.039 824.517,276.992 825.501,276.992C827.361,276.992 829.222,277.105 831.082,277.333C833.002,277.536 834.872,277.908 836.691,278.447L837.587,278.713L837.552,277.505L840.622,277.544C843.027,277.574 845.417,277.59 847.792,277.59C850.221,277.559 852.666,277.544 855.126,277.544C857.037,277.544 858.933,277.591 860.79,277.683C862.677,277.745 864.565,277.823 866.452,277.915L869.029,278.042L869.999,289.763L866.963,289.918C865.818,289.976 864.675,290.037 863.534,290.1L863.607,290.598C863.771,291.71 863.886,292.807 863.952,293.887C864.05,294.972 864.098,296.074 864.098,297.192C864.098,297.653 864.083,298.13 864.052,298.622L864.052,302.325L853.322,304.248C853.322,304.248 853.339,304.394 853.339,304.394C854.677,304.276 856.01,304.138 857.338,303.979C859.702,303.668 862.081,303.404 864.476,303.186L867.27,302.932L867.659,305.711C867.874,307.245 868.089,308.795 868.304,310.36C868.501,311.77 868.783,313.152 869.15,314.506L870.163,318.248L866.286,318.221C861.948,318.19 857.639,318.19 853.361,318.221C849.056,318.282 844.721,318.313 840.355,318.313L837.333,318.313L837.411,315.293C837.418,315.019 837.425,314.746 837.432,314.473C836.55,314.639 835.675,314.8 834.805,314.955C833.381,315.208 831.94,315.429 830.476,315.62L830.468,315.621C828.975,315.808 827.483,315.979 825.99,316.135C824.416,316.299 822.842,316.38 821.268,316.38C820.813,316.38 820.148,316.365 819.272,316.332C818.381,316.299 817.458,316.234 816.501,316.135C815.561,316.037 814.669,315.924 813.771,315.786L813.717,315.775C812.489,315.539 811.608,315.206 810.992,314.846L810.944,314.816C810.522,314.547 810.117,314.245 809.729,313.908C809.754,314.025 809.778,314.141 809.802,314.257L810.443,317.307L797.871,319.21L797.116,316.802C796.627,315.243 796.138,313.699 795.646,312.162L795.643,312.154C795.377,311.305 795.115,310.455 794.857,309.606C794.857,309.606 788.064,309.854 788.064,309.854L786.618,316.058L778.218,316.058L778.259,316.563L775.309,316.786C771.651,317.063 768.008,317.324 764.382,317.57C760.784,317.816 757.155,318.047 753.495,318.262L750.457,318.441L750.378,315.399C750.268,311.205 750.174,307.035 750.096,302.888C749.85,303.283 749.587,303.633 749.309,303.941C749.299,303.952 749.289,303.964 749.278,303.975C749.26,303.996 749.24,304.017 749.221,304.037C748.79,304.473 747.75,305.154 745.855,305.556L745.821,305.562C744.812,305.752 743.583,305.957 742.105,306.182L742.078,306.185C740.682,306.371 739.177,306.558 737.563,306.744C735.959,306.929 734.432,307.099 732.954,307.256L732.925,307.258C731.779,307.358 730.755,307.448 729.852,307.527L729.483,317.124L726.832,317.295C725.783,317.362 724.752,317.379 723.688,317.344L723.639,317.34C722.783,317.283 721.913,317.255 721.028,317.255C720.464,317.255 719.899,317.269 719.335,317.297C718.77,317.325 718.205,317.368 717.64,317.424L714.402,317.748L714.402,305.935C714.402,303.154 714.342,300.343 714.22,297.491L714.22,297.48C714.183,296.427 714.146,295.377 714.108,294.329C711.474,294.465 706.838,294.705 706.838,294.705C706.793,295.572 706.755,296.436 706.725,297.295C706.665,299.01 706.635,300.724 706.635,302.438C706.635,304.635 706.572,306.831 706.447,309.028C706.354,311.166 706.23,313.305 706.075,315.443L705.888,318.027L703.301,318.171C702.183,318.233 701.064,318.279 699.974,318.309C698.82,318.373 697.666,318.405 696.512,318.405C696.076,318.405 695.641,318.39 695.208,318.359L691.168,318.359L691.267,315.318C691.328,313.462 691.374,311.622 691.405,309.774L691.405,309.75C691.466,307.911 691.496,306.087 691.496,304.278C691.496,302.487 691.451,300.695 691.361,298.902C691.317,297.996 691.269,297.089 691.217,296.183C690.342,296.212 689.454,296.226 688.551,296.226L686.986,296.226C686.44,296.226 685.876,296.209 685.295,296.175L682.633,296.018L682.525,293.354C682.481,292.249 682.443,291.147 682.412,290.048C682.095,290.065 681.778,290.083 681.461,290.1L681.534,290.598C681.698,291.71 681.813,292.807 681.88,293.887C681.977,294.972 682.026,296.074 682.026,297.192C682.026,297.653 682.011,298.13 681.98,298.622L681.98,302.325L671.249,304.248C671.249,304.248 671.267,304.394 671.267,304.394C672.605,304.276 673.938,304.138 675.266,303.979C677.629,303.668 680.009,303.404 682.404,303.186L685.198,302.932L685.587,305.711C685.802,307.245 686.016,308.795 686.231,310.36C686.429,311.77 686.711,313.152 687.077,314.506L688.091,318.248L684.214,318.221C679.875,318.19 675.567,318.19 671.289,318.221C666.984,318.282 662.648,318.313 658.282,318.313L657.244,318.313C656.789,318.404 656.333,318.493 655.878,318.578C654.402,318.892 652.895,319.174 651.357,319.425L649.475,319.732L648.424,318.14C646.588,315.354 644.767,312.615 642.95,309.906L642.94,309.89C641.798,308.138 640.624,306.392 639.419,304.653L637.805,306.221L637.265,318.208L632.275,317.991L630.314,317.991C629.72,317.991 629.14,318.005 628.575,318.033C628.058,318.059 627.541,318.111 627.024,318.188L625.361,318.438L625.4,318.53L624.622,318.549L624.055,318.634L624.046,318.563L604.884,319.022L604.615,316.302C604.384,313.957 604.038,311.799 603.575,309.831C603.26,308.491 602.857,307.106 602.366,305.672C602.111,305.693 601.856,305.716 601.601,305.739C601.532,305.745 601.464,305.752 601.395,305.758L601.626,316.272L598.774,316.422C596.974,316.517 595.173,316.565 593.373,316.565C592.448,316.565 591.538,316.548 590.642,316.517C590.158,316.499 589.669,316.471 589.175,316.434L589.358,317.307L576.787,319.21L576.032,316.802C575.543,315.243 575.054,313.699 574.562,312.162L574.559,312.154C574.293,311.305 574.031,310.455 573.773,309.606C573.773,309.606 566.98,309.854 566.98,309.854L565.534,316.058L554.325,316.058ZM655.779,287.826C653.153,290.563 649.133,294.753 649.133,294.754C651.013,297.522 652.902,300.251 654.802,302.941C655.092,303.346 655.383,303.752 655.674,304.158C655.787,300.76 655.822,289.541 655.779,287.826ZM837.907,296.255L834.768,295.069C833.587,294.623 832.353,294.309 831.037,294.121L831.008,294.117C829.665,293.897 828.335,293.787 827.02,293.787C826.784,293.787 826.442,293.816 825.993,293.863L825.917,293.871L825.84,293.875C825.319,293.902 824.73,293.958 824.011,294.048L823.951,294.053C823.283,294.109 822.587,294.192 821.863,294.304C821.209,294.408 820.594,294.539 820.018,294.696C819.664,294.792 819.338,294.898 819.038,295.018C818.995,295.329 818.952,295.655 818.909,295.997C818.882,296.424 818.856,296.84 818.829,297.243L818.829,298.251C818.829,298.49 818.86,298.97 818.913,299.689C818.973,300.496 819.047,301.362 819.137,302.287C819.185,302.77 819.238,303.23 819.296,303.672C820.475,303.649 821.719,303.579 823.03,303.462C824.693,303.313 826.371,303.121 828.063,302.883C829.82,302.611 831.548,302.338 833.245,302.065C834.886,301.772 836.414,301.493 837.83,301.228C837.869,299.577 837.894,297.92 837.907,296.255ZM623.448,313.971C623.157,311.706 622.876,309.449 622.603,307.191L622.601,307.174C622.314,304.53 622.053,301.874 621.819,299.204C621.597,299.458 621.362,299.702 621.113,299.936C620.101,300.887 618.932,301.636 617.601,302.165C619.764,306.032 621.713,309.967 623.448,313.971ZM602.566,293.127C603.132,293.168 603.688,293.189 604.233,293.189C604.504,293.189 604.897,293.174 605.416,293.147L605.42,293.147C605.937,293.121 606.454,293.069 606.981,292.99L606.991,292.988C607.235,292.954 607.467,292.914 607.689,292.868L607.693,292.825C607.717,292.504 607.73,292.196 607.73,291.9L607.73,291.778L607.74,291.656C607.761,291.403 607.776,291.224 607.776,291.118C607.776,290.924 607.762,290.656 607.737,290.316L607.73,290.211L607.73,290.106C607.73,289.818 607.709,289.53 607.667,289.228C607.649,289.227 607.63,289.225 607.612,289.224L607.493,289.216L607.374,289.197C607.125,289.159 606.875,289.14 606.626,289.14L606.503,289.14L606.381,289.129C606.128,289.108 605.949,289.094 605.843,289.094C604.719,289.094 603.609,289.149 602.513,289.262C602.354,289.279 602.194,289.296 602.035,289.314L602.566,293.127ZM728.082,294.237C728.743,294.19 729.427,294.137 730.138,294.076C731.091,293.965 731.992,293.829 732.879,293.657C733.073,293.609 733.292,293.537 733.42,293.493C733.426,293.473 733.432,293.449 733.435,293.418L733.443,293.368C733.541,292.759 733.59,292.163 733.59,291.578C733.59,291.357 733.577,291.074 733.552,290.73C733.532,290.457 733.494,290.193 733.436,289.94L733.431,289.919C733.403,289.916 733.374,289.914 733.346,289.912C733.063,289.888 732.792,289.876 732.532,289.876L732.399,289.876L732.266,289.864C732.05,289.844 731.894,289.83 731.796,289.83C730.766,289.83 729.737,289.885 728.707,289.997C728.48,290.021 728.251,290.047 728.022,290.075C728.022,290.113 728.023,290.151 728.021,290.154C728.053,291.074 728.069,291.993 728.069,292.913C728.069,293.353 728.073,293.794 728.082,294.237ZM569.164,297.51L570.887,297.465C570.856,297.291 570.824,297.115 570.791,296.937L570.789,296.928C570.703,296.444 570.606,295.995 570.497,295.582L569.629,295.582C569.619,295.617 569.609,295.653 569.599,295.689C569.48,296.195 569.347,296.743 569.207,297.298C569.192,297.369 569.178,297.44 569.164,297.51ZM790.248,297.51L791.971,297.465C791.94,297.291 791.908,297.115 791.875,296.937L791.873,296.928C791.787,296.444 791.69,295.995 791.581,295.582L790.713,295.582C790.703,295.617 790.693,295.653 790.683,295.689C790.564,296.195 790.431,296.743 790.291,297.298C790.276,297.369 790.262,297.44 790.248,297.51Z" style="fill:rgb(249,246,189);"/>
                </g>
                <g transform="matrix(2.77229e-17,0.45275,-0.45275,2.77229e-17,453.886,131.748)">
                    <path d="M658.289,315.088C657.293,315.303 656.297,315.503 655.3,315.69C653.859,315.997 652.386,316.273 650.883,316.518C649.042,313.727 647.217,310.981 645.407,308.282C643.628,305.552 641.772,302.837 639.839,300.137L634.916,304.923L634.456,315.138L632.339,315.046L630.314,315.046C629.67,315.046 629.041,315.061 628.428,315.092C627.814,315.123 627.201,315.184 626.587,315.276C626.219,312.454 625.866,309.647 625.529,306.855C625.222,304.033 624.946,301.195 624.7,298.343C624.455,295.49 624.256,292.652 624.102,289.83L623.734,281.271C626.035,281.332 628.305,281.378 630.544,281.409C632.814,281.409 635.1,281.44 637.401,281.501L637.124,292.177C638.781,290.459 640.345,288.71 641.818,286.931C643.29,285.152 644.809,283.342 646.373,281.501C647.846,281.409 649.334,281.317 650.837,281.225C652.34,281.102 653.828,280.98 655.3,280.857L655.116,284.262L645.361,294.431C647.693,297.898 650.039,301.303 652.401,304.647C654.353,307.374 656.335,310.122 658.348,312.89C658.424,310.133 658.51,307.385 658.604,304.647C658.727,301.088 658.788,297.499 658.788,293.879L658.788,293.005C658.788,290.919 658.758,288.848 658.696,286.793C658.635,284.707 658.574,282.605 658.512,280.489C660.936,280.519 663.344,280.535 665.737,280.535C668.16,280.504 670.599,280.489 673.053,280.489C674.924,280.489 676.78,280.535 678.621,280.627C680.492,280.688 682.363,280.765 684.235,280.857L684.741,286.977C681.735,287.13 678.744,287.299 675.768,287.483C672.823,287.636 669.847,287.836 666.841,288.081L666.749,291.716L678.621,291.026C678.774,292.069 678.882,293.097 678.943,294.109C679.035,295.121 679.081,296.149 679.081,297.192C679.081,297.622 679.066,298.066 679.035,298.527L679.035,299.861L667.991,301.84L668.682,307.546C671.013,307.392 673.329,307.177 675.63,306.901C677.961,306.595 680.308,306.334 682.67,306.119C682.885,307.653 683.1,309.202 683.314,310.767C683.529,312.3 683.836,313.804 684.235,315.276C679.879,315.245 675.553,315.245 671.258,315.276C666.964,315.337 662.638,315.368 658.282,315.368C658.285,315.275 658.287,315.181 658.289,315.088ZM551.38,315.782C550.797,315.752 550.23,315.706 549.677,315.644C549.217,315.583 548.757,315.537 548.297,315.506C547.867,315.475 547.545,315.46 547.331,315.46C546.134,315.46 544.938,315.475 543.741,315.506C542.545,315.568 541.364,315.66 540.198,315.782C540.229,314.494 540.244,313.236 540.244,312.009C540.275,310.751 540.29,309.478 540.29,308.19C540.29,305.889 540.244,303.604 540.152,301.334L539.968,294.523L530.305,316.38C528.894,312.546 527.375,308.788 525.749,305.107C524.154,301.395 522.482,297.698 520.734,294.017L521.47,316.749C521.133,316.749 520.78,316.733 520.412,316.703L519.353,316.703C518.188,316.703 517.037,316.749 515.902,316.841C514.798,316.933 513.678,317.025 512.543,317.117C512.697,314.264 512.85,311.426 513.003,308.604C513.157,305.782 513.233,302.944 513.233,300.091C513.233,296.747 513.203,293.419 513.141,290.106C513.111,286.793 513.08,283.464 513.049,280.121C515.258,280.121 517.405,280.059 519.491,279.936C521.608,279.814 523.771,279.645 525.98,279.43C526.716,281.884 527.467,284.323 528.234,286.747C529.032,289.14 529.876,291.532 530.765,293.925C531.716,291.655 532.79,289.431 533.986,287.253C535.213,285.075 536.456,282.912 537.713,280.765C539.799,280.703 541.855,280.642 543.879,280.581C545.935,280.519 548.005,280.473 550.091,280.443C550.184,283.204 550.291,285.934 550.414,288.633C550.567,291.333 550.705,294.063 550.828,296.824C550.92,299.002 550.996,301.18 551.058,303.358C551.15,305.536 551.227,307.699 551.288,309.846L551.38,313.712L551.38,315.782ZM585.836,314.862L578.842,315.92C578.351,314.356 577.86,312.807 577.369,311.273C576.878,309.708 576.403,308.144 575.943,306.579L564.623,306.993L563.197,313.113L556.11,313.113C556.54,307.898 556.985,302.714 557.445,297.56C557.905,292.407 558.35,287.238 558.779,282.053C560.988,281.685 563.181,281.378 565.359,281.133C567.568,280.887 569.792,280.765 572.031,280.765C574.762,280.765 577.492,280.811 580.222,280.903C580.713,284.093 581.188,287.284 581.649,290.474C582.139,293.634 582.646,296.809 583.167,299.999C583.535,302.515 583.934,304.999 584.364,307.454C584.824,309.908 585.315,312.377 585.836,314.862ZM574.332,300.321C574.302,300.045 574.225,299.539 574.102,298.803C573.979,298.036 573.841,297.238 573.688,296.41C573.535,295.551 573.351,294.784 573.136,294.109C572.952,293.404 572.768,292.989 572.584,292.867C572.522,292.836 572.369,292.805 572.124,292.775C571.909,292.744 571.663,292.713 571.387,292.683C571.142,292.652 570.896,292.637 570.651,292.637L569.501,292.637C569.255,292.637 568.979,292.652 568.672,292.683C568.396,292.683 568.12,292.713 567.844,292.775C567.599,292.836 567.43,292.913 567.338,293.005C567.277,293.035 567.2,293.235 567.108,293.603C567.016,293.971 566.893,294.431 566.74,294.983C566.617,295.505 566.479,296.072 566.326,296.686C566.203,297.3 566.08,297.882 565.957,298.435C565.835,298.987 565.727,299.462 565.635,299.861C565.574,300.26 565.528,300.49 565.497,300.551L574.332,300.321ZM621.396,291.854C621.396,294.37 620.63,296.349 619.096,297.79C617.562,299.232 615.537,300.014 613.022,300.137C616.059,305.199 618.712,310.383 620.982,315.69L607.546,316.012C607.301,313.528 606.932,311.242 606.442,309.156C605.951,307.07 605.261,304.877 604.371,302.576C603.359,302.637 602.346,302.714 601.334,302.806C600.352,302.898 599.371,302.975 598.389,303.036L598.619,313.482C596.87,313.574 595.122,313.62 593.373,313.62C592.484,313.62 591.609,313.604 590.75,313.574C589.922,313.543 589.079,313.482 588.22,313.389C588.434,310.567 588.634,307.76 588.818,304.969C589.002,302.146 589.109,299.34 589.14,296.548C589.232,291.578 589.37,286.609 589.554,281.639C592.438,281.486 595.306,281.317 598.159,281.133C601.042,280.949 603.926,280.857 606.81,280.857C607.546,280.857 608.344,280.872 609.202,280.903C610.061,280.933 610.92,281.026 611.779,281.179C612.669,281.302 613.513,281.486 614.31,281.731C615.138,281.976 615.875,282.299 616.519,282.697C618.083,283.679 619.28,284.998 620.108,286.655C620.967,288.281 621.396,290.014 621.396,291.854ZM610.721,291.118C610.721,290.873 610.706,290.535 610.675,290.106C610.675,289.676 610.644,289.247 610.583,288.817C610.522,288.357 610.43,287.943 610.307,287.575C610.184,287.176 610.015,286.885 609.801,286.701C609.647,286.578 609.387,286.486 609.018,286.425C608.65,286.363 608.251,286.317 607.822,286.287C607.423,286.225 607.024,286.195 606.626,286.195C606.258,286.164 605.997,286.149 605.843,286.149C604.616,286.149 603.405,286.21 602.208,286.333C601.042,286.455 599.877,286.609 598.711,286.793L599.953,295.72C600.628,295.873 601.334,295.98 602.07,296.042C602.806,296.103 603.527,296.134 604.233,296.134C604.54,296.134 604.984,296.118 605.567,296.088C606.181,296.057 606.794,295.996 607.408,295.904C608.052,295.812 608.635,295.689 609.156,295.536C609.709,295.352 610.092,295.121 610.307,294.845C610.399,294.723 610.476,294.493 610.537,294.155C610.598,293.787 610.629,293.419 610.629,293.051C610.66,292.652 610.675,292.269 610.675,291.9C610.706,291.532 610.721,291.272 610.721,291.118ZM712.939,288.219L712.939,291.44L704.058,291.9C703.935,293.68 703.843,295.444 703.782,297.192C703.721,298.941 703.69,300.689 703.69,302.438C703.69,304.585 703.629,306.733 703.506,308.88C703.414,310.997 703.291,313.113 703.138,315.23C702.033,315.291 700.929,315.337 699.825,315.368C698.72,315.429 697.616,315.46 696.512,315.46C696.113,315.46 695.714,315.445 695.315,315.414L694.211,315.414C694.272,313.543 694.318,311.687 694.349,309.846C694.41,307.975 694.441,306.119 694.441,304.278C694.441,302.438 694.395,300.597 694.303,298.757C694.211,296.885 694.103,295.014 693.981,293.143C693.091,293.174 692.186,293.204 691.266,293.235C690.376,293.266 689.471,293.281 688.551,293.281L686.986,293.281C686.496,293.281 685.989,293.266 685.468,293.235C685.376,290.965 685.315,288.71 685.284,286.471L685.192,279.752C689.793,279.844 694.364,279.983 698.904,280.167C703.444,280.32 708,280.458 712.571,280.581C712.693,281.9 712.786,283.188 712.847,284.446C712.908,285.673 712.939,286.931 712.939,288.219ZM749.42,291.9C749.42,292.575 749.374,293.388 749.282,294.339C749.22,295.29 749.098,296.257 748.914,297.238C748.76,298.22 748.53,299.14 748.223,299.999C747.917,300.858 747.533,301.533 747.073,302.024C746.889,302.238 746.291,302.453 745.278,302.668C744.297,302.852 743.1,303.051 741.689,303.266C740.309,303.45 738.821,303.634 737.226,303.818C735.63,304.002 734.112,304.171 732.67,304.324C731.259,304.447 730.032,304.555 728.989,304.647C727.946,304.739 727.286,304.785 727.01,304.785L726.642,314.356C725.691,314.417 724.756,314.432 723.835,314.402C722.915,314.34 721.979,314.31 721.028,314.31C720.415,314.31 719.801,314.325 719.188,314.356C718.574,314.386 717.961,314.432 717.347,314.494L717.347,305.935C717.347,303.113 717.286,300.26 717.163,297.376C717.071,294.769 716.979,292.177 716.887,289.6C716.826,287.023 716.764,284.431 716.703,281.823C719.863,281.608 723.038,281.348 726.228,281.041C729.449,280.703 732.655,280.535 735.845,280.535C736.397,280.535 737.272,280.596 738.468,280.719C739.664,280.811 740.922,280.98 742.241,281.225C743.56,281.44 744.772,281.716 745.877,282.053C747.012,282.391 747.763,282.774 748.131,283.204C748.377,283.48 748.576,284.017 748.729,284.814C748.914,285.612 749.052,286.471 749.144,287.391C749.236,288.281 749.297,289.155 749.328,290.014C749.389,290.873 749.42,291.502 749.42,291.9ZM736.535,291.578C736.535,291.302 736.52,290.949 736.489,290.52C736.459,290.09 736.397,289.676 736.305,289.278C736.244,288.848 736.137,288.465 735.983,288.127C735.83,287.759 735.63,287.498 735.385,287.345C735.232,287.253 734.986,287.176 734.649,287.115C734.311,287.053 733.959,287.007 733.59,286.977C733.222,286.946 732.87,286.931 732.532,286.931C732.195,286.9 731.949,286.885 731.796,286.885C730.661,286.885 729.526,286.946 728.391,287.069C727.256,287.192 726.105,287.345 724.94,287.529C725.032,288.449 725.078,289.354 725.078,290.244C725.108,291.134 725.124,292.023 725.124,292.913C725.124,294.355 725.17,295.812 725.262,297.284C725.661,297.284 726.351,297.269 727.332,297.238C728.314,297.177 729.342,297.1 730.415,297.008C731.489,296.885 732.501,296.732 733.452,296.548C734.403,296.333 735.048,296.057 735.385,295.72C735.937,295.198 736.259,294.569 736.351,293.833C736.474,293.066 736.535,292.315 736.535,291.578ZM775.087,313.85C771.436,314.126 767.801,314.386 764.181,314.632C760.592,314.877 756.972,315.107 753.322,315.322C753.168,309.463 753.046,303.65 752.954,297.882C752.862,292.084 752.693,286.241 752.447,280.351C754.503,280.32 756.527,280.259 758.521,280.167C760.515,280.075 762.525,279.952 764.549,279.798C764.212,282.069 763.89,284.354 763.583,286.655C763.307,288.925 763.092,291.21 762.939,293.511C762.816,295.444 762.709,297.376 762.617,299.309C762.555,301.211 762.494,303.128 762.433,305.061C764.457,305.122 766.451,305.153 768.415,305.153C770.409,305.153 772.403,305.183 774.397,305.245L775.087,313.85ZM806.92,314.862L799.926,315.92C799.435,314.356 798.944,312.807 798.453,311.273C797.963,309.708 797.487,308.144 797.027,306.579L785.707,306.993L784.281,313.113L777.194,313.113C777.624,307.898 778.069,302.714 778.529,297.56C778.989,292.407 779.434,287.238 779.863,282.053C782.072,281.685 784.265,281.378 786.443,281.133C788.652,280.887 790.876,280.765 793.116,280.765C795.846,280.765 798.576,280.811 801.306,280.903C801.797,284.093 802.273,287.284 802.733,290.474C803.224,293.634 803.73,296.809 804.251,299.999C804.619,302.515 805.018,304.999 805.448,307.454C805.908,309.908 806.399,312.377 806.92,314.862ZM795.416,300.321C795.386,300.045 795.309,299.539 795.186,298.803C795.064,298.036 794.926,297.238 794.772,296.41C794.619,295.551 794.435,294.784 794.22,294.109C794.036,293.404 793.852,292.989 793.668,292.867C793.606,292.836 793.453,292.805 793.208,292.775C792.993,292.744 792.747,292.713 792.471,292.683C792.226,292.652 791.981,292.637 791.735,292.637L790.585,292.637C790.339,292.637 790.063,292.652 789.757,292.683C789.48,292.683 789.204,292.713 788.928,292.775C788.683,292.836 788.514,292.913 788.422,293.005C788.361,293.035 788.284,293.235 788.192,293.603C788.1,293.971 787.977,294.431 787.824,294.983C787.701,295.505 787.563,296.072 787.41,296.686C787.287,297.3 787.164,297.882 787.042,298.435C786.919,298.987 786.812,299.462 786.72,299.861C786.658,300.26 786.612,300.49 786.581,300.551L795.416,300.321ZM838.523,304.094L838.477,311.273C837.066,311.549 835.67,311.81 834.29,312.055C832.909,312.3 831.514,312.515 830.103,312.699C828.63,312.883 827.158,313.052 825.685,313.205C824.213,313.359 822.74,313.435 821.268,313.435C820.838,313.435 820.209,313.42 819.381,313.389C818.553,313.359 817.694,313.297 816.804,313.205C815.915,313.113 815.071,313.006 814.273,312.883C813.476,312.73 812.893,312.546 812.525,312.331C812.187,312.116 811.865,311.871 811.558,311.595C811.252,311.288 810.976,310.981 810.73,310.675C810.086,309.877 809.549,309.003 809.12,308.052C808.69,307.101 808.353,306.119 808.107,305.107C807.862,304.094 807.678,303.067 807.555,302.024C807.463,300.981 807.417,299.953 807.417,298.941C807.417,297.714 807.478,296.441 807.601,295.121C807.755,293.802 807.985,292.499 808.291,291.21C808.598,289.922 808.997,288.679 809.488,287.483C810.009,286.287 810.638,285.182 811.374,284.17C811.589,283.894 811.865,283.556 812.203,283.158C812.54,282.759 812.878,282.467 813.215,282.283C814.043,281.823 814.964,281.44 815.976,281.133C817.019,280.826 818.093,280.596 819.197,280.443C820.301,280.259 821.39,280.136 822.464,280.075C823.568,279.983 824.581,279.936 825.501,279.936C827.25,279.936 828.998,280.044 830.747,280.259C832.495,280.443 834.198,280.78 835.854,281.271C835.793,282.099 835.747,282.943 835.716,283.802C835.686,284.63 835.67,285.458 835.67,286.287C835.67,288.281 835.716,290.29 835.808,292.315C834.428,291.793 832.986,291.425 831.483,291.21C829.98,290.965 828.492,290.842 827.02,290.842C826.713,290.842 826.268,290.873 825.685,290.934C825.102,290.965 824.443,291.026 823.706,291.118C822.97,291.18 822.203,291.272 821.406,291.394C820.639,291.517 819.918,291.67 819.243,291.854C818.568,292.038 817.97,292.253 817.448,292.499C816.958,292.744 816.635,293.005 816.482,293.281C816.359,293.526 816.252,293.879 816.16,294.339C816.099,294.769 816.037,295.229 815.976,295.72C815.945,296.211 815.915,296.686 815.884,297.146L815.884,298.251C815.884,298.527 815.915,299.079 815.976,299.907C816.037,300.735 816.114,301.625 816.206,302.576C816.298,303.496 816.405,304.34 816.528,305.107C816.681,305.874 816.835,306.318 816.988,306.441C817.142,306.533 817.387,306.595 817.724,306.625L818.461,306.625C819.964,306.625 821.574,306.549 823.292,306.395C825.01,306.242 826.743,306.042 828.492,305.797C830.271,305.521 832.02,305.245 833.738,304.969C835.456,304.662 837.051,304.371 838.523,304.094ZM866.813,286.977C863.807,287.13 860.816,287.299 857.84,287.483C854.895,287.636 851.92,287.836 848.914,288.081L848.821,291.716L860.693,291.026C860.847,292.069 860.954,293.097 861.015,294.109C861.108,295.121 861.154,296.149 861.154,297.192C861.154,297.622 861.138,298.066 861.108,298.527L861.108,299.861L850.064,301.84L850.754,307.546C853.086,307.392 855.402,307.177 857.702,306.901C860.034,306.595 862.381,306.334 864.743,306.119C864.957,307.653 865.172,309.202 865.387,310.767C865.602,312.3 865.908,313.804 866.307,315.276C861.951,315.245 857.626,315.245 853.331,315.276C849.036,315.337 844.711,315.368 840.355,315.368C840.447,311.779 840.554,308.205 840.677,304.647C840.8,301.088 840.861,297.499 840.861,293.879L840.861,293.005C840.861,290.919 840.83,288.848 840.769,286.793C840.707,284.707 840.646,282.605 840.585,280.489C843.008,280.519 845.416,280.535 847.809,280.535C850.233,280.504 852.671,280.489 855.126,280.489C856.997,280.489 858.853,280.535 860.693,280.627C862.565,280.688 864.436,280.765 866.307,280.857L866.813,286.977Z" style="fill:rgb(71,0,0);"/>
                </g>
            </g>
        </g>
    </g>
</svg>
