<svg width="243" height="47" viewBox="0 0 243 47" fill="none" xmlns="http://www.w3.org/2000/svg">
<g clip-path="url(#clip0_376_2)">
<path fill-rule="evenodd" clip-rule="evenodd" d="M4.68503 5.70254C4.68503 5.70254 17.2204 2.99726 44.0378 2.97663C70.8551 2.956 95.5989 5.12494 125.701 2.97663C155.803 0.828317 161.465 3.63527 188.057 2.97663C214.65 2.31799 233.9 2.97663 233.9 2.97663L241.212 5.70254V29.1307H237.433L241.212 32.9617V40.4027C241.212 40.4027 168.346 39.3197 147.719 42.0972C127.092 44.8746 41.1278 44.2469 36.8902 44.4547C32.6526 44.6625 24.1634 42.2983 19.391 42.0972C14.6185 41.896 11.0932 40.4027 11.0932 40.4027L1.72742 30.0147C1.72742 30.0147 2.94826 23.4748 9.12146 23.3841C9.12146 23.3841 5.10074 23.4814 4.68503 20.5845C4.07626 16.3439 4.48046 8.44908 4.68503 5.70254Z" fill="#DC7339"/>
<path fill-rule="evenodd" clip-rule="evenodd" d="M233.855 2.74805C234.689 4.03365 234.876 5.39661 233.855 6.9047C233.855 6.9047 235.248 9.19446 233.485 11.4496C233.485 11.4496 233.79 14.9064 231.678 16.0173C231.678 16.0173 232.753 20.1666 231.678 23.6057C231.678 23.6057 235.216 26.9807 233.485 29.6469L235.553 30.531L241.701 29.6469V5.3664L238.579 3.74779L233.855 2.74805Z" fill="#A93618"/>
<path fill-rule="evenodd" clip-rule="evenodd" d="M182.433 23.9746L231.645 23.5325C231.645 23.5325 232 24.0084 232.138 22.6484C232.138 22.6484 183.037 24.2648 182.433 23.9746Z" fill="#FFA257"/>
<path fill-rule="evenodd" clip-rule="evenodd" d="M18.5322 23.0166V23.7533L11.7132 27.0686L10.6452 27.9527L8.34482 27.0686L5.38721 25.1531V23.7533L7.35895 23.0166H18.5322Z" fill="#D0501F"/>
<path fill-rule="evenodd" clip-rule="evenodd" d="M77.615 39.297C72.6692 40.5171 53.6953 39.4378 50.4172 39.4164C36.7095 39.3258 31.781 42.6492 30.5955 44.452L29.5389 43.87C30.5084 42.4525 35.0187 37.6048 54.1553 38.9331C56.0277 39.0635 73.2164 40.2563 77.615 39.297Z" fill="#AE3F07"/>
<path fill-rule="evenodd" clip-rule="evenodd" d="M241.37 11.5878L241.338 12.8247C229.317 12.2243 220.919 10.3405 209.45 11.2592C196.888 12.2663 193.188 13.8149 175.155 14.1752C194.13 13.4443 197.918 11.6077 211.086 10.4665C220.636 9.63837 232.1 11.3527 241.37 11.5878Z" fill="#71150A"/>
<path fill-rule="evenodd" clip-rule="evenodd" d="M6.20874 30.7592C6.20874 30.7592 7.70644 32.2136 9.98792 35.0986C12.2694 37.9836 13.3522 39.8748 16.1496 40.7714C18.947 41.668 27.2218 42.9183 29.3767 42.4659C31.5317 42.0136 32.4165 41.5818 32.4165 41.5818C32.4165 41.5818 25.9098 43.0671 21.7716 40.7714C17.6325 38.4758 14.26 35.0986 14.26 35.0986L12.3704 30.7592L6.20874 28.7627V30.7592Z" fill="#B73A1E"/>
<path fill-rule="evenodd" clip-rule="evenodd" d="M222.559 2.97689C222.559 2.97689 210.639 4.83199 204.156 5.70281C197.672 6.57363 145.139 1.59257 136.952 2.97689C128.765 4.36122 110.572 4.82757 88.7266 2.97689C88.7266 2.97689 133.766 1.4386 140.567 1.28241C147.368 1.12622 180.444 3.63553 184.028 2.97689C187.611 2.31826 222.559 2.97689 222.559 2.97689Z" fill="#FAAA55"/>
<path fill-rule="evenodd" clip-rule="evenodd" d="M11.2534 30.8253C11.2534 30.8253 10.9034 31.1834 22.8374 30.8253C34.7714 30.4673 35.8016 29.4815 41.076 30.8253C46.3504 32.1691 60.5848 30.843 64.5726 30.8253C68.5605 30.8077 120.558 30.5027 125.122 30.8253C129.685 31.148 139.91 29.1309 139.91 29.1309H8.04932L11.2534 30.8253Z" fill="#FAAA55"/>
<path fill-rule="evenodd" clip-rule="evenodd" d="M39.654 25.0748C32.5236 23.9454 29.1092 23.6529 17.8506 25.0748C27.9131 22.5847 30.7795 22.4086 39.654 25.0748Z" fill="#FAAA55"/>
<path fill-rule="evenodd" clip-rule="evenodd" d="M4.35229 25.8164C4.35229 25.8164 4.6612 23.8501 6.40619 24.343C8.15119 24.8358 8.58415 26.8825 11.0891 26.7742C11.0891 26.7742 8.06246 29.2253 6.40619 28.4687C4.74993 27.712 4.63491 26.797 4.35229 25.8164Z" fill="#9B2C11"/>
<path fill-rule="evenodd" clip-rule="evenodd" d="M2.29842 30.5312C2.29842 30.5312 3.88896 28.1714 6.32406 30.5312C8.75916 32.891 9.93153 33.7176 10.9248 35.541C11.9181 37.3644 12.9721 39.9688 16.7579 40.8455C20.5436 41.7222 27.425 43.0196 33.7642 40.8455H35.8181C35.8181 40.8455 31.3586 41.7671 29.6564 44.0871H20.2906L10.9248 41.9506L6.32406 37.6775L-0.00195312 30.5312H2.29842Z" fill="#91291E"/>
<path fill-rule="evenodd" clip-rule="evenodd" d="M63.8587 34.4678L64.4724 35.1404C64.0953 35.4336 62.3774 36.7701 58.8669 37.2033C54.8026 37.7035 51.0276 36.5977 50.0195 36.3229L50.0425 36.233C51.0276 36.443 54.8322 37.3322 58.7782 36.6198C62.2353 35.9958 63.8143 34.5039 63.8587 34.4678Z" fill="#B03A14"/>
<path fill-rule="evenodd" clip-rule="evenodd" d="M241.346 15.6035L241.323 17.3952C227.803 17.0291 223.256 17.4984 213.017 19.4603C209.805 20.0762 205.882 20.8306 200.484 21.3773C196.137 21.8171 201.786 21.2999 208.179 19.948C213.098 18.9078 217.04 17.7621 222.206 16.9355C230.156 15.6617 238.227 15.6499 241.346 15.6035Z" fill="#470000"/>
<path fill-rule="evenodd" clip-rule="evenodd" d="M240.691 15.0371C222.124 12.2883 215.056 11.5899 203.366 12.6803C195.231 13.4391 189.934 14.0432 176.38 14.2127C199.351 13.2652 201.885 11.5265 212.22 11.184C221.735 10.8679 233.706 12.3959 240.937 13.2623L240.691 15.0371Z" fill="#A93618"/>
<path fill-rule="evenodd" clip-rule="evenodd" d="M241.608 23.4434L241.604 24.5772C212.265 24.2442 212.265 24.5934 185.098 24.0806C175.911 23.9068 189.003 24.0843 204.824 23.8994C220.89 23.7115 220.886 23.5922 241.608 23.4434Z" fill="#490B02"/>
<path fill-rule="evenodd" clip-rule="evenodd" d="M239.406 29.203L239.279 31.1649C236.526 30.9749 224.021 30.1136 204.826 29.312C186.993 28.5679 178.189 28.5569 175.897 28.537C177.886 28.4913 186.747 28.2187 204.85 28.4125C212.536 28.495 228.397 28.7566 239.406 29.203Z" fill="#470000"/>
<path fill-rule="evenodd" clip-rule="evenodd" d="M176.376 42.1802L175.691 40.5247C193.134 33.7284 202.211 30.7954 214.356 32.1415C218.29 32.5776 221.815 33.2782 230.917 34.9602L230.901 35.053C216.194 32.7898 209.858 31.4475 199.747 33.7645C191.381 35.6822 181.264 40.1048 176.376 42.1802Z" fill="#AD3E11"/>
<path fill-rule="evenodd" clip-rule="evenodd" d="M138.734 11.3988C133.321 10.4484 128.778 9.67043 123.132 10.0071C118.402 10.2886 115.438 11.0481 106.373 11.3922C117.858 9.9828 119.17 9.19302 123.841 8.96095C129.051 8.70162 134.574 10.2164 138.734 11.3988Z" fill="#AD3E11"/>
<path fill-rule="evenodd" clip-rule="evenodd" d="M106.173 4.86444L106.181 4.64268C122.051 5.08914 122.092 5.43615 134.013 3.86248C138.071 3.32688 141.87 2.69624 147.644 2.86053C154.286 3.04987 156.119 3.66946 171.615 4.07466L171.554 5.86492C149.051 4.73772 148.388 3.18175 136.876 4.44524C132.461 4.93001 127.66 5.47372 123.957 5.59307C120.214 5.71242 119.033 5.53487 106.173 4.86444Z" fill="#D5521E"/>
<path fill-rule="evenodd" clip-rule="evenodd" d="M5.0885 16.0991L5.13698 15.0957C26.684 16.2288 31.4663 14.608 46.0712 20.1261L46.0088 20.2941C31.3587 15.0898 26.6906 16.8049 5.0885 16.0991Z" fill="#AD3E11"/>
<path fill-rule="evenodd" clip-rule="evenodd" d="M94.3723 26.2264L93.6879 27.8737C87.2091 25.1839 82.1631 23.8946 71.1796 23.3789C61.9938 22.9472 56.5559 23.0135 47.7299 20.8607L47.7553 20.7539C62.909 23.8791 72.1384 21.1016 85.3335 23.5962C90.2867 24.5326 94.2425 26.177 94.3723 26.2264Z" fill="#AD3E11"/>
<path fill-rule="evenodd" clip-rule="evenodd" d="M68.989 12.3194L68.8896 12.645C68.8001 12.62 49.2864 6.40564 24.808 7.72144C20.885 7.93288 19.3676 8.18043 18.8993 8.25705L18.5773 6.49478C22.1083 6.04316 32.1577 5.61586 44.357 7.05912C57.488 8.61363 66.452 11.5304 68.989 12.3194Z" fill="#D46828"/>
<path fill-rule="evenodd" clip-rule="evenodd" d="M174.826 16.1645C174.826 16.1645 189.86 17.2667 196.351 16.1645C202.842 15.0624 219.168 12.9222 223.791 13.2176C223.791 13.2176 210.913 12.0933 197.83 14.6911C189.906 16.264 177.45 16.3369 174.826 16.1645Z" fill="#FFBD5D"/>
<path fill-rule="evenodd" clip-rule="evenodd" d="M183.124 39.5191C183.124 39.5191 236.151 39.245 240.058 38.9297C240.058 38.9297 242.601 40.9513 240.058 40.9189C237.514 40.8865 178.112 40.9189 178.112 40.9189L183.124 39.5191Z" fill="#6D1507"/>
<path fill-rule="evenodd" clip-rule="evenodd" d="M241.701 33.625C241.701 33.625 231.702 34.736 228.392 36.5719C225.082 38.4079 220.999 37.8627 217.465 37.3087C213.931 36.7554 207.627 35.0528 205.388 37.3087C203.15 39.5645 199.237 38.6429 197.83 38.8558C196.423 39.0687 184.368 38.7578 182.056 39.7399C179.743 40.7219 213.604 39.7399 213.604 39.7399H240.715L241.701 33.625Z" fill="#BC4421"/>
<path fill-rule="evenodd" clip-rule="evenodd" d="M241.343 7.24381L241.236 8.0299C240.086 7.84424 233.99 6.78851 231.187 6.58812C228.465 6.39362 226.499 6.67137 225.614 6.76346C226.496 6.62716 228.452 6.24922 231.2 6.30668C234.028 6.36562 240.17 7.11415 241.343 7.24381Z" fill="#640B03"/>
<path fill-rule="evenodd" clip-rule="evenodd" d="M64.5727 40.9927C64.5727 40.9927 65.5298 42.8861 66.3801 43.5712C67.2304 44.2564 37.379 43.5712 37.379 43.5712C37.379 43.5712 61.5214 40.8144 64.5727 40.9927Z" fill="#FBA74D"/>
<path fill-rule="evenodd" clip-rule="evenodd" d="M68.4653 44.3479L54.4446 44.7074C50.2982 44.7568 35.5619 44.5866 33.9196 44.5681C39.7058 44.2101 51.1945 43.4608 55.962 43.3385L68.4308 43.0195L68.4653 44.3479Z" fill="#AD3E11"/>
<path fill-rule="evenodd" clip-rule="evenodd" d="M33.8463 42.2447C33.8463 42.2447 39.451 41.578 44.6909 41.066C49.9308 40.5539 68.5161 39.5188 68.5161 39.5188H64.6548C64.6548 39.5188 52.3413 39.8061 46.9091 39.5188C41.477 39.2315 35.4557 40.8501 33.8463 42.2447Z" fill="#FBA74D"/>
<path fill-rule="evenodd" clip-rule="evenodd" d="M12.8145 36.0562C12.8145 36.0562 29.1701 32.9398 43.0479 35.3932L49.7847 36.0562C49.7847 36.0562 36.3374 31.8134 29.8207 32.6672C23.3041 33.5211 13.6483 34.1407 12.8145 36.0562Z" fill="#FFA257"/>
<path fill-rule="evenodd" clip-rule="evenodd" d="M10.5798 36.419L10.7762 35.2461C11.5657 35.4354 17.5582 36.8735 20.4024 38.4487C21.4129 39.0093 20.0787 38.3102 18.3239 37.8364C15.1913 36.9892 11.8344 36.5825 10.5798 36.419Z" fill="#90281F"/>
<path fill-rule="evenodd" clip-rule="evenodd" d="M42.7844 34.7205C40.9072 34.4236 37.2841 33.5638 24.9245 34.1311C16.8971 34.4995 13.2534 35.4189 12.8262 35.6119C12.7958 35.6259 12.7507 35.5987 12.7433 35.6038C12.7203 35.6193 12.6619 35.7306 12.6603 35.6083C12.6562 35.2657 18.3808 33.1712 24.7947 32.4691C31.7846 31.7036 37.7589 32.9059 42.8173 34.5923L42.7844 34.7205Z" fill="#FFA257"/>
<path fill-rule="evenodd" clip-rule="evenodd" d="M10.6963 36.245L10.1631 34.5387C18.4452 32.302 28.5217 31.3479 37.0322 32.8464C47.9524 34.7678 48.9736 36.3879 54.5536 36.8469L54.5454 37.034C48.9029 36.7725 47.8522 35.1929 36.904 33.6671C24.0014 31.8702 10.9477 36.1683 10.6963 36.245Z" fill="#90281F"/>
<path fill-rule="evenodd" clip-rule="evenodd" d="M5.38666 30.922L4.90686 29.1958C11.0152 27.5846 11.6067 26.5045 16.3906 24.396C20.9684 22.3788 25.5806 21.9817 27.043 21.8086L27.0972 22.2153C24.4994 22.6794 20.7022 23.2924 16.2912 25.63C12.0618 27.8712 11.3397 28.9711 5.38666 30.922Z" fill="#6E1004"/>
<path fill-rule="evenodd" clip-rule="evenodd" d="M20.7833 16.3857C20.7833 16.3857 26.2935 17.4658 29.6562 18.4486C33.0188 19.4314 56.5105 24.8014 60.5468 25.0055C64.5832 25.2096 64.9011 26.7273 66.5442 27.7314L67.7766 28.9102H55.5353L53.81 27.7314C53.81 27.7314 37.1176 21.0529 31.6279 20.4378C26.1383 19.8226 17.4839 17.2632 17.4971 17.2698C17.5102 17.2765 20.7833 16.3857 20.7833 16.3857Z" fill="#D05A28"/>
<path fill-rule="evenodd" clip-rule="evenodd" d="M27.2739 3.93509C27.2739 3.93509 77.8541 4.13401 80.1002 3.93509C82.3463 3.73617 86.4262 3.93509 86.4262 3.93509C86.4262 3.93509 66.5264 6.58954 62.1902 6.51365C57.854 6.43851 12.5556 5.08955 9.5282 4.96651L27.2739 3.93509Z" fill="#FAAA55"/>
<path fill-rule="evenodd" clip-rule="evenodd" d="M68.9269 12.555C68.9269 12.555 62.7981 11.5095 58.8217 11.5235C54.8454 11.5375 45.2758 10.0891 41.8976 9.75538C38.5193 9.42238 32.7372 8.34306 28.9991 8.0609C25.8336 7.82146 19.469 8.0609 19.469 8.0609C19.469 8.0609 40.8657 4.96072 68.9269 12.555Z" fill="#FAAA55"/>
<path fill-rule="evenodd" clip-rule="evenodd" d="M11.3356 14.618C11.3356 14.618 23.157 14.8059 33.3534 15.4785C43.5498 16.1512 55.3712 16.3862 55.3712 16.3862C55.3712 16.3862 53.4422 15.7379 49.3738 14.618C42.8802 12.8307 36.2099 12.7674 32.7783 12.6289C29.3466 12.4904 15.2454 13.2853 11.3356 14.618Z" fill="#DB7336"/>
<path fill-rule="evenodd" clip-rule="evenodd" d="M5.0457 16.3422L4.57166 14.6138C11.2871 12.9164 21.8228 10.2457 33.0256 10.796C45.2323 11.3957 53.7987 15.587 57.7217 17.5261L57.6387 17.6948C53.7946 15.9348 45.2882 12.0647 33.3977 11.7516C22.2188 11.4569 11.8071 14.4193 5.0457 16.3422Z" fill="#AD3E11"/>
<path fill-rule="evenodd" clip-rule="evenodd" d="M37.0504 23.3105C37.0504 23.3105 43.7305 25.5922 46.0876 26.2575C48.4446 26.9227 52.9073 27.2418 54.221 27.5836C54.221 27.5836 44.7156 24.8798 37.0504 23.3105Z" fill="#FAAA55"/>
<path fill-rule="evenodd" clip-rule="evenodd" d="M164.463 8.45656L164.185 6.68619C171.404 5.77706 175.729 6.35908 183.502 6.8689C192.22 7.4406 196.782 6.89027 200.695 6.39518C195.221 7.36251 191.123 7.87012 182.393 7.69772C175.311 7.55774 171.108 7.28516 164.463 8.45656Z" fill="#FFBD5D"/>
<path fill-rule="evenodd" clip-rule="evenodd" d="M178.934 30.8997C178.934 30.8997 204.52 30.6308 209.78 30.1166C215.039 29.6031 236.699 31.8818 240.304 33.5519C240.304 33.5519 238.97 31.0264 237.321 30.8997C210.068 28.8067 177.948 28.9842 177.948 28.9842L178.934 30.8997Z" fill="#FDB762"/>
<path fill-rule="evenodd" clip-rule="evenodd" d="M230.692 16.0171H241.701V11.5967C241.701 11.5967 241.909 15.9184 230.692 16.0171Z" fill="#71150A"/>
<path fill-rule="evenodd" clip-rule="evenodd" d="M180.002 21.9115C180.002 21.9115 180.103 22.8501 181.727 22.7956C183.351 22.7411 183.452 21.9115 183.452 21.9115C183.452 21.9115 182.12 21.0076 180.002 21.9115Z" fill="#D7642B"/>
<path fill-rule="evenodd" clip-rule="evenodd" d="M178.852 34.7304C178.852 34.7304 184.829 34.8594 191.339 33.1833C197.849 31.5072 204.67 30.2283 208.674 30.2364H178.852V34.7304Z" fill="#ED9043"/>
<path fill-rule="evenodd" clip-rule="evenodd" d="M189.614 36.9405C189.614 36.9405 215.886 31.4157 226.584 34.7303C226.584 34.7303 208.303 29.9673 189.614 36.9405Z" fill="#ED9043"/>
<path fill-rule="evenodd" clip-rule="evenodd" d="M212.7 7.02937C212.7 7.02937 209.595 9.99766 201.527 9.46059C198.438 9.25504 193.671 6.82456 202.749 6.51734C209.3 6.29558 212.7 7.02937 212.7 7.02937Z" fill="#DA6D2A"/>
<path fill-rule="evenodd" clip-rule="evenodd" d="M211.714 7.02948C211.714 7.02948 203.216 5.58107 201.527 7.02948C199.838 8.4779 203.244 8.23625 204.813 8.20826C206.382 8.18026 211.714 7.02948 211.714 7.02948Z" fill="#CE592D"/>
<path fill-rule="evenodd" clip-rule="evenodd" d="M2.39727 31.5803L1.69812 29.9293C7.04976 27.8694 9.2918 27.9711 11.8419 27.9261C26.1625 27.6734 74.7693 28.8169 118.189 28.7874C137.046 28.7741 141.684 30.1666 141.724 29.1698V29.5381C135.193 28.9893 119.931 29.1403 112.759 29.1698C86.47 29.2788 19.2335 29.3841 9.90469 29.7334C7.09496 29.8387 4.24003 30.8709 2.39727 31.5803Z" fill="#470000"/>
<path fill-rule="evenodd" clip-rule="evenodd" d="M3.82568 22.7624L4.38762 21.0605C10.5 23.063 18.0033 22.4287 19.1872 22.3285C24.7311 21.8599 26.8285 21.1283 31.3414 21.686C36.6388 22.3403 45.6916 24.9616 54.3952 27.4738L54.3754 27.5475C31.0283 21.6485 30.3925 21.9645 22.4751 23.1713C21.6001 23.3046 11.8227 25.0883 3.82568 22.7624Z" fill="#470000"/>
<path fill-rule="evenodd" clip-rule="evenodd" d="M234.029 1.00351L242.765 3.88951L242.735 31.0685H241.665L242.705 32.0985L242.675 42.3665C242.675 42.3665 168.082 41.9715 152.138 43.8895C136.195 45.8075 54.428 47.3085 37.0417 46.3255C34.9652 46.6955 25.5689 45.0235 24.4436 44.6615C22.9666 44.1865 14.3761 44.1265 10.3536 41.9235L-0.00170898 30.5515C-0.00170898 30.5515 0.990204 24.5425 4.17508 23.1405C4.17508 23.1405 2.89834 22.8225 2.75394 16.8895C2.60953 10.9565 2.75394 3.88951 2.75394 3.88951C2.75394 3.88951 26.3169 -0.810486 85.4134 0.889514C85.4134 0.889514 113.609 1.95252 124.205 0.775516C143.516 -0.624484 152.655 0.216517 165.486 0.690517C179.763 1.63152 212.389 -0.219487 234.029 1.00351ZM9.47922 23.3945C3.34449 23.4945 2.1305 30.0245 2.1305 30.0245L11.4581 40.4125C11.4581 40.4125 14.9686 41.9055 19.721 42.1065C24.4744 42.3085 32.9286 44.6715 37.1492 44.4645C38.6948 44.3885 51.1675 44.4245 67.3618 44.3645C95.3674 44.2595 134.507 43.8675 147.522 42.1065C168.065 39.3295 240.633 40.4125 240.633 40.4125V32.9715L236.869 29.1405H240.633V5.71251L233.351 2.98651C233.351 2.98651 214.179 2.32751 187.696 2.98651C161.212 3.64551 155.574 0.838515 125.595 2.98651C95.6163 5.13451 70.9748 2.96651 44.2669 2.98651C17.5599 3.00651 5.07536 5.71251 5.07536 5.71251C4.8722 8.45851 4.46986 16.3545 5.07536 20.5945C5.47472 23.3895 9.2173 23.3975 9.47922 23.3945Z" fill="#470000"/>
<path fill-rule="evenodd" clip-rule="evenodd" d="M6.04447 29.2787C40.5911 32.009 89.0442 31.1028 130.018 31.5625L137.644 29.2787C168.344 28.318 201.364 28.5176 235.506 29.2787H241.586V40.9927C241.586 40.9927 189.049 40.5367 168.878 40.9927C142.17 41.5968 128.71 45.4831 120.981 45.5605C104.127 45.7299 30.1983 45.5605 30.1983 45.5605L11.056 40.9927L1.11511 29.2787H6.04447Z" fill="#64160C" fill-opacity="0.2"/>
</g>
<defs>
<clipPath id="clip0_376_2">
<rect width="243" height="47" fill="white"/>
</clipPath>
</defs>
</svg>
