<?xml version="1.0" encoding="UTF-8" standalone="no"?>
<!DOCTYPE svg PUBLIC "-//W3C//DTD SVG 1.1//EN" "http://www.w3.org/Graphics/SVG/1.1/DTD/svg11.dtd">
<svg width="100%" height="100%" viewBox="0 0 243 47" version="1.1" xmlns="http://www.w3.org/2000/svg" xmlns:xlink="http://www.w3.org/1999/xlink" xml:space="preserve" xmlns:serif="http://www.serif.com/" style="fill-rule:evenodd;clip-rule:evenodd;stroke-linejoin:round;stroke-miterlimit:2;">
    <g transform="matrix(1,0,0,1,-1026.62,-172.695)">
        <g transform="matrix(6.12323e-17,-1,5.13241,3.14269e-16,0,1920)">
            <g transform="matrix(6.12323e-17,0.19484,-1,1.19305e-17,1924.94,111.579)">
                <g>
                    <g transform="matrix(0.0821561,0,0,0.0736733,727.776,89.4728)">
                        <path d="M-3276,1274C-3276,1274 -3123.42,1237.28 -2797,1237C-2470.58,1236.72 -2169.4,1266.16 -1803,1237C-1436.6,1207.84 -1367.68,1245.94 -1044,1237C-720.318,1228.06 -486,1237 -486,1237L-397,1274L-397,1592L-443,1592L-397,1644L-397,1745C-397,1745 -1283.93,1730.3 -1535,1768C-1786.07,1805.7 -2832.42,1797.18 -2884,1800C-2935.58,1802.82 -3038.91,1770.73 -3097,1768C-3155.09,1765.27 -3198,1745 -3198,1745L-3312,1604C-3312,1604 -3297.14,1515.23 -3222,1514C-3222,1514 -3270.94,1515.32 -3276,1476C-3283.41,1418.44 -3278.49,1311.28 -3276,1274Z" style="fill:rgb(220,115,57);"/>
                    </g>
                    <g transform="matrix(0.0821561,0,0,0.0736733,727.361,89.4728)">
                        <path d="M-481.504,1233.89C-471.354,1251.34 -469.07,1269.84 -481.504,1290.31C-481.504,1290.31 -464.542,1321.39 -486,1352C-486,1352 -482.296,1398.92 -508,1414C-508,1414 -494.915,1470.32 -508,1517C-508,1517 -464.936,1562.81 -486,1599L-460.831,1611L-386,1599L-386,1269.43L-424,1247.46L-481.504,1233.89Z" style="fill:rgb(169,54,24);"/>
                    </g>
                    <g transform="matrix(0.0821561,0,0,0.0736733,85.0315,89.4728)">
                        <path d="M6711,1522L7310,1516C7310,1516 7314.32,1522.46 7316,1504C7316,1504 6718.35,1525.94 6711,1522Z" style="fill:rgb(255,162,87);"/>
                    </g>
                    <g transform="matrix(0.0821561,0,0,0.0736733,85.0315,89.4728)">
                        <path d="M4716,1509L4716,1519L4633,1564L4620,1576L4592,1564L4556,1538L4556,1519L4580,1509L4716,1509Z" style="fill:rgb(208,80,31);"/>
                    </g>
                    <g transform="matrix(0.0821561,0,0,0.0736733,727.361,89.4728)">
                        <path d="M-2383.25,1729.98C-2443.45,1746.54 -2674.4,1731.89 -2714.3,1731.6C-2881.15,1730.37 -2941.14,1775.48 -2955.57,1799.95L-2968.43,1792.05C-2956.63,1772.81 -2901.73,1707.01 -2668.8,1725.04C-2646.01,1726.81 -2436.79,1743 -2383.25,1729.98Z" style="fill:rgb(174,63,7);"/>
                    </g>
                    <g transform="matrix(0.0821561,0,0,0.0736733,727.361,89.4728)">
                        <path d="M-390.034,1353.88L-390.42,1370.67C-536.737,1362.52 -638.959,1336.95 -778.562,1349.42C-931.463,1363.09 -976.504,1384.11 -1196,1389C-965.03,1379.08 -918.927,1354.15 -758.65,1338.66C-642.402,1327.42 -502.858,1350.69 -390.034,1353.88Z" style="fill:rgb(113,21,10);"/>
                    </g>
                    <g transform="matrix(0.0821561,0,0,0.0736733,85.0315,89.4728)">
                        <path d="M4566,1614.1C4566,1614.1 4584.23,1633.84 4612,1673C4639.77,1712.16 4652.95,1737.83 4687,1750C4721.05,1762.17 4821.77,1779.14 4848,1773C4874.23,1766.86 4885,1761 4885,1761C4885,1761 4805.8,1781.16 4755.43,1750C4705.05,1718.84 4664,1673 4664,1673L4641,1614.1L4566,1587L4566,1614.1Z" style="fill:rgb(183,58,30);"/>
                    </g>
                    <g transform="matrix(0.0821561,0,0,0.0736733,727.361,89.4728)">
                        <path d="M-619,1237C-619,1237 -764.084,1262.18 -843,1274C-921.916,1285.82 -1561.35,1218.21 -1661,1237C-1760.65,1255.79 -1982.1,1262.12 -2248,1237C-2248,1237 -1699.78,1216.12 -1617,1214C-1534.22,1211.88 -1131.62,1245.94 -1088,1237C-1044.38,1228.06 -619,1237 -619,1237Z" style="fill:rgb(250,170,85);"/>
                    </g>
                    <g transform="matrix(0.0821561,0,0,0.0736733,727.361,89.4728)">
                        <path d="M-3191,1615C-3191,1615 -3195.26,1619.86 -3050,1615C-2904.74,1610.14 -2892.2,1596.76 -2828,1615C-2763.8,1633.24 -2590.54,1615.24 -2542,1615C-2493.46,1614.76 -1860.55,1610.62 -1805,1615C-1749.45,1619.38 -1625,1592 -1625,1592L-3230,1592L-3191,1615Z" style="fill:rgb(250,170,85);"/>
                    </g>
                    <g transform="matrix(0.0821561,0,0,0.0736733,727.361,89.4728)">
                        <path d="M-2845.31,1536.94C-2932.1,1521.61 -2973.66,1517.64 -3110.7,1536.94C-2988.22,1503.14 -2953.33,1500.75 -2845.31,1536.94Z" style="fill:rgb(250,170,85);"/>
                    </g>
                    <g transform="matrix(0.0821561,0,0,0.0736733,727.361,89.4728)">
                        <path d="M-3275,1547C-3275,1547 -3271.24,1520.31 -3250,1527C-3228.76,1533.69 -3223.49,1561.47 -3193,1560C-3193,1560 -3229.84,1593.27 -3250,1583C-3270.16,1572.73 -3271.56,1560.31 -3275,1547Z" style="fill:rgb(155,44,17);"/>
                    </g>
                    <g transform="matrix(0.0821561,0,0,0.0736733,727.361,89.4728)">
                        <path d="M-3300,1611C-3300,1611 -3280.64,1578.97 -3251,1611C-3221.36,1643.03 -3207.09,1654.25 -3195,1679C-3182.91,1703.75 -3170.08,1739.1 -3124,1751C-3077.92,1762.9 -2994.16,1780.51 -2917,1751L-2892,1751C-2892,1751 -2946.28,1763.51 -2967,1795L-3081,1795L-3195,1766L-3251,1708L-3328,1611L-3300,1611Z" style="fill:rgb(145,41,30);"/>
                    </g>
                    <g transform="matrix(0.0821561,0,0,0.0736733,727.361,89.5465)">
                        <path d="M-2550.69,1663.43L-2543.22,1672.56C-2547.81,1676.54 -2568.72,1694.68 -2611.45,1700.56C-2660.92,1707.35 -2706.87,1692.34 -2719.14,1688.61L-2718.86,1687.39C-2706.87,1690.24 -2660.56,1702.31 -2612.53,1692.64C-2570.45,1684.17 -2551.23,1663.92 -2550.69,1663.43Z" style="fill:rgb(176,58,20);"/>
                    </g>
                    <g transform="matrix(0.0821561,0,0,0.0736733,727.361,89.4728)">
                        <path d="M-390.322,1408.38L-390.605,1432.7C-555.165,1427.73 -610.517,1434.1 -735.139,1460.73C-774.239,1469.09 -821.988,1479.33 -887.689,1486.75C-940.604,1492.72 -871.845,1485.7 -794.029,1467.35C-734.157,1453.23 -686.171,1437.68 -623.291,1426.46C-526.531,1409.17 -428.283,1409.01 -390.322,1408.38Z" style="fill:rgb(71,0,0);"/>
                    </g>
                    <g transform="matrix(0.0821561,0,0,0.0736733,727.361,89.4728)">
                        <path d="M-398.293,1400.7C-624.289,1363.39 -710.326,1353.91 -852.617,1368.71C-951.628,1379.01 -1016.1,1387.21 -1181.08,1389.51C-901.485,1376.65 -870.634,1353.05 -744.837,1348.4C-629.025,1344.11 -483.318,1364.85 -395.303,1376.61L-398.293,1400.7Z" style="fill:rgb(169,54,24);"/>
                    </g>
                    <g transform="matrix(0.0821561,0,0,0.0736733,727.361,89.4728)">
                        <path d="M-387.13,1514.79L-387.176,1530.18C-744.289,1525.66 -744.294,1530.4 -1074.97,1523.44C-1186.79,1521.08 -1027.44,1523.49 -834.863,1520.98C-639.314,1518.43 -639.364,1516.81 -387.13,1514.79Z" style="fill:rgb(73,11,2);"/>
                    </g>
                    <g transform="matrix(0.0821561,0,0,0.0736733,727.361,89.4728)">
                        <path d="M-413.933,1592.97L-415.476,1619.6C-448.994,1617.02 -601.201,1605.33 -834.839,1594.45C-1051.9,1584.35 -1159.07,1584.2 -1186.97,1583.93C-1162.75,1583.31 -1054.9,1579.61 -834.552,1582.24C-741.002,1583.36 -547.943,1586.91 -413.933,1592.97Z" style="fill:rgb(71,0,0);"/>
                    </g>
                    <g transform="matrix(0.0821561,0,0,0.0736733,727.361,89.4728)">
                        <path d="M-1181.13,1769.12L-1189.47,1746.65C-977.157,1654.4 -866.677,1614.59 -718.843,1632.86C-670.954,1638.78 -628.05,1648.29 -517.265,1671.12L-517.455,1672.38C-696.469,1641.66 -773.588,1623.44 -896.666,1654.89C-998.494,1680.92 -1121.64,1740.95 -1181.13,1769.12Z" style="fill:rgb(173,62,17);"/>
                    </g>
                    <g transform="matrix(0.0821561,0,0,0.0736733,727.361,89.4728)">
                        <path d="M-1639.31,1351.31C-1705.2,1338.41 -1760.5,1327.85 -1829.22,1332.42C-1886.79,1336.24 -1922.87,1346.55 -2033.21,1351.22C-1893.41,1332.09 -1877.44,1321.37 -1820.59,1318.22C-1757.17,1314.7 -1689.95,1335.26 -1639.31,1351.31Z" style="fill:rgb(173,62,17);"/>
                    </g>
                    <g transform="matrix(0.0821561,0,0,0.0736733,727.361,89.4728)">
                        <path d="M-2035.64,1262.62L-2035.54,1259.61C-1842.37,1265.67 -1841.88,1270.38 -1696.77,1249.02C-1647.38,1241.75 -1601.14,1233.19 -1530.86,1235.42C-1450.01,1237.99 -1427.7,1246.4 -1239.08,1251.9L-1239.82,1276.2C-1513.73,1260.9 -1521.8,1239.78 -1661.92,1256.93C-1715.66,1263.51 -1774.1,1270.89 -1819.17,1272.51C-1864.73,1274.13 -1879.11,1271.72 -2035.64,1262.62Z" style="fill:rgb(213,82,30);"/>
                    </g>
                    <g transform="matrix(0.0821561,0,0,0.0736733,727.361,89.4728)">
                        <path d="M-3266.04,1415.11L-3265.45,1401.49C-3003.18,1416.87 -2944.97,1394.87 -2767.2,1469.77L-2767.96,1472.05C-2946.28,1401.41 -3003.1,1424.69 -3266.04,1415.11Z" style="fill:rgb(173,62,17);"/>
                    </g>
                    <g transform="matrix(0.0821561,0,0,0.0736733,727.361,89.4728)">
                        <path d="M-2179.28,1552.57L-2187.61,1574.93C-2266.47,1538.42 -2327.89,1520.92 -2461.58,1513.92C-2573.39,1508.06 -2639.58,1508.96 -2747.01,1479.74L-2746.7,1478.29C-2562.25,1520.71 -2449.91,1483.01 -2289.3,1516.87C-2229.01,1529.58 -2180.86,1551.9 -2179.28,1552.57Z" style="fill:rgb(173,62,17);"/>
                    </g>
                    <g transform="matrix(0.0821561,0,0,0.0736733,726.95,89.0308)">
                        <path d="M-2483.24,1369.81L-2484.45,1374.23C-2485.54,1373.89 -2723.06,1289.54 -3021.01,1307.4C-3068.76,1310.27 -3087.23,1313.63 -3092.93,1314.67L-3096.85,1290.75C-3053.87,1284.62 -2931.55,1278.82 -2783.06,1298.41C-2623.23,1319.51 -2514.12,1359.1 -2483.24,1369.81Z" style="fill:rgb(212,104,40);"/>
                    </g>
                    <g transform="matrix(0.0821561,0,0,0.0736733,727.361,89.4728)">
                        <path d="M-1200,1416C-1200,1416 -1017.01,1430.96 -938,1416C-858.989,1401.04 -660.275,1371.99 -604,1376C-604,1376 -760.75,1360.74 -920,1396C-1016.45,1417.35 -1168.06,1418.34 -1200,1416Z" style="fill:rgb(255,189,93);"/>
                    </g>
                    <g transform="matrix(0.0821561,0,0,0.0736733,727.361,89.4728)">
                        <path d="M-1099,1733C-1099,1733 -453.558,1729.28 -406,1725C-406,1725 -375.041,1752.44 -406,1752C-436.959,1751.56 -1160,1752 -1160,1752L-1099,1733Z" style="fill:rgb(109,21,7);"/>
                    </g>
                    <g transform="matrix(0.0821561,0,0,0.0736733,727.361,89.4728)">
                        <path d="M-386,1653C-386,1653 -507.711,1668.08 -548,1693C-588.289,1717.92 -637.989,1710.52 -681,1703C-724.011,1695.49 -800.753,1672.38 -828,1703C-855.247,1733.62 -902.871,1721.11 -920,1724C-937.129,1726.89 -1083.85,1722.67 -1112,1736C-1140.15,1749.33 -728,1736 -728,1736L-398,1736L-386,1653Z" style="fill:rgb(188,68,33);"/>
                    </g>
                    <g transform="matrix(0.0821561,0,0,0.0736733,727.361,89.4728)">
                        <path d="M-390.359,1294.91L-391.665,1305.58C-405.655,1303.06 -479.857,1288.73 -513.974,1286.01C-547.111,1283.37 -571.039,1287.14 -581.814,1288.39C-571.073,1286.54 -547.264,1281.41 -513.817,1282.19C-479.398,1282.99 -404.642,1293.15 -390.359,1294.91Z" style="fill:rgb(100,11,3);"/>
                    </g>
                    <g transform="matrix(0.0821561,0,0,0.0736733,727.361,89.4728)">
                        <path d="M-2542,1753C-2542,1753 -2530.35,1778.7 -2520,1788C-2509.65,1797.3 -2873,1788 -2873,1788C-2873,1788 -2579.14,1750.58 -2542,1753Z" style="fill:rgb(251,167,77);"/>
                    </g>
                    <g transform="matrix(0.0821561,0,0,0.0736733,727.361,89.4728)">
                        <path d="M-2494.62,1798.54L-2665.28,1803.42C-2715.75,1804.09 -2895.12,1801.78 -2915.11,1801.53C-2844.68,1796.67 -2704.84,1786.5 -2646.81,1784.84L-2495.04,1780.51L-2494.62,1798.54Z" style="fill:rgb(173,62,17);"/>
                    </g>
                    <g transform="matrix(0.0821561,0,0,0.0736733,727.361,89.4728)">
                        <path d="M-2916,1770C-2916,1770 -2847.78,1760.95 -2784,1754C-2720.22,1747.05 -2494,1733 -2494,1733L-2541,1733C-2541,1733 -2690.88,1736.9 -2757,1733C-2823.12,1729.1 -2896.41,1751.07 -2916,1770Z" style="fill:rgb(251,167,77);"/>
                    </g>
                    <g transform="matrix(0.0821561,0,0,0.0736733,727.361,89.4728)">
                        <path d="M-3172,1686C-3172,1686 -2972.92,1643.7 -2804,1677L-2722,1686C-2722,1686 -2885.68,1628.41 -2965,1640C-3044.32,1651.59 -3161.85,1660 -3172,1686Z" style="fill:rgb(255,162,87);"/>
                    </g>
                    <g transform="matrix(0.0821561,0,0,0.0736733,727.361,89.4728)">
                        <path d="M-3199.2,1690.92L-3196.81,1675C-3187.2,1677.57 -3114.26,1697.09 -3079.64,1718.47C-3067.34,1726.08 -3083.58,1716.59 -3104.94,1710.16C-3143.07,1698.66 -3183.93,1693.14 -3199.2,1690.92Z" style="fill:rgb(144,40,31);"/>
                    </g>
                    <g transform="matrix(0.0821561,0,0,0.0736733,727.607,89.4728)">
                        <path d="M-2810.2,1667.87C-2833.05,1663.84 -2877.15,1652.17 -3027.59,1659.87C-3125.3,1664.87 -3169.65,1677.35 -3174.85,1679.97C-3175.22,1680.16 -3175.77,1679.79 -3175.86,1679.86C-3176.14,1680.07 -3176.85,1681.58 -3176.87,1679.92C-3176.92,1675.27 -3107.24,1646.84 -3029.17,1637.31C-2944.09,1626.92 -2871.37,1643.24 -2809.8,1666.13L-2810.2,1667.87Z" style="fill:rgb(255,162,87);"/>
                    </g>
                    <g transform="matrix(0.0821561,0,0,0.0736733,727.361,89.4728)">
                        <path d="M-3197.78,1688.56L-3204.27,1665.4C-3103.46,1635.04 -2980.81,1622.09 -2877.22,1642.43C-2744.3,1668.51 -2731.87,1690.5 -2663.95,1696.73L-2664.05,1699.27C-2732.73,1695.72 -2745.52,1674.28 -2878.78,1653.57C-3035.83,1629.18 -3194.72,1687.52 -3197.78,1688.56Z" style="fill:rgb(144,40,31);"/>
                    </g>
                    <g transform="matrix(0.0821561,0,0,0.0736733,727.361,89.4728)">
                        <path d="M-3262.41,1616.31L-3268.25,1592.88C-3193.9,1571.01 -3186.7,1556.35 -3128.47,1527.73C-3072.75,1500.35 -3016.61,1494.96 -2998.81,1492.61L-2998.15,1498.13C-3029.77,1504.43 -3075.99,1512.75 -3129.68,1544.48C-3181.16,1574.9 -3189.95,1589.83 -3262.41,1616.31Z" style="fill:rgb(110,16,4);"/>
                    </g>
                    <g transform="matrix(0.0821561,0,0,0.0736733,725.307,89.0308)">
                        <path d="M-3050,1425C-3050,1425 -2982.93,1439.66 -2942,1453C-2901.07,1466.34 -2615.13,1539.23 -2566,1542C-2516.87,1544.77 -2513,1565.37 -2493,1579L-2478,1595L-2627,1595L-2648,1579C-2648,1579 -2851.18,1488.35 -2918,1480C-2984.82,1471.65 -3090.16,1436.91 -3090,1437C-3089.84,1437.09 -3050,1425 -3050,1425Z" style="fill:rgb(208,90,40);"/>
                    </g>
                    <g transform="matrix(0.0821561,0,0,0.0736733,727.361,89.4728)">
                        <path d="M-2996,1250C-2996,1250 -2380.34,1252.7 -2353,1250C-2325.66,1247.3 -2276,1250 -2276,1250C-2276,1250 -2518.22,1286.03 -2571,1285C-2623.78,1283.98 -3175.15,1265.67 -3212,1264L-2996,1250Z" style="fill:rgb(250,170,85);"/>
                    </g>
                    <g transform="matrix(0.0821561,0,0,0.0736733,727.361,89.4728)">
                        <path d="M-2489,1367C-2489,1367 -2563.6,1352.81 -2612,1353C-2660.4,1353.19 -2776.88,1333.53 -2818,1329C-2859.12,1324.48 -2929.5,1309.83 -2975,1306C-3013.53,1302.75 -3091,1306 -3091,1306C-3091,1306 -2830.56,1263.92 -2489,1367Z" style="fill:rgb(250,170,85);"/>
                    </g>
                    <g transform="matrix(0.0821561,0,0,0.0736733,727.361,89.4728)">
                        <path d="M-3190,1395C-3190,1395 -3046.11,1397.55 -2922,1406.68C-2797.89,1415.81 -2654,1419 -2654,1419C-2654,1419 -2677.48,1410.2 -2727,1395C-2806.04,1370.74 -2887.23,1369.88 -2929,1368C-2970.77,1366.12 -3142.41,1376.91 -3190,1395Z" style="fill:rgb(219,115,54);"/>
                    </g>
                    <g transform="matrix(0.0821561,0,0,0.0736733,727.361,89.4728)">
                        <path d="M-3266.56,1418.41L-3272.33,1394.95C-3190.59,1371.91 -3062.35,1335.66 -2925.99,1343.13C-2777.41,1351.27 -2673.14,1408.16 -2625.39,1434.48L-2626.4,1436.77C-2673.19,1412.88 -2776.73,1360.35 -2921.46,1356.1C-3057.53,1352.1 -3184.26,1392.31 -3266.56,1418.41Z" style="fill:rgb(173,62,17);"/>
                    </g>
                    <g transform="matrix(0.0821561,0,0,0.0736733,727.361,89.4728)">
                        <path d="M-2877,1513C-2877,1513 -2795.69,1543.97 -2767,1553C-2738.31,1562.03 -2683.99,1566.36 -2668,1571C-2668,1571 -2783.7,1534.3 -2877,1513Z" style="fill:rgb(250,170,85);"/>
                    </g>
                    <g transform="matrix(0.0821561,0,0,0.0736733,727.361,89.4728)">
                        <path d="M-1326.14,1311.38L-1329.52,1287.35C-1241.65,1275.01 -1189.01,1282.91 -1094.4,1289.83C-988.285,1297.59 -932.754,1290.12 -885.12,1283.4C-951.748,1296.53 -1001.63,1303.42 -1107.89,1301.08C-1194.1,1299.18 -1245.26,1295.48 -1326.14,1311.38Z" style="fill:rgb(255,189,93);"/>
                    </g>
                    <g transform="matrix(0.0821561,0,0,0.0736733,727.361,89.4728)">
                        <path d="M-1150,1616C-1150,1616 -838.567,1612.35 -774.546,1605.37C-710.526,1598.4 -446.89,1629.33 -403,1652C-403,1652 -419.243,1617.72 -439.312,1616C-771.038,1587.59 -1162,1590 -1162,1590L-1150,1616Z" style="fill:rgb(253,183,98);"/>
                    </g>
                    <g transform="matrix(0.0821561,0,0,0.0736733,727.361,89.4728)">
                        <path d="M-520,1414L-386,1414L-386,1354C-386,1354 -383.472,1412.66 -520,1414Z" style="fill:rgb(113,21,10);"/>
                    </g>
                    <g transform="matrix(0.0821561,0,0,0.0736733,727.361,89.4728)">
                        <path d="M-1137,1494C-1137,1494 -1135.77,1506.74 -1116,1506C-1096.23,1505.26 -1095,1494 -1095,1494C-1095,1494 -1111.22,1481.73 -1137,1494Z" style="fill:rgb(215,100,43);"/>
                    </g>
                    <g transform="matrix(0.0821561,0,0,0.0736733,727.361,89.4728)">
                        <path d="M-1151,1668C-1151,1668 -1078.24,1669.75 -999,1647C-919.762,1624.25 -836.736,1606.89 -788,1607L-1151,1607L-1151,1668Z" style="fill:rgb(237,144,67);"/>
                    </g>
                    <g transform="matrix(0.0821561,0,0,0.0736733,727.361,89.4728)">
                        <path d="M-1020,1698C-1020,1698 -700.22,1623.01 -570,1668C-570,1668 -792.52,1603.35 -1020,1698Z" style="fill:rgb(237,144,67);"/>
                    </g>
                    <g transform="matrix(0.0821561,0,0,0.0736733,727.361,89.4728)">
                        <path d="M-739,1292C-739,1292 -776.795,1332.29 -875,1325C-912.601,1322.21 -970.62,1289.22 -860.117,1285.05C-780.389,1282.04 -739,1292 -739,1292Z" style="fill:rgb(218,109,42);"/>
                    </g>
                    <g transform="matrix(0.0821561,0,0,0.0736733,727.361,89.4728)">
                        <path d="M-751,1292C-751,1292 -854.439,1272.34 -875,1292C-895.561,1311.66 -854.1,1308.38 -835,1308C-815.9,1307.62 -751,1292 -751,1292Z" style="fill:rgb(206,89,45);"/>
                    </g>
                    <g transform="matrix(0.0821561,0,0,0.0736733,727.114,89.2518)">
                        <path d="M-3295.79,1628.24L-3304.3,1605.83C-3239.16,1577.87 -3211.87,1579.25 -3180.83,1578.64C-3006.52,1575.21 -2414.88,1590.73 -1886.38,1590.33C-1656.85,1590.15 -1600.4,1609.05 -1599.91,1595.52L-1599.91,1600.52C-1679.4,1593.07 -1865.17,1595.12 -1952.47,1595.52C-2272.46,1597 -3090.86,1598.43 -3204.41,1603.17C-3238.61,1604.6 -3273.36,1618.61 -3295.79,1628.24Z" style="fill:rgb(71,0,0);"/>
                    </g>
                    <g transform="matrix(0.0821561,0,0,0.0736733,727.361,89.4728)">
                        <path d="M-3281.41,1505.55L-3274.57,1482.45C-3200.17,1509.63 -3108.84,1501.02 -3094.43,1499.66C-3026.95,1493.3 -3001.42,1483.37 -2946.49,1490.94C-2882.01,1499.82 -2771.82,1535.4 -2665.88,1569.5L-2666.12,1570.5C-2950.3,1490.43 -2958.04,1494.72 -3054.41,1511.1C-3065.06,1512.91 -3184.07,1537.12 -3281.41,1505.55Z" style="fill:rgb(71,0,0);"/>
                    </g>
                    <g transform="matrix(0.995898,0,0,1,-11.3706,113.519)">
                        <path d="M702.228,65.114L711,68L710.97,95.179L709.895,95.179L710.94,96.209L710.91,106.477C710.91,106.477 636.009,106.082 620,108C603.991,109.918 521.887,111.419 504.429,110.436C502.344,110.806 492.909,109.134 491.779,108.772C490.296,108.297 481.67,108.237 477.631,106.034L467.233,94.662C467.233,94.662 468.229,88.653 471.427,87.251C471.427,87.251 470.145,86.933 470,81C469.855,75.067 470,68 470,68C470,68 493.66,63.3 553,65C553,65 581.312,66.063 591.951,64.886C611.342,63.486 620.519,64.327 633.403,64.801C647.738,65.742 680.499,63.891 702.228,65.114ZM476.753,87.505C470.593,87.605 469.374,94.135 469.374,94.135L478.74,104.523C478.74,104.523 482.265,106.016 487.037,106.217C491.81,106.419 500.299,108.782 504.537,108.575C506.089,108.499 518.613,108.535 534.874,108.475C562.995,108.37 602.296,107.978 615.365,106.217C635.992,103.44 708.859,104.523 708.859,104.523L708.859,97.082L705.08,93.251L708.859,93.251L708.859,69.823L701.547,67.097C701.547,67.097 682.296,66.438 655.704,67.097C629.111,67.756 623.45,64.949 593.347,67.097C563.245,69.245 538.502,67.077 511.684,67.097C484.867,67.117 472.331,69.823 472.331,69.823C472.127,72.569 471.723,80.465 472.331,84.705C472.732,87.5 476.49,87.508 476.753,87.505Z" style="fill:rgb(71,0,0);"/>
                    </g>
                    <g transform="matrix(0.0821561,0,0,0.0736733,85.0315,89.4728)">
                        <path d="M4564,1594C4984.5,1631.06 5574.27,1618.76 6073,1625L6165.83,1594C6539.5,1580.96 6941.42,1583.67 7357,1594L7431,1594L7431,1753C7431,1753 6791.53,1746.81 6546,1753C6220.91,1761.2 6057.08,1813.95 5963,1815C5757.86,1817.3 4858,1815 4858,1815L4625,1753L4504,1594L4564,1594Z" style="fill:rgb(100,22,12);fill-opacity:0.2;"/>
                    </g>
                </g>
            </g>
            <g transform="matrix(1,4.62223e-33,0,0.19484,1241,183.929)">
                <g transform="matrix(6.12323e-17,1,-1,6.12323e-17,801.769,-388.829)">
                    <path d="M517.93,305.034L517.574,305.961C518.865,306.452 520.069,307.147 521.139,308.019L523.099,305.599L524.552,307.145C526.229,308.93 527.47,311.078 528.177,313.423L528.789,315.454L525.713,315.942C525.934,317.305 525.934,318.695 525.713,320.058L528.789,320.546L528.177,322.577C527.47,324.922 526.229,327.07 524.552,328.855L523.099,330.401L521.139,327.981C520.069,328.853 518.865,329.548 517.574,330.039L518.69,332.947L516.624,333.432C514.241,333.992 511.759,333.992 509.376,333.432L507.31,332.947L508.426,330.039C507.135,329.548 505.931,328.853 504.861,327.981L502.901,330.401L501.448,328.855C499.771,327.07 498.53,324.922 497.823,322.577L497.211,320.546L500.287,320.058C500.066,318.695 500.066,317.305 500.287,315.942L497.211,315.454L497.823,313.423C498.53,311.078 499.771,308.93 501.448,307.145L502.901,305.599L504.861,308.019C505.931,307.147 507.135,306.452 508.426,305.961L507.31,303.053L509.376,302.568C511.759,302.008 514.241,302.008 516.624,302.568L518.69,303.053L517.93,305.034ZM513,312.204C509.801,312.204 507.204,314.801 507.204,318C507.204,321.199 509.801,323.796 513,323.796C516.199,323.796 518.796,321.199 518.796,318C518.796,314.801 516.199,312.204 513,312.204Z" style="fill:rgb(71,0,0);"/>
                </g>
                <g transform="matrix(6.12323e-17,1,-1,6.12323e-17,801.769,-388.829)">
                    <path d="M516.201,304.371L515.123,307.18C517.524,307.651 519.701,308.907 521.309,310.751L523.203,308.413C524.684,309.989 525.779,311.887 526.404,313.957L523.432,314.428C524.225,316.743 524.225,319.257 523.432,321.572L526.404,322.043C525.779,324.113 524.684,326.011 523.203,327.587L521.309,325.249C519.701,327.093 517.524,328.349 515.123,328.82L516.201,331.629C514.096,332.124 511.904,332.124 509.799,331.629L510.877,328.82C508.476,328.349 506.299,327.093 504.691,325.249L502.797,327.587C501.316,326.011 500.221,324.113 499.596,322.043L502.568,321.572C501.775,319.257 501.775,316.743 502.568,314.428L499.596,313.957C500.221,311.887 501.316,309.989 502.797,308.413L504.691,310.751C506.299,308.907 508.476,307.651 510.877,307.18L509.799,304.371C511.904,303.876 514.096,303.876 516.201,304.371ZM513,310.352C517.221,310.352 520.648,313.779 520.648,318C520.648,322.221 517.221,325.648 513,325.648C508.779,325.648 505.352,322.221 505.352,318C505.352,313.779 508.779,310.352 513,310.352Z" style="fill:rgb(249,246,189);"/>
                </g>
            </g>
            <g transform="matrix(1,4.62223e-33,0,0.19484,1240.15,183.929)">
                <g transform="matrix(6.12323e-17,1,-1,6.12323e-17,1920,-227.673)">
                    <path d="M401.475,1439.03C401.465,1439.12 401.454,1439.21 401.443,1439.3C401.145,1444.17 398.563,1445.17 392.34,1444.85C386.495,1444.94 384.636,1444.17 384.636,1444.17C384.636,1444.17 383.319,1444.22 382.207,1440C381.411,1435.42 381.495,1433.88 382.591,1429.38C383.243,1427.62 383.387,1427 385.798,1426.59C385.798,1426.59 391.703,1425.08 399,1427C400.149,1427.34 400.881,1427.98 401.2,1429.2C401.195,1428.99 401.19,1428.78 401.185,1428.58L401.155,1427.3L402.428,1427.21C403.845,1427.12 405.268,1427 406.699,1426.86C408.201,1426.7 409.697,1426.63 411.185,1426.63C411.461,1426.63 411.896,1426.65 412.484,1426.71C413.063,1426.76 413.672,1426.84 414.299,1426.96C414.957,1427.06 415.562,1427.2 416.114,1427.37C416.959,1427.62 417.483,1427.98 417.758,1428.3C417.959,1428.53 418.182,1428.94 418.309,1429.56C418.461,1429.3 418.625,1429.05 418.802,1428.8L418.816,1428.79C418.922,1428.65 419.058,1428.48 419.225,1428.29C419.501,1427.96 419.787,1427.73 420.054,1427.59C420.507,1427.33 421.011,1427.12 421.57,1426.95L421.575,1426.95C422.104,1426.8 422.648,1426.68 423.203,1426.6C423.741,1426.51 424.272,1426.45 424.796,1426.42C425.329,1426.38 425.819,1426.36 426.264,1426.36C427.106,1426.36 427.949,1426.41 428.791,1426.51C429.66,1426.6 430.507,1426.77 431.33,1427.02L432.36,1427.32L432.281,1428.39C432.255,1428.75 432.235,1429.12 432.221,1429.49C432.208,1429.85 432.201,1430.21 432.201,1430.56C432.201,1430.71 432.202,1430.85 432.203,1431C432.292,1430.55 432.388,1430.12 432.492,1429.7L432.497,1429.68C432.64,1429.17 432.792,1428.74 432.95,1428.37C433.221,1427.73 433.571,1427.34 433.888,1427.13C434.119,1426.97 434.519,1426.79 435.116,1426.66C435.527,1426.57 436.006,1426.49 436.552,1426.43C436.917,1426.38 437.299,1426.34 437.694,1426.3L435.628,1424.02C435.628,1424.02 437.494,1422.78 437.509,1422.77C437.814,1422.55 438.134,1422.33 438.469,1422.11C438.819,1421.89 439.154,1421.69 439.464,1421.53C439.717,1421.38 439.926,1421.28 440.086,1421.23L440.718,1421.11C441.079,1421.11 441.513,1421.2 441.981,1421.44C442.262,1421.58 442.552,1421.73 442.848,1421.89C443.12,1422.03 443.379,1422.17 443.634,1422.3C443.664,1422.31 443.696,1422.32 443.725,1422.33C443.855,1422.28 443.982,1422.21 444.121,1422.12L444.14,1422.12C444.275,1422.04 444.402,1421.96 444.516,1421.87C444.692,1421.73 444.84,1421.61 444.96,1421.52L445.93,1420.79L448.997,1424.16L447.794,1425.04C447.631,1425.16 447.394,1425.32 447.064,1425.54L447.045,1425.55C446.742,1425.74 446.424,1425.93 446.092,1426.12C445.974,1426.18 445.857,1426.25 445.738,1426.32C446.031,1426.36 446.324,1426.4 446.617,1426.46C447.207,1426.55 447.752,1426.66 448.252,1426.8C448.806,1426.94 449.278,1427.11 449.669,1427.29C450.023,1427.45 450.29,1427.63 450.484,1427.81L450.61,1427.95L450.57,1426.59L451.96,1426.61C453.049,1426.62 454.131,1426.63 455.206,1426.63C456.306,1426.61 457.413,1426.61 458.526,1426.61C459.392,1426.61 460.25,1426.63 461.091,1426.67C461.945,1426.7 462.8,1426.73 463.654,1426.77L464.821,1426.83L464.896,1427.74C464.923,1427.71 464.95,1427.69 464.978,1427.66C465.422,1427.26 465.964,1426.92 466.619,1426.66L466.628,1426.65C467.556,1426.3 468.546,1426.05 469.599,1425.91C470.618,1425.78 471.592,1425.71 472.522,1425.71C473.606,1425.71 474.675,1425.78 475.729,1425.91C476.759,1426.04 477.789,1426.2 478.818,1426.4L479.936,1426.62L479.856,1428.94L479.856,1430.11C479.856,1430.46 479.874,1430.83 479.911,1431.2L480.185,1433.85L475.833,1433.94C475.95,1433.96 476.065,1433.98 476.179,1434C476.844,1434.11 477.424,1434.24 477.939,1434.4L477.957,1434.41C478.521,1434.6 479.039,1434.91 479.507,1435.33C479.948,1435.71 480.329,1436.15 480.649,1436.66C480.957,1437.14 481.198,1437.66 481.365,1438.19C481.57,1438.77 481.668,1439.34 481.668,1439.9C481.668,1440.9 481.395,1441.71 480.907,1442.34L480.9,1442.35C480.456,1442.91 479.838,1443.38 479.027,1443.73C478.46,1443.97 477.749,1444.17 476.879,1444.32L476.867,1444.32C476.097,1444.44 475.298,1444.52 474.458,1444.58L474.447,1444.58C473.639,1444.63 472.846,1444.65 472.067,1444.67C471.294,1444.68 470.647,1444.69 470.126,1444.69C469.237,1444.69 468.354,1444.67 467.479,1444.65C466.73,1444.62 465.971,1444.59 465.201,1444.54L465.335,1445.04L463.58,1445.02C461.615,1445.01 459.664,1445.01 457.728,1445.02C455.779,1445.05 453.816,1445.06 451.839,1445.06L450.471,1445.06L450.506,1443.7C450.512,1443.45 450.519,1443.19 450.526,1442.94L450.453,1443.05C449.898,1443.6 449.234,1444.02 448.449,1444.3L448.441,1444.31C447.781,1444.53 447.089,1444.68 446.365,1444.76C445.681,1444.84 444.997,1444.87 444.313,1444.86C443.699,1444.84 443.126,1444.84 442.593,1444.84L441.655,1444.84L441.633,1444.83C441.206,1444.82 440.716,1444.81 440.163,1444.79C439.613,1444.78 439.034,1444.76 438.412,1444.73L438.396,1444.73C437.782,1444.68 437.204,1444.63 436.642,1444.58L436.623,1444.57C436.071,1444.5 435.586,1444.42 435.14,1444.32L435.113,1444.31C434.74,1444.22 434.455,1444.1 434.248,1443.98L433.887,1443.71C433.887,1443.71 433.676,1443.47 433.661,1443.45C433.556,1443.31 433.459,1443.15 433.371,1442.99L432.395,1443.18C431.748,1443.31 431.109,1443.43 430.476,1443.54C429.832,1443.66 429.181,1443.76 428.523,1443.84C428.422,1443.86 428.321,1443.87 428.22,1443.88C428.344,1443.95 428.462,1444.03 428.573,1444.11C428.948,1444.39 429.252,1444.75 429.484,1445.21L429.49,1445.22C429.658,1445.58 429.794,1446.01 429.887,1446.51L429.91,1446.63L429.91,1446.85L429.931,1446.98C429.931,1447.21 429.907,1447.47 429.855,1447.75C429.815,1448.07 429.739,1448.38 429.632,1448.68C429.534,1448.98 429.407,1449.26 429.255,1449.52L428.882,1450.02L428.34,1450.44C428.113,1450.57 427.75,1450.7 427.246,1450.8C426.879,1450.89 426.482,1450.97 426.057,1451.04C425.65,1451.12 425.25,1451.17 424.861,1451.22C424.499,1451.27 424.213,1451.32 424.003,1451.34L422.557,1451.54L422.371,1447.21L422.326,1447.21L422.326,1444.09L421.679,1444.04L421.646,1444.03C421.307,1443.99 420.991,1443.93 420.69,1443.87L420.683,1443.87C420.261,1443.77 419.938,1443.64 419.688,1443.49L419.673,1443.48C419.459,1443.34 419.254,1443.19 419.059,1443.01L419.033,1442.99L419.009,1442.96C418.834,1442.79 418.677,1442.62 418.537,1442.44C418.175,1441.99 417.874,1441.5 417.632,1440.97C417.403,1440.46 417.224,1439.94 417.093,1439.4C417.046,1439.21 417.004,1439.01 416.966,1438.82C416.706,1438.98 416.301,1439.16 415.717,1439.29L415.701,1439.29C415.245,1439.38 414.688,1439.47 414.019,1439.57L414.007,1439.57C413.375,1439.66 412.693,1439.74 411.963,1439.83C411.236,1439.91 410.545,1439.99 409.876,1440.06L409.863,1440.06C409.344,1440.1 408.88,1440.14 408.471,1440.18L408.304,1444.53L407.104,1444.6C406.629,1444.63 406.162,1444.64 405.681,1444.62L405.659,1444.62C405.271,1444.6 404.877,1444.59 404.476,1444.59C404.221,1444.59 403.965,1444.59 403.71,1444.6C403.454,1444.62 403.198,1444.64 402.942,1444.66L401.476,1444.81L401.476,1439.46C401.476,1439.32 401.476,1439.17 401.475,1439.03ZM438.804,1437.93C438.881,1437.95 438.962,1437.96 439.048,1437.98C439.318,1438.01 439.599,1438.04 439.891,1438.07C440.217,1438.1 440.529,1438.12 440.818,1438.15C441.119,1438.16 441.383,1438.18 441.611,1438.19L442.093,1438.19C442.242,1438.19 442.496,1438.17 442.857,1438.15L442.859,1438.15C443.245,1438.12 443.644,1438.09 444.063,1438.03C444.454,1437.97 444.812,1437.91 445.155,1437.83C445.193,1437.59 445.222,1437.34 445.243,1437.07C445.268,1436.73 445.281,1436.41 445.281,1436.08L445.282,1436.05C445.295,1435.73 445.301,1435.5 445.301,1435.36C445.301,1435.12 445.289,1434.87 445.265,1434.6C445.265,1434.6 445.263,1434.57 445.262,1434.56C445.244,1434.56 445.227,1434.56 445.211,1434.55L445.207,1434.55C444.848,1434.47 444.447,1434.41 444.004,1434.37C443.542,1434.33 443.092,1434.31 442.636,1434.31L442.616,1434.31C442.163,1434.3 441.842,1434.29 441.656,1434.29C441.521,1434.29 441.283,1434.31 440.94,1434.33C440.601,1434.36 440.237,1434.4 439.829,1434.47L439.811,1434.47C439.487,1434.51 439.183,1434.57 438.881,1434.65C438.852,1434.84 438.823,1435.05 438.793,1435.28C438.768,1435.56 438.75,1435.82 438.737,1436.09L438.737,1436.09C438.725,1436.34 438.718,1436.52 438.718,1436.63C438.718,1436.63 438.718,1437.08 438.719,1437.1C438.731,1437.28 438.749,1437.47 438.771,1437.66C438.782,1437.75 438.793,1437.84 438.804,1437.93ZM463.401,1438.16L463.352,1437.61L464.849,1437.65L465.344,1437.66C464.974,1437.46 464.636,1437.16 464.333,1436.76L464.316,1436.73C464.018,1436.29 463.771,1435.8 463.57,1435.24L463.562,1435.21C463.403,1434.7 463.284,1434.19 463.202,1433.67L463.199,1433.65C463.136,1433.14 463.106,1432.71 463.106,1432.36C463.106,1432.32 463.106,1432.28 463.106,1432.25C462.848,1432.26 462.591,1432.28 462.333,1432.29L462.366,1432.52C462.44,1433.02 462.493,1433.52 462.523,1434.01C462.567,1434.5 462.589,1435 462.589,1435.5C462.589,1435.71 462.582,1435.93 462.568,1436.15L462.568,1437.83L457.71,1438.7C457.71,1438.7 457.718,1438.76 457.718,1438.76C458.324,1438.71 458.927,1438.65 459.528,1438.57C460.598,1438.43 461.676,1438.31 462.76,1438.21L463.401,1438.16ZM441.564,1426.04C441.343,1425.88 441.129,1425.75 440.92,1425.63C440.828,1425.69 440.737,1425.75 440.646,1425.82C440.537,1425.91 440.433,1426 440.327,1426.09C440.675,1426.07 440.999,1426.05 441.299,1426.04C441.392,1426.04 441.481,1426.04 441.564,1426.04ZM407.67,1434.16C407.969,1434.14 408.279,1434.12 408.601,1434.09C409.032,1434.04 409.44,1433.98 409.842,1433.9C409.93,1433.88 410.029,1433.85 410.087,1433.83C410.09,1433.82 410.092,1433.81 410.094,1433.79L410.097,1433.77C410.141,1433.49 410.164,1433.22 410.164,1432.96C410.164,1432.86 410.158,1432.73 410.146,1432.58C410.138,1432.45 410.12,1432.33 410.094,1432.22L410.092,1432.21C410.079,1432.21 410.066,1432.21 410.053,1432.2C409.925,1432.19 409.802,1432.19 409.685,1432.19L409.624,1432.19L409.564,1432.18C409.467,1432.17 409.396,1432.17 409.351,1432.17C408.885,1432.17 408.419,1432.19 407.953,1432.24C407.85,1432.26 407.747,1432.27 407.643,1432.28C407.643,1432.3 407.643,1432.31 407.642,1432.32C407.657,1432.73 407.664,1433.15 407.664,1433.56C407.664,1433.76 407.666,1433.96 407.67,1434.16ZM431.666,1435L430.459,1434.54C429.925,1434.34 429.366,1434.2 428.771,1434.11L428.757,1434.11C428.149,1434.01 427.547,1433.96 426.951,1433.96C426.845,1433.96 426.69,1433.97 426.487,1433.99L426.452,1434L426.417,1434C426.182,1434.01 425.915,1434.04 425.59,1434.08L425.562,1434.08C425.26,1434.11 424.944,1434.14 424.617,1434.19C424.321,1434.24 424.042,1434.3 423.781,1434.37C423.621,1434.41 423.474,1434.46 423.338,1434.52C423.318,1434.66 423.299,1434.81 423.28,1434.96C423.267,1435.15 423.255,1435.34 423.243,1435.53L423.243,1435.98C423.243,1436.09 423.257,1436.31 423.281,1436.63C423.308,1437 423.342,1437.39 423.383,1437.81C423.404,1438.03 423.428,1438.24 423.455,1438.43C423.988,1438.42 424.552,1438.39 425.145,1438.34C425.898,1438.27 426.658,1438.19 427.424,1438.08C428.22,1437.95 429.002,1437.83 429.77,1437.71C430.488,1437.58 431.158,1437.46 431.78,1437.34C431.769,1437.26 431.758,1437.17 431.748,1437.09L431.746,1437.08C431.685,1436.49 431.656,1435.93 431.656,1435.4C431.656,1435.28 431.659,1435.14 431.666,1435ZM388.915,1434.66C388.703,1435.81 388.635,1436.92 388.843,1437.94C391.222,1438.34 393.299,1438.25 395.194,1437.84C395.314,1436.63 395.385,1435.48 395.278,1434.56C393.144,1434.23 391.018,1434.13 388.915,1434.66Z" style="fill:rgb(249,246,189);"/>
                </g>
                <g transform="matrix(4.35239e-17,0.710799,-0.710799,4.35239e-17,700.324,-207.724)">
                    <path d="M535.232,302.485L535.232,303.247C535.232,303.481 535.222,303.716 535.203,303.95C535.183,304.146 535.154,304.488 535.115,304.976C535.095,305.465 535.056,306.031 534.998,306.676C534.959,307.301 534.9,307.966 534.822,308.669C534.763,309.373 534.685,310.027 534.587,310.633C534.509,311.219 534.421,311.727 534.324,312.157C534.226,312.587 534.128,312.851 534.031,312.948C533.444,313.535 532.741,313.974 531.92,314.267C531.119,314.541 530.279,314.726 529.4,314.824C528.52,314.922 527.641,314.961 526.762,314.941C525.882,314.922 525.062,314.912 524.3,314.912L523.01,314.912C522.404,314.893 521.711,314.873 520.929,314.853C520.167,314.834 519.366,314.805 518.526,314.766C517.685,314.707 516.894,314.639 516.152,314.56C515.429,314.463 514.794,314.355 514.246,314.238C513.719,314.101 513.387,313.935 513.25,313.74C513.094,313.525 512.957,313.29 512.84,313.036C512.722,312.782 512.615,312.538 512.517,312.304C512.263,311.659 512.029,310.975 511.814,310.252C511.599,309.509 511.413,308.757 511.257,307.995C511.12,307.213 511.003,306.442 510.905,305.68C510.827,304.917 510.788,304.194 510.788,303.511C510.788,303.139 510.817,302.661 510.876,302.074C510.934,301.469 511.013,300.824 511.11,300.14C511.208,299.437 511.325,298.723 511.462,298C511.599,297.277 511.745,296.603 511.902,295.978C512.078,295.353 512.263,294.815 512.459,294.366C512.654,293.897 512.869,293.584 513.103,293.428C513.299,293.291 513.66,293.164 514.188,293.047C514.715,292.93 515.331,292.832 516.034,292.754C516.738,292.656 517.49,292.578 518.291,292.519C519.092,292.441 519.854,292.383 520.577,292.344C521.3,292.285 521.955,292.246 522.541,292.226C523.127,292.207 523.557,292.197 523.831,292.197C524.202,292.197 524.7,292.217 525.326,292.256C525.97,292.295 526.664,292.363 527.407,292.461C528.149,292.539 528.901,292.646 529.663,292.783C530.425,292.9 531.129,293.047 531.774,293.223C532.438,293.399 533.005,293.594 533.474,293.809C533.943,294.024 534.236,294.258 534.353,294.512C534.451,294.727 534.539,295.04 534.617,295.45C534.714,295.841 534.793,296.291 534.851,296.799C534.91,297.307 534.959,297.844 534.998,298.411C535.056,298.977 535.095,299.524 535.115,300.052C535.154,300.56 535.183,301.029 535.203,301.459C535.222,301.889 535.232,302.231 535.232,302.485ZM529.986,303.452C529.986,303.061 529.966,302.651 529.927,302.221C529.888,301.772 529.761,301.381 529.546,301.049C529.39,300.814 529.009,300.628 528.403,300.492C527.817,300.355 527.162,300.257 526.439,300.199C525.736,300.14 525.052,300.111 524.388,300.111C523.723,300.091 523.254,300.081 522.981,300.081C522.766,300.081 522.385,300.101 521.838,300.14C521.31,300.179 520.743,300.247 520.138,300.345C519.552,300.423 519.004,300.531 518.496,300.668C517.988,300.785 517.676,300.931 517.558,301.107C517.441,301.244 517.344,301.508 517.265,301.899C517.207,302.27 517.148,302.68 517.089,303.13C517.05,303.559 517.021,303.98 517.002,304.39C516.982,304.781 516.972,305.064 516.972,305.24L516.972,305.943C516.992,306.256 517.021,306.578 517.06,306.911C517.099,307.243 517.138,307.555 517.177,307.848C517.236,308.142 517.314,308.356 517.412,308.493C517.471,308.591 517.646,308.679 517.939,308.757C518.233,308.835 518.584,308.913 518.995,308.992C519.424,309.05 519.874,309.099 520.343,309.138C520.812,309.177 521.261,309.216 521.691,309.255C522.141,309.275 522.531,309.294 522.864,309.314L523.596,309.314C523.831,309.314 524.231,309.294 524.798,309.255C525.384,309.216 525.99,309.158 526.615,309.079C527.26,308.982 527.846,308.874 528.374,308.757C528.921,308.62 529.273,308.464 529.429,308.288C529.546,308.151 529.644,307.868 529.722,307.438C529.8,306.989 529.859,306.51 529.898,306.002C529.937,305.474 529.956,304.976 529.956,304.507C529.976,304.019 529.986,303.667 529.986,303.452ZM559.055,300.287C559.055,300.716 559.026,301.234 558.967,301.84C558.928,302.446 558.85,303.061 558.733,303.686C558.635,304.312 558.489,304.898 558.293,305.445C558.098,305.992 557.853,306.422 557.56,306.735C557.443,306.871 557.062,307.008 556.417,307.145C555.792,307.262 555.03,307.389 554.131,307.526C553.252,307.643 552.304,307.76 551.288,307.878C550.272,307.995 549.305,308.102 548.386,308.2C547.488,308.278 546.706,308.347 546.042,308.405C545.377,308.464 544.957,308.493 544.781,308.493L544.547,314.59C543.941,314.629 543.345,314.639 542.759,314.619C542.173,314.58 541.577,314.56 540.971,314.56C540.58,314.56 540.189,314.57 539.799,314.59C539.408,314.609 539.017,314.639 538.626,314.678L538.626,309.226C538.626,307.428 538.587,305.611 538.509,303.774C538.45,302.113 538.392,300.462 538.333,298.821C538.294,297.18 538.255,295.529 538.216,293.868C540.229,293.731 542.251,293.565 544.283,293.369C546.335,293.154 548.377,293.047 550.409,293.047C550.761,293.047 551.317,293.086 552.079,293.164C552.841,293.223 553.643,293.33 554.483,293.487C555.323,293.623 556.095,293.799 556.798,294.014C557.521,294.229 558,294.473 558.234,294.747C558.391,294.923 558.518,295.265 558.616,295.773C558.733,296.281 558.821,296.828 558.879,297.414C558.938,297.981 558.977,298.538 558.997,299.085C559.036,299.632 559.055,300.032 559.055,300.287ZM550.848,300.081C550.848,299.905 550.839,299.681 550.819,299.407C550.8,299.134 550.761,298.87 550.702,298.616C550.663,298.342 550.594,298.098 550.497,297.883C550.399,297.649 550.272,297.483 550.116,297.385C550.018,297.326 549.862,297.277 549.647,297.238C549.432,297.199 549.207,297.17 548.973,297.15C548.738,297.131 548.513,297.121 548.298,297.121C548.084,297.102 547.927,297.092 547.83,297.092C547.107,297.092 546.384,297.131 545.661,297.209C544.938,297.287 544.205,297.385 543.462,297.502C543.521,298.088 543.55,298.665 543.55,299.231C543.57,299.798 543.58,300.365 543.58,300.931C543.58,301.85 543.609,302.778 543.668,303.716C543.922,303.716 544.361,303.706 544.986,303.686C545.612,303.647 546.266,303.599 546.95,303.54C547.634,303.462 548.279,303.364 548.885,303.247C549.49,303.11 549.901,302.934 550.116,302.719C550.467,302.387 550.673,301.986 550.731,301.518C550.809,301.029 550.848,300.55 550.848,300.081ZM574.906,319.807C574.906,320.041 574.877,320.315 574.818,320.627C574.779,320.96 574.701,321.282 574.583,321.595C574.486,321.907 574.359,322.191 574.202,322.445C574.046,322.718 573.86,322.914 573.646,323.031C573.431,323.148 573.079,323.256 572.59,323.353C572.102,323.471 571.574,323.578 571.008,323.676C570.461,323.773 569.923,323.852 569.396,323.91C568.888,323.988 568.487,324.047 568.194,324.086L568.077,321.36C568.233,321.341 568.497,321.292 568.868,321.214C569.239,321.155 569.62,321.087 570.011,321.008C570.421,320.93 570.793,320.852 571.125,320.774C571.477,320.696 571.692,320.627 571.77,320.569C571.985,320.471 572.121,320.344 572.18,320.188C572.239,320.032 572.268,319.846 572.268,319.631C572.268,319.103 572.063,318.703 571.652,318.429C571.555,318.371 571.34,318.322 571.008,318.283C570.675,318.263 570.304,318.244 569.894,318.224L568.751,318.224C568.38,318.244 568.116,318.253 567.959,318.253L567.959,314.795C567.979,314.521 567.989,314.248 567.989,313.974C567.618,313.955 567.197,313.935 566.728,313.916L565.38,313.798C564.95,313.74 564.55,313.671 564.178,313.593C563.827,313.515 563.553,313.417 563.358,313.3C563.143,313.163 562.938,313.007 562.742,312.831C562.547,312.636 562.371,312.44 562.215,312.245C561.804,311.737 561.462,311.18 561.189,310.574C560.915,309.968 560.7,309.343 560.544,308.698C560.388,308.054 560.271,307.399 560.192,306.735C560.134,306.07 560.104,305.416 560.104,304.771C560.104,303.989 560.144,303.178 560.222,302.338C560.319,301.498 560.466,300.668 560.661,299.847C560.857,299.026 561.111,298.235 561.423,297.473C561.756,296.711 562.156,296.007 562.625,295.362C562.762,295.187 562.938,294.972 563.153,294.718C563.368,294.464 563.583,294.278 563.797,294.161C564.325,293.868 564.911,293.623 565.556,293.428C566.22,293.233 566.904,293.086 567.608,292.988C568.311,292.871 569.005,292.793 569.689,292.754C570.392,292.695 571.037,292.666 571.623,292.666C572.737,292.666 573.851,292.734 574.964,292.871C576.078,292.988 577.163,293.203 578.218,293.516C578.179,294.044 578.149,294.581 578.13,295.128C578.11,295.656 578.101,296.183 578.101,296.711C578.101,297.981 578.13,299.261 578.189,300.55C577.309,300.218 576.391,299.984 575.433,299.847C574.476,299.691 573.528,299.612 572.59,299.612C572.395,299.612 572.112,299.632 571.74,299.671C571.369,299.691 570.949,299.73 570.48,299.788C570.011,299.827 569.523,299.886 569.015,299.964C568.526,300.042 568.067,300.14 567.637,300.257C567.207,300.374 566.826,300.511 566.494,300.668C566.181,300.824 565.976,300.99 565.878,301.166C565.8,301.322 565.732,301.547 565.673,301.84C565.634,302.113 565.595,302.407 565.556,302.719C565.537,303.032 565.517,303.335 565.497,303.628L565.497,304.331C565.497,304.507 565.517,304.859 565.556,305.386C565.595,305.914 565.644,306.481 565.703,307.086C565.761,307.673 565.83,308.21 565.908,308.698C566.005,309.187 566.103,309.47 566.201,309.548C566.299,309.607 566.455,309.646 566.67,309.666L567.139,309.666C568.096,309.666 569.122,309.617 570.216,309.519C571.311,309.421 572.415,309.294 573.528,309.138C574.662,308.962 575.775,308.786 576.87,308.61C577.964,308.415 578.98,308.229 579.918,308.054L579.889,312.626C578.99,312.802 578.101,312.968 577.221,313.124C576.342,313.28 575.453,313.417 574.554,313.535C573.538,313.671 572.493,313.789 571.418,313.886L571.418,316.495C571.906,316.553 572.346,316.641 572.737,316.759C573.128,316.895 573.47,317.071 573.763,317.286C574.056,317.501 574.29,317.784 574.466,318.136C574.642,318.507 574.779,318.957 574.877,319.484L574.877,319.631C574.896,319.69 574.906,319.748 574.906,319.807ZM605.529,302.485L605.529,303.247C605.529,303.481 605.519,303.716 605.499,303.95C605.48,304.146 605.451,304.488 605.411,304.976C605.392,305.465 605.353,306.031 605.294,306.676C605.255,307.301 605.196,307.966 605.118,308.669C605.06,309.373 604.982,310.027 604.884,310.633C604.806,311.219 604.718,311.727 604.62,312.157C604.522,312.587 604.425,312.851 604.327,312.948C603.741,313.535 603.037,313.974 602.217,314.267C601.416,314.541 600.575,314.726 599.696,314.824C598.817,314.922 597.937,314.961 597.058,314.941C596.179,314.922 595.358,314.912 594.596,314.912L593.307,314.912C592.701,314.893 592.007,314.873 591.226,314.853C590.463,314.834 589.662,314.805 588.822,314.766C587.982,314.707 587.191,314.639 586.448,314.56C585.725,314.463 585.09,314.355 584.543,314.238C584.015,314.101 583.683,313.935 583.546,313.74C583.39,313.525 583.253,313.29 583.136,313.036C583.019,312.782 582.911,312.538 582.814,312.304C582.56,311.659 582.325,310.975 582.11,310.252C581.895,309.509 581.71,308.757 581.553,307.995C581.417,307.213 581.299,306.442 581.202,305.68C581.123,304.917 581.084,304.194 581.084,303.511C581.084,303.139 581.114,302.661 581.172,302.074C581.231,301.469 581.309,300.824 581.407,300.14C581.504,299.437 581.622,298.723 581.758,298C581.895,297.277 582.042,296.603 582.198,295.978C582.374,295.353 582.56,294.815 582.755,294.366C582.95,293.897 583.165,293.584 583.4,293.428C583.595,293.291 583.957,293.164 584.484,293.047C585.012,292.93 585.627,292.832 586.331,292.754C587.034,292.656 587.787,292.578 588.588,292.519C589.389,292.441 590.151,292.383 590.874,292.344C591.597,292.285 592.251,292.246 592.838,292.226C593.424,292.207 593.854,292.197 594.127,292.197C594.498,292.197 594.997,292.217 595.622,292.256C596.267,292.295 596.96,292.363 597.703,292.461C598.445,292.539 599.198,292.646 599.96,292.783C600.722,292.9 601.425,293.047 602.07,293.223C602.734,293.399 603.301,293.594 603.77,293.809C604.239,294.024 604.532,294.258 604.649,294.512C604.747,294.727 604.835,295.04 604.913,295.45C605.011,295.841 605.089,296.291 605.148,296.799C605.206,297.307 605.255,297.844 605.294,298.411C605.353,298.977 605.392,299.524 605.411,300.052C605.451,300.56 605.48,301.029 605.499,301.459C605.519,301.889 605.529,302.231 605.529,302.485ZM600.282,303.452C600.282,303.061 600.263,302.651 600.224,302.221C600.185,301.772 600.058,301.381 599.843,301.049C599.686,300.814 599.305,300.628 598.7,300.492C598.113,300.355 597.459,300.257 596.736,300.199C596.032,300.14 595.348,300.111 594.684,300.111C594.02,300.091 593.551,300.081 593.277,300.081C593.062,300.081 592.681,300.101 592.134,300.14C591.607,300.179 591.04,300.247 590.434,300.345C589.848,300.423 589.301,300.531 588.793,300.668C588.285,300.785 587.972,300.931 587.855,301.107C587.738,301.244 587.64,301.508 587.562,301.899C587.503,302.27 587.445,302.68 587.386,303.13C587.347,303.559 587.318,303.98 587.298,304.39C587.278,304.781 587.269,305.064 587.269,305.24L587.269,305.943C587.288,306.256 587.318,306.578 587.357,306.911C587.396,307.243 587.435,307.555 587.474,307.848C587.532,308.142 587.611,308.356 587.708,308.493C587.767,308.591 587.943,308.679 588.236,308.757C588.529,308.835 588.881,308.913 589.291,308.992C589.721,309.05 590.17,309.099 590.639,309.138C591.108,309.177 591.558,309.216 591.988,309.255C592.437,309.275 592.828,309.294 593.16,309.314L593.893,309.314C594.127,309.314 594.528,309.294 595.094,309.255C595.681,309.216 596.286,309.158 596.912,309.079C597.556,308.982 598.143,308.874 598.67,308.757C599.217,308.62 599.569,308.464 599.725,308.288C599.843,308.151 599.94,307.868 600.018,307.438C600.097,306.989 600.155,306.51 600.194,306.002C600.233,305.474 600.253,304.976 600.253,304.507C600.272,304.019 600.282,303.667 600.282,303.452ZM600.81,287.42C600.595,287.576 600.282,287.791 599.872,288.064C599.462,288.318 599.032,288.572 598.582,288.826C598.152,289.08 597.723,289.305 597.293,289.501C596.882,289.676 596.55,289.764 596.296,289.764C596.003,289.764 595.671,289.667 595.3,289.471C594.948,289.256 594.586,289.032 594.215,288.797C593.844,288.543 593.482,288.318 593.131,288.123C592.798,287.908 592.505,287.801 592.251,287.801C592.036,287.801 591.792,287.879 591.519,288.035C591.245,288.172 590.972,288.348 590.698,288.563C590.424,288.778 590.17,289.002 589.936,289.237C589.701,289.452 589.516,289.628 589.379,289.764L587.65,287.859L588.529,287.273C588.939,286.98 589.369,286.687 589.819,286.394C590.268,286.101 590.698,285.847 591.108,285.632C591.519,285.397 591.802,285.28 591.958,285.28C592.232,285.28 592.554,285.378 592.925,285.573C593.297,285.749 593.678,285.944 594.069,286.159C594.479,286.374 594.87,286.579 595.241,286.775C595.632,286.951 595.964,287.039 596.237,287.039C596.433,287.039 596.658,286.98 596.912,286.863C597.185,286.745 597.449,286.609 597.703,286.452C597.977,286.296 598.231,286.13 598.465,285.954C598.7,285.759 598.895,285.602 599.051,285.485L600.81,287.42ZM624.457,297.15C622.542,297.248 620.637,297.356 618.741,297.473C616.866,297.57 614.97,297.697 613.055,297.854L612.997,300.169L620.559,299.73C620.656,300.394 620.725,301.049 620.764,301.693C620.822,302.338 620.852,302.993 620.852,303.657C620.852,303.931 620.842,304.214 620.822,304.507L620.822,305.357L613.788,306.617L614.228,310.252C615.713,310.154 617.188,310.017 618.654,309.841C620.139,309.646 621.633,309.48 623.138,309.343C623.275,310.32 623.412,311.307 623.548,312.304C623.685,313.28 623.88,314.238 624.134,315.176C621.36,315.156 618.605,315.156 615.869,315.176C613.134,315.215 610.378,315.234 607.604,315.234C607.662,312.948 607.731,310.672 607.809,308.405C607.887,306.139 607.926,303.853 607.926,301.547L607.926,300.99C607.926,299.661 607.907,298.342 607.868,297.033C607.829,295.704 607.789,294.366 607.75,293.018C609.294,293.037 610.828,293.047 612.352,293.047C613.896,293.027 615.449,293.018 617.012,293.018C618.204,293.018 619.386,293.047 620.559,293.106C621.751,293.145 622.943,293.194 624.134,293.252L624.457,297.15ZM647.694,309.841C647.694,310.779 647.469,311.541 647.02,312.128C646.57,312.694 645.935,313.153 645.114,313.505C644.43,313.798 643.571,314.033 642.535,314.209C641.5,314.365 640.425,314.482 639.311,314.56C638.197,314.619 637.103,314.658 636.028,314.678C634.954,314.697 634.055,314.707 633.332,314.707C632.101,314.707 630.88,314.687 629.668,314.648C628.476,314.609 627.265,314.551 626.034,314.472C626.092,312.479 626.034,310.506 625.858,308.552C627.323,308.591 628.779,308.63 630.225,308.669C631.691,308.689 633.156,308.718 634.622,308.757L636.321,308.816C636.908,308.835 637.494,308.845 638.08,308.845L638.52,308.845C638.715,308.845 638.92,308.835 639.135,308.816C639.35,308.796 639.546,308.767 639.721,308.728C639.917,308.689 640.063,308.63 640.161,308.552C640.239,308.474 640.288,308.366 640.308,308.229C640.327,308.073 640.337,307.936 640.337,307.819C640.337,307.604 640.308,307.35 640.249,307.057C640.19,306.744 640.102,306.49 639.985,306.295C639.966,306.275 639.897,306.256 639.78,306.236C639.682,306.217 639.565,306.207 639.428,306.207C639.292,306.188 639.165,306.178 639.047,306.178C638.93,306.158 638.862,306.148 638.842,306.148C637.592,306.051 636.341,305.982 635.09,305.943C633.859,305.904 632.619,305.836 631.368,305.738C630.801,305.68 630.215,305.621 629.61,305.562C629.023,305.504 628.476,305.396 627.968,305.24C627.48,305.103 627.06,304.8 626.708,304.331C626.376,303.843 626.102,303.296 625.887,302.69C625.692,302.065 625.545,301.439 625.448,300.814C625.369,300.189 625.33,299.661 625.33,299.231C625.33,298.528 625.399,297.864 625.535,297.238C625.672,296.593 625.887,295.998 626.18,295.45C626.493,294.903 626.884,294.425 627.353,294.014C627.822,293.584 628.398,293.233 629.082,292.959C630.254,292.51 631.505,292.197 632.834,292.021C634.182,291.845 635.471,291.757 636.702,291.757C638.148,291.757 639.575,291.845 640.982,292.021C642.389,292.197 643.795,292.422 645.202,292.695L645.144,294.395L645.144,296.066C645.144,296.633 645.173,297.209 645.232,297.795L645.407,299.495L639.839,299.612C638.002,299.632 636.146,299.681 634.27,299.759C634.035,299.759 633.713,299.769 633.303,299.788C632.912,299.808 632.531,299.837 632.159,299.876C631.788,299.896 631.466,299.915 631.192,299.935L630.782,299.964C630.684,300.179 630.626,300.404 630.606,300.638C630.587,300.853 630.577,301.078 630.577,301.312L630.577,301.752C630.596,301.928 630.645,302.065 630.723,302.162C630.743,302.182 630.909,302.211 631.222,302.25C631.534,302.289 631.876,302.328 632.247,302.368C632.638,302.407 633,302.446 633.332,302.485C633.684,302.524 633.899,302.543 633.977,302.543L636.234,302.749C637.113,302.827 638.002,302.915 638.901,303.012C639.819,303.11 640.698,303.237 641.539,303.393C642.379,303.53 643.112,303.696 643.737,303.892C644.303,304.087 644.821,304.4 645.29,304.83C645.779,305.24 646.199,305.728 646.551,306.295C646.902,306.842 647.176,307.428 647.371,308.054C647.586,308.659 647.694,309.255 647.694,309.841Z" style="fill:rgb(71,0,0);"/>
                </g>
            </g>
        </g>
    </g>
</svg>
