<svg width="97" height="79" viewBox="0 0 97 79" fill="none" xmlns="http://www.w3.org/2000/svg">
<path fill-rule="evenodd" clip-rule="evenodd" d="M47.444 15.1493C49.2881 12.5001 51.0345 9.80205 52.6815 7.05521L54.9351 3.30092L59.2994 3.64953C60.4009 3.73667 61.4798 3.78371 62.5046 3.78894C63.8954 3.73491 65.2863 3.70703 66.6754 3.70703C71.1721 3.70703 75.7177 3.55191 80.3173 3.24167L96.4724 2.15234L86.2764 14.731C82.1613 19.8081 78.0724 24.8591 74.0167 29.8752C71.0223 33.5894 67.939 37.2879 64.7687 40.9707C66.9055 44.3171 69.1172 47.6234 71.4057 50.8931C73.1625 53.3733 74.9718 55.8273 76.8315 58.2569C78.7452 60.7005 80.6832 63.172 82.6492 65.6679L91.2942 76.6482L52.8959 77.8683L50.7817 74.2151C49.1678 71.4265 47.5068 68.7075 45.7865 66.0374C44.0628 68.7581 42.3634 71.5484 40.6867 74.4086L38.1908 78.6665L33.3333 77.7846C32.5124 77.6347 31.6758 77.5389 30.82 77.497H27.2976C25.356 77.497 23.3882 77.5214 21.3961 77.572L0 78.6979C0 78.6979 27.4755 43.2539 27.4755 43.2522C27.1025 42.6474 26.7277 42.0425 26.3182 41.382L26.2816 41.3227C25.1417 39.4055 23.9756 37.4883 22.7538 35.524C20.5368 32.1236 18.2414 28.7737 15.8345 25.4238L0.364296 3.07784L14.7765 3.87787C18.529 4.08702 22.2275 4.2177 25.8754 4.26999C29.7151 4.32402 33.5844 4.46175 37.4798 4.68135L41.2515 4.89395L43.167 8.14975C44.5561 10.5097 45.9852 12.8504 47.444 15.1493ZM80.7913 10.2866C76.0332 10.6073 71.3273 10.7676 66.6754 10.7676C65.3403 10.7676 64.0035 10.7938 62.6667 10.8478C61.3822 10.8478 60.0732 10.7937 58.7364 10.6874C56.9726 13.6277 55.1007 16.5157 53.1225 19.348C51.1983 22.1297 49.2462 24.9358 47.268 27.7698C45.5564 25.0961 43.8188 22.4504 42.055 19.829C40.3434 17.1571 38.6859 14.4556 37.0824 11.7297C33.2863 11.5153 29.5164 11.3829 25.7743 11.3288C22.0306 11.2748 18.2344 11.1423 14.3861 10.928L21.6035 21.3541C24.0628 24.7754 26.4418 28.2509 28.7407 31.7803C29.9712 33.7585 31.1739 35.7367 32.3504 37.7149C33.5809 39.6931 34.8097 41.6975 36.0402 43.7297L15.0275 70.8374L21.1225 70.5166C23.207 70.4626 25.2653 70.4365 27.2976 70.4365H30.9874C32.2161 70.4905 33.4205 70.623 34.5952 70.8374C36.4131 67.7367 38.2588 64.7162 40.129 61.7742C42.0009 58.7798 43.953 55.7873 45.9853 52.7929C47.7491 55.8396 49.5669 58.8339 51.4388 61.7742C53.309 64.6622 55.1269 67.6286 56.8924 70.677L77.1016 70.0356C75.1233 67.5223 73.173 65.0369 71.2471 62.5776C69.3229 60.0644 67.451 57.5249 65.6331 54.9576C62.2658 50.1454 59.0571 45.253 56.0088 40.2805C60.3399 35.362 64.5107 30.4156 68.5212 25.4448C72.584 20.4182 76.6745 15.3655 80.7913 10.2866Z" fill="#470000"/>
<path d="M81.1267 9.85012C77.0097 14.9294 72.9196 19.982 68.8561 25.0079C64.8461 29.9803 60.6757 34.9259 56.3449 39.8449C59.3925 44.8172 62.6005 49.7094 65.9689 54.5214C67.7868 57.0878 69.6581 59.6275 71.5829 62.1404C73.5077 64.5999 75.4592 67.0861 77.4375 69.599L57.2271 70.2406C55.4627 67.193 53.6449 64.2256 51.7735 61.3384C49.9022 58.3978 48.0843 55.4036 46.3199 52.356C44.2882 55.3502 42.3367 58.3443 40.4654 61.3384C38.594 64.2791 36.7494 67.2999 34.9316 70.401C33.7553 70.1871 32.5523 70.0535 31.3226 70C30.0928 70 28.8631 70 27.6334 70C25.6016 70 23.5432 70.0267 21.458 70.0802C19.4263 70.1871 17.3945 70.2941 15.3628 70.401L36.3752 43.2935C35.1454 41.2617 33.9157 39.2567 32.686 37.2785C31.5097 35.3002 30.3067 33.3219 29.077 31.3437C26.7779 27.8149 24.3986 24.3396 21.9392 20.9177C19.5332 17.4424 17.1272 13.967 14.7212 10.4917C18.5708 10.7056 22.3669 10.8392 26.1096 10.8927C29.8522 10.9462 33.6216 11.0798 37.4178 11.2937C39.0218 14.0205 40.6792 16.7206 42.3901 19.3939C44.1545 22.0138 45.8922 24.6604 47.6031 27.3337C49.5814 24.5 51.5329 21.693 53.4577 18.9127C55.436 16.079 57.3073 13.1918 59.0717 10.2511C60.4084 10.358 61.7183 10.4115 63.0015 10.4115C64.3382 10.358 65.6748 10.3313 67.0115 10.3313C71.6631 10.3313 76.3681 10.1709 81.1267 9.85012Z" fill="#F9F6BD"/>
</svg>
