<svg width="100" height="100" viewBox="0 0 100 100" fill="none" xmlns="http://www.w3.org/2000/svg">
<path fill-rule="evenodd" clip-rule="evenodd" d="M59.79 7.8775L56.421 16.6555C63.925 18.1275 70.7261 22.0545 75.7531 27.8165L81.671 20.5105C86.299 25.4355 89.722 31.3655 91.674 37.8355L82.387 39.3075C84.864 46.5415 84.864 54.3955 82.387 61.6305L91.674 63.1015C89.722 69.5715 86.299 75.5015 81.671 80.4265L75.7531 73.1205C70.7261 78.8825 63.925 82.8095 56.421 84.2815L59.79 93.0595C53.211 94.6045 46.364 94.6045 39.785 93.0595L43.153 84.2815C35.649 82.8095 28.848 78.8825 23.821 73.1205L17.9041 80.4265C13.2761 75.5015 9.852 69.5715 7.901 63.1015L17.187 61.6305C14.71 54.3955 14.71 46.5415 17.187 39.3075L7.901 37.8355C9.852 31.3655 13.2761 25.4355 17.9041 20.5105L23.821 27.8165C28.848 22.0545 35.649 18.1275 43.153 16.6555L39.785 7.8775C46.364 6.3325 53.211 6.3325 59.79 7.8775ZM49.787 26.5695C62.978 26.5695 73.686 37.2785 73.686 50.4685C73.686 63.6585 62.978 74.3675 49.787 74.3675C36.597 74.3675 25.8879 63.6585 25.8879 50.4685C25.8879 37.2785 36.597 26.5695 49.787 26.5695Z" fill="#F9F6BD"/>
<path fill-rule="evenodd" clip-rule="evenodd" d="M65.1899 9.95039L64.078 12.8474C68.112 14.3804 71.874 16.5524 75.218 19.2794L81.345 11.7154L85.885 16.5474C91.125 22.1244 95.0021 28.8384 97.2111 36.1644L99.126 42.5134L89.512 44.0364C90.202 48.2964 90.202 52.6404 89.512 56.9004L99.126 58.4234L97.2111 64.7724C95.0021 72.0984 91.125 78.8134 85.885 84.3894L81.345 89.2224L75.218 81.6574C71.874 84.3854 68.112 86.5574 64.078 88.0894L67.566 97.1774L61.11 98.6934C53.661 100.443 45.908 100.443 38.459 98.6934L32.0031 97.1774L35.49 88.0894C31.457 86.5564 27.695 84.3854 24.35 81.6574L18.224 89.2224L13.683 84.3894C8.44298 78.8134 4.56706 72.0984 2.35706 64.7724L0.442993 58.4234L10.057 56.9004C9.36701 52.6404 9.36701 48.2964 10.057 44.0364L0.442993 42.5134L2.35706 36.1644C4.56706 28.8384 8.44298 22.1244 13.683 16.5474L18.224 11.7154L24.35 19.2794C27.695 16.5524 31.457 14.3804 35.49 12.8474L32.0031 3.75941L38.459 2.24339C45.908 0.494391 53.661 0.494391 61.11 2.24339L67.566 3.75941L65.1899 9.95039ZM59.787 7.87739C53.208 6.33239 46.361 6.33239 39.782 7.87739L43.15 16.6554C35.646 18.1274 28.845 22.0544 23.818 27.8164L17.901 20.5104C13.273 25.4354 9.84895 31.3654 7.89795 37.8354L17.184 39.3074C14.707 46.5414 14.707 54.3954 17.184 61.6304L7.89795 63.1014C9.84895 69.5714 13.273 75.5014 17.901 80.4264L23.818 73.1204C28.845 78.8824 35.646 82.8094 43.15 84.2814L39.782 93.0594C46.361 94.6044 53.208 94.6044 59.787 93.0594L56.418 84.2814C63.922 82.8094 70.723 78.8824 75.75 73.1204L81.668 80.4264C86.296 75.5014 89.719 69.5714 91.671 63.1014L82.384 61.6304C84.861 54.3954 84.861 46.5414 82.384 39.3074L91.671 37.8354C89.719 31.3654 86.296 25.4354 81.668 20.5104L75.75 27.8164C70.723 22.0544 63.922 18.1274 56.418 16.6554L59.787 7.87739ZM49.7841 26.5694C62.9751 26.5694 73.683 37.2784 73.683 50.4684C73.683 63.6584 62.9751 74.3674 49.7841 74.3674C36.5941 74.3674 25.885 63.6584 25.885 50.4684C25.885 37.2784 36.5941 26.5694 49.7841 26.5694ZM49.7841 32.3564C39.7881 32.3564 31.672 40.4724 31.672 50.4684C31.672 60.4644 39.7881 68.5804 49.7841 68.5804C59.7811 68.5804 67.896 60.4644 67.896 50.4684C67.896 40.4724 59.7811 32.3564 49.7841 32.3564Z" fill="#470000"/>
</svg>
