<?xml version="1.0" encoding="UTF-8" standalone="no"?>
<!DOCTYPE svg PUBLIC "-//W3C//DTD SVG 1.1//EN" "http://www.w3.org/Graphics/SVG/1.1/DTD/svg11.dtd">
<svg width="100%" height="100%" viewBox="0 0 243 47" version="1.1" xmlns="http://www.w3.org/2000/svg" xmlns:xlink="http://www.w3.org/1999/xlink" xml:space="preserve" xmlns:serif="http://www.serif.com/" style="fill-rule:evenodd;clip-rule:evenodd;stroke-linejoin:round;stroke-miterlimit:2;">
    <g transform="matrix(1,0,0,1,-1026.62,-453.529)">
        <g transform="matrix(6.12323e-17,-1,5.13241,3.14269e-16,0,1920)">
            <g transform="matrix(6.12323e-17,0.19484,-1,1.19305e-17,1644.1,111.579)">
                <g>
                    <g transform="matrix(0.0821561,0,0,0.0736733,727.776,89.4728)">
                        <path d="M-3276,1274C-3276,1274 -3123.42,1237.28 -2797,1237C-2470.58,1236.72 -2169.4,1266.16 -1803,1237C-1436.6,1207.84 -1367.68,1245.94 -1044,1237C-720.318,1228.06 -486,1237 -486,1237L-397,1274L-397,1592L-443,1592L-397,1644L-397,1745C-397,1745 -1283.93,1730.3 -1535,1768C-1786.07,1805.7 -2832.42,1797.18 -2884,1800C-2935.58,1802.82 -3038.91,1770.73 -3097,1768C-3155.09,1765.27 -3198,1745 -3198,1745L-3312,1604C-3312,1604 -3297.14,1515.23 -3222,1514C-3222,1514 -3270.94,1515.32 -3276,1476C-3283.41,1418.44 -3278.49,1311.28 -3276,1274Z" style="fill:rgb(220,115,57);"/>
                    </g>
                    <g transform="matrix(0.0821561,0,0,0.0736733,727.361,89.4728)">
                        <path d="M-481.504,1233.89C-471.354,1251.34 -469.07,1269.84 -481.504,1290.31C-481.504,1290.31 -464.542,1321.39 -486,1352C-486,1352 -482.296,1398.92 -508,1414C-508,1414 -494.915,1470.32 -508,1517C-508,1517 -464.936,1562.81 -486,1599L-460.831,1611L-386,1599L-386,1269.43L-424,1247.46L-481.504,1233.89Z" style="fill:rgb(169,54,24);"/>
                    </g>
                    <g transform="matrix(0.0821561,0,0,0.0736733,85.0315,89.4728)">
                        <path d="M6711,1522L7310,1516C7310,1516 7314.32,1522.46 7316,1504C7316,1504 6718.35,1525.94 6711,1522Z" style="fill:rgb(255,162,87);"/>
                    </g>
                    <g transform="matrix(0.0821561,0,0,0.0736733,85.0315,89.4728)">
                        <path d="M4716,1509L4716,1519L4633,1564L4620,1576L4592,1564L4556,1538L4556,1519L4580,1509L4716,1509Z" style="fill:rgb(208,80,31);"/>
                    </g>
                    <g transform="matrix(0.0821561,0,0,0.0736733,727.361,89.4728)">
                        <path d="M-2383.25,1729.98C-2443.45,1746.54 -2674.4,1731.89 -2714.3,1731.6C-2881.15,1730.37 -2941.14,1775.48 -2955.57,1799.95L-2968.43,1792.05C-2956.63,1772.81 -2901.73,1707.01 -2668.8,1725.04C-2646.01,1726.81 -2436.79,1743 -2383.25,1729.98Z" style="fill:rgb(174,63,7);"/>
                    </g>
                    <g transform="matrix(0.0821561,0,0,0.0736733,727.361,89.4728)">
                        <path d="M-390.034,1353.88L-390.42,1370.67C-536.737,1362.52 -638.959,1336.95 -778.562,1349.42C-931.463,1363.09 -976.504,1384.11 -1196,1389C-965.03,1379.08 -918.927,1354.15 -758.65,1338.66C-642.402,1327.42 -502.858,1350.69 -390.034,1353.88Z" style="fill:rgb(113,21,10);"/>
                    </g>
                    <g transform="matrix(0.0821561,0,0,0.0736733,85.0315,89.4728)">
                        <path d="M4566,1614.1C4566,1614.1 4584.23,1633.84 4612,1673C4639.77,1712.16 4652.95,1737.83 4687,1750C4721.05,1762.17 4821.77,1779.14 4848,1773C4874.23,1766.86 4885,1761 4885,1761C4885,1761 4805.8,1781.16 4755.43,1750C4705.05,1718.84 4664,1673 4664,1673L4641,1614.1L4566,1587L4566,1614.1Z" style="fill:rgb(183,58,30);"/>
                    </g>
                    <g transform="matrix(0.0821561,0,0,0.0736733,727.361,89.4728)">
                        <path d="M-619,1237C-619,1237 -764.084,1262.18 -843,1274C-921.916,1285.82 -1561.35,1218.21 -1661,1237C-1760.65,1255.79 -1982.1,1262.12 -2248,1237C-2248,1237 -1699.78,1216.12 -1617,1214C-1534.22,1211.88 -1131.62,1245.94 -1088,1237C-1044.38,1228.06 -619,1237 -619,1237Z" style="fill:rgb(250,170,85);"/>
                    </g>
                    <g transform="matrix(0.0821561,0,0,0.0736733,727.361,89.4728)">
                        <path d="M-3191,1615C-3191,1615 -3195.26,1619.86 -3050,1615C-2904.74,1610.14 -2892.2,1596.76 -2828,1615C-2763.8,1633.24 -2590.54,1615.24 -2542,1615C-2493.46,1614.76 -1860.55,1610.62 -1805,1615C-1749.45,1619.38 -1625,1592 -1625,1592L-3230,1592L-3191,1615Z" style="fill:rgb(250,170,85);"/>
                    </g>
                    <g transform="matrix(0.0821561,0,0,0.0736733,727.361,89.4728)">
                        <path d="M-2845.31,1536.94C-2932.1,1521.61 -2973.66,1517.64 -3110.7,1536.94C-2988.22,1503.14 -2953.33,1500.75 -2845.31,1536.94Z" style="fill:rgb(250,170,85);"/>
                    </g>
                    <g transform="matrix(0.0821561,0,0,0.0736733,727.361,89.4728)">
                        <path d="M-3275,1547C-3275,1547 -3271.24,1520.31 -3250,1527C-3228.76,1533.69 -3223.49,1561.47 -3193,1560C-3193,1560 -3229.84,1593.27 -3250,1583C-3270.16,1572.73 -3271.56,1560.31 -3275,1547Z" style="fill:rgb(155,44,17);"/>
                    </g>
                    <g transform="matrix(0.0821561,0,0,0.0736733,727.361,89.4728)">
                        <path d="M-3300,1611C-3300,1611 -3280.64,1578.97 -3251,1611C-3221.36,1643.03 -3207.09,1654.25 -3195,1679C-3182.91,1703.75 -3170.08,1739.1 -3124,1751C-3077.92,1762.9 -2994.16,1780.51 -2917,1751L-2892,1751C-2892,1751 -2946.28,1763.51 -2967,1795L-3081,1795L-3195,1766L-3251,1708L-3328,1611L-3300,1611Z" style="fill:rgb(145,41,30);"/>
                    </g>
                    <g transform="matrix(0.0821561,0,0,0.0736733,727.361,89.5465)">
                        <path d="M-2550.69,1663.43L-2543.22,1672.56C-2547.81,1676.54 -2568.72,1694.68 -2611.45,1700.56C-2660.92,1707.35 -2706.87,1692.34 -2719.14,1688.61L-2718.86,1687.39C-2706.87,1690.24 -2660.56,1702.31 -2612.53,1692.64C-2570.45,1684.17 -2551.23,1663.92 -2550.69,1663.43Z" style="fill:rgb(176,58,20);"/>
                    </g>
                    <g transform="matrix(0.0821561,0,0,0.0736733,727.361,89.4728)">
                        <path d="M-390.322,1408.38L-390.605,1432.7C-555.165,1427.73 -610.517,1434.1 -735.139,1460.73C-774.239,1469.09 -821.988,1479.33 -887.689,1486.75C-940.604,1492.72 -871.845,1485.7 -794.029,1467.35C-734.157,1453.23 -686.171,1437.68 -623.291,1426.46C-526.531,1409.17 -428.283,1409.01 -390.322,1408.38Z" style="fill:rgb(71,0,0);"/>
                    </g>
                    <g transform="matrix(0.0821561,0,0,0.0736733,727.361,89.4728)">
                        <path d="M-398.293,1400.7C-624.289,1363.39 -710.326,1353.91 -852.617,1368.71C-951.628,1379.01 -1016.1,1387.21 -1181.08,1389.51C-901.485,1376.65 -870.634,1353.05 -744.837,1348.4C-629.025,1344.11 -483.318,1364.85 -395.303,1376.61L-398.293,1400.7Z" style="fill:rgb(169,54,24);"/>
                    </g>
                    <g transform="matrix(0.0821561,0,0,0.0736733,727.361,89.4728)">
                        <path d="M-387.13,1514.79L-387.176,1530.18C-744.289,1525.66 -744.294,1530.4 -1074.97,1523.44C-1186.79,1521.08 -1027.44,1523.49 -834.863,1520.98C-639.314,1518.43 -639.364,1516.81 -387.13,1514.79Z" style="fill:rgb(73,11,2);"/>
                    </g>
                    <g transform="matrix(0.0821561,0,0,0.0736733,727.361,89.4728)">
                        <path d="M-413.933,1592.97L-415.476,1619.6C-448.994,1617.02 -601.201,1605.33 -834.839,1594.45C-1051.9,1584.35 -1159.07,1584.2 -1186.97,1583.93C-1162.75,1583.31 -1054.9,1579.61 -834.552,1582.24C-741.002,1583.36 -547.943,1586.91 -413.933,1592.97Z" style="fill:rgb(71,0,0);"/>
                    </g>
                    <g transform="matrix(0.0821561,0,0,0.0736733,727.361,89.4728)">
                        <path d="M-1181.13,1769.12L-1189.47,1746.65C-977.157,1654.4 -866.677,1614.59 -718.843,1632.86C-670.954,1638.78 -628.05,1648.29 -517.265,1671.12L-517.455,1672.38C-696.469,1641.66 -773.588,1623.44 -896.666,1654.89C-998.494,1680.92 -1121.64,1740.95 -1181.13,1769.12Z" style="fill:rgb(173,62,17);"/>
                    </g>
                    <g transform="matrix(0.0821561,0,0,0.0736733,727.361,89.4728)">
                        <path d="M-1639.31,1351.31C-1705.2,1338.41 -1760.5,1327.85 -1829.22,1332.42C-1886.79,1336.24 -1922.87,1346.55 -2033.21,1351.22C-1893.41,1332.09 -1877.44,1321.37 -1820.59,1318.22C-1757.17,1314.7 -1689.95,1335.26 -1639.31,1351.31Z" style="fill:rgb(173,62,17);"/>
                    </g>
                    <g transform="matrix(0.0821561,0,0,0.0736733,727.361,89.4728)">
                        <path d="M-2035.64,1262.62L-2035.54,1259.61C-1842.37,1265.67 -1841.88,1270.38 -1696.77,1249.02C-1647.38,1241.75 -1601.14,1233.19 -1530.86,1235.42C-1450.01,1237.99 -1427.7,1246.4 -1239.08,1251.9L-1239.82,1276.2C-1513.73,1260.9 -1521.8,1239.78 -1661.92,1256.93C-1715.66,1263.51 -1774.1,1270.89 -1819.17,1272.51C-1864.73,1274.13 -1879.11,1271.72 -2035.64,1262.62Z" style="fill:rgb(213,82,30);"/>
                    </g>
                    <g transform="matrix(0.0821561,0,0,0.0736733,727.361,89.4728)">
                        <path d="M-3266.04,1415.11L-3265.45,1401.49C-3003.18,1416.87 -2944.97,1394.87 -2767.2,1469.77L-2767.96,1472.05C-2946.28,1401.41 -3003.1,1424.69 -3266.04,1415.11Z" style="fill:rgb(173,62,17);"/>
                    </g>
                    <g transform="matrix(0.0821561,0,0,0.0736733,727.361,89.4728)">
                        <path d="M-2179.28,1552.57L-2187.61,1574.93C-2266.47,1538.42 -2327.89,1520.92 -2461.58,1513.92C-2573.39,1508.06 -2639.58,1508.96 -2747.01,1479.74L-2746.7,1478.29C-2562.25,1520.71 -2449.91,1483.01 -2289.3,1516.87C-2229.01,1529.58 -2180.86,1551.9 -2179.28,1552.57Z" style="fill:rgb(173,62,17);"/>
                    </g>
                    <g transform="matrix(0.0821561,0,0,0.0736733,726.95,89.0308)">
                        <path d="M-2483.24,1369.81L-2484.45,1374.23C-2485.54,1373.89 -2723.06,1289.54 -3021.01,1307.4C-3068.76,1310.27 -3087.23,1313.63 -3092.93,1314.67L-3096.85,1290.75C-3053.87,1284.62 -2931.55,1278.82 -2783.06,1298.41C-2623.23,1319.51 -2514.12,1359.1 -2483.24,1369.81Z" style="fill:rgb(212,104,40);"/>
                    </g>
                    <g transform="matrix(0.0821561,0,0,0.0736733,727.361,89.4728)">
                        <path d="M-1200,1416C-1200,1416 -1017.01,1430.96 -938,1416C-858.989,1401.04 -660.275,1371.99 -604,1376C-604,1376 -760.75,1360.74 -920,1396C-1016.45,1417.35 -1168.06,1418.34 -1200,1416Z" style="fill:rgb(255,189,93);"/>
                    </g>
                    <g transform="matrix(0.0821561,0,0,0.0736733,727.361,89.4728)">
                        <path d="M-1099,1733C-1099,1733 -453.558,1729.28 -406,1725C-406,1725 -375.041,1752.44 -406,1752C-436.959,1751.56 -1160,1752 -1160,1752L-1099,1733Z" style="fill:rgb(109,21,7);"/>
                    </g>
                    <g transform="matrix(0.0821561,0,0,0.0736733,727.361,89.4728)">
                        <path d="M-386,1653C-386,1653 -507.711,1668.08 -548,1693C-588.289,1717.92 -637.989,1710.52 -681,1703C-724.011,1695.49 -800.753,1672.38 -828,1703C-855.247,1733.62 -902.871,1721.11 -920,1724C-937.129,1726.89 -1083.85,1722.67 -1112,1736C-1140.15,1749.33 -728,1736 -728,1736L-398,1736L-386,1653Z" style="fill:rgb(188,68,33);"/>
                    </g>
                    <g transform="matrix(0.0821561,0,0,0.0736733,727.361,89.4728)">
                        <path d="M-390.359,1294.91L-391.665,1305.58C-405.655,1303.06 -479.857,1288.73 -513.974,1286.01C-547.111,1283.37 -571.039,1287.14 -581.814,1288.39C-571.073,1286.54 -547.264,1281.41 -513.817,1282.19C-479.398,1282.99 -404.642,1293.15 -390.359,1294.91Z" style="fill:rgb(100,11,3);"/>
                    </g>
                    <g transform="matrix(0.0821561,0,0,0.0736733,727.361,89.4728)">
                        <path d="M-2542,1753C-2542,1753 -2530.35,1778.7 -2520,1788C-2509.65,1797.3 -2873,1788 -2873,1788C-2873,1788 -2579.14,1750.58 -2542,1753Z" style="fill:rgb(251,167,77);"/>
                    </g>
                    <g transform="matrix(0.0821561,0,0,0.0736733,727.361,89.4728)">
                        <path d="M-2494.62,1798.54L-2665.28,1803.42C-2715.75,1804.09 -2895.12,1801.78 -2915.11,1801.53C-2844.68,1796.67 -2704.84,1786.5 -2646.81,1784.84L-2495.04,1780.51L-2494.62,1798.54Z" style="fill:rgb(173,62,17);"/>
                    </g>
                    <g transform="matrix(0.0821561,0,0,0.0736733,727.361,89.4728)">
                        <path d="M-2916,1770C-2916,1770 -2847.78,1760.95 -2784,1754C-2720.22,1747.05 -2494,1733 -2494,1733L-2541,1733C-2541,1733 -2690.88,1736.9 -2757,1733C-2823.12,1729.1 -2896.41,1751.07 -2916,1770Z" style="fill:rgb(251,167,77);"/>
                    </g>
                    <g transform="matrix(0.0821561,0,0,0.0736733,727.361,89.4728)">
                        <path d="M-3172,1686C-3172,1686 -2972.92,1643.7 -2804,1677L-2722,1686C-2722,1686 -2885.68,1628.41 -2965,1640C-3044.32,1651.59 -3161.85,1660 -3172,1686Z" style="fill:rgb(255,162,87);"/>
                    </g>
                    <g transform="matrix(0.0821561,0,0,0.0736733,727.361,89.4728)">
                        <path d="M-3199.2,1690.92L-3196.81,1675C-3187.2,1677.57 -3114.26,1697.09 -3079.64,1718.47C-3067.34,1726.08 -3083.58,1716.59 -3104.94,1710.16C-3143.07,1698.66 -3183.93,1693.14 -3199.2,1690.92Z" style="fill:rgb(144,40,31);"/>
                    </g>
                    <g transform="matrix(0.0821561,0,0,0.0736733,727.607,89.4728)">
                        <path d="M-2810.2,1667.87C-2833.05,1663.84 -2877.15,1652.17 -3027.59,1659.87C-3125.3,1664.87 -3169.65,1677.35 -3174.85,1679.97C-3175.22,1680.16 -3175.77,1679.79 -3175.86,1679.86C-3176.14,1680.07 -3176.85,1681.58 -3176.87,1679.92C-3176.92,1675.27 -3107.24,1646.84 -3029.17,1637.31C-2944.09,1626.92 -2871.37,1643.24 -2809.8,1666.13L-2810.2,1667.87Z" style="fill:rgb(255,162,87);"/>
                    </g>
                    <g transform="matrix(0.0821561,0,0,0.0736733,727.361,89.4728)">
                        <path d="M-3197.78,1688.56L-3204.27,1665.4C-3103.46,1635.04 -2980.81,1622.09 -2877.22,1642.43C-2744.3,1668.51 -2731.87,1690.5 -2663.95,1696.73L-2664.05,1699.27C-2732.73,1695.72 -2745.52,1674.28 -2878.78,1653.57C-3035.83,1629.18 -3194.72,1687.52 -3197.78,1688.56Z" style="fill:rgb(144,40,31);"/>
                    </g>
                    <g transform="matrix(0.0821561,0,0,0.0736733,727.361,89.4728)">
                        <path d="M-3262.41,1616.31L-3268.25,1592.88C-3193.9,1571.01 -3186.7,1556.35 -3128.47,1527.73C-3072.75,1500.35 -3016.61,1494.96 -2998.81,1492.61L-2998.15,1498.13C-3029.77,1504.43 -3075.99,1512.75 -3129.68,1544.48C-3181.16,1574.9 -3189.95,1589.83 -3262.41,1616.31Z" style="fill:rgb(110,16,4);"/>
                    </g>
                    <g transform="matrix(0.0821561,0,0,0.0736733,725.307,89.0308)">
                        <path d="M-3050,1425C-3050,1425 -2982.93,1439.66 -2942,1453C-2901.07,1466.34 -2615.13,1539.23 -2566,1542C-2516.87,1544.77 -2513,1565.37 -2493,1579L-2478,1595L-2627,1595L-2648,1579C-2648,1579 -2851.18,1488.35 -2918,1480C-2984.82,1471.65 -3090.16,1436.91 -3090,1437C-3089.84,1437.09 -3050,1425 -3050,1425Z" style="fill:rgb(208,90,40);"/>
                    </g>
                    <g transform="matrix(0.0821561,0,0,0.0736733,727.361,89.4728)">
                        <path d="M-2996,1250C-2996,1250 -2380.34,1252.7 -2353,1250C-2325.66,1247.3 -2276,1250 -2276,1250C-2276,1250 -2518.22,1286.03 -2571,1285C-2623.78,1283.98 -3175.15,1265.67 -3212,1264L-2996,1250Z" style="fill:rgb(250,170,85);"/>
                    </g>
                    <g transform="matrix(0.0821561,0,0,0.0736733,727.361,89.4728)">
                        <path d="M-2489,1367C-2489,1367 -2563.6,1352.81 -2612,1353C-2660.4,1353.19 -2776.88,1333.53 -2818,1329C-2859.12,1324.48 -2929.5,1309.83 -2975,1306C-3013.53,1302.75 -3091,1306 -3091,1306C-3091,1306 -2830.56,1263.92 -2489,1367Z" style="fill:rgb(250,170,85);"/>
                    </g>
                    <g transform="matrix(0.0821561,0,0,0.0736733,727.361,89.4728)">
                        <path d="M-3190,1395C-3190,1395 -3046.11,1397.55 -2922,1406.68C-2797.89,1415.81 -2654,1419 -2654,1419C-2654,1419 -2677.48,1410.2 -2727,1395C-2806.04,1370.74 -2887.23,1369.88 -2929,1368C-2970.77,1366.12 -3142.41,1376.91 -3190,1395Z" style="fill:rgb(219,115,54);"/>
                    </g>
                    <g transform="matrix(0.0821561,0,0,0.0736733,727.361,89.4728)">
                        <path d="M-3266.56,1418.41L-3272.33,1394.95C-3190.59,1371.91 -3062.35,1335.66 -2925.99,1343.13C-2777.41,1351.27 -2673.14,1408.16 -2625.39,1434.48L-2626.4,1436.77C-2673.19,1412.88 -2776.73,1360.35 -2921.46,1356.1C-3057.53,1352.1 -3184.26,1392.31 -3266.56,1418.41Z" style="fill:rgb(173,62,17);"/>
                    </g>
                    <g transform="matrix(0.0821561,0,0,0.0736733,727.361,89.4728)">
                        <path d="M-2877,1513C-2877,1513 -2795.69,1543.97 -2767,1553C-2738.31,1562.03 -2683.99,1566.36 -2668,1571C-2668,1571 -2783.7,1534.3 -2877,1513Z" style="fill:rgb(250,170,85);"/>
                    </g>
                    <g transform="matrix(0.0821561,0,0,0.0736733,727.361,89.4728)">
                        <path d="M-1326.14,1311.38L-1329.52,1287.35C-1241.65,1275.01 -1189.01,1282.91 -1094.4,1289.83C-988.285,1297.59 -932.754,1290.12 -885.12,1283.4C-951.748,1296.53 -1001.63,1303.42 -1107.89,1301.08C-1194.1,1299.18 -1245.26,1295.48 -1326.14,1311.38Z" style="fill:rgb(255,189,93);"/>
                    </g>
                    <g transform="matrix(0.0821561,0,0,0.0736733,727.361,89.4728)">
                        <path d="M-1150,1616C-1150,1616 -838.567,1612.35 -774.546,1605.37C-710.526,1598.4 -446.89,1629.33 -403,1652C-403,1652 -419.243,1617.72 -439.312,1616C-771.038,1587.59 -1162,1590 -1162,1590L-1150,1616Z" style="fill:rgb(253,183,98);"/>
                    </g>
                    <g transform="matrix(0.0821561,0,0,0.0736733,727.361,89.4728)">
                        <path d="M-520,1414L-386,1414L-386,1354C-386,1354 -383.472,1412.66 -520,1414Z" style="fill:rgb(113,21,10);"/>
                    </g>
                    <g transform="matrix(0.0821561,0,0,0.0736733,727.361,89.4728)">
                        <path d="M-1137,1494C-1137,1494 -1135.77,1506.74 -1116,1506C-1096.23,1505.26 -1095,1494 -1095,1494C-1095,1494 -1111.22,1481.73 -1137,1494Z" style="fill:rgb(215,100,43);"/>
                    </g>
                    <g transform="matrix(0.0821561,0,0,0.0736733,727.361,89.4728)">
                        <path d="M-1151,1668C-1151,1668 -1078.24,1669.75 -999,1647C-919.762,1624.25 -836.736,1606.89 -788,1607L-1151,1607L-1151,1668Z" style="fill:rgb(237,144,67);"/>
                    </g>
                    <g transform="matrix(0.0821561,0,0,0.0736733,727.361,89.4728)">
                        <path d="M-1020,1698C-1020,1698 -700.22,1623.01 -570,1668C-570,1668 -792.52,1603.35 -1020,1698Z" style="fill:rgb(237,144,67);"/>
                    </g>
                    <g transform="matrix(0.0821561,0,0,0.0736733,727.361,89.4728)">
                        <path d="M-739,1292C-739,1292 -776.795,1332.29 -875,1325C-912.601,1322.21 -970.62,1289.22 -860.117,1285.05C-780.389,1282.04 -739,1292 -739,1292Z" style="fill:rgb(218,109,42);"/>
                    </g>
                    <g transform="matrix(0.0821561,0,0,0.0736733,727.361,89.4728)">
                        <path d="M-751,1292C-751,1292 -854.439,1272.34 -875,1292C-895.561,1311.66 -854.1,1308.38 -835,1308C-815.9,1307.62 -751,1292 -751,1292Z" style="fill:rgb(206,89,45);"/>
                    </g>
                    <g transform="matrix(0.0821561,0,0,0.0736733,727.114,89.2518)">
                        <path d="M-3295.79,1628.24L-3304.3,1605.83C-3239.16,1577.87 -3211.87,1579.25 -3180.83,1578.64C-3006.52,1575.21 -2414.88,1590.73 -1886.38,1590.33C-1656.85,1590.15 -1600.4,1609.05 -1599.91,1595.52L-1599.91,1600.52C-1679.4,1593.07 -1865.17,1595.12 -1952.47,1595.52C-2272.46,1597 -3090.86,1598.43 -3204.41,1603.17C-3238.61,1604.6 -3273.36,1618.61 -3295.79,1628.24Z" style="fill:rgb(71,0,0);"/>
                    </g>
                    <g transform="matrix(0.0821561,0,0,0.0736733,727.361,89.4728)">
                        <path d="M-3281.41,1505.55L-3274.57,1482.45C-3200.17,1509.63 -3108.84,1501.02 -3094.43,1499.66C-3026.95,1493.3 -3001.42,1483.37 -2946.49,1490.94C-2882.01,1499.82 -2771.82,1535.4 -2665.88,1569.5L-2666.12,1570.5C-2950.3,1490.43 -2958.04,1494.72 -3054.41,1511.1C-3065.06,1512.91 -3184.07,1537.12 -3281.41,1505.55Z" style="fill:rgb(71,0,0);"/>
                    </g>
                    <g transform="matrix(0.995898,0,0,1,-11.3706,113.519)">
                        <path d="M702.228,65.114L711,68L710.97,95.179L709.895,95.179L710.94,96.209L710.91,106.477C710.91,106.477 636.009,106.082 620,108C603.991,109.918 521.887,111.419 504.429,110.436C502.344,110.806 492.909,109.134 491.779,108.772C490.296,108.297 481.67,108.237 477.631,106.034L467.233,94.662C467.233,94.662 468.229,88.653 471.427,87.251C471.427,87.251 470.145,86.933 470,81C469.855,75.067 470,68 470,68C470,68 493.66,63.3 553,65C553,65 581.312,66.063 591.951,64.886C611.342,63.486 620.519,64.327 633.403,64.801C647.738,65.742 680.499,63.891 702.228,65.114ZM476.753,87.505C470.593,87.605 469.374,94.135 469.374,94.135L478.74,104.523C478.74,104.523 482.265,106.016 487.037,106.217C491.81,106.419 500.299,108.782 504.537,108.575C506.089,108.499 518.613,108.535 534.874,108.475C562.995,108.37 602.296,107.978 615.365,106.217C635.992,103.44 708.859,104.523 708.859,104.523L708.859,97.082L705.08,93.251L708.859,93.251L708.859,69.823L701.547,67.097C701.547,67.097 682.296,66.438 655.704,67.097C629.111,67.756 623.45,64.949 593.347,67.097C563.245,69.245 538.502,67.077 511.684,67.097C484.867,67.117 472.331,69.823 472.331,69.823C472.127,72.569 471.723,80.465 472.331,84.705C472.732,87.5 476.49,87.508 476.753,87.505Z" style="fill:rgb(71,0,0);"/>
                    </g>
                    <g transform="matrix(0.0821561,0,0,0.0736733,85.0315,89.4728)">
                        <path d="M4564,1594C4984.5,1631.06 5574.27,1618.76 6073,1625L6165.83,1594C6539.5,1580.96 6941.42,1583.67 7357,1594L7431,1594L7431,1753C7431,1753 6791.53,1746.81 6546,1753C6220.91,1761.2 6057.08,1813.95 5963,1815C5757.86,1817.3 4858,1815 4858,1815L4625,1753L4504,1594L4564,1594Z" style="fill:rgb(100,22,12);fill-opacity:0.2;"/>
                    </g>
                </g>
            </g>
            <g transform="matrix(2.77229e-17,0.088214,-0.45275,5.40155e-18,1577.85,173.052)">
                <path d="M536.974,293.737C537.231,293.781 537.485,293.826 537.736,293.873C539.207,294.113 540.488,294.407 541.624,294.762L541.664,294.776C542.91,295.206 544.054,295.884 545.089,296.821C545.921,297.528 546.658,298.346 547.295,299.277C547.354,298.617 547.412,297.957 547.471,297.298C547.931,292.151 548.375,286.988 548.804,281.81L548.993,279.525L551.255,279.148C553.515,278.772 555.761,278.457 557.993,278.206C560.309,277.949 562.643,277.82 564.991,277.82C567.754,277.82 570.518,277.866 573.281,277.96L575.721,278.042L575.998,279.84L575.979,279.449L578.955,279.34C582.284,279.218 585.583,279.081 588.851,278.928C592.143,278.745 595.466,278.532 598.82,278.288L602.249,278.038L602.187,278.793L603.975,278.698C606.848,278.545 609.705,278.377 612.548,278.194C615.494,278.006 618.441,277.912 621.387,277.912C622.156,277.912 622.988,277.928 623.885,277.96C624.863,277.995 625.84,278.098 626.784,278.265C627.824,278.41 628.81,278.627 629.743,278.913C630.832,279.237 631.798,279.668 632.654,280.198L632.662,280.203C634.682,281.471 636.23,283.172 637.304,285.307C638.381,287.355 638.919,289.538 638.919,291.854C638.919,295.293 637.787,297.965 635.69,299.936C634.678,300.887 633.51,301.636 632.178,302.165C634.443,306.212 636.472,310.335 638.268,314.532L639.978,318.53L619.461,319.022L619.193,316.302C618.961,313.957 618.616,311.799 618.152,309.831C617.837,308.491 617.434,307.106 616.943,305.672C616.689,305.693 616.434,305.716 616.179,305.739C616.11,305.745 616.041,305.752 615.972,305.758L616.204,316.272L613.351,316.422C611.551,316.517 609.751,316.565 607.951,316.565C607.026,316.565 606.115,316.548 605.22,316.517C604.325,316.483 603.412,316.417 602.483,316.318L601.671,316.231L602.274,319.127L579.201,319.513L579.201,317.779L569.747,319.21L568.991,316.802C568.502,315.243 568.013,313.699 567.522,312.162L567.519,312.154C567.252,311.305 566.99,310.455 566.733,309.606C566.733,309.606 559.94,309.854 559.94,309.854L558.494,316.058L545.872,316.058L546.018,314.286C545.425,314.686 544.762,315.045 544.027,315.36C542.776,315.896 541.206,316.339 539.284,316.666L539.257,316.67C537.556,316.926 535.791,317.119 533.937,317.249L533.911,317.251C532.128,317.345 530.376,317.407 528.656,317.438C526.947,317.469 525.518,317.485 524.369,317.485C522.405,317.485 520.455,317.454 518.521,317.391C516.62,317.329 514.688,317.235 512.725,317.111L509.884,316.93L509.968,314.085C510.056,311.074 509.968,308.093 509.702,305.141L509.405,301.845L512.714,301.933L513.805,301.962C512.988,301.51 512.242,300.856 511.573,299.963L511.534,299.906C510.877,298.939 510.331,297.858 509.887,296.606L509.87,296.552C509.519,295.429 509.257,294.306 509.074,293.139L509.069,293.094C508.928,291.968 508.862,291.018 508.862,290.244C508.862,288.922 508.993,287.674 509.249,286.499C509.524,285.207 509.958,284.014 510.564,282.882L510.584,282.847C511.233,281.711 512.043,280.717 512.997,279.878C513.977,278.98 515.174,278.234 516.623,277.654L516.643,277.647C518.692,276.861 520.879,276.312 523.205,276.004C525.454,275.711 527.607,275.565 529.661,275.565C532.054,275.565 534.415,275.711 536.744,276.002C539.019,276.286 541.293,276.649 543.567,277.092L546.035,277.572L545.858,282.702L545.858,285.274C545.858,286.067 545.899,286.873 545.981,287.693L546.586,293.535L536.974,293.737ZM599.033,281.225C595.659,281.47 592.315,281.685 589.002,281.869C585.719,282.023 582.406,282.161 579.063,282.283C579.124,283.572 579.17,284.86 579.201,286.149C579.262,287.406 579.323,288.679 579.385,289.968L583.756,290.52C583.971,293.373 584.17,296.211 584.354,299.033C584.569,301.855 584.753,304.708 584.907,307.592L581.916,307.638C582.008,309.141 582.069,310.629 582.1,312.101C582.13,313.543 582.146,315.015 582.146,316.518L598.665,316.242C598.512,315.506 598.404,314.755 598.343,313.988C598.312,313.221 598.297,312.454 598.297,311.687L598.297,308.926C598.297,308.006 598.328,307.101 598.389,306.211L593.695,306.119C593.665,304.831 593.634,303.573 593.603,302.346L593.603,295.352C593.634,294.309 593.665,293.25 593.695,292.177L598.803,292.361C598.864,290.52 598.88,288.679 598.849,286.839C598.818,284.967 598.88,283.096 599.033,281.225ZM579.845,304.724L581.791,304.694C581.679,302.867 581.554,301.051 581.417,299.24L581.416,299.224C581.284,297.204 581.144,295.176 580.997,293.14L577.946,292.754C578.301,295.005 578.664,297.267 579.037,299.548L579.041,299.573C579.294,301.305 579.562,303.022 579.845,304.724ZM600.545,303.308C600.672,301.033 600.748,298.768 600.773,296.505L600.773,296.493C600.78,296.122 600.787,295.751 600.794,295.379L596.553,295.226L596.548,295.395L596.548,298.527L596.548,302.309C596.556,302.614 596.564,302.921 596.571,303.23L600.545,303.308ZM635.974,291.854C635.974,290.014 635.545,288.281 634.686,286.655C633.857,284.998 632.661,283.679 631.096,282.697C630.452,282.299 629.716,281.976 628.888,281.731C628.09,281.486 627.247,281.302 626.357,281.179C625.498,281.026 624.639,280.933 623.78,280.903C622.921,280.872 622.124,280.857 621.387,280.857C618.504,280.857 615.62,280.949 612.736,281.133C609.883,281.317 607.015,281.486 604.132,281.639C603.948,286.609 603.81,291.578 603.717,296.548C603.687,299.34 603.579,302.146 603.395,304.969C603.211,307.76 603.012,310.567 602.797,313.389C603.656,313.482 604.5,313.543 605.328,313.574C606.187,313.604 607.061,313.62 607.951,313.62C609.699,313.62 611.448,313.574 613.197,313.482L612.967,303.036C613.948,302.975 614.93,302.898 615.911,302.806C616.924,302.714 617.936,302.637 618.948,302.576C619.838,304.877 620.528,307.07 621.019,309.156C621.51,311.242 621.878,313.528 622.124,316.012L635.56,315.69C633.29,310.383 630.636,305.199 627.599,300.137C630.115,300.014 632.139,299.232 633.673,297.79C635.207,296.349 635.974,294.37 635.974,291.854ZM625.299,291.118C625.299,291.272 625.283,291.532 625.253,291.9C625.253,292.269 625.237,292.652 625.207,293.051C625.207,293.419 625.176,293.787 625.114,294.155C625.053,294.493 624.976,294.723 624.884,294.845C624.67,295.121 624.286,295.352 623.734,295.536C623.213,295.689 622.63,295.812 621.985,295.904C621.372,295.996 620.758,296.057 620.145,296.088C619.562,296.118 619.117,296.134 618.81,296.134C618.105,296.134 617.384,296.103 616.648,296.042C615.911,295.98 615.206,295.873 614.531,295.72L613.289,286.793C614.454,286.609 615.62,286.455 616.786,286.333C617.982,286.21 619.194,286.149 620.421,286.149C620.574,286.149 620.835,286.164 621.203,286.195C621.602,286.195 622.001,286.225 622.4,286.287C622.829,286.317 623.228,286.363 623.596,286.425C623.964,286.486 624.225,286.578 624.378,286.701C624.593,286.885 624.762,287.176 624.884,287.575C625.007,287.943 625.099,288.357 625.161,288.817C625.222,289.247 625.253,289.676 625.253,290.106C625.283,290.535 625.299,290.873 625.299,291.118ZM617.143,293.127C617.709,293.168 618.265,293.189 618.81,293.189C619.082,293.189 619.475,293.174 619.994,293.147L619.998,293.147C620.515,293.121 621.032,293.069 621.559,292.99L621.569,292.988C621.813,292.954 622.045,292.914 622.267,292.868L622.27,292.825C622.295,292.504 622.308,292.196 622.308,291.9L622.308,291.778L622.318,291.656C622.339,291.403 622.354,291.224 622.354,291.118C622.354,290.924 622.339,290.656 622.315,290.316L622.308,290.211L622.308,290.106C622.308,289.818 622.287,289.53 622.244,289.228C622.226,289.227 622.208,289.225 622.19,289.224L622.07,289.216L621.952,289.197C621.702,289.159 621.453,289.14 621.203,289.14L621.081,289.14L620.959,289.129C620.705,289.108 620.526,289.094 620.421,289.094C619.297,289.094 618.186,289.149 617.09,289.262C616.931,289.279 616.772,289.296 616.613,289.314L617.143,293.127ZM546.916,306.901C546.916,305.981 546.748,305.045 546.41,304.094C546.104,303.113 545.674,302.192 545.122,301.334C544.57,300.444 543.91,299.677 543.143,299.033C542.407,298.358 541.594,297.867 540.704,297.56C539.723,297.254 538.572,296.993 537.253,296.778C535.934,296.533 534.554,296.333 533.112,296.18C531.701,296.026 530.305,295.888 528.925,295.766L525.381,295.444C525.259,295.444 524.921,295.413 524.369,295.352C523.848,295.29 523.28,295.229 522.666,295.167C522.084,295.106 521.547,295.045 521.056,294.983C520.565,294.922 520.304,294.876 520.274,294.845C520.151,294.692 520.074,294.477 520.044,294.201L520.044,293.511C520.044,293.143 520.059,292.79 520.09,292.453C520.12,292.084 520.212,291.732 520.366,291.394L521.01,291.348C521.439,291.318 521.946,291.287 522.528,291.256C523.111,291.195 523.709,291.149 524.323,291.118C524.967,291.087 525.473,291.072 525.842,291.072C528.786,290.949 531.701,290.873 534.584,290.842L543.327,290.658L543.051,287.989C542.959,287.069 542.913,286.164 542.913,285.274L542.913,282.651L543.005,279.983C540.796,279.553 538.588,279.2 536.379,278.924C534.17,278.648 531.931,278.51 529.661,278.51C527.728,278.51 525.703,278.648 523.587,278.924C521.501,279.2 519.537,279.691 517.697,280.397C516.623,280.826 515.718,281.378 514.982,282.053C514.246,282.697 513.632,283.449 513.141,284.308C512.681,285.167 512.344,286.103 512.129,287.115C511.914,288.097 511.807,289.14 511.807,290.244C511.807,290.919 511.868,291.747 511.991,292.729C512.144,293.71 512.374,294.692 512.681,295.674C513.019,296.625 513.448,297.484 513.97,298.251C514.522,298.987 515.181,299.462 515.948,299.677C516.746,299.922 517.605,300.091 518.525,300.183C519.476,300.275 520.396,300.367 521.286,300.459C523.249,300.613 525.197,300.72 527.13,300.781C529.093,300.843 531.057,300.95 533.02,301.103C533.051,301.103 533.158,301.119 533.342,301.149C533.526,301.149 533.725,301.165 533.94,301.195C534.155,301.195 534.339,301.211 534.492,301.241C534.676,301.272 534.784,301.303 534.814,301.334C534.999,301.64 535.137,302.039 535.229,302.53C535.321,302.99 535.367,303.389 535.367,303.726C535.367,303.91 535.351,304.125 535.321,304.371C535.29,304.585 535.213,304.754 535.091,304.877C534.937,304.999 534.707,305.091 534.4,305.153C534.124,305.214 533.817,305.26 533.48,305.291C533.143,305.321 532.82,305.337 532.514,305.337L531.823,305.337C530.903,305.337 529.983,305.321 529.063,305.291L526.394,305.199C524.093,305.137 521.792,305.091 519.491,305.061C517.221,304.999 514.936,304.938 512.635,304.877C512.911,307.944 513.003,311.043 512.911,314.172C514.844,314.294 516.746,314.386 518.617,314.448C520.519,314.509 522.436,314.54 524.369,314.54C525.504,314.54 526.915,314.525 528.602,314.494C530.29,314.463 532.008,314.402 533.756,314.31C535.505,314.187 537.192,314.003 538.818,313.758C540.444,313.482 541.793,313.113 542.867,312.653C544.156,312.101 545.153,311.38 545.858,310.491C546.564,309.57 546.916,308.374 546.916,306.901ZM578.796,314.862C578.274,312.377 577.783,309.908 577.323,307.454C576.894,304.999 576.495,302.515 576.127,299.999C575.605,296.809 575.099,293.634 574.608,290.474C574.148,287.284 573.673,284.093 573.182,280.903C570.452,280.811 567.721,280.765 564.991,280.765C562.752,280.765 560.528,280.887 558.319,281.133C556.141,281.378 553.948,281.685 551.739,282.053C551.309,287.238 550.865,292.407 550.404,297.56C549.944,302.714 549.499,307.898 549.07,313.113L556.156,313.113L557.583,306.993L568.902,306.579C569.363,308.144 569.838,309.708 570.329,311.273C570.82,312.807 571.311,314.356 571.801,315.92L578.796,314.862ZM567.292,300.321L558.457,300.551C558.488,300.49 558.534,300.26 558.595,299.861C558.687,299.462 558.794,298.987 558.917,298.435C559.04,297.882 559.163,297.3 559.285,296.686C559.439,296.072 559.577,295.505 559.699,294.983C559.853,294.431 559.976,293.971 560.068,293.603C560.16,293.235 560.236,293.035 560.298,293.005C560.39,292.913 560.558,292.836 560.804,292.775C561.08,292.713 561.356,292.683 561.632,292.683C561.939,292.652 562.215,292.637 562.46,292.637L563.611,292.637C563.856,292.637 564.102,292.652 564.347,292.683C564.623,292.713 564.868,292.744 565.083,292.775C565.329,292.805 565.482,292.836 565.543,292.867C565.727,292.989 565.911,293.404 566.096,294.109C566.31,294.784 566.494,295.551 566.648,296.41C566.801,297.238 566.939,298.036 567.062,298.803C567.185,299.539 567.261,300.045 567.292,300.321ZM562.123,297.51L563.847,297.465C563.815,297.291 563.783,297.115 563.75,296.937L563.749,296.928C563.662,296.444 563.566,295.995 563.457,295.582L562.589,295.582C562.579,295.617 562.569,295.653 562.559,295.689C562.44,296.195 562.306,296.743 562.166,297.298C562.152,297.369 562.138,297.44 562.123,297.51Z" style="fill:rgb(249,246,189);"/>
                <g transform="matrix(47.1195,0,0,47.1195,654.693,315)">
                </g>
                <text x="509px" y="315px" style="font-family:'Slackey-Regular', 'Slackey';font-size:47.119px;fill:rgb(71,0,0);">S<tspan x="545.527px 577.866px 599.484px " y="315px 315px 315px ">AIR</tspan></text>
            </g>
            <g transform="matrix(1,4.62223e-33,0,0.19484,1182.09,185.543)">
                <g transform="matrix(3.41514e-17,0.557735,-0.557735,3.41514e-17,427.146,-169.674)">
                    <path d="M526.771,283.279C527.829,281.759 528.831,280.211 529.776,278.635L531.069,276.481L533.573,276.681C534.205,276.731 534.824,276.758 535.412,276.761C536.21,276.73 537.008,276.714 537.805,276.714C540.385,276.714 542.993,276.625 545.632,276.447L554.901,275.822L549.051,283.039C546.69,285.952 544.344,288.85 542.017,291.728C540.299,293.859 538.53,295.981 536.711,298.094C537.937,300.014 539.206,301.911 540.519,303.787C541.527,305.21 542.565,306.618 543.632,308.012C544.73,309.414 545.842,310.832 546.97,312.264L551.93,318.564L529.899,319.264L528.686,317.168C527.76,315.568 526.807,314.008 525.82,312.476C524.831,314.037 523.856,315.638 522.894,317.279L521.462,319.722L518.675,319.216C518.204,319.13 517.724,319.075 517.233,319.051L515.212,319.051C514.098,319.051 512.969,319.065 511.826,319.094L499.55,319.74C499.55,319.74 515.314,299.404 515.314,299.403C515.1,299.056 514.885,298.709 514.65,298.33L514.629,298.296C513.975,297.196 513.306,296.096 512.605,294.969C511.333,293.018 510.016,291.096 508.635,289.174L499.759,276.353L508.028,276.812C510.181,276.932 512.303,277.007 514.396,277.037C516.599,277.068 518.819,277.147 521.054,277.273L523.218,277.395L524.317,279.263C525.114,280.617 525.934,281.96 526.771,283.279Z" style="fill:rgb(71,0,0);"/>
                </g>
                <g transform="matrix(3.41514e-17,0.557735,-0.557735,3.41514e-17,427.19,-169.467)">
                    <path d="M545.904,280.489C543.542,283.403 541.195,286.302 538.864,289.186C536.563,292.038 534.17,294.876 531.685,297.698C533.434,300.551 535.275,303.358 537.207,306.119C538.25,307.592 539.324,309.049 540.428,310.491C541.533,311.902 542.652,313.328 543.787,314.77L532.192,315.138C531.179,313.389 530.136,311.687 529.063,310.03C527.989,308.343 526.946,306.625 525.934,304.877C524.768,306.595 523.648,308.312 522.574,310.03C521.501,311.718 520.442,313.451 519.399,315.23C518.725,315.107 518.034,315.031 517.329,315L515.212,315C514.046,315 512.865,315.015 511.669,315.046L508.172,315.23L520.228,299.677C519.522,298.511 518.817,297.361 518.111,296.226C517.436,295.091 516.746,293.956 516.04,292.821C514.721,290.796 513.356,288.802 511.945,286.839L507.804,280.857C510.012,280.98 512.19,281.056 514.338,281.087C516.485,281.118 518.648,281.194 520.826,281.317C521.746,282.881 522.697,284.431 523.679,285.964C524.691,287.468 525.688,288.986 526.67,290.52C527.805,288.894 528.925,287.284 530.029,285.688C531.164,284.063 532.238,282.406 533.25,280.719C534.017,280.78 534.768,280.811 535.505,280.811C536.272,280.78 537.039,280.765 537.805,280.765C540.474,280.765 543.174,280.673 545.904,280.489Z" style="fill:rgb(249,246,189);"/>
                </g>
            </g>
        </g>
    </g>
</svg>
