<?xml version="1.0" encoding="UTF-8" standalone="no"?>
<!DOCTYPE svg PUBLIC "-//W3C//DTD SVG 1.1//EN" "http://www.w3.org/Graphics/SVG/1.1/DTD/svg11.dtd">
<svg width="100%" height="100%" viewBox="0 0 243 47" version="1.1" xmlns="http://www.w3.org/2000/svg" xmlns:xlink="http://www.w3.org/1999/xlink" xml:space="preserve" xmlns:serif="http://www.serif.com/" style="fill-rule:evenodd;clip-rule:evenodd;stroke-linejoin:round;stroke-miterlimit:2;">
    <g transform="matrix(1,0,0,1,-1026.18,-342.168)">
        <g transform="matrix(6.12323e-17,-1,5.13241,3.14269e-16,0,1920)">
            <g transform="matrix(6.12323e-17,0.19484,-1,1.19305e-17,1755.46,111.494)">
                <g>
                    <g transform="matrix(0.0821561,0,0,0.0736733,727.776,89.4728)">
                        <path d="M-3276,1274C-3276,1274 -3123.42,1237.28 -2797,1237C-2470.58,1236.72 -2169.4,1266.16 -1803,1237C-1436.6,1207.84 -1367.68,1245.94 -1044,1237C-720.318,1228.06 -486,1237 -486,1237L-397,1274L-397,1592L-443,1592L-397,1644L-397,1745C-397,1745 -1283.93,1730.3 -1535,1768C-1786.07,1805.7 -2832.42,1797.18 -2884,1800C-2935.58,1802.82 -3038.91,1770.73 -3097,1768C-3155.09,1765.27 -3198,1745 -3198,1745L-3312,1604C-3312,1604 -3297.14,1515.23 -3222,1514C-3222,1514 -3270.94,1515.32 -3276,1476C-3283.41,1418.44 -3278.49,1311.28 -3276,1274Z" style="fill:rgb(220,115,57);"/>
                    </g>
                    <g transform="matrix(0.0821561,0,0,0.0736733,727.361,89.4728)">
                        <path d="M-481.504,1233.89C-471.354,1251.34 -469.07,1269.84 -481.504,1290.31C-481.504,1290.31 -464.542,1321.39 -486,1352C-486,1352 -482.296,1398.92 -508,1414C-508,1414 -494.915,1470.32 -508,1517C-508,1517 -464.936,1562.81 -486,1599L-460.831,1611L-386,1599L-386,1269.43L-424,1247.46L-481.504,1233.89Z" style="fill:rgb(169,54,24);"/>
                    </g>
                    <g transform="matrix(0.0821561,0,0,0.0736733,85.0315,89.4728)">
                        <path d="M6711,1522L7310,1516C7310,1516 7314.32,1522.46 7316,1504C7316,1504 6718.35,1525.94 6711,1522Z" style="fill:rgb(255,162,87);"/>
                    </g>
                    <g transform="matrix(0.0821561,0,0,0.0736733,85.0315,89.4728)">
                        <path d="M4716,1509L4716,1519L4633,1564L4620,1576L4592,1564L4556,1538L4556,1519L4580,1509L4716,1509Z" style="fill:rgb(208,80,31);"/>
                    </g>
                    <g transform="matrix(0.0821561,0,0,0.0736733,727.361,89.4728)">
                        <path d="M-2383.25,1729.98C-2443.45,1746.54 -2674.4,1731.89 -2714.3,1731.6C-2881.15,1730.37 -2941.14,1775.48 -2955.57,1799.95L-2968.43,1792.05C-2956.63,1772.81 -2901.73,1707.01 -2668.8,1725.04C-2646.01,1726.81 -2436.79,1743 -2383.25,1729.98Z" style="fill:rgb(174,63,7);"/>
                    </g>
                    <g transform="matrix(0.0821561,0,0,0.0736733,727.361,89.4728)">
                        <path d="M-390.034,1353.88L-390.42,1370.67C-536.737,1362.52 -638.959,1336.95 -778.562,1349.42C-931.463,1363.09 -976.504,1384.11 -1196,1389C-965.03,1379.08 -918.927,1354.15 -758.65,1338.66C-642.402,1327.42 -502.858,1350.69 -390.034,1353.88Z" style="fill:rgb(113,21,10);"/>
                    </g>
                    <g transform="matrix(0.0821561,0,0,0.0736733,85.0315,89.4728)">
                        <path d="M4566,1614.1C4566,1614.1 4584.23,1633.84 4612,1673C4639.77,1712.16 4652.95,1737.83 4687,1750C4721.05,1762.17 4821.77,1779.14 4848,1773C4874.23,1766.86 4885,1761 4885,1761C4885,1761 4805.8,1781.16 4755.43,1750C4705.05,1718.84 4664,1673 4664,1673L4641,1614.1L4566,1587L4566,1614.1Z" style="fill:rgb(183,58,30);"/>
                    </g>
                    <g transform="matrix(0.0821561,0,0,0.0736733,727.361,89.4728)">
                        <path d="M-619,1237C-619,1237 -764.084,1262.18 -843,1274C-921.916,1285.82 -1561.35,1218.21 -1661,1237C-1760.65,1255.79 -1982.1,1262.12 -2248,1237C-2248,1237 -1699.78,1216.12 -1617,1214C-1534.22,1211.88 -1131.62,1245.94 -1088,1237C-1044.38,1228.06 -619,1237 -619,1237Z" style="fill:rgb(250,170,85);"/>
                    </g>
                    <g transform="matrix(0.0821561,0,0,0.0736733,727.361,89.4728)">
                        <path d="M-3191,1615C-3191,1615 -3195.26,1619.86 -3050,1615C-2904.74,1610.14 -2892.2,1596.76 -2828,1615C-2763.8,1633.24 -2590.54,1615.24 -2542,1615C-2493.46,1614.76 -1860.55,1610.62 -1805,1615C-1749.45,1619.38 -1625,1592 -1625,1592L-3230,1592L-3191,1615Z" style="fill:rgb(250,170,85);"/>
                    </g>
                    <g transform="matrix(0.0821561,0,0,0.0736733,727.361,89.4728)">
                        <path d="M-2845.31,1536.94C-2932.1,1521.61 -2973.66,1517.64 -3110.7,1536.94C-2988.22,1503.14 -2953.33,1500.75 -2845.31,1536.94Z" style="fill:rgb(250,170,85);"/>
                    </g>
                    <g transform="matrix(0.0821561,0,0,0.0736733,727.361,89.4728)">
                        <path d="M-3275,1547C-3275,1547 -3271.24,1520.31 -3250,1527C-3228.76,1533.69 -3223.49,1561.47 -3193,1560C-3193,1560 -3229.84,1593.27 -3250,1583C-3270.16,1572.73 -3271.56,1560.31 -3275,1547Z" style="fill:rgb(155,44,17);"/>
                    </g>
                    <g transform="matrix(0.0821561,0,0,0.0736733,727.361,89.4728)">
                        <path d="M-3300,1611C-3300,1611 -3280.64,1578.97 -3251,1611C-3221.36,1643.03 -3207.09,1654.25 -3195,1679C-3182.91,1703.75 -3170.08,1739.1 -3124,1751C-3077.92,1762.9 -2994.16,1780.51 -2917,1751L-2892,1751C-2892,1751 -2946.28,1763.51 -2967,1795L-3081,1795L-3195,1766L-3251,1708L-3328,1611L-3300,1611Z" style="fill:rgb(145,41,30);"/>
                    </g>
                    <g transform="matrix(0.0821561,0,0,0.0736733,727.361,89.5465)">
                        <path d="M-2550.69,1663.43L-2543.22,1672.56C-2547.81,1676.54 -2568.72,1694.68 -2611.45,1700.56C-2660.92,1707.35 -2706.87,1692.34 -2719.14,1688.61L-2718.86,1687.39C-2706.87,1690.24 -2660.56,1702.31 -2612.53,1692.64C-2570.45,1684.17 -2551.23,1663.92 -2550.69,1663.43Z" style="fill:rgb(176,58,20);"/>
                    </g>
                    <g transform="matrix(0.0821561,0,0,0.0736733,727.361,89.4728)">
                        <path d="M-390.322,1408.38L-390.605,1432.7C-555.165,1427.73 -610.517,1434.1 -735.139,1460.73C-774.239,1469.09 -821.988,1479.33 -887.689,1486.75C-940.604,1492.72 -871.845,1485.7 -794.029,1467.35C-734.157,1453.23 -686.171,1437.68 -623.291,1426.46C-526.531,1409.17 -428.283,1409.01 -390.322,1408.38Z" style="fill:rgb(71,0,0);"/>
                    </g>
                    <g transform="matrix(0.0821561,0,0,0.0736733,727.361,89.4728)">
                        <path d="M-398.293,1400.7C-624.289,1363.39 -710.326,1353.91 -852.617,1368.71C-951.628,1379.01 -1016.1,1387.21 -1181.08,1389.51C-901.485,1376.65 -870.634,1353.05 -744.837,1348.4C-629.025,1344.11 -483.318,1364.85 -395.303,1376.61L-398.293,1400.7Z" style="fill:rgb(169,54,24);"/>
                    </g>
                    <g transform="matrix(0.0821561,0,0,0.0736733,727.361,89.4728)">
                        <path d="M-387.13,1514.79L-387.176,1530.18C-744.289,1525.66 -744.294,1530.4 -1074.97,1523.44C-1186.79,1521.08 -1027.44,1523.49 -834.863,1520.98C-639.314,1518.43 -639.364,1516.81 -387.13,1514.79Z" style="fill:rgb(73,11,2);"/>
                    </g>
                    <g transform="matrix(0.0821561,0,0,0.0736733,727.361,89.4728)">
                        <path d="M-413.933,1592.97L-415.476,1619.6C-448.994,1617.02 -601.201,1605.33 -834.839,1594.45C-1051.9,1584.35 -1159.07,1584.2 -1186.97,1583.93C-1162.75,1583.31 -1054.9,1579.61 -834.552,1582.24C-741.002,1583.36 -547.943,1586.91 -413.933,1592.97Z" style="fill:rgb(71,0,0);"/>
                    </g>
                    <g transform="matrix(0.0821561,0,0,0.0736733,727.361,89.4728)">
                        <path d="M-1181.13,1769.12L-1189.47,1746.65C-977.157,1654.4 -866.677,1614.59 -718.843,1632.86C-670.954,1638.78 -628.05,1648.29 -517.265,1671.12L-517.455,1672.38C-696.469,1641.66 -773.588,1623.44 -896.666,1654.89C-998.494,1680.92 -1121.64,1740.95 -1181.13,1769.12Z" style="fill:rgb(173,62,17);"/>
                    </g>
                    <g transform="matrix(0.0821561,0,0,0.0736733,727.361,89.4728)">
                        <path d="M-1639.31,1351.31C-1705.2,1338.41 -1760.5,1327.85 -1829.22,1332.42C-1886.79,1336.24 -1922.87,1346.55 -2033.21,1351.22C-1893.41,1332.09 -1877.44,1321.37 -1820.59,1318.22C-1757.17,1314.7 -1689.95,1335.26 -1639.31,1351.31Z" style="fill:rgb(173,62,17);"/>
                    </g>
                    <g transform="matrix(0.0821561,0,0,0.0736733,727.361,89.4728)">
                        <path d="M-2035.64,1262.62L-2035.54,1259.61C-1842.37,1265.67 -1841.88,1270.38 -1696.77,1249.02C-1647.38,1241.75 -1601.14,1233.19 -1530.86,1235.42C-1450.01,1237.99 -1427.7,1246.4 -1239.08,1251.9L-1239.82,1276.2C-1513.73,1260.9 -1521.8,1239.78 -1661.92,1256.93C-1715.66,1263.51 -1774.1,1270.89 -1819.17,1272.51C-1864.73,1274.13 -1879.11,1271.72 -2035.64,1262.62Z" style="fill:rgb(213,82,30);"/>
                    </g>
                    <g transform="matrix(0.0821561,0,0,0.0736733,727.361,89.4728)">
                        <path d="M-3266.04,1415.11L-3265.45,1401.49C-3003.18,1416.87 -2944.97,1394.87 -2767.2,1469.77L-2767.96,1472.05C-2946.28,1401.41 -3003.1,1424.69 -3266.04,1415.11Z" style="fill:rgb(173,62,17);"/>
                    </g>
                    <g transform="matrix(0.0821561,0,0,0.0736733,727.361,89.4728)">
                        <path d="M-2179.28,1552.57L-2187.61,1574.93C-2266.47,1538.42 -2327.89,1520.92 -2461.58,1513.92C-2573.39,1508.06 -2639.58,1508.96 -2747.01,1479.74L-2746.7,1478.29C-2562.25,1520.71 -2449.91,1483.01 -2289.3,1516.87C-2229.01,1529.58 -2180.86,1551.9 -2179.28,1552.57Z" style="fill:rgb(173,62,17);"/>
                    </g>
                    <g transform="matrix(0.0821561,0,0,0.0736733,726.95,89.0308)">
                        <path d="M-2483.24,1369.81L-2484.45,1374.23C-2485.54,1373.89 -2723.06,1289.54 -3021.01,1307.4C-3068.76,1310.27 -3087.23,1313.63 -3092.93,1314.67L-3096.85,1290.75C-3053.87,1284.62 -2931.55,1278.82 -2783.06,1298.41C-2623.23,1319.51 -2514.12,1359.1 -2483.24,1369.81Z" style="fill:rgb(212,104,40);"/>
                    </g>
                    <g transform="matrix(0.0821561,0,0,0.0736733,727.361,89.4728)">
                        <path d="M-1200,1416C-1200,1416 -1017.01,1430.96 -938,1416C-858.989,1401.04 -660.275,1371.99 -604,1376C-604,1376 -760.75,1360.74 -920,1396C-1016.45,1417.35 -1168.06,1418.34 -1200,1416Z" style="fill:rgb(255,189,93);"/>
                    </g>
                    <g transform="matrix(0.0821561,0,0,0.0736733,727.361,89.4728)">
                        <path d="M-1099,1733C-1099,1733 -453.558,1729.28 -406,1725C-406,1725 -375.041,1752.44 -406,1752C-436.959,1751.56 -1160,1752 -1160,1752L-1099,1733Z" style="fill:rgb(109,21,7);"/>
                    </g>
                    <g transform="matrix(0.0821561,0,0,0.0736733,727.361,89.4728)">
                        <path d="M-386,1653C-386,1653 -507.711,1668.08 -548,1693C-588.289,1717.92 -637.989,1710.52 -681,1703C-724.011,1695.49 -800.753,1672.38 -828,1703C-855.247,1733.62 -902.871,1721.11 -920,1724C-937.129,1726.89 -1083.85,1722.67 -1112,1736C-1140.15,1749.33 -728,1736 -728,1736L-398,1736L-386,1653Z" style="fill:rgb(188,68,33);"/>
                    </g>
                    <g transform="matrix(0.0821561,0,0,0.0736733,727.361,89.4728)">
                        <path d="M-390.359,1294.91L-391.665,1305.58C-405.655,1303.06 -479.857,1288.73 -513.974,1286.01C-547.111,1283.37 -571.039,1287.14 -581.814,1288.39C-571.073,1286.54 -547.264,1281.41 -513.817,1282.19C-479.398,1282.99 -404.642,1293.15 -390.359,1294.91Z" style="fill:rgb(100,11,3);"/>
                    </g>
                    <g transform="matrix(0.0821561,0,0,0.0736733,727.361,89.4728)">
                        <path d="M-2542,1753C-2542,1753 -2530.35,1778.7 -2520,1788C-2509.65,1797.3 -2873,1788 -2873,1788C-2873,1788 -2579.14,1750.58 -2542,1753Z" style="fill:rgb(251,167,77);"/>
                    </g>
                    <g transform="matrix(0.0821561,0,0,0.0736733,727.361,89.4728)">
                        <path d="M-2494.62,1798.54L-2665.28,1803.42C-2715.75,1804.09 -2895.12,1801.78 -2915.11,1801.53C-2844.68,1796.67 -2704.84,1786.5 -2646.81,1784.84L-2495.04,1780.51L-2494.62,1798.54Z" style="fill:rgb(173,62,17);"/>
                    </g>
                    <g transform="matrix(0.0821561,0,0,0.0736733,727.361,89.4728)">
                        <path d="M-2916,1770C-2916,1770 -2847.78,1760.95 -2784,1754C-2720.22,1747.05 -2494,1733 -2494,1733L-2541,1733C-2541,1733 -2690.88,1736.9 -2757,1733C-2823.12,1729.1 -2896.41,1751.07 -2916,1770Z" style="fill:rgb(251,167,77);"/>
                    </g>
                    <g transform="matrix(0.0821561,0,0,0.0736733,727.361,89.4728)">
                        <path d="M-3172,1686C-3172,1686 -2972.92,1643.7 -2804,1677L-2722,1686C-2722,1686 -2885.68,1628.41 -2965,1640C-3044.32,1651.59 -3161.85,1660 -3172,1686Z" style="fill:rgb(255,162,87);"/>
                    </g>
                    <g transform="matrix(0.0821561,0,0,0.0736733,727.361,89.4728)">
                        <path d="M-3199.2,1690.92L-3196.81,1675C-3187.2,1677.57 -3114.26,1697.09 -3079.64,1718.47C-3067.34,1726.08 -3083.58,1716.59 -3104.94,1710.16C-3143.07,1698.66 -3183.93,1693.14 -3199.2,1690.92Z" style="fill:rgb(144,40,31);"/>
                    </g>
                    <g transform="matrix(0.0821561,0,0,0.0736733,727.607,89.4728)">
                        <path d="M-2810.2,1667.87C-2833.05,1663.84 -2877.15,1652.17 -3027.59,1659.87C-3125.3,1664.87 -3169.65,1677.35 -3174.85,1679.97C-3175.22,1680.16 -3175.77,1679.79 -3175.86,1679.86C-3176.14,1680.07 -3176.85,1681.58 -3176.87,1679.92C-3176.92,1675.27 -3107.24,1646.84 -3029.17,1637.31C-2944.09,1626.92 -2871.37,1643.24 -2809.8,1666.13L-2810.2,1667.87Z" style="fill:rgb(255,162,87);"/>
                    </g>
                    <g transform="matrix(0.0821561,0,0,0.0736733,727.361,89.4728)">
                        <path d="M-3197.78,1688.56L-3204.27,1665.4C-3103.46,1635.04 -2980.81,1622.09 -2877.22,1642.43C-2744.3,1668.51 -2731.87,1690.5 -2663.95,1696.73L-2664.05,1699.27C-2732.73,1695.72 -2745.52,1674.28 -2878.78,1653.57C-3035.83,1629.18 -3194.72,1687.52 -3197.78,1688.56Z" style="fill:rgb(144,40,31);"/>
                    </g>
                    <g transform="matrix(0.0821561,0,0,0.0736733,727.361,89.4728)">
                        <path d="M-3262.41,1616.31L-3268.25,1592.88C-3193.9,1571.01 -3186.7,1556.35 -3128.47,1527.73C-3072.75,1500.35 -3016.61,1494.96 -2998.81,1492.61L-2998.15,1498.13C-3029.77,1504.43 -3075.99,1512.75 -3129.68,1544.48C-3181.16,1574.9 -3189.95,1589.83 -3262.41,1616.31Z" style="fill:rgb(110,16,4);"/>
                    </g>
                    <g transform="matrix(0.0821561,0,0,0.0736733,725.307,89.0308)">
                        <path d="M-3050,1425C-3050,1425 -2982.93,1439.66 -2942,1453C-2901.07,1466.34 -2615.13,1539.23 -2566,1542C-2516.87,1544.77 -2513,1565.37 -2493,1579L-2478,1595L-2627,1595L-2648,1579C-2648,1579 -2851.18,1488.35 -2918,1480C-2984.82,1471.65 -3090.16,1436.91 -3090,1437C-3089.84,1437.09 -3050,1425 -3050,1425Z" style="fill:rgb(208,90,40);"/>
                    </g>
                    <g transform="matrix(0.0821561,0,0,0.0736733,727.361,89.4728)">
                        <path d="M-2996,1250C-2996,1250 -2380.34,1252.7 -2353,1250C-2325.66,1247.3 -2276,1250 -2276,1250C-2276,1250 -2518.22,1286.03 -2571,1285C-2623.78,1283.98 -3175.15,1265.67 -3212,1264L-2996,1250Z" style="fill:rgb(250,170,85);"/>
                    </g>
                    <g transform="matrix(0.0821561,0,0,0.0736733,727.361,89.4728)">
                        <path d="M-2489,1367C-2489,1367 -2563.6,1352.81 -2612,1353C-2660.4,1353.19 -2776.88,1333.53 -2818,1329C-2859.12,1324.48 -2929.5,1309.83 -2975,1306C-3013.53,1302.75 -3091,1306 -3091,1306C-3091,1306 -2830.56,1263.92 -2489,1367Z" style="fill:rgb(250,170,85);"/>
                    </g>
                    <g transform="matrix(0.0821561,0,0,0.0736733,727.361,89.4728)">
                        <path d="M-3190,1395C-3190,1395 -3046.11,1397.55 -2922,1406.68C-2797.89,1415.81 -2654,1419 -2654,1419C-2654,1419 -2677.48,1410.2 -2727,1395C-2806.04,1370.74 -2887.23,1369.88 -2929,1368C-2970.77,1366.12 -3142.41,1376.91 -3190,1395Z" style="fill:rgb(219,115,54);"/>
                    </g>
                    <g transform="matrix(0.0821561,0,0,0.0736733,727.361,89.4728)">
                        <path d="M-3266.56,1418.41L-3272.33,1394.95C-3190.59,1371.91 -3062.35,1335.66 -2925.99,1343.13C-2777.41,1351.27 -2673.14,1408.16 -2625.39,1434.48L-2626.4,1436.77C-2673.19,1412.88 -2776.73,1360.35 -2921.46,1356.1C-3057.53,1352.1 -3184.26,1392.31 -3266.56,1418.41Z" style="fill:rgb(173,62,17);"/>
                    </g>
                    <g transform="matrix(0.0821561,0,0,0.0736733,727.361,89.4728)">
                        <path d="M-2877,1513C-2877,1513 -2795.69,1543.97 -2767,1553C-2738.31,1562.03 -2683.99,1566.36 -2668,1571C-2668,1571 -2783.7,1534.3 -2877,1513Z" style="fill:rgb(250,170,85);"/>
                    </g>
                    <g transform="matrix(0.0821561,0,0,0.0736733,727.361,89.4728)">
                        <path d="M-1326.14,1311.38L-1329.52,1287.35C-1241.65,1275.01 -1189.01,1282.91 -1094.4,1289.83C-988.285,1297.59 -932.754,1290.12 -885.12,1283.4C-951.748,1296.53 -1001.63,1303.42 -1107.89,1301.08C-1194.1,1299.18 -1245.26,1295.48 -1326.14,1311.38Z" style="fill:rgb(255,189,93);"/>
                    </g>
                    <g transform="matrix(0.0821561,0,0,0.0736733,727.361,89.4728)">
                        <path d="M-1150,1616C-1150,1616 -838.567,1612.35 -774.546,1605.37C-710.526,1598.4 -446.89,1629.33 -403,1652C-403,1652 -419.243,1617.72 -439.312,1616C-771.038,1587.59 -1162,1590 -1162,1590L-1150,1616Z" style="fill:rgb(253,183,98);"/>
                    </g>
                    <g transform="matrix(0.0821561,0,0,0.0736733,727.361,89.4728)">
                        <path d="M-520,1414L-386,1414L-386,1354C-386,1354 -383.472,1412.66 -520,1414Z" style="fill:rgb(113,21,10);"/>
                    </g>
                    <g transform="matrix(0.0821561,0,0,0.0736733,727.361,89.4728)">
                        <path d="M-1137,1494C-1137,1494 -1135.77,1506.74 -1116,1506C-1096.23,1505.26 -1095,1494 -1095,1494C-1095,1494 -1111.22,1481.73 -1137,1494Z" style="fill:rgb(215,100,43);"/>
                    </g>
                    <g transform="matrix(0.0821561,0,0,0.0736733,727.361,89.4728)">
                        <path d="M-1151,1668C-1151,1668 -1078.24,1669.75 -999,1647C-919.762,1624.25 -836.736,1606.89 -788,1607L-1151,1607L-1151,1668Z" style="fill:rgb(237,144,67);"/>
                    </g>
                    <g transform="matrix(0.0821561,0,0,0.0736733,727.361,89.4728)">
                        <path d="M-1020,1698C-1020,1698 -700.22,1623.01 -570,1668C-570,1668 -792.52,1603.35 -1020,1698Z" style="fill:rgb(237,144,67);"/>
                    </g>
                    <g transform="matrix(0.0821561,0,0,0.0736733,727.361,89.4728)">
                        <path d="M-739,1292C-739,1292 -776.795,1332.29 -875,1325C-912.601,1322.21 -970.62,1289.22 -860.117,1285.05C-780.389,1282.04 -739,1292 -739,1292Z" style="fill:rgb(218,109,42);"/>
                    </g>
                    <g transform="matrix(0.0821561,0,0,0.0736733,727.361,89.4728)">
                        <path d="M-751,1292C-751,1292 -854.439,1272.34 -875,1292C-895.561,1311.66 -854.1,1308.38 -835,1308C-815.9,1307.62 -751,1292 -751,1292Z" style="fill:rgb(206,89,45);"/>
                    </g>
                    <g transform="matrix(0.0821561,0,0,0.0736733,727.114,89.2518)">
                        <path d="M-3295.79,1628.24L-3304.3,1605.83C-3239.16,1577.87 -3211.87,1579.25 -3180.83,1578.64C-3006.52,1575.21 -2414.88,1590.73 -1886.38,1590.33C-1656.85,1590.15 -1600.4,1609.05 -1599.91,1595.52L-1599.91,1600.52C-1679.4,1593.07 -1865.17,1595.12 -1952.47,1595.52C-2272.46,1597 -3090.86,1598.43 -3204.41,1603.17C-3238.61,1604.6 -3273.36,1618.61 -3295.79,1628.24Z" style="fill:rgb(71,0,0);"/>
                    </g>
                    <g transform="matrix(0.0821561,0,0,0.0736733,727.361,89.4728)">
                        <path d="M-3281.41,1505.55L-3274.57,1482.45C-3200.17,1509.63 -3108.84,1501.02 -3094.43,1499.66C-3026.95,1493.3 -3001.42,1483.37 -2946.49,1490.94C-2882.01,1499.82 -2771.82,1535.4 -2665.88,1569.5L-2666.12,1570.5C-2950.3,1490.43 -2958.04,1494.72 -3054.41,1511.1C-3065.06,1512.91 -3184.07,1537.12 -3281.41,1505.55Z" style="fill:rgb(71,0,0);"/>
                    </g>
                    <g transform="matrix(0.995898,0,0,1,-11.3706,113.519)">
                        <path d="M702.228,65.114L711,68L710.97,95.179L709.895,95.179L710.94,96.209L710.91,106.477C710.91,106.477 636.009,106.082 620,108C603.991,109.918 521.887,111.419 504.429,110.436C502.344,110.806 492.909,109.134 491.779,108.772C490.296,108.297 481.67,108.237 477.631,106.034L467.233,94.662C467.233,94.662 468.229,88.653 471.427,87.251C471.427,87.251 470.145,86.933 470,81C469.855,75.067 470,68 470,68C470,68 493.66,63.3 553,65C553,65 581.312,66.063 591.951,64.886C611.342,63.486 620.519,64.327 633.403,64.801C647.738,65.742 680.499,63.891 702.228,65.114ZM476.753,87.505C470.593,87.605 469.374,94.135 469.374,94.135L478.74,104.523C478.74,104.523 482.265,106.016 487.037,106.217C491.81,106.419 500.299,108.782 504.537,108.575C506.089,108.499 518.613,108.535 534.874,108.475C562.995,108.37 602.296,107.978 615.365,106.217C635.992,103.44 708.859,104.523 708.859,104.523L708.859,97.082L705.08,93.251L708.859,93.251L708.859,69.823L701.547,67.097C701.547,67.097 682.296,66.438 655.704,67.097C629.111,67.756 623.45,64.949 593.347,67.097C563.245,69.245 538.502,67.077 511.684,67.097C484.867,67.117 472.331,69.823 472.331,69.823C472.127,72.569 471.723,80.465 472.331,84.705C472.732,87.5 476.49,87.508 476.753,87.505Z" style="fill:rgb(71,0,0);"/>
                    </g>
                    <g transform="matrix(0.0821561,0,0,0.0736733,85.0315,89.4728)">
                        <path d="M4564,1594C4984.5,1631.06 5574.27,1618.76 6073,1625L6165.83,1594C6539.5,1580.96 6941.42,1583.67 7357,1594L7431,1594L7431,1753C7431,1753 6791.53,1746.81 6546,1753C6220.91,1761.2 6057.08,1813.95 5963,1815C5757.86,1817.3 4858,1815 4858,1815L4625,1753L4504,1594L4564,1594Z" style="fill:rgb(100,22,12);fill-opacity:0.2;"/>
                    </g>
                </g>
            </g>
            <g transform="matrix(1,4.62223e-33,0,0.19484,1179.18,133.644)">
                <g>
                    <g transform="matrix(6.12323e-17,1,-1,6.12323e-17,1811.52,33.8566)">
                        <path d="M381.733,1433.97C381.114,1434 380.499,1434.03 379.887,1434.06L381.019,1438.1L379.645,1438.4C378.981,1438.55 378.31,1438.67 377.619,1438.76L377.607,1438.76C377.423,1438.78 377.24,1438.8 377.056,1438.83C377.122,1439.48 377.173,1440.13 377.208,1440.78C377.264,1441.83 377.293,1442.89 377.293,1443.95L377.293,1445.24L369.087,1445.53L369.089,1445.47L368.232,1445.43C367.393,1445.39 366.56,1445.37 365.734,1445.37C365.36,1445.37 364.98,1445.39 364.594,1445.43C364.207,1445.47 363.82,1445.52 363.433,1445.58L362.426,1445.75L362.001,1444.82C361.475,1443.67 360.949,1442.54 360.422,1441.41L360.421,1441.41C359.893,1440.27 359.365,1439.13 358.838,1437.98L358.835,1438.01C358.711,1439.84 358.608,1441.69 358.525,1443.56L358.467,1444.87L351.712,1444.68L351.873,1445.45L341.426,1445.62L341.426,1444.27C341.426,1443.6 341.419,1442.94 341.406,1442.3C341.392,1441.65 341.365,1440.99 341.324,1440.33L341.239,1438.93L342.599,1438.91C342.548,1438.09 342.492,1437.27 342.429,1436.44L342.429,1436.44C342.369,1435.52 342.306,1434.61 342.239,1433.68L340.231,1433.43L340.178,1432.31C340.15,1431.73 340.122,1431.15 340.094,1430.57L340.093,1430.55C340.08,1429.98 340.059,1429.4 340.032,1428.83L339.968,1427.49L341.315,1427.43C342.822,1427.38 344.316,1427.32 345.795,1427.25C347.286,1427.17 348.79,1427.07 350.309,1426.96L350.851,1426.92L350.809,1426.13L361.26,1426.08L361.597,1426.92C361.883,1427.63 362.147,1428.35 362.39,1429.08C362.469,1429.3 362.547,1429.52 362.623,1429.75C362.611,1429.09 362.599,1428.43 362.589,1427.77L362.565,1426.24L369.419,1427.06L369.421,1427.1L370.603,1427.08C371.405,1427.07 372.193,1427.05 372.967,1427.04C373.77,1427.01 374.58,1427 375.397,1427C376.5,1427 377.603,1427.03 378.706,1427.08C379.792,1427.12 380.885,1427.17 381.985,1427.23L383.102,1427.28L383.185,1427.95C383.6,1427.23 384.202,1426.86 385.798,1426.59C385.798,1426.59 391.703,1425.08 399,1427C400.329,1427.39 401.101,1428.18 401.32,1429.83C401.335,1429.36 401.351,1428.89 401.369,1428.43L401.414,1427.21L402.63,1427.14C403.931,1427.08 405.225,1427 406.512,1426.92C407.846,1426.83 409.18,1426.79 410.514,1426.79C410.862,1426.79 411.239,1426.8 411.645,1426.81C412.087,1426.83 412.53,1426.87 412.957,1426.95C413.428,1427.01 413.874,1427.11 414.297,1427.24C414.79,1427.39 415.227,1427.58 415.615,1427.82L415.618,1427.83C416.419,1428.33 417.055,1428.98 417.528,1429.78C417.522,1429.12 417.516,1428.46 417.509,1427.8L417.497,1426.45L418.843,1426.45C419.816,1426.45 420.762,1426.43 421.682,1426.37C422.623,1426.32 423.586,1426.25 424.568,1426.15L425.659,1426.04L425.974,1427.09C426.304,1428.19 426.642,1429.29 426.986,1430.38C427.007,1430.44 427.028,1430.5 427.05,1430.57C427.084,1430.5 427.118,1430.44 427.157,1430.37L427.16,1430.36C427.719,1429.37 428.286,1428.38 428.859,1427.41L429.232,1426.77L429.97,1426.75C430.914,1426.72 431.845,1426.69 432.761,1426.66C433.698,1426.64 434.643,1426.62 435.594,1426.6L436.903,1426.58L436.946,1427.89C436.988,1429.13 437.036,1430.36 437.091,1431.58C437.161,1432.8 437.223,1434.04 437.279,1435.29C437.32,1436.27 437.354,1437.24 437.382,1438.21C437.459,1437.33 437.536,1436.44 437.615,1435.57C437.823,1433.24 438.024,1430.9 438.218,1428.55L438.304,1427.52L439.328,1427.35C440.351,1427.18 441.368,1427.04 442.378,1426.92C443.427,1426.81 444.484,1426.75 445.547,1426.75C446.798,1426.75 448.049,1426.77 449.3,1426.81L450.405,1426.85L450.573,1427.94C450.79,1429.35 451,1430.76 451.204,1432.17C451.346,1431.64 451.521,1431.12 451.731,1430.6L451.737,1430.59C452.013,1429.96 452.346,1429.37 452.748,1428.82L452.761,1428.8C452.867,1428.67 453.004,1428.5 453.171,1428.3C453.447,1427.98 453.732,1427.75 453.999,1427.6C454.453,1427.35 454.956,1427.14 455.515,1426.97L455.521,1426.97C456.05,1426.81 456.594,1426.69 457.148,1426.62C457.687,1426.53 458.218,1426.47 458.741,1426.44C459.275,1426.39 459.764,1426.37 460.209,1426.37C461.052,1426.37 461.894,1426.42 462.736,1426.53C463.606,1426.62 464.452,1426.79 465.276,1427.03L466.306,1427.34L466.227,1428.41C466.2,1428.77 466.18,1429.13 466.167,1429.5C466.154,1429.86 466.147,1430.22 466.147,1430.58C466.147,1430.73 466.147,1430.87 466.149,1431.02C466.238,1430.56 466.333,1430.13 466.437,1429.72L466.443,1429.7C466.585,1429.19 466.737,1428.76 466.896,1428.39C467.166,1427.75 467.517,1427.35 467.834,1427.14C468.064,1426.99 468.465,1426.81 469.062,1426.67C469.473,1426.58 469.951,1426.51 470.498,1426.44C470.862,1426.39 471.244,1426.35 471.64,1426.32L469.573,1424.04C469.573,1424.04 471.439,1422.79 471.454,1422.79C471.76,1422.57 472.08,1422.35 472.414,1422.13C472.764,1421.9 473.1,1421.7 473.409,1421.54C473.662,1421.4 473.871,1421.3 474.031,1421.24L474.664,1421.12C475.025,1421.12 475.458,1421.22 475.926,1421.46C476.208,1421.59 476.497,1421.74 476.793,1421.9C477.065,1422.05 477.325,1422.18 477.58,1422.32C477.61,1422.33 477.642,1422.34 477.67,1422.35C477.801,1422.29 477.927,1422.23 478.067,1422.14L478.085,1422.13C478.221,1422.05 478.347,1421.97 478.461,1421.89C478.638,1421.74 478.786,1421.62 478.905,1421.54L479.876,1420.81L482.942,1424.18L481.739,1425.06C481.576,1425.17 481.339,1425.34 481.01,1425.56L480.99,1425.57C480.687,1425.76 480.37,1425.94 480.038,1426.13C479.92,1426.2 479.802,1426.27 479.684,1426.33C479.976,1426.37 480.27,1426.42 480.563,1426.47C481.153,1426.56 481.698,1426.68 482.197,1426.81C482.751,1426.96 483.223,1427.13 483.615,1427.31C483.968,1427.47 484.235,1427.65 484.429,1427.83L484.555,1427.97L484.516,1426.61L485.905,1426.62C486.994,1426.64 488.076,1426.64 489.152,1426.64C490.251,1426.63 491.358,1426.62 492.472,1426.62C493.337,1426.62 494.196,1426.64 495.037,1426.68C495.891,1426.71 496.745,1426.75 497.6,1426.79L498.767,1426.85L498.842,1427.75C498.869,1427.73 498.896,1427.7 498.923,1427.68C499.367,1427.27 499.909,1426.93 500.565,1426.67L500.574,1426.67C501.502,1426.31 502.492,1426.06 503.545,1425.92C504.563,1425.79 505.538,1425.73 506.468,1425.73C507.551,1425.73 508.62,1425.79 509.675,1425.92C510.705,1426.05 511.734,1426.22 512.764,1426.42L513.881,1426.63L513.801,1428.96L513.801,1430.12C513.801,1430.48 513.82,1430.85 513.857,1431.22L514.13,1433.86L509.779,1433.95C509.895,1433.97 510.01,1433.99 510.124,1434.02C510.79,1434.12 511.37,1434.26 511.884,1434.42L511.902,1434.42C512.467,1434.62 512.984,1434.92 513.453,1435.35C513.894,1435.72 514.275,1436.17 514.595,1436.68C514.902,1437.16 515.143,1437.67 515.311,1438.21C515.515,1438.78 515.614,1439.35 515.614,1439.91C515.614,1440.92 515.34,1441.72 514.853,1442.36L514.846,1442.37C514.401,1442.93 513.784,1443.4 512.972,1443.74C512.406,1443.99 511.695,1444.19 510.825,1444.33L510.813,1444.34C510.043,1444.45 509.243,1444.54 508.404,1444.6L508.392,1444.6C507.585,1444.64 506.792,1444.67 506.013,1444.68C505.239,1444.7 504.592,1444.7 504.072,1444.7C503.182,1444.7 502.3,1444.69 501.424,1444.66C500.676,1444.64 499.916,1444.6 499.147,1444.56L499.28,1445.05L497.525,1445.04C495.561,1445.03 493.61,1445.03 491.673,1445.04C489.724,1445.07 487.761,1445.08 485.784,1445.08L484.416,1445.08L484.452,1443.71C484.458,1443.46 484.465,1443.21 484.471,1442.96L484.398,1443.07C483.844,1443.62 483.18,1444.04 482.395,1444.32L482.386,1444.32C481.726,1444.55 481.035,1444.7 480.311,1444.78C479.627,1444.86 478.943,1444.89 478.259,1444.87C477.645,1444.86 477.071,1444.85 476.539,1444.85L475.6,1444.85L475.579,1444.85C475.151,1444.84 474.661,1444.82 474.109,1444.81C473.558,1444.8 472.979,1444.77 472.357,1444.75L472.342,1444.74C471.728,1444.7 471.15,1444.65 470.588,1444.59L470.568,1444.59C470.016,1444.52 469.531,1444.43 469.086,1444.34L469.058,1444.33C468.686,1444.23 468.4,1444.11 468.193,1443.99L467.832,1443.72C467.832,1443.72 467.622,1443.48 467.606,1443.47C467.501,1443.32 467.405,1443.17 467.317,1443.01L466.34,1443.2C465.694,1443.33 465.054,1443.45 464.422,1443.56C463.778,1443.67 463.127,1443.78 462.468,1443.86C462.368,1443.87 462.267,1443.89 462.165,1443.9C462.29,1443.97 462.407,1444.05 462.519,1444.13C462.894,1444.4 463.198,1444.76 463.429,1445.23L463.435,1445.24C463.603,1445.59 463.74,1446.02 463.833,1446.53L463.855,1446.64L463.855,1446.87L463.876,1447C463.876,1447.22 463.852,1447.49 463.8,1447.77C463.76,1448.09 463.685,1448.4 463.577,1448.69C463.479,1449 463.353,1449.28 463.201,1449.53L462.827,1450.04L462.285,1450.46C462.058,1450.58 461.695,1450.72 461.192,1450.82C460.824,1450.91 460.428,1450.99 460.002,1451.06C459.595,1451.13 459.195,1451.19 458.807,1451.24C458.445,1451.29 458.159,1451.33 457.948,1451.36L456.503,1451.55L456.316,1447.23L456.272,1447.23L456.272,1444.11L455.624,1444.05L455.592,1444.05C455.252,1444 454.936,1443.95 454.636,1443.88L454.629,1443.88C454.206,1443.79 453.883,1443.66 453.633,1443.51L453.619,1443.5C453.428,1443.38 453.244,1443.24 453.069,1443.09C453.08,1443.14 453.091,1443.19 453.102,1443.24L453.392,1444.62L447.7,1445.49L447.358,1444.4C447.137,1443.69 446.915,1442.99 446.693,1442.3L446.691,1442.29C446.571,1441.91 446.452,1441.52 446.335,1441.14C446.335,1441.14 443.26,1441.25 443.26,1441.25L442.605,1444.06L437.53,1444.06L437.53,1445.34L436.127,1445.27C435.837,1445.25 435.554,1445.23 435.264,1445.2L435.25,1445.19C435.071,1445.17 434.892,1445.15 434.709,1445.14L434.706,1445.14C434.554,1445.13 434.44,1445.12 434.364,1445.12C433.839,1445.12 433.315,1445.13 432.782,1445.14C432.273,1445.17 431.77,1445.21 431.274,1445.26L429.765,1445.42L429.801,1443.9C429.815,1443.33 429.822,1442.77 429.822,1442.21L429.822,1442.19C429.836,1441.63 429.843,1441.07 429.843,1440.5C429.843,1440.43 429.843,1440.36 429.842,1440.29L427.875,1444.75L425.404,1444.67C424.922,1443.36 424.413,1442.07 423.873,1440.8L424.032,1445.7L422.655,1445.7C422.485,1445.7 422.307,1445.7 422.124,1445.68L421.697,1445.68C421.206,1445.68 420.721,1445.7 420.243,1445.74C419.743,1445.78 419.235,1445.83 418.721,1445.87L417.2,1445.99L417.242,1445.22L409.642,1445.4L409.52,1444.17C409.415,1443.11 409.259,1442.13 409.049,1441.24C408.906,1440.63 408.724,1440.01 408.502,1439.36C408.386,1439.37 408.271,1439.38 408.156,1439.39C408.124,1439.39 408.093,1439.39 408.062,1439.4L408.167,1444.16L406.875,1444.22C406.06,1444.27 405.245,1444.29 404.43,1444.29C404.011,1444.29 403.599,1444.28 403.194,1444.27C402.789,1444.25 402.375,1444.22 401.955,1444.18L400.669,1444.04L400.767,1442.75C400.782,1442.56 400.796,1442.37 400.81,1442.18C399.688,1444.58 397.062,1445.09 392.34,1444.85C386.495,1444.94 384.636,1444.17 384.636,1444.17C384.636,1444.17 383.319,1444.22 382.207,1440C381.748,1437.36 381.582,1435.73 381.733,1433.97ZM465.612,1435.01L464.405,1434.56C463.87,1434.36 463.312,1434.21 462.716,1434.13L462.703,1434.12C462.095,1434.03 461.493,1433.98 460.897,1433.98C460.79,1433.98 460.635,1433.99 460.432,1434.01L460.398,1434.01L460.363,1434.02C460.127,1434.03 459.86,1434.05 459.535,1434.09L459.508,1434.1C459.205,1434.12 458.89,1434.16 458.562,1434.21C458.266,1434.26 457.988,1434.32 457.727,1434.39C457.567,1434.43 457.419,1434.48 457.283,1434.53C457.264,1434.67 457.244,1434.82 457.225,1434.98C457.213,1435.17 457.201,1435.36 457.189,1435.54L457.189,1436C457.189,1436.11 457.202,1436.32 457.227,1436.65C457.254,1437.01 457.287,1437.41 457.328,1437.83C457.35,1438.04 457.374,1438.25 457.4,1438.45C457.934,1438.44 458.497,1438.41 459.091,1438.36C459.844,1438.29 460.603,1438.2 461.369,1438.1C462.165,1437.97 462.947,1437.85 463.716,1437.72C464.433,1437.6 465.103,1437.47 465.726,1437.36C465.715,1437.27 465.704,1437.19 465.693,1437.11L465.691,1437.09C465.631,1436.5 465.601,1435.94 465.601,1435.41C465.601,1435.29 465.605,1435.16 465.612,1435.01ZM497.347,1438.17L497.297,1437.62L498.795,1437.66L499.289,1437.68C498.919,1437.47 498.582,1437.18 498.278,1436.77L498.261,1436.75C497.963,1436.31 497.716,1435.82 497.515,1435.25L497.508,1435.23C497.349,1434.72 497.23,1434.21 497.147,1433.68L497.145,1433.66C497.081,1433.15 497.051,1432.72 497.051,1432.37C497.051,1432.34 497.051,1432.3 497.052,1432.27C496.794,1432.28 496.536,1432.29 496.279,1432.31L496.312,1432.53C496.386,1433.04 496.438,1433.53 496.468,1434.02C496.512,1434.51 496.534,1435.01 496.534,1435.52C496.534,1435.73 496.528,1435.94 496.514,1436.16L496.514,1437.84L491.655,1438.71C491.655,1438.71 491.663,1438.78 491.663,1438.78C492.269,1438.73 492.873,1438.66 493.474,1438.59C494.544,1438.45 495.621,1438.33 496.705,1438.23L497.347,1438.17ZM351.155,1434.69L349.283,1434.63L349.28,1434.7L349.28,1436.12L349.28,1437.84C349.284,1437.97 349.287,1438.11 349.291,1438.25L351.235,1438.29C351.213,1437.34 351.192,1436.39 351.172,1435.44C351.167,1435.19 351.161,1434.94 351.155,1434.69ZM417.592,1436.07C417.416,1436.32 417.215,1436.55 416.989,1436.76C416.531,1437.19 416.002,1437.53 415.399,1437.77C416.13,1439.08 416.807,1440.4 417.429,1441.74C417.45,1441.36 417.47,1440.99 417.491,1440.61C417.559,1439.36 417.593,1438.1 417.593,1436.83C417.593,1436.58 417.592,1436.32 417.592,1436.07ZM475.509,1426.05C475.289,1425.9 475.074,1425.77 474.865,1425.65C474.774,1425.7 474.683,1425.77 474.592,1425.84C474.482,1425.92 474.378,1426.01 474.273,1426.11C474.621,1426.09 474.944,1426.07 475.244,1426.06C475.338,1426.06 475.426,1426.05 475.509,1426.05ZM472.75,1437.95C472.826,1437.96 472.907,1437.98 472.994,1438C473.263,1438.03 473.544,1438.06 473.837,1438.09C474.162,1438.11 474.474,1438.14 474.764,1438.17C475.064,1438.18 475.328,1438.19 475.556,1438.2L476.039,1438.2C476.187,1438.2 476.441,1438.19 476.803,1438.17L476.804,1438.17C477.191,1438.14 477.59,1438.1 478.008,1438.05C478.399,1437.99 478.758,1437.93 479.1,1437.85C479.138,1437.61 479.168,1437.35 479.188,1437.08C479.213,1436.75 479.226,1436.42 479.226,1436.1L479.227,1436.07C479.24,1435.75 479.247,1435.51 479.247,1435.37C479.247,1435.13 479.235,1434.88 479.211,1434.62C479.211,1434.62 479.208,1434.59 479.207,1434.58C479.19,1434.58 479.173,1434.57 479.157,1434.57L479.152,1434.57C478.794,1434.48 478.393,1434.42 477.949,1434.39C477.487,1434.35 477.037,1434.33 476.581,1434.33L476.562,1434.33C476.108,1434.32 475.788,1434.31 475.601,1434.31C475.466,1434.31 475.228,1434.32 474.886,1434.35C474.546,1434.37 474.182,1434.42 473.775,1434.48L473.756,1434.49C473.433,1434.53 473.129,1434.59 472.827,1434.66C472.798,1434.86 472.768,1435.07 472.738,1435.3C472.714,1435.57 472.695,1435.84 472.683,1436.1L472.683,1436.11C472.67,1436.35 472.664,1436.53 472.664,1436.64C472.664,1436.64 472.664,1437.1 472.664,1437.11C472.677,1437.29 472.694,1437.48 472.717,1437.67C472.728,1437.77 472.739,1437.86 472.75,1437.95ZM444.249,1435.66L445.029,1435.64C445.015,1435.56 445,1435.48 444.985,1435.4L444.984,1435.4C444.945,1435.18 444.901,1434.98 444.852,1434.79L444.459,1434.79C444.455,1434.81 444.45,1434.82 444.446,1434.84C444.392,1435.07 444.331,1435.32 444.268,1435.57C444.261,1435.6 444.255,1435.63 444.249,1435.66ZM408.592,1433.68C408.848,1433.7 409.1,1433.7 409.347,1433.7C409.47,1433.7 409.648,1433.7 409.883,1433.69L409.885,1433.69C410.119,1433.67 410.353,1433.65 410.591,1433.62L410.596,1433.62C410.706,1433.6 410.811,1433.58 410.912,1433.56L410.913,1433.54C410.925,1433.4 410.93,1433.26 410.93,1433.12L410.93,1433.07L410.935,1433.01C410.944,1432.9 410.951,1432.82 410.951,1432.77C410.951,1432.68 410.945,1432.56 410.934,1432.4L410.93,1432.36L410.93,1432.31C410.93,1432.18 410.921,1432.05 410.902,1431.91C410.893,1431.91 410.885,1431.91 410.877,1431.91L410.823,1431.91L410.769,1431.9C410.656,1431.88 410.543,1431.87 410.43,1431.87L410.375,1431.87L410.32,1431.87C410.205,1431.86 410.124,1431.85 410.076,1431.85C409.567,1431.85 409.064,1431.88 408.568,1431.93C408.496,1431.93 408.424,1431.94 408.352,1431.95L408.592,1433.68ZM388.915,1434.66C388.703,1435.81 388.635,1436.92 388.843,1437.94C391.222,1438.34 393.299,1438.25 395.194,1437.84C395.314,1436.63 395.385,1435.48 395.278,1434.56C393.144,1434.23 391.018,1434.13 388.915,1434.66Z" style="fill:rgb(249,246,189);"/>
                    </g>
                    <g transform="matrix(4.35239e-17,0.710799,-0.710799,4.35239e-17,591.838,53.8112)">
                        <path d="M535.232,302.485L535.232,303.247C535.232,303.481 535.222,303.716 535.203,303.95C535.183,304.146 535.154,304.488 535.115,304.976C535.095,305.465 535.056,306.031 534.998,306.676C534.959,307.301 534.9,307.966 534.822,308.669C534.763,309.373 534.685,310.027 534.587,310.633C534.509,311.219 534.421,311.727 534.324,312.157C534.226,312.587 534.128,312.851 534.031,312.948C533.444,313.535 532.741,313.974 531.92,314.267C531.119,314.541 530.279,314.726 529.4,314.824C528.52,314.922 527.641,314.961 526.762,314.941C525.882,314.922 525.062,314.912 524.3,314.912L523.01,314.912C522.404,314.893 521.711,314.873 520.929,314.853C520.167,314.834 519.366,314.805 518.526,314.766C517.685,314.707 516.894,314.639 516.152,314.56C515.429,314.463 514.794,314.355 514.246,314.238C513.719,314.101 513.387,313.935 513.25,313.74C513.094,313.525 512.957,313.29 512.84,313.036C512.722,312.782 512.615,312.538 512.517,312.304C512.263,311.659 512.029,310.975 511.814,310.252C511.599,309.509 511.413,308.757 511.257,307.995C511.12,307.213 511.003,306.442 510.905,305.68C510.827,304.917 510.788,304.194 510.788,303.511C510.788,303.139 510.817,302.661 510.876,302.074C510.934,301.469 511.013,300.824 511.11,300.14C511.208,299.437 511.325,298.723 511.462,298C511.599,297.277 511.745,296.603 511.902,295.978C512.078,295.353 512.263,294.815 512.459,294.366C512.654,293.897 512.869,293.584 513.103,293.428C513.299,293.291 513.66,293.164 514.188,293.047C514.715,292.93 515.331,292.832 516.034,292.754C516.738,292.656 517.49,292.578 518.291,292.519C519.092,292.441 519.854,292.383 520.577,292.344C521.3,292.285 521.955,292.246 522.541,292.226C523.127,292.207 523.557,292.197 523.831,292.197C524.202,292.197 524.7,292.217 525.326,292.256C525.97,292.295 526.664,292.363 527.407,292.461C528.149,292.539 528.901,292.646 529.663,292.783C530.425,292.9 531.129,293.047 531.774,293.223C532.438,293.399 533.005,293.594 533.474,293.809C533.943,294.024 534.236,294.258 534.353,294.512C534.451,294.727 534.539,295.04 534.617,295.45C534.714,295.841 534.793,296.291 534.851,296.799C534.91,297.307 534.959,297.844 534.998,298.411C535.056,298.977 535.095,299.524 535.115,300.052C535.154,300.56 535.183,301.029 535.203,301.459C535.222,301.889 535.232,302.231 535.232,302.485ZM529.986,303.452C529.986,303.061 529.966,302.651 529.927,302.221C529.888,301.772 529.761,301.381 529.546,301.049C529.39,300.814 529.009,300.628 528.403,300.492C527.817,300.355 527.162,300.257 526.439,300.199C525.736,300.14 525.052,300.111 524.388,300.111C523.723,300.091 523.254,300.081 522.981,300.081C522.766,300.081 522.385,300.101 521.838,300.14C521.31,300.179 520.743,300.247 520.138,300.345C519.552,300.423 519.004,300.531 518.496,300.668C517.988,300.785 517.676,300.931 517.558,301.107C517.441,301.244 517.344,301.508 517.265,301.899C517.207,302.27 517.148,302.68 517.089,303.13C517.05,303.559 517.021,303.98 517.002,304.39C516.982,304.781 516.972,305.064 516.972,305.24L516.972,305.943C516.992,306.256 517.021,306.578 517.06,306.911C517.099,307.243 517.138,307.555 517.177,307.848C517.236,308.142 517.314,308.356 517.412,308.493C517.471,308.591 517.646,308.679 517.939,308.757C518.233,308.835 518.584,308.913 518.995,308.992C519.424,309.05 519.874,309.099 520.343,309.138C520.812,309.177 521.261,309.216 521.691,309.255C522.141,309.275 522.531,309.294 522.864,309.314L523.596,309.314C523.831,309.314 524.231,309.294 524.798,309.255C525.384,309.216 525.99,309.158 526.615,309.079C527.26,308.982 527.846,308.874 528.374,308.757C528.921,308.62 529.273,308.464 529.429,308.288C529.546,308.151 529.644,307.868 529.722,307.438C529.8,306.989 529.859,306.51 529.898,306.002C529.937,305.474 529.956,304.976 529.956,304.507C529.976,304.019 529.986,303.667 529.986,303.452ZM464.9,293.487C464.802,294.679 464.763,295.871 464.783,297.062C464.802,298.235 464.793,299.407 464.754,300.58L461.5,300.462C461.481,301.146 461.461,301.82 461.442,302.485L461.442,306.94C461.461,307.721 461.481,308.523 461.5,309.343L464.49,309.402C464.451,309.968 464.431,310.545 464.431,311.131L464.431,312.89C464.431,313.378 464.441,313.867 464.46,314.355C464.5,314.844 464.568,315.322 464.666,315.791L454.143,315.967C454.143,315.01 454.134,314.072 454.114,313.153C454.095,312.216 454.056,311.268 453.997,310.31L455.902,310.281C455.804,308.444 455.687,306.627 455.55,304.83C455.433,303.032 455.306,301.224 455.169,299.407L452.385,299.056C452.346,298.235 452.307,297.424 452.268,296.623C452.248,295.802 452.219,294.981 452.18,294.161C454.31,294.083 456.42,293.995 458.511,293.897C460.621,293.78 462.751,293.643 464.9,293.487ZM490.13,305.562C490.13,307.282 490.12,308.982 490.101,310.662C490.101,312.323 490.091,314.013 490.071,315.733C488.86,315.674 487.658,315.645 486.466,315.645C485.88,315.645 485.284,315.674 484.678,315.733C484.092,315.791 483.506,315.87 482.92,315.967C482.177,314.345 481.435,312.743 480.692,311.16C479.95,309.558 479.207,307.946 478.465,306.324C477.918,305.132 477.4,303.94 476.911,302.749C476.423,301.557 475.934,300.355 475.446,299.143C475.27,301.781 475.084,304.409 474.889,307.028C474.713,309.627 474.566,312.245 474.449,314.883L468.118,314.707C468.021,310.955 467.933,307.223 467.855,303.511C467.776,299.798 467.64,296.066 467.444,292.314L478.904,292.256C479.295,293.233 479.657,294.219 479.989,295.216C480.34,296.193 480.673,297.189 480.985,298.206C481.435,299.749 481.943,301.283 482.509,302.807C483.076,304.312 483.643,305.826 484.209,307.35C484.19,304.908 484.141,302.475 484.063,300.052C484.004,297.629 483.955,295.187 483.916,292.725L489.837,293.428C489.915,295.46 489.983,297.483 490.042,299.495C490.101,301.508 490.13,303.53 490.13,305.562ZM509.732,299.554C508.032,299.651 506.352,299.73 504.691,299.788C503.05,299.847 501.389,299.954 499.708,300.111L499.943,302.631L504.808,302.954L505.629,305.885C504.75,306.08 503.861,306.236 502.962,306.354C502.082,306.451 501.203,306.588 500.324,306.764C500.519,308.229 500.656,309.695 500.734,311.16C500.812,312.606 500.851,314.062 500.851,315.528L493.143,315.791C493.241,313.505 493.299,311.239 493.319,308.992C493.338,306.725 493.348,304.448 493.348,302.162L493.348,293.663C494.481,293.643 495.595,293.623 496.689,293.604C497.803,293.565 498.927,293.545 500.06,293.545C501.584,293.545 503.108,293.584 504.632,293.663C506.156,293.721 507.69,293.79 509.234,293.868C509.351,294.806 509.459,295.753 509.556,296.711C509.674,297.649 509.732,298.596 509.732,299.554ZM558.756,300.257C558.756,301.859 558.267,303.12 557.29,304.038C556.313,304.957 555.024,305.455 553.421,305.533C555.356,308.757 557.046,312.059 558.492,315.44L549.934,315.645C549.777,314.062 549.543,312.606 549.23,311.278C548.917,309.949 548.478,308.552 547.911,307.086C547.266,307.125 546.622,307.174 545.977,307.233C545.351,307.292 544.726,307.34 544.101,307.379L544.247,314.033C543.134,314.091 542.02,314.121 540.906,314.121C540.339,314.121 539.783,314.111 539.235,314.091C538.708,314.072 538.171,314.033 537.623,313.974C537.76,312.176 537.887,310.389 538.004,308.61C538.122,306.813 538.19,305.025 538.21,303.247C538.268,300.081 538.356,296.916 538.473,293.75C540.31,293.653 542.137,293.545 543.954,293.428C545.791,293.311 547.628,293.252 549.465,293.252C549.934,293.252 550.442,293.262 550.989,293.281C551.536,293.301 552.083,293.36 552.63,293.457C553.197,293.536 553.734,293.653 554.242,293.809C554.77,293.965 555.239,294.171 555.649,294.425C556.645,295.05 557.407,295.89 557.935,296.945C558.482,297.981 558.756,299.085 558.756,300.257ZM551.956,299.788C551.956,299.632 551.946,299.417 551.927,299.143C551.927,298.87 551.907,298.596 551.868,298.323C551.829,298.03 551.77,297.766 551.692,297.531C551.614,297.277 551.506,297.092 551.37,296.975C551.272,296.896 551.106,296.838 550.871,296.799C550.637,296.76 550.383,296.73 550.109,296.711C549.855,296.672 549.601,296.652 549.347,296.652C549.113,296.633 548.947,296.623 548.849,296.623C548.067,296.623 547.296,296.662 546.534,296.74C545.791,296.818 545.049,296.916 544.306,297.033L545.097,302.719C545.527,302.817 545.977,302.885 546.446,302.924C546.915,302.963 547.374,302.983 547.823,302.983C548.019,302.983 548.302,302.973 548.673,302.954C549.064,302.934 549.455,302.895 549.846,302.836C550.256,302.778 550.627,302.7 550.959,302.602C551.311,302.485 551.555,302.338 551.692,302.162C551.751,302.084 551.8,301.938 551.839,301.723C551.878,301.488 551.897,301.254 551.897,301.019C551.917,300.765 551.927,300.521 551.927,300.287C551.946,300.052 551.956,299.886 551.956,299.788ZM585.598,315.498C585.226,315.479 584.865,315.449 584.513,315.41C584.22,315.371 583.927,315.342 583.634,315.322C583.36,315.303 583.155,315.293 583.018,315.293C582.256,315.293 581.494,315.303 580.732,315.322C579.97,315.361 579.218,315.42 578.475,315.498C578.495,314.678 578.505,313.876 578.505,313.095C578.524,312.294 578.534,311.483 578.534,310.662C578.534,309.197 578.505,307.741 578.446,306.295L578.329,301.957L572.174,315.879C571.275,313.437 570.308,311.043 569.272,308.698C568.256,306.334 567.191,303.98 566.077,301.635L566.546,316.114C566.331,316.114 566.107,316.104 565.872,316.084L565.198,316.084C564.456,316.084 563.723,316.114 563,316.172C562.296,316.231 561.583,316.29 560.86,316.348C560.958,314.531 561.056,312.724 561.153,310.926C561.251,309.128 561.3,307.321 561.3,305.504C561.3,303.374 561.28,301.254 561.241,299.143C561.222,297.033 561.202,294.913 561.183,292.783C562.589,292.783 563.957,292.744 565.286,292.666C566.634,292.588 568.012,292.48 569.419,292.344C569.888,293.907 570.366,295.46 570.855,297.004C571.363,298.528 571.9,300.052 572.467,301.576C573.073,300.13 573.756,298.714 574.519,297.326C575.3,295.939 576.091,294.561 576.893,293.194C578.221,293.154 579.53,293.115 580.82,293.076C582.129,293.037 583.448,293.008 584.777,292.988C584.836,294.747 584.904,296.486 584.982,298.206C585.08,299.925 585.168,301.664 585.246,303.423C585.304,304.81 585.353,306.197 585.392,307.585C585.451,308.972 585.5,310.35 585.539,311.717L585.598,314.179L585.598,315.498ZM607.545,314.912L603.09,315.586C602.777,314.59 602.464,313.603 602.152,312.626C601.839,311.629 601.536,310.633 601.243,309.636L594.033,309.9L593.124,313.798L588.611,313.798C588.884,310.477 589.168,307.174 589.461,303.892C589.754,300.609 590.037,297.316 590.311,294.014C591.717,293.78 593.115,293.584 594.502,293.428C595.909,293.272 597.325,293.194 598.752,293.194C600.491,293.194 602.23,293.223 603.969,293.281C604.282,295.314 604.584,297.346 604.878,299.378C605.19,301.391 605.513,303.413 605.845,305.445C606.079,307.047 606.333,308.63 606.607,310.193C606.9,311.756 607.213,313.329 607.545,314.912ZM600.217,305.65C600.198,305.474 600.149,305.152 600.071,304.683C599.993,304.194 599.905,303.686 599.807,303.159C599.709,302.612 599.592,302.123 599.455,301.693C599.338,301.244 599.221,300.98 599.104,300.902C599.064,300.882 598.967,300.863 598.81,300.843C598.674,300.824 598.517,300.804 598.341,300.785C598.185,300.765 598.029,300.755 597.873,300.755L597.14,300.755C596.983,300.755 596.808,300.765 596.612,300.785C596.436,300.785 596.26,300.804 596.085,300.843C595.928,300.882 595.821,300.931 595.762,300.99C595.723,301.009 595.674,301.136 595.616,301.371C595.557,301.605 595.479,301.899 595.381,302.25C595.303,302.582 595.215,302.944 595.117,303.335C595.039,303.726 594.961,304.097 594.883,304.448C594.805,304.8 594.736,305.103 594.678,305.357C594.639,305.611 594.609,305.758 594.59,305.797L600.217,305.65ZM622.663,319.807C622.663,320.041 622.633,320.315 622.575,320.627C622.536,320.96 622.458,321.282 622.34,321.595C622.243,321.907 622.116,322.191 621.959,322.445C621.803,322.718 621.617,322.914 621.402,323.031C621.187,323.148 620.836,323.256 620.347,323.353C619.859,323.471 619.331,323.578 618.764,323.676C618.217,323.773 617.68,323.852 617.152,323.91C616.644,323.988 616.244,324.047 615.951,324.086L615.834,321.36C615.99,321.341 616.254,321.292 616.625,321.214C616.996,321.155 617.377,321.087 617.768,321.008C618.178,320.93 618.55,320.852 618.882,320.774C619.233,320.696 619.448,320.627 619.527,320.569C619.741,320.471 619.878,320.344 619.937,320.188C619.995,320.032 620.025,319.846 620.025,319.631C620.025,319.103 619.82,318.703 619.409,318.429C619.312,318.371 619.097,318.322 618.764,318.283C618.432,318.263 618.061,318.244 617.651,318.224L616.508,318.224C616.136,318.244 615.873,318.253 615.716,318.253L615.716,314.795C615.736,314.521 615.746,314.248 615.746,313.974C615.374,313.955 614.954,313.935 614.485,313.916L613.137,313.798C612.707,313.74 612.307,313.671 611.935,313.593C611.584,313.515 611.31,313.417 611.115,313.3C610.9,313.163 610.695,313.007 610.499,312.831C610.304,312.636 610.128,312.44 609.972,312.245C609.561,311.737 609.219,311.18 608.946,310.574C608.672,309.968 608.457,309.343 608.301,308.698C608.145,308.054 608.027,307.399 607.949,306.735C607.891,306.07 607.861,305.416 607.861,304.771C607.861,303.989 607.9,303.178 607.979,302.338C608.076,301.498 608.223,300.668 608.418,299.847C608.614,299.026 608.868,298.235 609.18,297.473C609.512,296.711 609.913,296.007 610.382,295.362C610.519,295.187 610.695,294.972 610.909,294.718C611.124,294.464 611.339,294.278 611.554,294.161C612.082,293.868 612.668,293.623 613.313,293.428C613.977,293.233 614.661,293.086 615.365,292.988C616.068,292.871 616.762,292.793 617.446,292.754C618.149,292.695 618.794,292.666 619.38,292.666C620.494,292.666 621.608,292.734 622.721,292.871C623.835,292.988 624.92,293.203 625.975,293.516C625.936,294.044 625.906,294.581 625.887,295.128C625.867,295.656 625.857,296.183 625.857,296.711C625.857,297.981 625.887,299.261 625.945,300.55C625.066,300.218 624.148,299.984 623.19,299.847C622.233,299.691 621.285,299.612 620.347,299.612C620.152,299.612 619.868,299.632 619.497,299.671C619.126,299.691 618.706,299.73 618.237,299.788C617.768,299.827 617.279,299.886 616.771,299.964C616.283,300.042 615.824,300.14 615.394,300.257C614.964,300.374 614.583,300.511 614.251,300.668C613.938,300.824 613.733,300.99 613.635,301.166C613.557,301.322 613.489,301.547 613.43,301.84C613.391,302.113 613.352,302.407 613.313,302.719C613.293,303.032 613.274,303.335 613.254,303.628L613.254,304.331C613.254,304.507 613.274,304.859 613.313,305.386C613.352,305.914 613.401,306.481 613.459,307.086C613.518,307.673 613.586,308.21 613.665,308.698C613.762,309.187 613.86,309.47 613.958,309.548C614.055,309.607 614.212,309.646 614.427,309.666L614.896,309.666C615.853,309.666 616.879,309.617 617.973,309.519C619.067,309.421 620.171,309.294 621.285,309.138C622.418,308.962 623.532,308.786 624.626,308.61C625.721,308.415 626.737,308.229 627.675,308.054L627.645,312.626C626.746,312.802 625.857,312.968 624.978,313.124C624.099,313.28 623.21,313.417 622.311,313.535C621.295,313.671 620.25,313.789 619.175,313.886L619.175,316.495C619.663,316.553 620.103,316.641 620.494,316.759C620.885,316.895 621.226,317.071 621.52,317.286C621.813,317.501 622.047,317.784 622.223,318.136C622.399,318.507 622.536,318.957 622.633,319.484L622.633,319.631C622.653,319.69 622.663,319.748 622.663,319.807ZM653.285,302.485L653.285,303.247C653.285,303.481 653.276,303.716 653.256,303.95C653.237,304.146 653.207,304.488 653.168,304.976C653.149,305.465 653.11,306.031 653.051,306.676C653.012,307.301 652.953,307.966 652.875,308.669C652.817,309.373 652.738,310.027 652.641,310.633C652.563,311.219 652.475,311.727 652.377,312.157C652.279,312.587 652.181,312.851 652.084,312.948C651.498,313.535 650.794,313.974 649.973,314.267C649.172,314.541 648.332,314.726 647.453,314.824C646.574,314.922 645.694,314.961 644.815,314.941C643.936,314.922 643.115,314.912 642.353,314.912L641.063,314.912C640.458,314.893 639.764,314.873 638.982,314.853C638.22,314.834 637.419,314.805 636.579,314.766C635.739,314.707 634.947,314.639 634.205,314.56C633.482,314.463 632.847,314.355 632.3,314.238C631.772,314.101 631.44,313.935 631.303,313.74C631.147,313.525 631.01,313.29 630.893,313.036C630.776,312.782 630.668,312.538 630.57,312.304C630.316,311.659 630.082,310.975 629.867,310.252C629.652,309.509 629.466,308.757 629.31,307.995C629.173,307.213 629.056,306.442 628.958,305.68C628.88,304.917 628.841,304.194 628.841,303.511C628.841,303.139 628.87,302.661 628.929,302.074C628.988,301.469 629.066,300.824 629.164,300.14C629.261,299.437 629.379,298.723 629.515,298C629.652,297.277 629.799,296.603 629.955,295.978C630.131,295.353 630.316,294.815 630.512,294.366C630.707,293.897 630.922,293.584 631.157,293.428C631.352,293.291 631.714,293.164 632.241,293.047C632.769,292.93 633.384,292.832 634.088,292.754C634.791,292.656 635.543,292.578 636.344,292.519C637.146,292.441 637.908,292.383 638.631,292.344C639.354,292.285 640.008,292.246 640.594,292.226C641.181,292.207 641.61,292.197 641.884,292.197C642.255,292.197 642.754,292.217 643.379,292.256C644.024,292.295 644.717,292.363 645.46,292.461C646.202,292.539 646.955,292.646 647.717,292.783C648.479,292.9 649.182,293.047 649.827,293.223C650.491,293.399 651.058,293.594 651.527,293.809C651.996,294.024 652.289,294.258 652.406,294.512C652.504,294.727 652.592,295.04 652.67,295.45C652.768,295.841 652.846,296.291 652.904,296.799C652.963,297.307 653.012,297.844 653.051,298.411C653.11,298.977 653.149,299.524 653.168,300.052C653.207,300.56 653.237,301.029 653.256,301.459C653.276,301.889 653.285,302.231 653.285,302.485ZM648.039,303.452C648.039,303.061 648.02,302.651 647.98,302.221C647.941,301.772 647.814,301.381 647.599,301.049C647.443,300.814 647.062,300.628 646.456,300.492C645.87,300.355 645.216,300.257 644.493,300.199C643.789,300.14 643.105,300.111 642.441,300.111C641.777,300.091 641.308,300.081 641.034,300.081C640.819,300.081 640.438,300.101 639.891,300.14C639.363,300.179 638.797,300.247 638.191,300.345C637.605,300.423 637.058,300.531 636.55,300.668C636.042,300.785 635.729,300.931 635.612,301.107C635.494,301.244 635.397,301.508 635.319,301.899C635.26,302.27 635.201,302.68 635.143,303.13C635.104,303.559 635.074,303.98 635.055,304.39C635.035,304.781 635.026,305.064 635.026,305.24L635.026,305.943C635.045,306.256 635.074,306.578 635.113,306.911C635.153,307.243 635.192,307.555 635.231,307.848C635.289,308.142 635.367,308.356 635.465,308.493C635.524,308.591 635.7,308.679 635.993,308.757C636.286,308.835 636.638,308.913 637.048,308.992C637.478,309.05 637.927,309.099 638.396,309.138C638.865,309.177 639.315,309.216 639.744,309.255C640.194,309.275 640.585,309.294 640.917,309.314L641.65,309.314C641.884,309.314 642.285,309.294 642.851,309.255C643.437,309.216 644.043,309.158 644.668,309.079C645.313,308.982 645.899,308.874 646.427,308.757C646.974,308.62 647.326,308.464 647.482,308.288C647.599,308.151 647.697,307.868 647.775,307.438C647.853,306.989 647.912,306.51 647.951,306.002C647.99,305.474 648.01,304.976 648.01,304.507C648.029,304.019 648.039,303.667 648.039,303.452ZM648.567,287.42C648.352,287.576 648.039,287.791 647.629,288.064C647.218,288.318 646.788,288.572 646.339,288.826C645.909,289.08 645.479,289.305 645.049,289.501C644.639,289.676 644.307,289.764 644.053,289.764C643.76,289.764 643.428,289.667 643.056,289.471C642.705,289.256 642.343,289.032 641.972,288.797C641.601,288.543 641.239,288.318 640.887,288.123C640.555,287.908 640.262,287.801 640.008,287.801C639.793,287.801 639.549,287.879 639.275,288.035C639.002,288.172 638.728,288.348 638.455,288.563C638.181,288.778 637.927,289.002 637.693,289.237C637.458,289.452 637.273,289.628 637.136,289.764L635.407,287.859L636.286,287.273C636.696,286.98 637.126,286.687 637.575,286.394C638.025,286.101 638.455,285.847 638.865,285.632C639.275,285.397 639.559,285.28 639.715,285.28C639.989,285.28 640.311,285.378 640.682,285.573C641.054,285.749 641.435,285.944 641.825,286.159C642.236,286.374 642.627,286.579 642.998,286.775C643.389,286.951 643.721,287.039 643.994,287.039C644.19,287.039 644.414,286.98 644.668,286.863C644.942,286.745 645.206,286.609 645.46,286.452C645.733,286.296 645.987,286.13 646.222,285.954C646.456,285.759 646.652,285.602 646.808,285.485L648.567,287.42ZM672.214,297.15C670.299,297.248 668.394,297.356 666.498,297.473C664.622,297.57 662.727,297.697 660.812,297.854L660.754,300.169L668.316,299.73C668.413,300.394 668.482,301.049 668.521,301.693C668.579,302.338 668.609,302.993 668.609,303.657C668.609,303.931 668.599,304.214 668.579,304.507L668.579,305.357L661.545,306.617L661.985,310.252C663.47,310.154 664.945,310.017 666.41,309.841C667.895,309.646 669.39,309.48 670.895,309.343C671.032,310.32 671.168,311.307 671.305,312.304C671.442,313.28 671.637,314.238 671.891,315.176C669.117,315.156 666.362,315.156 663.626,315.176C660.89,315.215 658.135,315.234 655.361,315.234C655.419,312.948 655.488,310.672 655.566,308.405C655.644,306.139 655.683,303.853 655.683,301.547L655.683,300.99C655.683,299.661 655.663,298.342 655.624,297.033C655.585,295.704 655.546,294.366 655.507,293.018C657.051,293.037 658.585,293.047 660.109,293.047C661.652,293.027 663.206,293.018 664.769,293.018C665.961,293.018 667.143,293.047 668.316,293.106C669.507,293.145 670.699,293.194 671.891,293.252L672.214,297.15ZM695.45,309.841C695.45,310.779 695.226,311.541 694.776,312.128C694.327,312.694 693.692,313.153 692.871,313.505C692.187,313.798 691.328,314.033 690.292,314.209C689.256,314.365 688.182,314.482 687.068,314.56C685.954,314.619 684.86,314.658 683.785,314.678C682.71,314.697 681.812,314.707 681.089,314.707C679.858,314.707 678.636,314.687 677.425,314.648C676.233,314.609 675.022,314.551 673.791,314.472C673.849,312.479 673.791,310.506 673.615,308.552C675.08,308.591 676.536,308.63 677.982,308.669C679.447,308.689 680.913,308.718 682.378,308.757L684.078,308.816C684.664,308.835 685.251,308.845 685.837,308.845L686.277,308.845C686.472,308.845 686.677,308.835 686.892,308.816C687.107,308.796 687.302,308.767 687.478,308.728C687.674,308.689 687.82,308.63 687.918,308.552C687.996,308.474 688.045,308.366 688.064,308.229C688.084,308.073 688.094,307.936 688.094,307.819C688.094,307.604 688.064,307.35 688.006,307.057C687.947,306.744 687.859,306.49 687.742,306.295C687.722,306.275 687.654,306.256 687.537,306.236C687.439,306.217 687.322,306.207 687.185,306.207C687.048,306.188 686.921,306.178 686.804,306.178C686.687,306.158 686.618,306.148 686.599,306.148C685.348,306.051 684.098,305.982 682.847,305.943C681.616,305.904 680.375,305.836 679.125,305.738C678.558,305.68 677.972,305.621 677.366,305.562C676.78,305.504 676.233,305.396 675.725,305.24C675.237,305.103 674.816,304.8 674.465,304.331C674.133,303.843 673.859,303.296 673.644,302.69C673.449,302.065 673.302,301.439 673.204,300.814C673.126,300.189 673.087,299.661 673.087,299.231C673.087,298.528 673.156,297.864 673.292,297.238C673.429,296.593 673.644,295.998 673.937,295.45C674.25,294.903 674.641,294.425 675.11,294.014C675.578,293.584 676.155,293.233 676.839,292.959C678.011,292.51 679.262,292.197 680.59,292.021C681.939,291.845 683.228,291.757 684.459,291.757C685.905,291.757 687.332,291.845 688.739,292.021C690.145,292.197 691.552,292.422 692.959,292.695L692.901,294.395L692.901,296.066C692.901,296.633 692.93,297.209 692.988,297.795L693.164,299.495L687.595,299.612C685.759,299.632 683.902,299.681 682.027,299.759C681.792,299.759 681.47,299.769 681.059,299.788C680.669,299.808 680.288,299.837 679.916,299.876C679.545,299.896 679.223,299.915 678.949,299.935L678.539,299.964C678.441,300.179 678.382,300.404 678.363,300.638C678.343,300.853 678.334,301.078 678.334,301.312L678.334,301.752C678.353,301.928 678.402,302.065 678.48,302.162C678.5,302.182 678.666,302.211 678.978,302.25C679.291,302.289 679.633,302.328 680.004,302.368C680.395,302.407 680.757,302.446 681.089,302.485C681.44,302.524 681.655,302.543 681.734,302.543L683.99,302.749C684.87,302.827 685.759,302.915 686.658,303.012C687.576,303.11 688.455,303.237 689.295,303.393C690.136,303.53 690.868,303.696 691.494,303.892C692.06,304.087 692.578,304.4 693.047,304.83C693.536,305.24 693.956,305.728 694.307,306.295C694.659,306.842 694.933,307.428 695.128,308.054C695.343,308.659 695.45,309.255 695.45,309.841Z" style="fill:rgb(71,0,0);"/>
                    </g>
                </g>
            </g>
        </g>
    </g>
</svg>
