<?xml version="1.0" encoding="UTF-8" standalone="no"?>
<!DOCTYPE svg PUBLIC "-//W3C//DTD SVG 1.1//EN" "http://www.w3.org/Graphics/SVG/1.1/DTD/svg11.dtd">
<svg width="100%" height="100%" viewBox="0 0 243 47" version="1.1" xmlns="http://www.w3.org/2000/svg" xmlns:xlink="http://www.w3.org/1999/xlink" xml:space="preserve" xmlns:serif="http://www.serif.com/" style="fill-rule:evenodd;clip-rule:evenodd;stroke-linejoin:round;stroke-miterlimit:2;">
    <g transform="matrix(1,0,0,1,-1024.49,-398.335)">
        <g transform="matrix(6.12323e-17,-1,5.13241,3.14269e-16,0,1920)">
            <g transform="matrix(6.12323e-17,0.19484,-1,1.19305e-17,1699.3,111.164)">
                <g>
                    <g transform="matrix(0.0821561,0,0,0.0736733,727.776,89.4728)">
                        <path d="M-3276,1274C-3276,1274 -3123.42,1237.28 -2797,1237C-2470.58,1236.72 -2169.4,1266.16 -1803,1237C-1436.6,1207.84 -1367.68,1245.94 -1044,1237C-720.318,1228.06 -486,1237 -486,1237L-397,1274L-397,1592L-443,1592L-397,1644L-397,1745C-397,1745 -1283.93,1730.3 -1535,1768C-1786.07,1805.7 -2832.42,1797.18 -2884,1800C-2935.58,1802.82 -3038.91,1770.73 -3097,1768C-3155.09,1765.27 -3198,1745 -3198,1745L-3312,1604C-3312,1604 -3297.14,1515.23 -3222,1514C-3222,1514 -3270.94,1515.32 -3276,1476C-3283.41,1418.44 -3278.49,1311.28 -3276,1274Z" style="fill:rgb(220,115,57);"/>
                    </g>
                    <g transform="matrix(0.0821561,0,0,0.0736733,727.361,89.4728)">
                        <path d="M-481.504,1233.89C-471.354,1251.34 -469.07,1269.84 -481.504,1290.31C-481.504,1290.31 -464.542,1321.39 -486,1352C-486,1352 -482.296,1398.92 -508,1414C-508,1414 -494.915,1470.32 -508,1517C-508,1517 -464.936,1562.81 -486,1599L-460.831,1611L-386,1599L-386,1269.43L-424,1247.46L-481.504,1233.89Z" style="fill:rgb(169,54,24);"/>
                    </g>
                    <g transform="matrix(0.0821561,0,0,0.0736733,85.0315,89.4728)">
                        <path d="M6711,1522L7310,1516C7310,1516 7314.32,1522.46 7316,1504C7316,1504 6718.35,1525.94 6711,1522Z" style="fill:rgb(255,162,87);"/>
                    </g>
                    <g transform="matrix(0.0821561,0,0,0.0736733,85.0315,89.4728)">
                        <path d="M4716,1509L4716,1519L4633,1564L4620,1576L4592,1564L4556,1538L4556,1519L4580,1509L4716,1509Z" style="fill:rgb(208,80,31);"/>
                    </g>
                    <g transform="matrix(0.0821561,0,0,0.0736733,727.361,89.4728)">
                        <path d="M-2383.25,1729.98C-2443.45,1746.54 -2674.4,1731.89 -2714.3,1731.6C-2881.15,1730.37 -2941.14,1775.48 -2955.57,1799.95L-2968.43,1792.05C-2956.63,1772.81 -2901.73,1707.01 -2668.8,1725.04C-2646.01,1726.81 -2436.79,1743 -2383.25,1729.98Z" style="fill:rgb(174,63,7);"/>
                    </g>
                    <g transform="matrix(0.0821561,0,0,0.0736733,727.361,89.4728)">
                        <path d="M-390.034,1353.88L-390.42,1370.67C-536.737,1362.52 -638.959,1336.95 -778.562,1349.42C-931.463,1363.09 -976.504,1384.11 -1196,1389C-965.03,1379.08 -918.927,1354.15 -758.65,1338.66C-642.402,1327.42 -502.858,1350.69 -390.034,1353.88Z" style="fill:rgb(113,21,10);"/>
                    </g>
                    <g transform="matrix(0.0821561,0,0,0.0736733,85.0315,89.4728)">
                        <path d="M4566,1614.1C4566,1614.1 4584.23,1633.84 4612,1673C4639.77,1712.16 4652.95,1737.83 4687,1750C4721.05,1762.17 4821.77,1779.14 4848,1773C4874.23,1766.86 4885,1761 4885,1761C4885,1761 4805.8,1781.16 4755.43,1750C4705.05,1718.84 4664,1673 4664,1673L4641,1614.1L4566,1587L4566,1614.1Z" style="fill:rgb(183,58,30);"/>
                    </g>
                    <g transform="matrix(0.0821561,0,0,0.0736733,727.361,89.4728)">
                        <path d="M-619,1237C-619,1237 -764.084,1262.18 -843,1274C-921.916,1285.82 -1561.35,1218.21 -1661,1237C-1760.65,1255.79 -1982.1,1262.12 -2248,1237C-2248,1237 -1699.78,1216.12 -1617,1214C-1534.22,1211.88 -1131.62,1245.94 -1088,1237C-1044.38,1228.06 -619,1237 -619,1237Z" style="fill:rgb(250,170,85);"/>
                    </g>
                    <g transform="matrix(0.0821561,0,0,0.0736733,727.361,89.4728)">
                        <path d="M-3191,1615C-3191,1615 -3195.26,1619.86 -3050,1615C-2904.74,1610.14 -2892.2,1596.76 -2828,1615C-2763.8,1633.24 -2590.54,1615.24 -2542,1615C-2493.46,1614.76 -1860.55,1610.62 -1805,1615C-1749.45,1619.38 -1625,1592 -1625,1592L-3230,1592L-3191,1615Z" style="fill:rgb(250,170,85);"/>
                    </g>
                    <g transform="matrix(0.0821561,0,0,0.0736733,727.361,89.4728)">
                        <path d="M-2845.31,1536.94C-2932.1,1521.61 -2973.66,1517.64 -3110.7,1536.94C-2988.22,1503.14 -2953.33,1500.75 -2845.31,1536.94Z" style="fill:rgb(250,170,85);"/>
                    </g>
                    <g transform="matrix(0.0821561,0,0,0.0736733,727.361,89.4728)">
                        <path d="M-3275,1547C-3275,1547 -3271.24,1520.31 -3250,1527C-3228.76,1533.69 -3223.49,1561.47 -3193,1560C-3193,1560 -3229.84,1593.27 -3250,1583C-3270.16,1572.73 -3271.56,1560.31 -3275,1547Z" style="fill:rgb(155,44,17);"/>
                    </g>
                    <g transform="matrix(0.0821561,0,0,0.0736733,727.361,89.4728)">
                        <path d="M-3300,1611C-3300,1611 -3280.64,1578.97 -3251,1611C-3221.36,1643.03 -3207.09,1654.25 -3195,1679C-3182.91,1703.75 -3170.08,1739.1 -3124,1751C-3077.92,1762.9 -2994.16,1780.51 -2917,1751L-2892,1751C-2892,1751 -2946.28,1763.51 -2967,1795L-3081,1795L-3195,1766L-3251,1708L-3328,1611L-3300,1611Z" style="fill:rgb(145,41,30);"/>
                    </g>
                    <g transform="matrix(0.0821561,0,0,0.0736733,727.361,89.5465)">
                        <path d="M-2550.69,1663.43L-2543.22,1672.56C-2547.81,1676.54 -2568.72,1694.68 -2611.45,1700.56C-2660.92,1707.35 -2706.87,1692.34 -2719.14,1688.61L-2718.86,1687.39C-2706.87,1690.24 -2660.56,1702.31 -2612.53,1692.64C-2570.45,1684.17 -2551.23,1663.92 -2550.69,1663.43Z" style="fill:rgb(176,58,20);"/>
                    </g>
                    <g transform="matrix(0.0821561,0,0,0.0736733,727.361,89.4728)">
                        <path d="M-390.322,1408.38L-390.605,1432.7C-555.165,1427.73 -610.517,1434.1 -735.139,1460.73C-774.239,1469.09 -821.988,1479.33 -887.689,1486.75C-940.604,1492.72 -871.845,1485.7 -794.029,1467.35C-734.157,1453.23 -686.171,1437.68 -623.291,1426.46C-526.531,1409.17 -428.283,1409.01 -390.322,1408.38Z" style="fill:rgb(71,0,0);"/>
                    </g>
                    <g transform="matrix(0.0821561,0,0,0.0736733,727.361,89.4728)">
                        <path d="M-398.293,1400.7C-624.289,1363.39 -710.326,1353.91 -852.617,1368.71C-951.628,1379.01 -1016.1,1387.21 -1181.08,1389.51C-901.485,1376.65 -870.634,1353.05 -744.837,1348.4C-629.025,1344.11 -483.318,1364.85 -395.303,1376.61L-398.293,1400.7Z" style="fill:rgb(169,54,24);"/>
                    </g>
                    <g transform="matrix(0.0821561,0,0,0.0736733,727.361,89.4728)">
                        <path d="M-387.13,1514.79L-387.176,1530.18C-744.289,1525.66 -744.294,1530.4 -1074.97,1523.44C-1186.79,1521.08 -1027.44,1523.49 -834.863,1520.98C-639.314,1518.43 -639.364,1516.81 -387.13,1514.79Z" style="fill:rgb(73,11,2);"/>
                    </g>
                    <g transform="matrix(0.0821561,0,0,0.0736733,727.361,89.4728)">
                        <path d="M-413.933,1592.97L-415.476,1619.6C-448.994,1617.02 -601.201,1605.33 -834.839,1594.45C-1051.9,1584.35 -1159.07,1584.2 -1186.97,1583.93C-1162.75,1583.31 -1054.9,1579.61 -834.552,1582.24C-741.002,1583.36 -547.943,1586.91 -413.933,1592.97Z" style="fill:rgb(71,0,0);"/>
                    </g>
                    <g transform="matrix(0.0821561,0,0,0.0736733,727.361,89.4728)">
                        <path d="M-1181.13,1769.12L-1189.47,1746.65C-977.157,1654.4 -866.677,1614.59 -718.843,1632.86C-670.954,1638.78 -628.05,1648.29 -517.265,1671.12L-517.455,1672.38C-696.469,1641.66 -773.588,1623.44 -896.666,1654.89C-998.494,1680.92 -1121.64,1740.95 -1181.13,1769.12Z" style="fill:rgb(173,62,17);"/>
                    </g>
                    <g transform="matrix(0.0821561,0,0,0.0736733,727.361,89.4728)">
                        <path d="M-1639.31,1351.31C-1705.2,1338.41 -1760.5,1327.85 -1829.22,1332.42C-1886.79,1336.24 -1922.87,1346.55 -2033.21,1351.22C-1893.41,1332.09 -1877.44,1321.37 -1820.59,1318.22C-1757.17,1314.7 -1689.95,1335.26 -1639.31,1351.31Z" style="fill:rgb(173,62,17);"/>
                    </g>
                    <g transform="matrix(0.0821561,0,0,0.0736733,727.361,89.4728)">
                        <path d="M-2035.64,1262.62L-2035.54,1259.61C-1842.37,1265.67 -1841.88,1270.38 -1696.77,1249.02C-1647.38,1241.75 -1601.14,1233.19 -1530.86,1235.42C-1450.01,1237.99 -1427.7,1246.4 -1239.08,1251.9L-1239.82,1276.2C-1513.73,1260.9 -1521.8,1239.78 -1661.92,1256.93C-1715.66,1263.51 -1774.1,1270.89 -1819.17,1272.51C-1864.73,1274.13 -1879.11,1271.72 -2035.64,1262.62Z" style="fill:rgb(213,82,30);"/>
                    </g>
                    <g transform="matrix(0.0821561,0,0,0.0736733,727.361,89.4728)">
                        <path d="M-3266.04,1415.11L-3265.45,1401.49C-3003.18,1416.87 -2944.97,1394.87 -2767.2,1469.77L-2767.96,1472.05C-2946.28,1401.41 -3003.1,1424.69 -3266.04,1415.11Z" style="fill:rgb(173,62,17);"/>
                    </g>
                    <g transform="matrix(0.0821561,0,0,0.0736733,727.361,89.4728)">
                        <path d="M-2179.28,1552.57L-2187.61,1574.93C-2266.47,1538.42 -2327.89,1520.92 -2461.58,1513.92C-2573.39,1508.06 -2639.58,1508.96 -2747.01,1479.74L-2746.7,1478.29C-2562.25,1520.71 -2449.91,1483.01 -2289.3,1516.87C-2229.01,1529.58 -2180.86,1551.9 -2179.28,1552.57Z" style="fill:rgb(173,62,17);"/>
                    </g>
                    <g transform="matrix(0.0821561,0,0,0.0736733,726.95,89.0308)">
                        <path d="M-2483.24,1369.81L-2484.45,1374.23C-2485.54,1373.89 -2723.06,1289.54 -3021.01,1307.4C-3068.76,1310.27 -3087.23,1313.63 -3092.93,1314.67L-3096.85,1290.75C-3053.87,1284.62 -2931.55,1278.82 -2783.06,1298.41C-2623.23,1319.51 -2514.12,1359.1 -2483.24,1369.81Z" style="fill:rgb(212,104,40);"/>
                    </g>
                    <g transform="matrix(0.0821561,0,0,0.0736733,727.361,89.4728)">
                        <path d="M-1200,1416C-1200,1416 -1017.01,1430.96 -938,1416C-858.989,1401.04 -660.275,1371.99 -604,1376C-604,1376 -760.75,1360.74 -920,1396C-1016.45,1417.35 -1168.06,1418.34 -1200,1416Z" style="fill:rgb(255,189,93);"/>
                    </g>
                    <g transform="matrix(0.0821561,0,0,0.0736733,727.361,89.4728)">
                        <path d="M-1099,1733C-1099,1733 -453.558,1729.28 -406,1725C-406,1725 -375.041,1752.44 -406,1752C-436.959,1751.56 -1160,1752 -1160,1752L-1099,1733Z" style="fill:rgb(109,21,7);"/>
                    </g>
                    <g transform="matrix(0.0821561,0,0,0.0736733,727.361,89.4728)">
                        <path d="M-386,1653C-386,1653 -507.711,1668.08 -548,1693C-588.289,1717.92 -637.989,1710.52 -681,1703C-724.011,1695.49 -800.753,1672.38 -828,1703C-855.247,1733.62 -902.871,1721.11 -920,1724C-937.129,1726.89 -1083.85,1722.67 -1112,1736C-1140.15,1749.33 -728,1736 -728,1736L-398,1736L-386,1653Z" style="fill:rgb(188,68,33);"/>
                    </g>
                    <g transform="matrix(0.0821561,0,0,0.0736733,727.361,89.4728)">
                        <path d="M-390.359,1294.91L-391.665,1305.58C-405.655,1303.06 -479.857,1288.73 -513.974,1286.01C-547.111,1283.37 -571.039,1287.14 -581.814,1288.39C-571.073,1286.54 -547.264,1281.41 -513.817,1282.19C-479.398,1282.99 -404.642,1293.15 -390.359,1294.91Z" style="fill:rgb(100,11,3);"/>
                    </g>
                    <g transform="matrix(0.0821561,0,0,0.0736733,727.361,89.4728)">
                        <path d="M-2542,1753C-2542,1753 -2530.35,1778.7 -2520,1788C-2509.65,1797.3 -2873,1788 -2873,1788C-2873,1788 -2579.14,1750.58 -2542,1753Z" style="fill:rgb(251,167,77);"/>
                    </g>
                    <g transform="matrix(0.0821561,0,0,0.0736733,727.361,89.4728)">
                        <path d="M-2494.62,1798.54L-2665.28,1803.42C-2715.75,1804.09 -2895.12,1801.78 -2915.11,1801.53C-2844.68,1796.67 -2704.84,1786.5 -2646.81,1784.84L-2495.04,1780.51L-2494.62,1798.54Z" style="fill:rgb(173,62,17);"/>
                    </g>
                    <g transform="matrix(0.0821561,0,0,0.0736733,727.361,89.4728)">
                        <path d="M-2916,1770C-2916,1770 -2847.78,1760.95 -2784,1754C-2720.22,1747.05 -2494,1733 -2494,1733L-2541,1733C-2541,1733 -2690.88,1736.9 -2757,1733C-2823.12,1729.1 -2896.41,1751.07 -2916,1770Z" style="fill:rgb(251,167,77);"/>
                    </g>
                    <g transform="matrix(0.0821561,0,0,0.0736733,727.361,89.4728)">
                        <path d="M-3172,1686C-3172,1686 -2972.92,1643.7 -2804,1677L-2722,1686C-2722,1686 -2885.68,1628.41 -2965,1640C-3044.32,1651.59 -3161.85,1660 -3172,1686Z" style="fill:rgb(255,162,87);"/>
                    </g>
                    <g transform="matrix(0.0821561,0,0,0.0736733,727.361,89.4728)">
                        <path d="M-3199.2,1690.92L-3196.81,1675C-3187.2,1677.57 -3114.26,1697.09 -3079.64,1718.47C-3067.34,1726.08 -3083.58,1716.59 -3104.94,1710.16C-3143.07,1698.66 -3183.93,1693.14 -3199.2,1690.92Z" style="fill:rgb(144,40,31);"/>
                    </g>
                    <g transform="matrix(0.0821561,0,0,0.0736733,727.607,89.4728)">
                        <path d="M-2810.2,1667.87C-2833.05,1663.84 -2877.15,1652.17 -3027.59,1659.87C-3125.3,1664.87 -3169.65,1677.35 -3174.85,1679.97C-3175.22,1680.16 -3175.77,1679.79 -3175.86,1679.86C-3176.14,1680.07 -3176.85,1681.58 -3176.87,1679.92C-3176.92,1675.27 -3107.24,1646.84 -3029.17,1637.31C-2944.09,1626.92 -2871.37,1643.24 -2809.8,1666.13L-2810.2,1667.87Z" style="fill:rgb(255,162,87);"/>
                    </g>
                    <g transform="matrix(0.0821561,0,0,0.0736733,727.361,89.4728)">
                        <path d="M-3197.78,1688.56L-3204.27,1665.4C-3103.46,1635.04 -2980.81,1622.09 -2877.22,1642.43C-2744.3,1668.51 -2731.87,1690.5 -2663.95,1696.73L-2664.05,1699.27C-2732.73,1695.72 -2745.52,1674.28 -2878.78,1653.57C-3035.83,1629.18 -3194.72,1687.52 -3197.78,1688.56Z" style="fill:rgb(144,40,31);"/>
                    </g>
                    <g transform="matrix(0.0821561,0,0,0.0736733,727.361,89.4728)">
                        <path d="M-3262.41,1616.31L-3268.25,1592.88C-3193.9,1571.01 -3186.7,1556.35 -3128.47,1527.73C-3072.75,1500.35 -3016.61,1494.96 -2998.81,1492.61L-2998.15,1498.13C-3029.77,1504.43 -3075.99,1512.75 -3129.68,1544.48C-3181.16,1574.9 -3189.95,1589.83 -3262.41,1616.31Z" style="fill:rgb(110,16,4);"/>
                    </g>
                    <g transform="matrix(0.0821561,0,0,0.0736733,725.307,89.0308)">
                        <path d="M-3050,1425C-3050,1425 -2982.93,1439.66 -2942,1453C-2901.07,1466.34 -2615.13,1539.23 -2566,1542C-2516.87,1544.77 -2513,1565.37 -2493,1579L-2478,1595L-2627,1595L-2648,1579C-2648,1579 -2851.18,1488.35 -2918,1480C-2984.82,1471.65 -3090.16,1436.91 -3090,1437C-3089.84,1437.09 -3050,1425 -3050,1425Z" style="fill:rgb(208,90,40);"/>
                    </g>
                    <g transform="matrix(0.0821561,0,0,0.0736733,727.361,89.4728)">
                        <path d="M-2996,1250C-2996,1250 -2380.34,1252.7 -2353,1250C-2325.66,1247.3 -2276,1250 -2276,1250C-2276,1250 -2518.22,1286.03 -2571,1285C-2623.78,1283.98 -3175.15,1265.67 -3212,1264L-2996,1250Z" style="fill:rgb(250,170,85);"/>
                    </g>
                    <g transform="matrix(0.0821561,0,0,0.0736733,727.361,89.4728)">
                        <path d="M-2489,1367C-2489,1367 -2563.6,1352.81 -2612,1353C-2660.4,1353.19 -2776.88,1333.53 -2818,1329C-2859.12,1324.48 -2929.5,1309.83 -2975,1306C-3013.53,1302.75 -3091,1306 -3091,1306C-3091,1306 -2830.56,1263.92 -2489,1367Z" style="fill:rgb(250,170,85);"/>
                    </g>
                    <g transform="matrix(0.0821561,0,0,0.0736733,727.361,89.4728)">
                        <path d="M-3190,1395C-3190,1395 -3046.11,1397.55 -2922,1406.68C-2797.89,1415.81 -2654,1419 -2654,1419C-2654,1419 -2677.48,1410.2 -2727,1395C-2806.04,1370.74 -2887.23,1369.88 -2929,1368C-2970.77,1366.12 -3142.41,1376.91 -3190,1395Z" style="fill:rgb(219,115,54);"/>
                    </g>
                    <g transform="matrix(0.0821561,0,0,0.0736733,727.361,89.4728)">
                        <path d="M-3266.56,1418.41L-3272.33,1394.95C-3190.59,1371.91 -3062.35,1335.66 -2925.99,1343.13C-2777.41,1351.27 -2673.14,1408.16 -2625.39,1434.48L-2626.4,1436.77C-2673.19,1412.88 -2776.73,1360.35 -2921.46,1356.1C-3057.53,1352.1 -3184.26,1392.31 -3266.56,1418.41Z" style="fill:rgb(173,62,17);"/>
                    </g>
                    <g transform="matrix(0.0821561,0,0,0.0736733,727.361,89.4728)">
                        <path d="M-2877,1513C-2877,1513 -2795.69,1543.97 -2767,1553C-2738.31,1562.03 -2683.99,1566.36 -2668,1571C-2668,1571 -2783.7,1534.3 -2877,1513Z" style="fill:rgb(250,170,85);"/>
                    </g>
                    <g transform="matrix(0.0821561,0,0,0.0736733,727.361,89.4728)">
                        <path d="M-1326.14,1311.38L-1329.52,1287.35C-1241.65,1275.01 -1189.01,1282.91 -1094.4,1289.83C-988.285,1297.59 -932.754,1290.12 -885.12,1283.4C-951.748,1296.53 -1001.63,1303.42 -1107.89,1301.08C-1194.1,1299.18 -1245.26,1295.48 -1326.14,1311.38Z" style="fill:rgb(255,189,93);"/>
                    </g>
                    <g transform="matrix(0.0821561,0,0,0.0736733,727.361,89.4728)">
                        <path d="M-1150,1616C-1150,1616 -838.567,1612.35 -774.546,1605.37C-710.526,1598.4 -446.89,1629.33 -403,1652C-403,1652 -419.243,1617.72 -439.312,1616C-771.038,1587.59 -1162,1590 -1162,1590L-1150,1616Z" style="fill:rgb(253,183,98);"/>
                    </g>
                    <g transform="matrix(0.0821561,0,0,0.0736733,727.361,89.4728)">
                        <path d="M-520,1414L-386,1414L-386,1354C-386,1354 -383.472,1412.66 -520,1414Z" style="fill:rgb(113,21,10);"/>
                    </g>
                    <g transform="matrix(0.0821561,0,0,0.0736733,727.361,89.4728)">
                        <path d="M-1137,1494C-1137,1494 -1135.77,1506.74 -1116,1506C-1096.23,1505.26 -1095,1494 -1095,1494C-1095,1494 -1111.22,1481.73 -1137,1494Z" style="fill:rgb(215,100,43);"/>
                    </g>
                    <g transform="matrix(0.0821561,0,0,0.0736733,727.361,89.4728)">
                        <path d="M-1151,1668C-1151,1668 -1078.24,1669.75 -999,1647C-919.762,1624.25 -836.736,1606.89 -788,1607L-1151,1607L-1151,1668Z" style="fill:rgb(237,144,67);"/>
                    </g>
                    <g transform="matrix(0.0821561,0,0,0.0736733,727.361,89.4728)">
                        <path d="M-1020,1698C-1020,1698 -700.22,1623.01 -570,1668C-570,1668 -792.52,1603.35 -1020,1698Z" style="fill:rgb(237,144,67);"/>
                    </g>
                    <g transform="matrix(0.0821561,0,0,0.0736733,727.361,89.4728)">
                        <path d="M-739,1292C-739,1292 -776.795,1332.29 -875,1325C-912.601,1322.21 -970.62,1289.22 -860.117,1285.05C-780.389,1282.04 -739,1292 -739,1292Z" style="fill:rgb(218,109,42);"/>
                    </g>
                    <g transform="matrix(0.0821561,0,0,0.0736733,727.361,89.4728)">
                        <path d="M-751,1292C-751,1292 -854.439,1272.34 -875,1292C-895.561,1311.66 -854.1,1308.38 -835,1308C-815.9,1307.62 -751,1292 -751,1292Z" style="fill:rgb(206,89,45);"/>
                    </g>
                    <g transform="matrix(0.0821561,0,0,0.0736733,727.114,89.2518)">
                        <path d="M-3295.79,1628.24L-3304.3,1605.83C-3239.16,1577.87 -3211.87,1579.25 -3180.83,1578.64C-3006.52,1575.21 -2414.88,1590.73 -1886.38,1590.33C-1656.85,1590.15 -1600.4,1609.05 -1599.91,1595.52L-1599.91,1600.52C-1679.4,1593.07 -1865.17,1595.12 -1952.47,1595.52C-2272.46,1597 -3090.86,1598.43 -3204.41,1603.17C-3238.61,1604.6 -3273.36,1618.61 -3295.79,1628.24Z" style="fill:rgb(71,0,0);"/>
                    </g>
                    <g transform="matrix(0.0821561,0,0,0.0736733,727.361,89.4728)">
                        <path d="M-3281.41,1505.55L-3274.57,1482.45C-3200.17,1509.63 -3108.84,1501.02 -3094.43,1499.66C-3026.95,1493.3 -3001.42,1483.37 -2946.49,1490.94C-2882.01,1499.82 -2771.82,1535.4 -2665.88,1569.5L-2666.12,1570.5C-2950.3,1490.43 -2958.04,1494.72 -3054.41,1511.1C-3065.06,1512.91 -3184.07,1537.12 -3281.41,1505.55Z" style="fill:rgb(71,0,0);"/>
                    </g>
                    <g transform="matrix(0.995898,0,0,1,-11.3706,113.519)">
                        <path d="M702.228,65.114L711,68L710.97,95.179L709.895,95.179L710.94,96.209L710.91,106.477C710.91,106.477 636.009,106.082 620,108C603.991,109.918 521.887,111.419 504.429,110.436C502.344,110.806 492.909,109.134 491.779,108.772C490.296,108.297 481.67,108.237 477.631,106.034L467.233,94.662C467.233,94.662 468.229,88.653 471.427,87.251C471.427,87.251 470.145,86.933 470,81C469.855,75.067 470,68 470,68C470,68 493.66,63.3 553,65C553,65 581.312,66.063 591.951,64.886C611.342,63.486 620.519,64.327 633.403,64.801C647.738,65.742 680.499,63.891 702.228,65.114ZM476.753,87.505C470.593,87.605 469.374,94.135 469.374,94.135L478.74,104.523C478.74,104.523 482.265,106.016 487.037,106.217C491.81,106.419 500.299,108.782 504.537,108.575C506.089,108.499 518.613,108.535 534.874,108.475C562.995,108.37 602.296,107.978 615.365,106.217C635.992,103.44 708.859,104.523 708.859,104.523L708.859,97.082L705.08,93.251L708.859,93.251L708.859,69.823L701.547,67.097C701.547,67.097 682.296,66.438 655.704,67.097C629.111,67.756 623.45,64.949 593.347,67.097C563.245,69.245 538.502,67.077 511.684,67.097C484.867,67.117 472.331,69.823 472.331,69.823C472.127,72.569 471.723,80.465 472.331,84.705C472.732,87.5 476.49,87.508 476.753,87.505Z" style="fill:rgb(71,0,0);"/>
                    </g>
                    <g transform="matrix(0.0821561,0,0,0.0736733,85.0315,89.4728)">
                        <path d="M4564,1594C4984.5,1631.06 5574.27,1618.76 6073,1625L6165.83,1594C6539.5,1580.96 6941.42,1583.67 7357,1594L7431,1594L7431,1753C7431,1753 6791.53,1746.81 6546,1753C6220.91,1761.2 6057.08,1813.95 5963,1815C5757.86,1817.3 4858,1815 4858,1815L4625,1753L4504,1594L4564,1594Z" style="fill:rgb(100,22,12);fill-opacity:0.2;"/>
                    </g>
                </g>
            </g>
            <g transform="matrix(1,4.62223e-33,0,0.19484,1166.04,113.761)">
                <g transform="matrix(6.12323e-17,1,-1,6.12323e-17,1872,34)">
                    <path d="M489.981,1550L490.007,1551.18L488.716,1551.25C487.901,1551.29 487.086,1551.32 486.271,1551.32C485.852,1551.32 485.44,1551.31 485.034,1551.29C484.629,1551.28 484.216,1551.25 483.795,1551.2L482.51,1551.07L482.566,1550.33C482.105,1550.42 481.649,1550.51 481.196,1550.59C480.551,1550.7 479.899,1550.8 479.236,1550.89L479.232,1550.89C478.556,1550.97 477.881,1551.05 477.205,1551.12C476.492,1551.19 475.779,1551.23 475.067,1551.23C474.861,1551.23 474.56,1551.23 474.163,1551.21C473.76,1551.19 473.342,1551.17 472.909,1551.12C472.483,1551.08 472.079,1551.03 471.673,1550.96L471.648,1550.96C471.092,1550.85 470.693,1550.7 470.414,1550.54L470.392,1550.52C470.178,1550.39 469.974,1550.23 469.779,1550.06L469.753,1550.03L469.728,1550.01C469.553,1549.83 469.397,1549.66 469.257,1549.48C468.895,1549.04 468.593,1548.55 468.352,1548.01C468.123,1547.5 467.943,1546.98 467.813,1546.44C467.689,1545.93 467.596,1545.41 467.532,1544.87L467.53,1544.85C467.485,1544.34 467.463,1543.83 467.463,1543.34C467.463,1542.74 467.492,1542.12 467.553,1541.47L467.555,1541.45C467.63,1540.8 467.744,1540.16 467.895,1539.53C468.05,1538.88 468.252,1538.25 468.505,1537.63L468.511,1537.62C468.787,1536.98 469.12,1536.4 469.522,1535.85L469.535,1535.83C469.641,1535.69 469.778,1535.53 469.945,1535.33C470.221,1535 470.506,1534.78 470.773,1534.63C471.227,1534.38 471.73,1534.17 472.289,1534L472.295,1534C472.823,1533.84 473.368,1533.72 473.922,1533.64C474.46,1533.56 474.992,1533.5 475.515,1533.46C476.049,1533.42 476.538,1533.4 476.983,1533.4C477.826,1533.4 478.668,1533.45 479.51,1533.55C480.379,1533.64 481.226,1533.81 482.05,1534.06L483.08,1534.36L483.001,1535.43C482.974,1535.79 482.954,1536.16 482.941,1536.53C482.927,1536.89 482.921,1537.25 482.921,1537.61C482.921,1538.49 482.941,1539.38 482.982,1540.28C482.982,1540.28 483.135,1537.46 483.209,1535.45L483.254,1534.24L484.471,1534.17C485.771,1534.1 487.065,1534.03 488.352,1533.94C489.686,1533.86 491.02,1533.82 492.354,1533.82C492.702,1533.82 493.079,1533.82 493.485,1533.84C493.928,1533.85 494.37,1533.9 494.798,1533.98C495.268,1534.04 495.715,1534.14 496.137,1534.27C496.63,1534.42 497.068,1534.61 497.455,1534.85L497.459,1534.85C497.945,1535.16 498.37,1535.52 498.736,1535.93L498.92,1535.98C498.911,1535.66 498.902,1535.34 498.892,1535.02L498.852,1533.63L500.242,1533.65C501.331,1533.66 502.413,1533.67 503.488,1533.67C503.646,1533.67 503.804,1533.67 503.963,1533.66L503.013,1532.23L503.782,1531.46C504.013,1531.23 504.231,1530.99 504.45,1530.75L504.464,1530.73C504.674,1530.51 504.878,1530.28 505.076,1530.03C505.399,1529.61 505.746,1529.22 506.116,1528.85L508.226,1526.74L511.341,1531.08L510.395,1531.88C510.035,1532.18 509.69,1532.46 509.356,1532.72L509.353,1532.73C509.019,1532.98 508.677,1533.23 508.328,1533.45C508.22,1533.52 508.111,1533.59 508,1533.66C508.462,1533.67 508.92,1533.69 509.373,1533.71C510.227,1533.74 511.082,1533.78 511.936,1533.82L513.103,1533.87L513.123,1534.11C514.285,1534.15 515.441,1534.2 516.59,1534.25C517.755,1534.3 518.934,1534.36 520.141,1534.44L520.154,1534.45C520.454,1534.47 520.89,1534.51 521.459,1534.55C522.078,1534.59 522.718,1534.65 523.371,1534.74C524.049,1534.81 524.683,1534.91 525.273,1535.03C526.069,1535.18 526.631,1535.41 527.008,1535.66L527.034,1535.68C527.164,1535.78 527.29,1535.88 527.412,1536C527.41,1535.95 527.408,1535.9 527.406,1535.86L527.342,1534.51L528.689,1534.46C530.196,1534.41 531.69,1534.35 533.169,1534.28C534.599,1534.2 536.041,1534.1 537.495,1534L537.485,1533.29L538.864,1533.32C540.955,1533.36 543.032,1533.42 545.095,1533.5C547.146,1533.57 549.204,1533.63 551.269,1533.69L552.451,1533.72L552.561,1534.9C552.567,1534.96 552.572,1535.02 552.578,1535.08C552.819,1534.63 553.1,1534.34 553.358,1534.17C553.588,1534.01 553.989,1533.83 554.586,1533.7C554.997,1533.61 555.475,1533.53 556.022,1533.47C556.539,1533.4 557.091,1533.34 557.666,1533.3C558.247,1533.24 558.801,1533.2 559.317,1533.17C559.851,1533.13 560.335,1533.1 560.768,1533.09C561.205,1533.07 561.525,1533.07 561.729,1533.07C562.013,1533.07 562.395,1533.08 562.873,1533.11C563.355,1533.14 563.873,1533.19 564.428,1533.26C564.976,1533.32 565.531,1533.4 566.087,1533.5C566.677,1533.59 567.221,1533.7 567.721,1533.84C568.275,1533.99 568.747,1534.15 569.139,1534.33C569.492,1534.49 569.759,1534.68 569.953,1534.86L570.204,1535.13C570.204,1535.13 570.419,1535.49 570.421,1535.49L570.422,1535.49C570.505,1535.67 570.587,1535.92 570.658,1536.24C570.687,1536.18 570.716,1536.12 570.746,1536.07L570.755,1536.05C571.049,1535.54 571.415,1535.09 571.847,1534.71C572.291,1534.3 572.833,1533.96 573.489,1533.7L573.498,1533.69C574.426,1533.34 575.416,1533.09 576.469,1532.95C577.487,1532.82 578.462,1532.75 579.392,1532.75C580.475,1532.75 581.544,1532.82 582.599,1532.95C583.628,1533.08 584.658,1533.24 585.688,1533.44L586.805,1533.66L586.725,1535.98L586.725,1537.15C586.725,1537.51 586.744,1537.87 586.781,1538.24L587.054,1540.89L582.703,1540.98C582.819,1541 582.934,1541.02 583.048,1541.04C583.714,1541.15 584.294,1541.28 584.808,1541.44L584.826,1541.45C585.39,1541.64 585.908,1541.95 586.377,1542.38C586.818,1542.75 587.199,1543.19 587.518,1543.71C587.826,1544.19 588.067,1544.7 588.235,1545.23C588.439,1545.81 588.538,1546.38 588.538,1546.94C588.538,1547.94 588.264,1548.75 587.776,1549.38L587.77,1549.39C587.325,1549.95 586.708,1550.42 585.896,1550.77C585.329,1551.01 584.619,1551.21 583.749,1551.36L583.737,1551.36C582.966,1551.48 582.167,1551.57 581.328,1551.62L581.316,1551.63C580.509,1551.67 579.716,1551.7 578.937,1551.71C578.163,1551.73 577.516,1551.73 576.996,1551.73C576.106,1551.73 575.224,1551.72 574.348,1551.69C573.488,1551.66 572.613,1551.62 571.724,1551.56L570.438,1551.48L570.476,1550.19C570.489,1549.75 570.493,1549.31 570.489,1548.87L570.488,1548.88C570.408,1549.23 570.316,1549.49 570.237,1549.65L570,1549.98L570,1550L569.983,1550.01L569.922,1550.09C569.368,1550.65 568.704,1551.07 567.919,1551.35L567.91,1551.35C567.25,1551.57 566.559,1551.73 565.835,1551.81C565.151,1551.88 564.467,1551.91 563.783,1551.9C563.168,1551.88 562.595,1551.88 562.063,1551.88L561.124,1551.88L561.103,1551.88C560.675,1551.86 560.185,1551.85 559.633,1551.84C559.082,1551.82 558.503,1551.8 557.881,1551.77L557.866,1551.77C557.252,1551.73 556.674,1551.68 556.112,1551.62L556.092,1551.62C555.54,1551.54 555.055,1551.46 554.61,1551.36L554.582,1551.36C554.209,1551.26 553.924,1551.14 553.717,1551.02L553.356,1550.75C553.356,1550.75 553.145,1550.51 553.13,1550.5C552.969,1550.27 552.827,1550.03 552.706,1549.77C552.615,1549.57 552.532,1549.38 552.452,1549.19L552.447,1549.18C552.253,1548.69 552.074,1548.16 551.908,1547.61L551.907,1547.6C551.744,1547.04 551.604,1546.47 551.482,1545.88L551.478,1545.86C551.378,1545.28 551.291,1544.71 551.217,1544.13L551.215,1544.12C551.155,1543.53 551.125,1542.97 551.125,1542.44C551.125,1542.14 551.147,1541.76 551.194,1541.29L551.194,1541.29C550.033,1541.35 548.638,1541.42 548.638,1541.42C548.617,1541.81 548.6,1542.2 548.587,1542.59C548.559,1543.37 548.546,1544.14 548.546,1544.92C548.546,1545.91 548.518,1546.91 548.461,1547.9C548.419,1548.87 548.362,1549.84 548.292,1550.81L548.208,1551.98L547.036,1552.04C546.53,1552.07 546.024,1552.09 545.53,1552.11C545.008,1552.13 544.485,1552.15 543.963,1552.15C543.765,1552.15 543.568,1552.14 543.372,1552.13L541.543,1552.13L541.588,1550.75C541.616,1549.91 541.636,1549.08 541.65,1548.24L541.651,1548.23C541.678,1547.4 541.692,1546.57 541.692,1545.75C541.692,1544.94 541.671,1544.13 541.631,1543.32C541.611,1542.91 541.589,1542.5 541.565,1542.09C541.169,1542.1 540.767,1542.11 540.358,1542.11L539.65,1542.11C539.402,1542.11 539.147,1542.1 538.884,1542.08L537.679,1542.01L537.666,1541.69L536.656,1541.65L536.654,1541.73L536.654,1544.86C536.658,1545 536.661,1545.14 536.664,1545.28L538.914,1545.32L538.818,1546.72C538.792,1547.09 538.779,1547.47 538.779,1547.86L538.779,1549.11C538.779,1549.43 538.785,1549.75 538.799,1550.08C538.823,1550.36 538.862,1550.63 538.918,1550.9L539.247,1552.48L528.8,1552.65L528.8,1551.3C528.8,1550.62 528.793,1549.97 528.779,1549.32C528.766,1548.67 528.739,1548.02 528.698,1547.36L528.682,1547.1C528.576,1547.36 528.447,1547.6 528.288,1547.85L528.275,1547.87C528.098,1548.12 527.882,1548.37 527.604,1548.63L527.582,1548.65C527.355,1548.84 527.078,1549.03 526.749,1549.22C526.591,1549.32 526.257,1549.46 525.711,1549.61L524.336,1549.93C523.8,1550.05 523.193,1550.19 522.516,1550.33C521.859,1550.47 521.181,1550.61 520.472,1550.75L520.462,1550.75C519.79,1550.88 519.118,1551.01 518.435,1551.14L518.425,1551.15C517.764,1551.27 517.158,1551.39 516.594,1551.5L516.581,1551.5C516.057,1551.6 515.606,1551.68 515.211,1551.77L515.193,1551.77C514.77,1551.85 514.488,1551.9 514.347,1551.91L513.594,1552L513.617,1552.08L511.861,1552.07C509.897,1552.05 507.946,1552.05 506.01,1552.07C504.26,1552.09 502.5,1552.1 500.729,1552.11L500.771,1552.2L491.482,1552.43L491.361,1551.2C491.256,1550.13 491.099,1549.16 490.89,1548.27C490.747,1547.66 490.564,1547.03 490.342,1546.38C490.228,1546.39 490.114,1546.4 490,1546.41L490,1550L489.981,1550ZM483.948,1549.74C483.944,1549.79 483.941,1549.83 483.938,1549.88C483.95,1549.88 483.963,1549.88 483.976,1549.88L483.948,1549.74ZM483.008,1542.99C483.014,1542.75 483.018,1542.52 483.02,1542.28L481.179,1541.58C480.644,1541.38 480.085,1541.24 479.49,1541.15L479.477,1541.15C478.869,1541.05 478.267,1541 477.671,1541C477.564,1541 477.409,1541.02 477.206,1541.04L477.172,1541.04L477.137,1541.04C476.901,1541.06 476.634,1541.08 476.309,1541.12L476.282,1541.12C475.979,1541.15 475.664,1541.19 475.336,1541.24C475.04,1541.28 474.762,1541.34 474.501,1541.41C474.341,1541.46 474.193,1541.51 474.057,1541.56C474.038,1541.7 474.019,1541.85 474,1542L474,1543.67C474.027,1544.04 474.061,1544.43 474.102,1544.85C474.124,1545.07 474.148,1545.28 474.174,1545.48C474.708,1545.47 475.271,1545.44 475.865,1545.38C476.618,1545.32 477.377,1545.23 478.143,1545.12C478.939,1545 479.721,1544.87 480.489,1544.75C481.259,1544.61 481.974,1544.48 482.633,1544.36L482.967,1544.3C482.985,1543.87 482.998,1543.44 483.008,1543.01L483,1543L483.008,1542.99ZM558.188,1543.67L558.188,1544.13C558.2,1544.31 558.218,1544.5 558.241,1544.7C558.252,1544.79 558.263,1544.88 558.274,1544.97C558.35,1544.99 558.431,1545.01 558.518,1545.02C558.787,1545.06 559.068,1545.09 559.361,1545.11C559.686,1545.14 559.998,1545.17 560.288,1545.19C560.588,1545.21 560.852,1545.22 561.08,1545.23L561.563,1545.23C561.711,1545.23 561.965,1545.22 562.326,1545.19L562.328,1545.19C562.715,1545.17 563.114,1545.13 563.532,1545.08C563.923,1545.02 564.282,1544.95 564.624,1544.88C564.662,1544.63 564.691,1544.38 564.712,1544.11C564.737,1543.77 564.75,1543.45 564.75,1543.12L564.751,1543.1C564.764,1542.77 564.771,1542.54 564.771,1542.4C564.771,1542.16 564.759,1541.91 564.734,1541.64C564.734,1541.64 564.732,1541.62 564.731,1541.61C564.714,1541.6 564.697,1541.6 564.681,1541.59L564.676,1541.59C564.318,1541.51 563.917,1541.45 563.473,1541.41C563.011,1541.38 562.561,1541.36 562.105,1541.36L562.086,1541.36C561.632,1541.34 561.312,1541.34 561.125,1541.34C560.99,1541.34 560.752,1541.35 560.41,1541.37C560.07,1541.4 559.706,1541.44 559.298,1541.51L559.28,1541.51C558.957,1541.56 558.653,1541.61 558.351,1541.69C558.321,1541.88 558.292,1542.09 558.262,1542.32C558.238,1542.6 558.219,1542.87 558.207,1543.13L558.207,1543.13C558.194,1543.38 558.188,1543.56 558.188,1543.67ZM571.007,1544.67L571.719,1544.69L572.213,1544.7C571.843,1544.5 571.505,1544.2 571.202,1543.8L571.185,1543.77C571.149,1543.72 571.114,1543.67 571.079,1543.61C571.065,1543.93 571.041,1544.28 571.007,1544.67ZM529.023,1545.96L529.973,1545.94C529.922,1545.11 529.866,1544.29 529.803,1543.47L529.803,1543.47C529.743,1542.55 529.68,1541.63 529.613,1540.71L529.148,1540.65C529.152,1540.74 529.155,1540.83 529.158,1540.92C529.172,1541.36 529.179,1541.78 529.179,1542.18C529.193,1542.59 529.2,1542.91 529.2,1543.13L529.2,1544.4C529.2,1544.94 529.14,1545.46 529.023,1545.96ZM543.421,1551.64L543.421,1552.13L543.44,1551.62L543.421,1551.64ZM512.307,1545.14C512.307,1545.14 512.295,1544.22 512.205,1543.13C512.098,1541.85 512.003,1540.56 511.922,1539.26C511.486,1539.29 511.05,1539.31 510.615,1539.33L510.648,1539.56C510.722,1540.06 510.774,1540.56 510.805,1541.05C510.849,1541.54 510.871,1542.04 510.871,1542.55C510.871,1542.75 510.864,1542.97 510.85,1543.19L510.85,1544.87L505.992,1545.74C505.992,1545.74 506,1545.81 506,1545.81C506.605,1545.75 507.209,1545.69 507.81,1545.62C508.88,1545.48 509.958,1545.36 511.042,1545.26L512.307,1545.14ZM490.433,1540.7C490.689,1540.72 490.941,1540.73 491.188,1540.73C491.31,1540.73 491.488,1540.73 491.723,1540.71L491.725,1540.71C491.959,1540.7 492.193,1540.68 492.432,1540.64L492.436,1540.64C492.547,1540.63 492.652,1540.61 492.752,1540.59L492.754,1540.57C492.765,1540.42 492.771,1540.28 492.771,1540.15L492.771,1540.09L492.775,1540.04C492.785,1539.92 492.792,1539.84 492.792,1539.8C492.792,1539.71 492.785,1539.59 492.774,1539.43L492.771,1539.38L492.771,1539.34C492.771,1539.21 492.762,1539.08 492.742,1538.94C492.734,1538.94 492.726,1538.94 492.718,1538.94L492.663,1538.93L492.61,1538.92C492.497,1538.91 492.384,1538.9 492.271,1538.9L492.215,1538.9L492.16,1538.89C492.045,1538.88 491.964,1538.88 491.917,1538.88C491.408,1538.88 490.905,1538.9 490.409,1538.95C490.337,1538.96 490.265,1538.97 490.193,1538.98L490.433,1540.7ZM520.821,1540.99C520.902,1541 520.964,1541.02 520.964,1541.02C520.964,1541.02 520.755,1540.9 520.69,1540.85C520.74,1540.89 520.783,1540.94 520.821,1540.99ZM521.324,1543.68C521.321,1543.7 521.317,1543.73 521.313,1543.74C521.32,1543.71 521.331,1543.68 521.353,1543.65C521.344,1543.67 521.334,1543.67 521.324,1543.68ZM520.821,1540.99C520.775,1540.98 520.724,1540.98 520.674,1540.97L520.65,1540.97C520.322,1540.92 519.964,1540.89 519.554,1540.88L519.533,1540.88C519.119,1540.85 518.73,1540.84 518.343,1540.84L518.233,1540.83C518.287,1541.42 518.337,1542 518.383,1542.58C518.439,1543.18 518.491,1543.79 518.538,1544.41C518.916,1544.35 519.3,1544.29 519.696,1544.21C520.14,1544.12 520.555,1544 520.95,1543.87C521.106,1543.81 521.236,1543.77 521.324,1543.68C521.339,1543.59 521.346,1543.5 521.346,1543.4C521.346,1543.28 521.34,1543.16 521.33,1543.03L521.325,1542.98L521.325,1542.92C521.325,1542.79 521.321,1542.67 521.31,1542.55C521.288,1542.38 521.256,1542.21 521.215,1542.04L521.205,1542L521.197,1541.95C521.17,1541.79 521.131,1541.64 521.072,1541.48L521.068,1541.47C521.02,1541.33 520.962,1541.21 520.88,1541.08L520.869,1541.06C520.854,1541.04 520.838,1541.02 520.821,1540.99Z" style="fill:rgb(249,246,189);"/>
                </g>
                <g transform="matrix(2.77229e-17,0.45275,-0.45275,2.77229e-17,464.358,271.7)">
                    <path d="M541.533,304.094L541.487,311.273C540.076,311.549 538.68,311.81 537.299,312.055C535.919,312.3 534.523,312.515 533.112,312.699C531.639,312.883 530.167,313.052 528.694,313.205C527.222,313.359 525.749,313.435 524.277,313.435C523.848,313.435 523.219,313.42 522.39,313.389C521.562,313.359 520.703,313.297 519.814,313.205C518.924,313.113 518.08,313.006 517.283,312.883C516.485,312.73 515.902,312.546 515.534,312.331C515.197,312.116 514.875,311.871 514.568,311.595C514.261,311.288 513.985,310.981 513.74,310.675C513.095,309.877 512.559,309.003 512.129,308.052C511.7,307.101 511.362,306.119 511.117,305.107C510.871,304.094 510.687,303.067 510.565,302.024C510.472,300.981 510.426,299.953 510.426,298.941C510.426,297.714 510.488,296.441 510.611,295.121C510.764,293.802 510.994,292.499 511.301,291.21C511.608,289.922 512.006,288.679 512.497,287.483C513.019,286.287 513.648,285.182 514.384,284.17C514.599,283.894 514.875,283.556 515.212,283.158C515.549,282.759 515.887,282.467 516.224,282.283C517.053,281.823 517.973,281.44 518.985,281.133C520.028,280.826 521.102,280.596 522.206,280.443C523.311,280.259 524.4,280.136 525.473,280.075C526.578,279.983 527.59,279.936 528.51,279.936C530.259,279.936 532.008,280.044 533.756,280.259C535.505,280.443 537.207,280.78 538.864,281.271C538.802,282.099 538.756,282.943 538.726,283.802C538.695,284.63 538.68,285.458 538.68,286.287C538.68,288.281 538.726,290.29 538.818,292.315C537.437,291.793 535.996,291.425 534.492,291.21C532.989,290.965 531.501,290.842 530.029,290.842C529.722,290.842 529.277,290.873 528.694,290.934C528.112,290.965 527.452,291.026 526.716,291.118C525.98,291.18 525.213,291.272 524.415,291.394C523.648,291.517 522.927,291.67 522.252,291.854C521.577,292.038 520.979,292.253 520.458,292.499C519.967,292.744 519.645,293.005 519.491,293.281C519.369,293.526 519.261,293.879 519.169,294.339C519.108,294.769 519.047,295.229 518.985,295.72C518.955,296.211 518.924,296.686 518.893,297.146L518.893,298.251C518.893,298.527 518.924,299.079 518.985,299.907C519.047,300.735 519.123,301.625 519.215,302.576C519.307,303.496 519.415,304.34 519.537,305.107C519.691,305.874 519.844,306.318 519.998,306.441C520.151,306.533 520.396,306.595 520.734,306.625L521.47,306.625C522.973,306.625 524.584,306.549 526.302,306.395C528.02,306.242 529.753,306.042 531.501,305.797C533.281,305.521 535.029,305.245 536.747,304.969C538.465,304.662 540.06,304.371 541.533,304.094ZM577.047,291.854C577.047,294.37 576.28,296.349 574.746,297.79C573.213,299.232 571.188,300.014 568.672,300.137C571.709,305.199 574.363,310.383 576.633,315.69L563.197,316.012C562.951,313.528 562.583,311.242 562.092,309.156C561.601,307.07 560.911,304.877 560.022,302.576C559.009,302.637 557.997,302.714 556.985,302.806C556.003,302.898 555.021,302.975 554.04,303.036L554.27,313.482C552.521,313.574 550.773,313.62 549.024,313.62C548.134,313.62 547.26,313.604 546.401,313.574C545.573,313.543 544.729,313.482 543.87,313.389C544.085,310.567 544.284,307.76 544.468,304.969C544.652,302.146 544.76,299.34 544.791,296.548C544.883,291.578 545.021,286.609 545.205,281.639C548.088,281.486 550.957,281.317 553.81,281.133C556.693,280.949 559.577,280.857 562.46,280.857C563.197,280.857 563.994,280.872 564.853,280.903C565.712,280.933 566.571,281.026 567.43,281.179C568.32,281.302 569.163,281.486 569.961,281.731C570.789,281.976 571.525,282.299 572.17,282.697C573.734,283.679 574.93,284.998 575.759,286.655C576.618,288.281 577.047,290.014 577.047,291.854ZM566.372,291.118C566.372,290.873 566.356,290.535 566.326,290.106C566.326,289.676 566.295,289.247 566.234,288.817C566.172,288.357 566.08,287.943 565.957,287.575C565.835,287.176 565.666,286.885 565.451,286.701C565.298,286.578 565.037,286.486 564.669,286.425C564.301,286.363 563.902,286.317 563.473,286.287C563.074,286.225 562.675,286.195 562.276,286.195C561.908,286.164 561.647,286.149 561.494,286.149C560.267,286.149 559.055,286.21 557.859,286.333C556.693,286.455 555.527,286.609 554.362,286.793L555.604,295.72C556.279,295.873 556.985,295.98 557.721,296.042C558.457,296.103 559.178,296.134 559.883,296.134C560.19,296.134 560.635,296.118 561.218,296.088C561.831,296.057 562.445,295.996 563.059,295.904C563.703,295.812 564.286,295.689 564.807,295.536C565.359,295.352 565.743,295.121 565.957,294.845C566.05,294.723 566.126,294.493 566.188,294.155C566.249,293.787 566.28,293.419 566.28,293.051C566.31,292.652 566.326,292.269 566.326,291.9C566.356,291.532 566.372,291.272 566.372,291.118ZM606.073,286.977C603.067,287.13 600.076,287.299 597.101,287.483C594.156,287.636 591.18,287.836 588.174,288.081L588.082,291.716L599.953,291.026C600.107,292.069 600.214,293.097 600.276,294.109C600.368,295.121 600.414,296.149 600.414,297.192C600.414,297.622 600.398,298.066 600.368,298.527L600.368,299.861L589.324,301.84L590.014,307.546C592.346,307.392 594.662,307.177 596.962,306.901C599.294,306.595 601.641,306.334 604.003,306.119C604.218,307.653 604.432,309.202 604.647,310.767C604.862,312.3 605.168,313.804 605.567,315.276C601.211,315.245 596.886,315.245 592.591,315.276C588.296,315.337 583.971,315.368 579.615,315.368C579.707,311.779 579.814,308.205 579.937,304.647C580.06,301.088 580.121,297.499 580.121,293.879L580.121,293.005C580.121,290.919 580.09,288.848 580.029,286.793C579.968,284.707 579.906,282.605 579.845,280.489C582.268,280.519 584.676,280.535 587.069,280.535C589.493,280.504 591.931,280.489 594.386,280.489C596.257,280.489 598.113,280.535 599.953,280.627C601.825,280.688 603.696,280.765 605.567,280.857L606.073,286.977ZM600.414,271.378C599.647,272.022 598.91,272.62 598.205,273.172C597.53,273.694 596.84,274.185 596.134,274.645C595.429,275.105 594.692,275.55 593.925,275.979C593.189,276.409 592.376,276.869 591.487,277.36L589.784,274.783C590.336,274.231 590.858,273.678 591.349,273.126C591.87,272.574 592.376,271.991 592.867,271.378C593.511,270.549 594.202,269.767 594.938,269.031L597.147,266.822L600.414,271.378ZM640.898,298.481L640.898,301.288C640.898,302.269 640.79,303.205 640.576,304.094C640.422,304.769 640.253,305.368 640.069,305.889C639.885,306.38 639.655,306.84 639.379,307.269C639.103,307.668 638.766,308.052 638.367,308.42C637.968,308.757 637.477,309.095 636.894,309.432C636.71,309.555 636.219,309.724 635.422,309.938L632.431,310.629C631.265,310.905 629.946,311.196 628.474,311.503C627.032,311.81 625.544,312.116 624.01,312.423C622.507,312.699 621.004,312.991 619.501,313.297C618.028,313.574 616.678,313.834 615.451,314.08C614.255,314.294 613.227,314.494 612.368,314.678C611.54,314.831 610.988,314.923 610.712,314.954C610.19,309.34 609.699,303.772 609.239,298.251C608.779,292.729 608.426,287.146 608.181,281.501C610.758,281.593 613.319,281.7 615.865,281.823C618.412,281.915 620.988,282.053 623.596,282.237C624.271,282.299 625.253,282.375 626.541,282.467C627.86,282.559 629.225,282.697 630.636,282.881C632.047,283.035 633.367,283.234 634.594,283.48C635.851,283.725 636.756,284.032 637.308,284.4C638.014,284.921 638.643,285.627 639.195,286.517C639.747,287.406 640.146,288.281 640.392,289.14C640.514,289.538 640.606,290.167 640.668,291.026C640.729,291.854 640.775,292.744 640.806,293.695C640.836,294.646 640.852,295.566 640.852,296.456C640.882,297.346 640.898,298.02 640.898,298.481ZM629.44,299.079C629.44,298.741 629.425,298.389 629.394,298.02C629.394,297.622 629.379,297.254 629.348,296.916C629.287,296.425 629.194,295.919 629.072,295.398C628.98,294.845 628.842,294.324 628.658,293.833C628.474,293.312 628.244,292.836 627.967,292.407C627.691,291.946 627.354,291.548 626.955,291.21C626.74,291.026 626.219,290.888 625.391,290.796C624.562,290.673 623.657,290.597 622.676,290.566C621.694,290.505 620.774,290.474 619.915,290.474C619.056,290.443 618.504,290.428 618.258,290.428L616.372,290.428C616.617,292.821 616.832,295.183 617.016,297.514C617.231,299.815 617.415,302.162 617.568,304.555C618.151,304.524 618.979,304.447 620.053,304.324C621.157,304.171 622.277,303.987 623.412,303.772C624.547,303.527 625.605,303.235 626.587,302.898C627.569,302.53 628.274,302.1 628.704,301.61C629.041,301.241 629.241,300.858 629.302,300.459C629.394,300.03 629.44,299.57 629.44,299.079ZM662.792,281.225C662.638,283.096 662.577,284.967 662.608,286.839C662.638,288.679 662.623,290.52 662.562,292.361L657.454,292.177C657.423,293.25 657.393,294.309 657.362,295.352L657.362,302.346C657.393,303.573 657.423,304.831 657.454,306.119L662.147,306.211C662.086,307.101 662.055,308.006 662.055,308.926L662.055,311.687C662.055,312.454 662.071,313.221 662.101,313.988C662.163,314.755 662.27,315.506 662.424,316.242L645.904,316.518C645.904,315.015 645.889,313.543 645.858,312.101C645.827,310.629 645.766,309.141 645.674,307.638L648.665,307.592C648.512,304.708 648.328,301.855 648.113,299.033C647.929,296.211 647.729,293.373 647.515,290.52L643.143,289.968C643.082,288.679 643.021,287.406 642.959,286.149C642.928,284.86 642.882,283.572 642.821,282.283C646.165,282.161 649.478,282.023 652.76,281.869C656.073,281.685 659.417,281.47 662.792,281.225ZM692.876,288.219L692.876,291.44L683.995,291.9C683.873,293.68 683.781,295.444 683.719,297.192C683.658,298.941 683.627,300.689 683.627,302.438C683.627,304.585 683.566,306.733 683.443,308.88C683.351,310.997 683.228,313.113 683.075,315.23C681.971,315.291 680.866,315.337 679.762,315.368C678.658,315.429 677.553,315.46 676.449,315.46C676.05,315.46 675.651,315.445 675.253,315.414L674.148,315.414C674.21,313.543 674.256,311.687 674.286,309.846C674.348,307.975 674.378,306.119 674.378,304.278C674.378,302.438 674.332,300.597 674.24,298.757C674.148,296.885 674.041,295.014 673.918,293.143C673.028,293.174 672.124,293.204 671.203,293.235C670.314,293.266 669.409,293.281 668.488,293.281L666.924,293.281C666.433,293.281 665.927,293.266 665.405,293.235C665.313,290.965 665.252,288.71 665.221,286.471L665.129,279.752C669.731,279.844 674.302,279.983 678.842,280.167C683.382,280.32 687.937,280.458 692.508,280.581C692.631,281.9 692.723,283.188 692.784,284.446C692.846,285.673 692.876,286.931 692.876,288.219ZM733.59,295.352L733.59,296.548C733.59,296.916 733.575,297.284 733.544,297.652C733.514,297.959 733.468,298.496 733.406,299.263C733.376,300.03 733.314,300.919 733.222,301.932C733.161,302.913 733.069,303.956 732.946,305.061C732.854,306.165 732.732,307.193 732.578,308.144C732.455,309.064 732.317,309.862 732.164,310.537C732.011,311.211 731.857,311.626 731.704,311.779C730.784,312.699 729.679,313.389 728.391,313.85C727.133,314.279 725.814,314.571 724.433,314.724C723.053,314.877 721.673,314.939 720.292,314.908C718.912,314.877 717.623,314.862 716.427,314.862L714.402,314.862C713.451,314.831 712.362,314.801 711.135,314.77C709.939,314.739 708.681,314.693 707.362,314.632C706.043,314.54 704.8,314.432 703.635,314.31C702.5,314.156 701.503,313.988 700.644,313.804C699.815,313.589 699.294,313.328 699.079,313.021C698.834,312.684 698.619,312.316 698.435,311.917C698.251,311.518 698.082,311.135 697.929,310.767C697.53,309.754 697.162,308.681 696.824,307.546C696.487,306.38 696.196,305.199 695.95,304.002C695.735,302.775 695.551,301.564 695.398,300.367C695.275,299.171 695.214,298.036 695.214,296.962C695.214,296.379 695.26,295.628 695.352,294.707C695.444,293.756 695.567,292.744 695.72,291.67C695.873,290.566 696.057,289.446 696.272,288.311C696.487,287.176 696.717,286.118 696.962,285.136C697.239,284.155 697.53,283.311 697.837,282.605C698.144,281.869 698.481,281.378 698.849,281.133C699.156,280.918 699.723,280.719 700.552,280.535C701.38,280.351 702.346,280.197 703.451,280.075C704.555,279.921 705.736,279.798 706.994,279.706C708.251,279.584 709.448,279.492 710.583,279.43C711.718,279.338 712.746,279.277 713.666,279.246C714.586,279.216 715.261,279.2 715.691,279.2C716.273,279.2 717.056,279.231 718.037,279.292C719.05,279.354 720.139,279.461 721.304,279.614C722.47,279.737 723.651,279.906 724.848,280.121C726.044,280.305 727.148,280.535 728.161,280.811C729.204,281.087 730.093,281.394 730.83,281.731C731.566,282.069 732.026,282.437 732.21,282.835C732.363,283.173 732.501,283.664 732.624,284.308C732.778,284.921 732.9,285.627 732.992,286.425C733.084,287.222 733.161,288.066 733.222,288.955C733.314,289.845 733.376,290.704 733.406,291.532C733.468,292.33 733.514,293.066 733.544,293.741C733.575,294.416 733.59,294.953 733.59,295.352ZM725.354,296.87C725.354,296.257 725.323,295.612 725.262,294.937C725.2,294.232 725.001,293.618 724.664,293.097C724.418,292.729 723.82,292.437 722.869,292.223C721.949,292.008 720.921,291.854 719.786,291.762C718.682,291.67 717.608,291.624 716.565,291.624C715.522,291.594 714.786,291.578 714.356,291.578C714.019,291.578 713.421,291.609 712.562,291.67C711.733,291.732 710.844,291.839 709.893,291.992C708.972,292.115 708.113,292.284 707.316,292.499C706.518,292.683 706.027,292.913 705.843,293.189C705.659,293.404 705.506,293.818 705.383,294.431C705.291,295.014 705.199,295.658 705.107,296.364C705.046,297.039 705,297.698 704.969,298.343C704.938,298.956 704.923,299.401 704.923,299.677L704.923,300.781C704.954,301.272 705,301.778 705.061,302.3C705.122,302.821 705.184,303.312 705.245,303.772C705.337,304.232 705.46,304.57 705.613,304.785C705.705,304.938 705.981,305.076 706.442,305.199C706.902,305.321 707.454,305.444 708.098,305.567C708.773,305.659 709.479,305.736 710.215,305.797C710.951,305.858 711.657,305.92 712.332,305.981C713.037,306.012 713.651,306.042 714.172,306.073L715.322,306.073C715.691,306.073 716.319,306.042 717.209,305.981C718.129,305.92 719.08,305.828 720.062,305.705C721.074,305.552 721.995,305.383 722.823,305.199C723.682,304.984 724.234,304.739 724.479,304.463C724.664,304.248 724.817,303.803 724.94,303.128C725.062,302.423 725.154,301.671 725.216,300.873C725.277,300.045 725.308,299.263 725.308,298.527C725.338,297.76 725.354,297.207 725.354,296.87ZM771.958,306.901C771.958,308.374 771.605,309.57 770.9,310.491C770.194,311.38 769.197,312.101 767.909,312.653C766.835,313.113 765.485,313.482 763.859,313.758C762.233,314.003 760.546,314.187 758.798,314.31C757.049,314.402 755.331,314.463 753.644,314.494C751.957,314.525 750.546,314.54 749.41,314.54C747.478,314.54 745.561,314.509 743.659,314.448C741.787,314.386 739.885,314.294 737.953,314.172C738.045,311.043 737.953,307.944 737.677,304.877C739.977,304.938 742.263,304.999 744.533,305.061C746.834,305.091 749.134,305.137 751.435,305.199L754.104,305.291C755.024,305.321 755.945,305.337 756.865,305.337L757.555,305.337C757.862,305.337 758.184,305.321 758.521,305.291C758.859,305.26 759.166,305.214 759.442,305.153C759.749,305.091 759.979,304.999 760.132,304.877C760.255,304.754 760.331,304.585 760.362,304.371C760.393,304.125 760.408,303.91 760.408,303.726C760.408,303.389 760.362,302.99 760.27,302.53C760.178,302.039 760.04,301.64 759.856,301.334C759.825,301.303 759.718,301.272 759.534,301.241C759.38,301.211 759.196,301.195 758.982,301.195C758.767,301.165 758.567,301.149 758.383,301.149C758.199,301.119 758.092,301.103 758.061,301.103C756.098,300.95 754.135,300.843 752.171,300.781C750.239,300.72 748.291,300.613 746.327,300.459C745.438,300.367 744.518,300.275 743.567,300.183C742.646,300.091 741.787,299.922 740.99,299.677C740.223,299.462 739.563,298.987 739.011,298.251C738.49,297.484 738.06,296.625 737.723,295.674C737.416,294.692 737.186,293.71 737.032,292.729C736.91,291.747 736.848,290.919 736.848,290.244C736.848,289.14 736.956,288.097 737.17,287.115C737.385,286.103 737.723,285.167 738.183,284.308C738.674,283.449 739.287,282.697 740.023,282.053C740.76,281.378 741.665,280.826 742.738,280.397C744.579,279.691 746.542,279.2 748.628,278.924C750.745,278.648 752.77,278.51 754.702,278.51C756.972,278.51 759.212,278.648 761.42,278.924C763.629,279.2 765.838,279.553 768.047,279.983L767.955,282.651L767.955,285.274C767.955,286.164 768.001,287.069 768.093,287.989L768.369,290.658L759.626,290.842C756.742,290.873 753.828,290.949 750.883,291.072C750.515,291.072 750.009,291.087 749.364,291.118C748.751,291.149 748.153,291.195 747.57,291.256C746.987,291.287 746.481,291.318 746.051,291.348L745.407,291.394C745.254,291.732 745.162,292.084 745.131,292.453C745.1,292.79 745.085,293.143 745.085,293.511L745.085,294.201C745.116,294.477 745.192,294.692 745.315,294.845C745.346,294.876 745.607,294.922 746.097,294.983C746.588,295.045 747.125,295.106 747.708,295.167C748.321,295.229 748.889,295.29 749.41,295.352C749.963,295.413 750.3,295.444 750.423,295.444L753.966,295.766C755.346,295.888 756.742,296.026 758.153,296.18C759.595,296.333 760.976,296.533 762.295,296.778C763.614,296.993 764.764,297.254 765.746,297.56C766.635,297.867 767.448,298.358 768.185,299.033C768.952,299.677 769.611,300.444 770.163,301.334C770.715,302.192 771.145,303.113 771.452,304.094C771.789,305.045 771.958,305.981 771.958,306.901Z" style="fill:rgb(71,0,0);"/>
                </g>
            </g>
        </g>
    </g>
</svg>
