<?xml version="1.0" encoding="UTF-8" standalone="no"?>
<!DOCTYPE svg PUBLIC "-//W3C//DTD SVG 1.1//EN" "http://www.w3.org/Graphics/SVG/1.1/DTD/svg11.dtd">
<svg width="100%" height="100%" viewBox="0 0 243 47" version="1.1" xmlns="http://www.w3.org/2000/svg" xmlns:xlink="http://www.w3.org/1999/xlink" xml:space="preserve" xmlns:serif="http://www.serif.com/" style="fill-rule:evenodd;clip-rule:evenodd;stroke-linejoin:round;stroke-miterlimit:2;">
    <g transform="matrix(1,0,0,1,-1028.62,-116.529)">
        <g transform="matrix(6.12323e-17,-1,5.13241,3.14269e-16,0,1920)">
            <g transform="matrix(6.12323e-17,0.19484,-1,1.19305e-17,1981.1,111.969)">
                <g>
                    <g transform="matrix(0.0821561,0,0,0.0736733,727.776,89.4728)">
                        <path d="M-3276,1274C-3276,1274 -3123.42,1237.28 -2797,1237C-2470.58,1236.72 -2169.4,1266.16 -1803,1237C-1436.6,1207.84 -1367.68,1245.94 -1044,1237C-720.318,1228.06 -486,1237 -486,1237L-397,1274L-397,1592L-443,1592L-397,1644L-397,1745C-397,1745 -1283.93,1730.3 -1535,1768C-1786.07,1805.7 -2832.42,1797.18 -2884,1800C-2935.58,1802.82 -3038.91,1770.73 -3097,1768C-3155.09,1765.27 -3198,1745 -3198,1745L-3312,1604C-3312,1604 -3297.14,1515.23 -3222,1514C-3222,1514 -3270.94,1515.32 -3276,1476C-3283.41,1418.44 -3278.49,1311.28 -3276,1274Z" style="fill:rgb(220,115,57);"/>
                    </g>
                    <g transform="matrix(0.0821561,0,0,0.0736733,727.361,89.4728)">
                        <path d="M-481.504,1233.89C-471.354,1251.34 -469.07,1269.84 -481.504,1290.31C-481.504,1290.31 -464.542,1321.39 -486,1352C-486,1352 -482.296,1398.92 -508,1414C-508,1414 -494.915,1470.32 -508,1517C-508,1517 -464.936,1562.81 -486,1599L-460.831,1611L-386,1599L-386,1269.43L-424,1247.46L-481.504,1233.89Z" style="fill:rgb(169,54,24);"/>
                    </g>
                    <g transform="matrix(0.0821561,0,0,0.0736733,85.0315,89.4728)">
                        <path d="M6711,1522L7310,1516C7310,1516 7314.32,1522.46 7316,1504C7316,1504 6718.35,1525.94 6711,1522Z" style="fill:rgb(255,162,87);"/>
                    </g>
                    <g transform="matrix(0.0821561,0,0,0.0736733,85.0315,89.4728)">
                        <path d="M4716,1509L4716,1519L4633,1564L4620,1576L4592,1564L4556,1538L4556,1519L4580,1509L4716,1509Z" style="fill:rgb(208,80,31);"/>
                    </g>
                    <g transform="matrix(0.0821561,0,0,0.0736733,727.361,89.4728)">
                        <path d="M-2383.25,1729.98C-2443.45,1746.54 -2674.4,1731.89 -2714.3,1731.6C-2881.15,1730.37 -2941.14,1775.48 -2955.57,1799.95L-2968.43,1792.05C-2956.63,1772.81 -2901.73,1707.01 -2668.8,1725.04C-2646.01,1726.81 -2436.79,1743 -2383.25,1729.98Z" style="fill:rgb(174,63,7);"/>
                    </g>
                    <g transform="matrix(0.0821561,0,0,0.0736733,727.361,89.4728)">
                        <path d="M-390.034,1353.88L-390.42,1370.67C-536.737,1362.52 -638.959,1336.95 -778.562,1349.42C-931.463,1363.09 -976.504,1384.11 -1196,1389C-965.03,1379.08 -918.927,1354.15 -758.65,1338.66C-642.402,1327.42 -502.858,1350.69 -390.034,1353.88Z" style="fill:rgb(113,21,10);"/>
                    </g>
                    <g transform="matrix(0.0821561,0,0,0.0736733,85.0315,89.4728)">
                        <path d="M4566,1614.1C4566,1614.1 4584.23,1633.84 4612,1673C4639.77,1712.16 4652.95,1737.83 4687,1750C4721.05,1762.17 4821.77,1779.14 4848,1773C4874.23,1766.86 4885,1761 4885,1761C4885,1761 4805.8,1781.16 4755.43,1750C4705.05,1718.84 4664,1673 4664,1673L4641,1614.1L4566,1587L4566,1614.1Z" style="fill:rgb(183,58,30);"/>
                    </g>
                    <g transform="matrix(0.0821561,0,0,0.0736733,727.361,89.4728)">
                        <path d="M-619,1237C-619,1237 -764.084,1262.18 -843,1274C-921.916,1285.82 -1561.35,1218.21 -1661,1237C-1760.65,1255.79 -1982.1,1262.12 -2248,1237C-2248,1237 -1699.78,1216.12 -1617,1214C-1534.22,1211.88 -1131.62,1245.94 -1088,1237C-1044.38,1228.06 -619,1237 -619,1237Z" style="fill:rgb(250,170,85);"/>
                    </g>
                    <g transform="matrix(0.0821561,0,0,0.0736733,727.361,89.4728)">
                        <path d="M-3191,1615C-3191,1615 -3195.26,1619.86 -3050,1615C-2904.74,1610.14 -2892.2,1596.76 -2828,1615C-2763.8,1633.24 -2590.54,1615.24 -2542,1615C-2493.46,1614.76 -1860.55,1610.62 -1805,1615C-1749.45,1619.38 -1625,1592 -1625,1592L-3230,1592L-3191,1615Z" style="fill:rgb(250,170,85);"/>
                    </g>
                    <g transform="matrix(0.0821561,0,0,0.0736733,727.361,89.4728)">
                        <path d="M-2845.31,1536.94C-2932.1,1521.61 -2973.66,1517.64 -3110.7,1536.94C-2988.22,1503.14 -2953.33,1500.75 -2845.31,1536.94Z" style="fill:rgb(250,170,85);"/>
                    </g>
                    <g transform="matrix(0.0821561,0,0,0.0736733,727.361,89.4728)">
                        <path d="M-3275,1547C-3275,1547 -3271.24,1520.31 -3250,1527C-3228.76,1533.69 -3223.49,1561.47 -3193,1560C-3193,1560 -3229.84,1593.27 -3250,1583C-3270.16,1572.73 -3271.56,1560.31 -3275,1547Z" style="fill:rgb(155,44,17);"/>
                    </g>
                    <g transform="matrix(0.0821561,0,0,0.0736733,727.361,89.4728)">
                        <path d="M-3300,1611C-3300,1611 -3280.64,1578.97 -3251,1611C-3221.36,1643.03 -3207.09,1654.25 -3195,1679C-3182.91,1703.75 -3170.08,1739.1 -3124,1751C-3077.92,1762.9 -2994.16,1780.51 -2917,1751L-2892,1751C-2892,1751 -2946.28,1763.51 -2967,1795L-3081,1795L-3195,1766L-3251,1708L-3328,1611L-3300,1611Z" style="fill:rgb(145,41,30);"/>
                    </g>
                    <g transform="matrix(0.0821561,0,0,0.0736733,727.361,89.5465)">
                        <path d="M-2550.69,1663.43L-2543.22,1672.56C-2547.81,1676.54 -2568.72,1694.68 -2611.45,1700.56C-2660.92,1707.35 -2706.87,1692.34 -2719.14,1688.61L-2718.86,1687.39C-2706.87,1690.24 -2660.56,1702.31 -2612.53,1692.64C-2570.45,1684.17 -2551.23,1663.92 -2550.69,1663.43Z" style="fill:rgb(176,58,20);"/>
                    </g>
                    <g transform="matrix(0.0821561,0,0,0.0736733,727.361,89.4728)">
                        <path d="M-390.322,1408.38L-390.605,1432.7C-555.165,1427.73 -610.517,1434.1 -735.139,1460.73C-774.239,1469.09 -821.988,1479.33 -887.689,1486.75C-940.604,1492.72 -871.845,1485.7 -794.029,1467.35C-734.157,1453.23 -686.171,1437.68 -623.291,1426.46C-526.531,1409.17 -428.283,1409.01 -390.322,1408.38Z" style="fill:rgb(71,0,0);"/>
                    </g>
                    <g transform="matrix(0.0821561,0,0,0.0736733,727.361,89.4728)">
                        <path d="M-398.293,1400.7C-624.289,1363.39 -710.326,1353.91 -852.617,1368.71C-951.628,1379.01 -1016.1,1387.21 -1181.08,1389.51C-901.485,1376.65 -870.634,1353.05 -744.837,1348.4C-629.025,1344.11 -483.318,1364.85 -395.303,1376.61L-398.293,1400.7Z" style="fill:rgb(169,54,24);"/>
                    </g>
                    <g transform="matrix(0.0821561,0,0,0.0736733,727.361,89.4728)">
                        <path d="M-387.13,1514.79L-387.176,1530.18C-744.289,1525.66 -744.294,1530.4 -1074.97,1523.44C-1186.79,1521.08 -1027.44,1523.49 -834.863,1520.98C-639.314,1518.43 -639.364,1516.81 -387.13,1514.79Z" style="fill:rgb(73,11,2);"/>
                    </g>
                    <g transform="matrix(0.0821561,0,0,0.0736733,727.361,89.4728)">
                        <path d="M-413.933,1592.97L-415.476,1619.6C-448.994,1617.02 -601.201,1605.33 -834.839,1594.45C-1051.9,1584.35 -1159.07,1584.2 -1186.97,1583.93C-1162.75,1583.31 -1054.9,1579.61 -834.552,1582.24C-741.002,1583.36 -547.943,1586.91 -413.933,1592.97Z" style="fill:rgb(71,0,0);"/>
                    </g>
                    <g transform="matrix(0.0821561,0,0,0.0736733,727.361,89.4728)">
                        <path d="M-1181.13,1769.12L-1189.47,1746.65C-977.157,1654.4 -866.677,1614.59 -718.843,1632.86C-670.954,1638.78 -628.05,1648.29 -517.265,1671.12L-517.455,1672.38C-696.469,1641.66 -773.588,1623.44 -896.666,1654.89C-998.494,1680.92 -1121.64,1740.95 -1181.13,1769.12Z" style="fill:rgb(173,62,17);"/>
                    </g>
                    <g transform="matrix(0.0821561,0,0,0.0736733,727.361,89.4728)">
                        <path d="M-1639.31,1351.31C-1705.2,1338.41 -1760.5,1327.85 -1829.22,1332.42C-1886.79,1336.24 -1922.87,1346.55 -2033.21,1351.22C-1893.41,1332.09 -1877.44,1321.37 -1820.59,1318.22C-1757.17,1314.7 -1689.95,1335.26 -1639.31,1351.31Z" style="fill:rgb(173,62,17);"/>
                    </g>
                    <g transform="matrix(0.0821561,0,0,0.0736733,727.361,89.4728)">
                        <path d="M-2035.64,1262.62L-2035.54,1259.61C-1842.37,1265.67 -1841.88,1270.38 -1696.77,1249.02C-1647.38,1241.75 -1601.14,1233.19 -1530.86,1235.42C-1450.01,1237.99 -1427.7,1246.4 -1239.08,1251.9L-1239.82,1276.2C-1513.73,1260.9 -1521.8,1239.78 -1661.92,1256.93C-1715.66,1263.51 -1774.1,1270.89 -1819.17,1272.51C-1864.73,1274.13 -1879.11,1271.72 -2035.64,1262.62Z" style="fill:rgb(213,82,30);"/>
                    </g>
                    <g transform="matrix(0.0821561,0,0,0.0736733,727.361,89.4728)">
                        <path d="M-3266.04,1415.11L-3265.45,1401.49C-3003.18,1416.87 -2944.97,1394.87 -2767.2,1469.77L-2767.96,1472.05C-2946.28,1401.41 -3003.1,1424.69 -3266.04,1415.11Z" style="fill:rgb(173,62,17);"/>
                    </g>
                    <g transform="matrix(0.0821561,0,0,0.0736733,727.361,89.4728)">
                        <path d="M-2179.28,1552.57L-2187.61,1574.93C-2266.47,1538.42 -2327.89,1520.92 -2461.58,1513.92C-2573.39,1508.06 -2639.58,1508.96 -2747.01,1479.74L-2746.7,1478.29C-2562.25,1520.71 -2449.91,1483.01 -2289.3,1516.87C-2229.01,1529.58 -2180.86,1551.9 -2179.28,1552.57Z" style="fill:rgb(173,62,17);"/>
                    </g>
                    <g transform="matrix(0.0821561,0,0,0.0736733,726.95,89.0308)">
                        <path d="M-2483.24,1369.81L-2484.45,1374.23C-2485.54,1373.89 -2723.06,1289.54 -3021.01,1307.4C-3068.76,1310.27 -3087.23,1313.63 -3092.93,1314.67L-3096.85,1290.75C-3053.87,1284.62 -2931.55,1278.82 -2783.06,1298.41C-2623.23,1319.51 -2514.12,1359.1 -2483.24,1369.81Z" style="fill:rgb(212,104,40);"/>
                    </g>
                    <g transform="matrix(0.0821561,0,0,0.0736733,727.361,89.4728)">
                        <path d="M-1200,1416C-1200,1416 -1017.01,1430.96 -938,1416C-858.989,1401.04 -660.275,1371.99 -604,1376C-604,1376 -760.75,1360.74 -920,1396C-1016.45,1417.35 -1168.06,1418.34 -1200,1416Z" style="fill:rgb(255,189,93);"/>
                    </g>
                    <g transform="matrix(0.0821561,0,0,0.0736733,727.361,89.4728)">
                        <path d="M-1099,1733C-1099,1733 -453.558,1729.28 -406,1725C-406,1725 -375.041,1752.44 -406,1752C-436.959,1751.56 -1160,1752 -1160,1752L-1099,1733Z" style="fill:rgb(109,21,7);"/>
                    </g>
                    <g transform="matrix(0.0821561,0,0,0.0736733,727.361,89.4728)">
                        <path d="M-386,1653C-386,1653 -507.711,1668.08 -548,1693C-588.289,1717.92 -637.989,1710.52 -681,1703C-724.011,1695.49 -800.753,1672.38 -828,1703C-855.247,1733.62 -902.871,1721.11 -920,1724C-937.129,1726.89 -1083.85,1722.67 -1112,1736C-1140.15,1749.33 -728,1736 -728,1736L-398,1736L-386,1653Z" style="fill:rgb(188,68,33);"/>
                    </g>
                    <g transform="matrix(0.0821561,0,0,0.0736733,727.361,89.4728)">
                        <path d="M-390.359,1294.91L-391.665,1305.58C-405.655,1303.06 -479.857,1288.73 -513.974,1286.01C-547.111,1283.37 -571.039,1287.14 -581.814,1288.39C-571.073,1286.54 -547.264,1281.41 -513.817,1282.19C-479.398,1282.99 -404.642,1293.15 -390.359,1294.91Z" style="fill:rgb(100,11,3);"/>
                    </g>
                    <g transform="matrix(0.0821561,0,0,0.0736733,727.361,89.4728)">
                        <path d="M-2542,1753C-2542,1753 -2530.35,1778.7 -2520,1788C-2509.65,1797.3 -2873,1788 -2873,1788C-2873,1788 -2579.14,1750.58 -2542,1753Z" style="fill:rgb(251,167,77);"/>
                    </g>
                    <g transform="matrix(0.0821561,0,0,0.0736733,727.361,89.4728)">
                        <path d="M-2494.62,1798.54L-2665.28,1803.42C-2715.75,1804.09 -2895.12,1801.78 -2915.11,1801.53C-2844.68,1796.67 -2704.84,1786.5 -2646.81,1784.84L-2495.04,1780.51L-2494.62,1798.54Z" style="fill:rgb(173,62,17);"/>
                    </g>
                    <g transform="matrix(0.0821561,0,0,0.0736733,727.361,89.4728)">
                        <path d="M-2916,1770C-2916,1770 -2847.78,1760.95 -2784,1754C-2720.22,1747.05 -2494,1733 -2494,1733L-2541,1733C-2541,1733 -2690.88,1736.9 -2757,1733C-2823.12,1729.1 -2896.41,1751.07 -2916,1770Z" style="fill:rgb(251,167,77);"/>
                    </g>
                    <g transform="matrix(0.0821561,0,0,0.0736733,727.361,89.4728)">
                        <path d="M-3172,1686C-3172,1686 -2972.92,1643.7 -2804,1677L-2722,1686C-2722,1686 -2885.68,1628.41 -2965,1640C-3044.32,1651.59 -3161.85,1660 -3172,1686Z" style="fill:rgb(255,162,87);"/>
                    </g>
                    <g transform="matrix(0.0821561,0,0,0.0736733,727.361,89.4728)">
                        <path d="M-3199.2,1690.92L-3196.81,1675C-3187.2,1677.57 -3114.26,1697.09 -3079.64,1718.47C-3067.34,1726.08 -3083.58,1716.59 -3104.94,1710.16C-3143.07,1698.66 -3183.93,1693.14 -3199.2,1690.92Z" style="fill:rgb(144,40,31);"/>
                    </g>
                    <g transform="matrix(0.0821561,0,0,0.0736733,727.607,89.4728)">
                        <path d="M-2810.2,1667.87C-2833.05,1663.84 -2877.15,1652.17 -3027.59,1659.87C-3125.3,1664.87 -3169.65,1677.35 -3174.85,1679.97C-3175.22,1680.16 -3175.77,1679.79 -3175.86,1679.86C-3176.14,1680.07 -3176.85,1681.58 -3176.87,1679.92C-3176.92,1675.27 -3107.24,1646.84 -3029.17,1637.31C-2944.09,1626.92 -2871.37,1643.24 -2809.8,1666.13L-2810.2,1667.87Z" style="fill:rgb(255,162,87);"/>
                    </g>
                    <g transform="matrix(0.0821561,0,0,0.0736733,727.361,89.4728)">
                        <path d="M-3197.78,1688.56L-3204.27,1665.4C-3103.46,1635.04 -2980.81,1622.09 -2877.22,1642.43C-2744.3,1668.51 -2731.87,1690.5 -2663.95,1696.73L-2664.05,1699.27C-2732.73,1695.72 -2745.52,1674.28 -2878.78,1653.57C-3035.83,1629.18 -3194.72,1687.52 -3197.78,1688.56Z" style="fill:rgb(144,40,31);"/>
                    </g>
                    <g transform="matrix(0.0821561,0,0,0.0736733,727.361,89.4728)">
                        <path d="M-3262.41,1616.31L-3268.25,1592.88C-3193.9,1571.01 -3186.7,1556.35 -3128.47,1527.73C-3072.75,1500.35 -3016.61,1494.96 -2998.81,1492.61L-2998.15,1498.13C-3029.77,1504.43 -3075.99,1512.75 -3129.68,1544.48C-3181.16,1574.9 -3189.95,1589.83 -3262.41,1616.31Z" style="fill:rgb(110,16,4);"/>
                    </g>
                    <g transform="matrix(0.0821561,0,0,0.0736733,725.307,89.0308)">
                        <path d="M-3050,1425C-3050,1425 -2982.93,1439.66 -2942,1453C-2901.07,1466.34 -2615.13,1539.23 -2566,1542C-2516.87,1544.77 -2513,1565.37 -2493,1579L-2478,1595L-2627,1595L-2648,1579C-2648,1579 -2851.18,1488.35 -2918,1480C-2984.82,1471.65 -3090.16,1436.91 -3090,1437C-3089.84,1437.09 -3050,1425 -3050,1425Z" style="fill:rgb(208,90,40);"/>
                    </g>
                    <g transform="matrix(0.0821561,0,0,0.0736733,727.361,89.4728)">
                        <path d="M-2996,1250C-2996,1250 -2380.34,1252.7 -2353,1250C-2325.66,1247.3 -2276,1250 -2276,1250C-2276,1250 -2518.22,1286.03 -2571,1285C-2623.78,1283.98 -3175.15,1265.67 -3212,1264L-2996,1250Z" style="fill:rgb(250,170,85);"/>
                    </g>
                    <g transform="matrix(0.0821561,0,0,0.0736733,727.361,89.4728)">
                        <path d="M-2489,1367C-2489,1367 -2563.6,1352.81 -2612,1353C-2660.4,1353.19 -2776.88,1333.53 -2818,1329C-2859.12,1324.48 -2929.5,1309.83 -2975,1306C-3013.53,1302.75 -3091,1306 -3091,1306C-3091,1306 -2830.56,1263.92 -2489,1367Z" style="fill:rgb(250,170,85);"/>
                    </g>
                    <g transform="matrix(0.0821561,0,0,0.0736733,727.361,89.4728)">
                        <path d="M-3190,1395C-3190,1395 -3046.11,1397.55 -2922,1406.68C-2797.89,1415.81 -2654,1419 -2654,1419C-2654,1419 -2677.48,1410.2 -2727,1395C-2806.04,1370.74 -2887.23,1369.88 -2929,1368C-2970.77,1366.12 -3142.41,1376.91 -3190,1395Z" style="fill:rgb(219,115,54);"/>
                    </g>
                    <g transform="matrix(0.0821561,0,0,0.0736733,727.361,89.4728)">
                        <path d="M-3266.56,1418.41L-3272.33,1394.95C-3190.59,1371.91 -3062.35,1335.66 -2925.99,1343.13C-2777.41,1351.27 -2673.14,1408.16 -2625.39,1434.48L-2626.4,1436.77C-2673.19,1412.88 -2776.73,1360.35 -2921.46,1356.1C-3057.53,1352.1 -3184.26,1392.31 -3266.56,1418.41Z" style="fill:rgb(173,62,17);"/>
                    </g>
                    <g transform="matrix(0.0821561,0,0,0.0736733,727.361,89.4728)">
                        <path d="M-2877,1513C-2877,1513 -2795.69,1543.97 -2767,1553C-2738.31,1562.03 -2683.99,1566.36 -2668,1571C-2668,1571 -2783.7,1534.3 -2877,1513Z" style="fill:rgb(250,170,85);"/>
                    </g>
                    <g transform="matrix(0.0821561,0,0,0.0736733,727.361,89.4728)">
                        <path d="M-1326.14,1311.38L-1329.52,1287.35C-1241.65,1275.01 -1189.01,1282.91 -1094.4,1289.83C-988.285,1297.59 -932.754,1290.12 -885.12,1283.4C-951.748,1296.53 -1001.63,1303.42 -1107.89,1301.08C-1194.1,1299.18 -1245.26,1295.48 -1326.14,1311.38Z" style="fill:rgb(255,189,93);"/>
                    </g>
                    <g transform="matrix(0.0821561,0,0,0.0736733,727.361,89.4728)">
                        <path d="M-1150,1616C-1150,1616 -838.567,1612.35 -774.546,1605.37C-710.526,1598.4 -446.89,1629.33 -403,1652C-403,1652 -419.243,1617.72 -439.312,1616C-771.038,1587.59 -1162,1590 -1162,1590L-1150,1616Z" style="fill:rgb(253,183,98);"/>
                    </g>
                    <g transform="matrix(0.0821561,0,0,0.0736733,727.361,89.4728)">
                        <path d="M-520,1414L-386,1414L-386,1354C-386,1354 -383.472,1412.66 -520,1414Z" style="fill:rgb(113,21,10);"/>
                    </g>
                    <g transform="matrix(0.0821561,0,0,0.0736733,727.361,89.4728)">
                        <path d="M-1137,1494C-1137,1494 -1135.77,1506.74 -1116,1506C-1096.23,1505.26 -1095,1494 -1095,1494C-1095,1494 -1111.22,1481.73 -1137,1494Z" style="fill:rgb(215,100,43);"/>
                    </g>
                    <g transform="matrix(0.0821561,0,0,0.0736733,727.361,89.4728)">
                        <path d="M-1151,1668C-1151,1668 -1078.24,1669.75 -999,1647C-919.762,1624.25 -836.736,1606.89 -788,1607L-1151,1607L-1151,1668Z" style="fill:rgb(237,144,67);"/>
                    </g>
                    <g transform="matrix(0.0821561,0,0,0.0736733,727.361,89.4728)">
                        <path d="M-1020,1698C-1020,1698 -700.22,1623.01 -570,1668C-570,1668 -792.52,1603.35 -1020,1698Z" style="fill:rgb(237,144,67);"/>
                    </g>
                    <g transform="matrix(0.0821561,0,0,0.0736733,727.361,89.4728)">
                        <path d="M-739,1292C-739,1292 -776.795,1332.29 -875,1325C-912.601,1322.21 -970.62,1289.22 -860.117,1285.05C-780.389,1282.04 -739,1292 -739,1292Z" style="fill:rgb(218,109,42);"/>
                    </g>
                    <g transform="matrix(0.0821561,0,0,0.0736733,727.361,89.4728)">
                        <path d="M-751,1292C-751,1292 -854.439,1272.34 -875,1292C-895.561,1311.66 -854.1,1308.38 -835,1308C-815.9,1307.62 -751,1292 -751,1292Z" style="fill:rgb(206,89,45);"/>
                    </g>
                    <g transform="matrix(0.0821561,0,0,0.0736733,727.114,89.2518)">
                        <path d="M-3295.79,1628.24L-3304.3,1605.83C-3239.16,1577.87 -3211.87,1579.25 -3180.83,1578.64C-3006.52,1575.21 -2414.88,1590.73 -1886.38,1590.33C-1656.85,1590.15 -1600.4,1609.05 -1599.91,1595.52L-1599.91,1600.52C-1679.4,1593.07 -1865.17,1595.12 -1952.47,1595.52C-2272.46,1597 -3090.86,1598.43 -3204.41,1603.17C-3238.61,1604.6 -3273.36,1618.61 -3295.79,1628.24Z" style="fill:rgb(71,0,0);"/>
                    </g>
                    <g transform="matrix(0.0821561,0,0,0.0736733,727.361,89.4728)">
                        <path d="M-3281.41,1505.55L-3274.57,1482.45C-3200.17,1509.63 -3108.84,1501.02 -3094.43,1499.66C-3026.95,1493.3 -3001.42,1483.37 -2946.49,1490.94C-2882.01,1499.82 -2771.82,1535.4 -2665.88,1569.5L-2666.12,1570.5C-2950.3,1490.43 -2958.04,1494.72 -3054.41,1511.1C-3065.06,1512.91 -3184.07,1537.12 -3281.41,1505.55Z" style="fill:rgb(71,0,0);"/>
                    </g>
                    <g transform="matrix(0.995898,0,0,1,-11.3706,113.519)">
                        <path d="M702.228,65.114L711,68L710.97,95.179L709.895,95.179L710.94,96.209L710.91,106.477C710.91,106.477 636.009,106.082 620,108C603.991,109.918 521.887,111.419 504.429,110.436C502.344,110.806 492.909,109.134 491.779,108.772C490.296,108.297 481.67,108.237 477.631,106.034L467.233,94.662C467.233,94.662 468.229,88.653 471.427,87.251C471.427,87.251 470.145,86.933 470,81C469.855,75.067 470,68 470,68C470,68 493.66,63.3 553,65C553,65 581.312,66.063 591.951,64.886C611.342,63.486 620.519,64.327 633.403,64.801C647.738,65.742 680.499,63.891 702.228,65.114ZM476.753,87.505C470.593,87.605 469.374,94.135 469.374,94.135L478.74,104.523C478.74,104.523 482.265,106.016 487.037,106.217C491.81,106.419 500.299,108.782 504.537,108.575C506.089,108.499 518.613,108.535 534.874,108.475C562.995,108.37 602.296,107.978 615.365,106.217C635.992,103.44 708.859,104.523 708.859,104.523L708.859,97.082L705.08,93.251L708.859,93.251L708.859,69.823L701.547,67.097C701.547,67.097 682.296,66.438 655.704,67.097C629.111,67.756 623.45,64.949 593.347,67.097C563.245,69.245 538.502,67.077 511.684,67.097C484.867,67.117 472.331,69.823 472.331,69.823C472.127,72.569 471.723,80.465 472.331,84.705C472.732,87.5 476.49,87.508 476.753,87.505Z" style="fill:rgb(71,0,0);"/>
                    </g>
                    <g transform="matrix(0.0821561,0,0,0.0736733,85.0315,89.4728)">
                        <path d="M4564,1594C4984.5,1631.06 5574.27,1618.76 6073,1625L6165.83,1594C6539.5,1580.96 6941.42,1583.67 7357,1594L7431,1594L7431,1753C7431,1753 6791.53,1746.81 6546,1753C6220.91,1761.2 6057.08,1813.95 5963,1815C5757.86,1817.3 4858,1815 4858,1815L4625,1753L4504,1594L4564,1594Z" style="fill:rgb(100,22,12);fill-opacity:0.2;"/>
                    </g>
                </g>
            </g>
            <g transform="matrix(1,4.62223e-33,0,0.19484,1241,142.388)">
                <g transform="matrix(6.12323e-17,1,-1,6.12323e-17,1920,-1.17566e-13)">
                    <path d="M385.735,1383.3C385.781,1383.15 385.811,1382.99 385.83,1382.79L385.834,1382.76C385.867,1382.53 385.883,1382.31 385.883,1382.06L385.885,1382.03C385.897,1381.78 385.904,1381.58 385.904,1381.43C385.904,1380.43 385.851,1379.44 385.745,1378.44C385.637,1377.43 385.501,1376.42 385.339,1375.42C385.267,1375 385.203,1374.59 385.146,1374.17C385.102,1373.85 385.03,1373.54 384.931,1373.25L384.286,1371.31L386.317,1371.5C386.429,1371.51 386.542,1371.51 386.654,1371.51L387.175,1371.51C387.847,1371.51 388.511,1371.5 389.174,1371.47C389.815,1371.43 390.462,1371.37 391.115,1371.27L392.464,1371.09L392.624,1372.44C392.751,1373.51 392.845,1374.58 392.907,1375.63C392.959,1375.4 393.013,1375.17 393.07,1374.94L393.075,1374.92C393.217,1374.41 393.37,1373.98 393.528,1373.61C393.799,1372.97 394.149,1372.58 394.466,1372.37C394.696,1372.21 395.097,1372.03 395.694,1371.9C396.105,1371.81 396.584,1371.73 397.13,1371.67C397.647,1371.6 398.199,1371.54 398.774,1371.5C399.356,1371.44 399.909,1371.4 400.425,1371.37C400.959,1371.33 401.443,1371.3 401.876,1371.28C402.313,1371.27 402.634,1371.26 402.838,1371.26C403.122,1371.26 403.503,1371.28 403.981,1371.31C404.463,1371.34 404.982,1371.38 405.536,1371.46C406.084,1371.52 406.64,1371.6 407.195,1371.69C407.785,1371.79 408.33,1371.9 408.83,1372.04C409.384,1372.18 409.856,1372.35 410.247,1372.53C410.6,1372.69 410.867,1372.87 411.062,1373.05L411.312,1373.33C411.312,1373.33 411.527,1373.68 411.529,1373.68L411.53,1373.69C411.629,1373.9 411.727,1374.21 411.807,1374.62C411.848,1374.79 411.886,1374.98 411.919,1375.17C412.302,1374.62 412.774,1374.16 413.333,1373.78C414.093,1373.27 414.926,1372.87 415.831,1372.59C416.698,1372.32 417.589,1372.14 418.502,1372.06C419.38,1371.97 420.185,1371.93 420.917,1371.93C422.488,1371.93 424.06,1372.08 425.632,1372.39L426.668,1372.59L426.945,1380L425.143,1379.43C423.855,1379.03 422.522,1378.82 421.146,1378.82C420.888,1378.82 420.547,1378.84 420.122,1378.86C419.711,1378.89 419.287,1378.94 418.835,1379.02L418.819,1379.02C418.441,1379.07 418.084,1379.16 417.732,1379.29L417.713,1379.3C417.642,1379.32 417.547,1379.37 417.508,1379.39C417.495,1379.42 417.484,1379.46 417.47,1379.51C417.429,1379.67 417.394,1379.85 417.36,1380.05C417.338,1380.24 417.322,1380.44 417.31,1380.63C417.298,1380.84 417.292,1381 417.292,1381.14C417.292,1381.42 417.31,1381.75 417.347,1382.14C417.401,1382.56 417.46,1382.98 417.527,1383.42C417.59,1383.83 417.666,1384.23 417.755,1384.62L419.061,1384.62L418.869,1380.49L420.367,1380.6C421.291,1380.66 422.214,1380.7 423.127,1380.7C424.105,1380.68 425.077,1380.68 426.042,1380.68L427.233,1380.68C427.44,1378.36 427.64,1376.03 427.834,1373.69L427.919,1372.66L428.943,1372.49C429.967,1372.32 430.984,1372.17 431.994,1372.06C433.043,1371.94 434.099,1371.89 435.163,1371.89C436.414,1371.89 437.665,1371.91 438.916,1371.95L440.021,1371.99L440.189,1373.08C440.411,1374.53 440.627,1375.97 440.835,1377.42C441.057,1378.84 441.285,1380.27 441.522,1381.72C441.522,1381.72 441.536,1381.82 441.542,1381.86C441.558,1381.35 441.57,1380.85 441.575,1380.35L441.575,1380.34C441.617,1378.08 441.68,1375.82 441.763,1373.57L441.809,1372.35L443.025,1372.28C444.326,1372.21 445.619,1372.14 446.907,1372.06C448.24,1371.97 449.574,1371.93 450.908,1371.93C451.256,1371.93 451.633,1371.93 452.039,1371.95C452.482,1371.96 452.924,1372.01 453.352,1372.09C453.823,1372.15 454.269,1372.25 454.692,1372.38C455.185,1372.53 455.622,1372.72 456.009,1372.96L456.013,1372.96C456.928,1373.54 457.628,1374.31 458.115,1375.28C458.602,1376.2 458.846,1377.19 458.846,1378.24C458.846,1379.8 458.333,1381.01 457.384,1381.9C456.926,1382.33 456.397,1382.67 455.794,1382.91C456.819,1384.74 457.738,1386.61 458.551,1388.51L459.325,1390.32L450.036,1390.54L449.915,1389.31C449.81,1388.25 449.654,1387.27 449.444,1386.38C449.301,1385.77 449.119,1385.14 448.896,1384.5C448.781,1384.51 448.666,1384.52 448.55,1384.53C448.519,1384.53 448.488,1384.53 448.457,1384.54L448.561,1389.3L447.27,1389.36C446.455,1389.41 445.64,1389.43 444.825,1389.43C444.406,1389.43 443.994,1389.42 443.589,1389.41C443.369,1389.4 443.148,1389.39 442.924,1389.37L443.007,1389.76L437.316,1390.63L436.974,1389.54C436.752,1388.83 436.531,1388.13 436.308,1387.43L436.307,1387.43C436.186,1387.05 436.068,1386.66 435.951,1386.28C435.951,1386.28 432.876,1386.39 432.876,1386.39L432.221,1389.2L427.563,1389.2L427.563,1390.41L426.207,1390.39C424.52,1390.36 422.791,1390.32 421.02,1390.26C419.233,1390.2 417.48,1390.08 415.746,1389.88L415.728,1389.87C415.567,1389.85 415.383,1389.83 415.176,1389.82L415.135,1389.82L415.094,1389.82C414.751,1389.77 414.438,1389.7 414.143,1389.6L414.131,1389.59C413.585,1389.38 413.156,1389.15 412.836,1388.9L412.801,1388.88L412.768,1388.85C412.416,1388.54 412.145,1388.2 411.939,1387.81L411.932,1387.8C411.803,1387.54 411.698,1387.26 411.62,1386.97C411.612,1387.01 411.604,1387.04 411.596,1387.08C411.516,1387.43 411.425,1387.68 411.345,1387.84L411.03,1388.29C410.476,1388.84 409.812,1389.26 409.027,1389.54L409.018,1389.54C408.359,1389.77 407.667,1389.92 406.943,1390C406.259,1390.08 405.575,1390.11 404.891,1390.09C404.277,1390.08 403.703,1390.07 403.171,1390.07L402.233,1390.07L402.211,1390.07C401.783,1390.06 401.293,1390.05 400.741,1390.03C400.191,1390.02 399.612,1390 398.989,1389.97L398.974,1389.97C398.36,1389.92 397.782,1389.87 397.22,1389.81L397.201,1389.81C396.648,1389.74 396.163,1389.65 395.718,1389.56L395.69,1389.55C395.318,1389.45 395.032,1389.34 394.825,1389.21L394.464,1388.95C394.464,1388.95 394.254,1388.71 394.238,1388.69C394.077,1388.47 393.935,1388.23 393.814,1387.97C393.724,1387.77 393.641,1387.58 393.56,1387.39L393.555,1387.38C393.361,1386.88 393.182,1386.36 393.016,1385.8L393.015,1385.8C392.959,1385.6 392.905,1385.41 392.854,1385.21C392.802,1385.47 392.744,1385.71 392.679,1385.95C392.532,1386.56 392.332,1387.06 392.1,1387.45C391.685,1388.17 391.162,1388.73 390.536,1389.14L390.532,1389.15C389.977,1389.51 389.371,1389.79 388.701,1389.98L388.69,1389.99C388.096,1390.15 387.471,1390.25 386.814,1390.3C386.212,1390.34 385.617,1390.37 385.029,1390.37C384.518,1390.37 384.068,1390.35 383.675,1390.32L383.673,1390.32C383.269,1390.29 382.874,1390.23 382.481,1390.15L382.475,1390.15C382.088,1390.06 381.684,1389.94 381.254,1389.77L381.246,1389.76C380.887,1389.61 380.485,1389.43 380.037,1389.2L379.368,1388.87L379.305,1388.12C379.247,1387.44 379.211,1386.77 379.196,1386.09L379.196,1386.07C379.196,1385.44 379.182,1384.8 379.155,1384.15L379.087,1382.52L380.7,1382.78C381.149,1382.85 381.554,1382.92 381.916,1383C382.248,1383.06 382.575,1383.12 382.894,1383.17C383.199,1383.23 383.51,1383.27 383.841,1383.31C384.148,1383.33 384.495,1383.35 384.883,1383.35C385.123,1383.35 385.387,1383.33 385.685,1383.31C385.703,1383.31 385.719,1383.3 385.735,1383.3ZM399.296,1381.87L399.296,1382.32C399.308,1382.51 399.326,1382.7 399.349,1382.9C399.36,1382.99 399.371,1383.08 399.382,1383.17C399.458,1383.18 399.54,1383.2 399.626,1383.22C399.896,1383.25 400.177,1383.28 400.469,1383.31C400.794,1383.34 401.107,1383.36 401.396,1383.39C401.697,1383.4 401.961,1383.41 402.188,1383.43L402.671,1383.43C402.82,1383.43 403.074,1383.41 403.435,1383.39L403.436,1383.39C403.823,1383.36 404.222,1383.33 404.64,1383.27C405.032,1383.21 405.39,1383.15 405.732,1383.07C405.771,1382.83 405.8,1382.58 405.82,1382.31C405.846,1381.97 405.858,1381.65 405.858,1381.32L405.859,1381.29C405.872,1380.97 405.879,1380.74 405.879,1380.6C405.879,1380.36 405.867,1380.1 405.843,1379.84C405.843,1379.84 405.84,1379.81 405.839,1379.8C405.822,1379.8 405.805,1379.79 405.789,1379.79L405.785,1379.79C405.426,1379.7 405.025,1379.65 404.582,1379.61C404.12,1379.57 403.67,1379.55 403.214,1379.55L403.194,1379.55C402.74,1379.54 402.42,1379.53 402.233,1379.53C402.099,1379.53 401.86,1379.55 401.518,1379.57C401.179,1379.6 400.814,1379.64 400.407,1379.7L400.389,1379.71C400.065,1379.75 399.761,1379.81 399.459,1379.89C399.43,1380.08 399.4,1380.29 399.371,1380.52C399.346,1380.79 399.328,1381.06 399.315,1381.33L399.315,1381.33C399.303,1381.58 399.296,1381.75 399.296,1381.87ZM448.987,1378.82C449.243,1378.84 449.495,1378.85 449.742,1378.85C449.864,1378.85 450.042,1378.84 450.278,1378.83L450.279,1378.83C450.513,1378.81 450.747,1378.79 450.986,1378.75L450.991,1378.75C451.101,1378.74 451.206,1378.72 451.307,1378.7L451.308,1378.68C451.319,1378.54 451.325,1378.39 451.325,1378.26L451.325,1378.21L451.33,1378.15C451.339,1378.04 451.346,1377.95 451.346,1377.91C451.346,1377.82 451.339,1377.7 451.328,1377.54L451.325,1377.5L451.325,1377.45C451.325,1377.32 451.316,1377.19 451.296,1377.05C451.288,1377.05 451.28,1377.05 451.272,1377.05L451.218,1377.05L451.164,1377.04C451.051,1377.02 450.938,1377.01 450.825,1377.01L450.77,1377.01L450.714,1377.01C450.6,1377 450.519,1376.99 450.471,1376.99C449.962,1376.99 449.459,1377.02 448.963,1377.07C448.891,1377.07 448.819,1377.08 448.747,1377.09L448.987,1378.82ZM433.864,1380.8L434.644,1380.78C434.63,1380.7 434.616,1380.62 434.601,1380.54L434.6,1380.54C434.561,1380.32 434.517,1380.12 434.468,1379.93L434.075,1379.93C434.07,1379.94 434.066,1379.96 434.061,1379.98C434.007,1380.21 433.947,1380.45 433.884,1380.7C433.877,1380.74 433.871,1380.77 433.864,1380.8Z" style="fill:rgb(249,246,189);"/>
                </g>
                <g transform="matrix(4.35239e-17,0.710799,-0.710799,4.35239e-17,755.182,18.4824)">
                    <path d="M525.296,304.888C525.296,305.357 525.277,305.924 525.238,306.588C525.199,307.252 525.13,307.936 525.032,308.64C524.935,309.343 524.798,310.017 524.622,310.662C524.466,311.307 524.261,311.844 524.007,312.274C523.577,313.017 523.039,313.603 522.395,314.033C521.769,314.443 521.085,314.756 520.343,314.971C519.62,315.166 518.858,315.293 518.057,315.352C517.256,315.41 516.464,315.44 515.683,315.44C515.018,315.44 514.432,315.42 513.924,315.381C513.436,315.342 512.957,315.274 512.488,315.176C512.038,315.078 511.569,314.932 511.081,314.736C510.612,314.541 510.084,314.297 509.498,314.003C509.42,313.085 509.371,312.176 509.352,311.278C509.352,310.359 509.332,309.431 509.293,308.493C509.899,308.591 510.446,308.689 510.934,308.786C511.423,308.884 511.902,308.972 512.371,309.05C512.84,309.128 513.318,309.197 513.807,309.255C514.295,309.294 514.852,309.314 515.477,309.314C515.868,309.314 516.298,309.294 516.767,309.255C517.256,309.197 517.656,309.04 517.969,308.786C518.164,308.63 518.32,308.376 518.438,308.024C518.555,307.673 518.633,307.292 518.672,306.881C518.731,306.471 518.76,306.07 518.76,305.68C518.78,305.289 518.789,304.976 518.789,304.742C518.789,303.276 518.711,301.811 518.555,300.345C518.399,298.88 518.203,297.424 517.969,295.978C517.871,295.411 517.783,294.845 517.705,294.278C517.627,293.711 517.5,293.164 517.324,292.637C517.539,292.656 517.754,292.666 517.969,292.666L518.702,292.666C519.679,292.666 520.646,292.646 521.603,292.607C522.561,292.549 523.528,292.451 524.505,292.314C524.72,294.131 524.866,295.929 524.944,297.707C525.042,299.466 525.14,301.254 525.238,303.071C525.257,303.384 525.267,303.686 525.267,303.98C525.286,304.273 525.296,304.576 525.296,304.888ZM552.138,302.602L552.138,303.364C552.138,303.599 552.128,303.833 552.109,304.067C552.089,304.263 552.06,304.605 552.021,305.093C552.001,305.582 551.962,306.148 551.904,306.793C551.865,307.419 551.806,308.083 551.728,308.786C551.669,309.49 551.591,310.144 551.493,310.75C551.415,311.336 551.327,311.844 551.229,312.274C551.132,312.704 551.034,312.968 550.936,313.066C550.35,313.652 549.647,314.091 548.826,314.384C548.025,314.658 547.185,314.844 546.305,314.941C545.426,315.039 544.547,315.078 543.668,315.059C542.788,315.039 541.968,315.029 541.206,315.029L539.916,315.029C539.31,315.01 538.617,314.99 537.835,314.971C537.073,314.951 536.272,314.922 535.432,314.883C534.591,314.824 533.8,314.756 533.057,314.678C532.334,314.58 531.699,314.472 531.152,314.355C530.625,314.218 530.293,314.052 530.156,313.857C529.999,313.642 529.863,313.408 529.745,313.153C529.628,312.899 529.521,312.655 529.423,312.421C529.169,311.776 528.935,311.092 528.72,310.369C528.505,309.627 528.319,308.874 528.163,308.112C528.026,307.331 527.909,306.559 527.811,305.797C527.733,305.035 527.694,304.312 527.694,303.628C527.694,303.257 527.723,302.778 527.782,302.192C527.84,301.586 527.918,300.941 528.016,300.257C528.114,299.554 528.231,298.841 528.368,298.118C528.505,297.395 528.651,296.72 528.808,296.095C528.983,295.47 529.169,294.933 529.364,294.483C529.56,294.014 529.775,293.702 530.009,293.545C530.205,293.408 530.566,293.281 531.094,293.164C531.621,293.047 532.237,292.949 532.94,292.871C533.644,292.773 534.396,292.695 535.197,292.637C535.998,292.559 536.76,292.5 537.483,292.461C538.206,292.402 538.861,292.363 539.447,292.344C540.033,292.324 540.463,292.314 540.737,292.314C541.108,292.314 541.606,292.334 542.231,292.373C542.876,292.412 543.57,292.48 544.312,292.578C545.055,292.656 545.807,292.764 546.569,292.9C547.331,293.018 548.035,293.164 548.68,293.34C549.344,293.516 549.911,293.711 550.379,293.926C550.848,294.141 551.142,294.376 551.259,294.63C551.356,294.845 551.444,295.157 551.523,295.568C551.62,295.958 551.698,296.408 551.757,296.916C551.816,297.424 551.865,297.961 551.904,298.528C551.962,299.095 552.001,299.642 552.021,300.169C552.06,300.677 552.089,301.146 552.109,301.576C552.128,302.006 552.138,302.348 552.138,302.602ZM546.892,303.569C546.892,303.178 546.872,302.768 546.833,302.338C546.794,301.889 546.667,301.498 546.452,301.166C546.296,300.931 545.915,300.746 545.309,300.609C544.723,300.472 544.068,300.374 543.345,300.316C542.642,300.257 541.958,300.228 541.293,300.228C540.629,300.208 540.16,300.199 539.887,300.199C539.672,300.199 539.291,300.218 538.744,300.257C538.216,300.296 537.649,300.365 537.044,300.462C536.457,300.541 535.91,300.648 535.402,300.785C534.894,300.902 534.582,301.049 534.464,301.224C534.347,301.361 534.249,301.625 534.171,302.016C534.113,302.387 534.054,302.797 533.995,303.247C533.956,303.677 533.927,304.097 533.907,304.507C533.888,304.898 533.878,305.181 533.878,305.357L533.878,306.061C533.898,306.373 533.927,306.696 533.966,307.028C534.005,307.36 534.044,307.673 534.083,307.966C534.142,308.259 534.22,308.474 534.318,308.61C534.376,308.708 534.552,308.796 534.845,308.874C535.138,308.952 535.49,309.031 535.9,309.109C536.33,309.167 536.78,309.216 537.249,309.255C537.718,309.294 538.167,309.333 538.597,309.373C539.046,309.392 539.437,309.412 539.769,309.431L540.502,309.431C540.737,309.431 541.137,309.412 541.704,309.373C542.29,309.333 542.896,309.275 543.521,309.197C544.166,309.099 544.752,308.992 545.28,308.874C545.827,308.737 546.178,308.581 546.335,308.405C546.452,308.269 546.55,307.985 546.628,307.555C546.706,307.106 546.765,306.627 546.804,306.119C546.843,305.592 546.862,305.093 546.862,304.624C546.882,304.136 546.892,303.784 546.892,303.569ZM573.646,315.469C571.281,315.43 568.858,315.371 566.377,315.293C563.915,315.215 561.502,315.039 559.137,314.766C558.864,314.726 558.551,314.697 558.199,314.678C557.867,314.639 557.564,314.57 557.291,314.472C556.724,314.257 556.275,314.023 555.942,313.769C555.63,313.495 555.386,313.193 555.21,312.86C555.034,312.509 554.907,312.128 554.829,311.717C554.751,311.287 554.682,310.809 554.624,310.281C554.448,308.913 554.311,307.546 554.213,306.178C554.115,304.79 554.067,303.403 554.067,302.016L554.067,301.107C554.086,300.736 554.106,300.355 554.125,299.964C554.164,299.573 554.213,299.202 554.272,298.85C554.33,298.499 554.409,298.206 554.506,297.971C554.975,296.955 555.659,296.144 556.558,295.538C557.476,294.913 558.483,294.434 559.577,294.102C560.671,293.75 561.795,293.526 562.947,293.428C564.12,293.311 565.195,293.252 566.172,293.252C568.262,293.252 570.353,293.457 572.444,293.868L572.678,300.14C570.685,299.515 568.624,299.202 566.494,299.202C566.103,299.202 565.585,299.222 564.941,299.261C564.296,299.3 563.631,299.378 562.947,299.495C562.283,299.593 561.658,299.749 561.072,299.964C560.485,300.16 560.075,300.433 559.841,300.785C559.723,300.961 559.616,301.205 559.518,301.518C559.44,301.83 559.372,302.162 559.313,302.514C559.274,302.846 559.245,303.178 559.225,303.511C559.206,303.843 559.196,304.116 559.196,304.331C559.196,304.781 559.225,305.318 559.284,305.943C559.362,306.549 559.45,307.174 559.548,307.819C559.645,308.464 559.763,309.079 559.899,309.666C560.036,310.252 560.183,310.731 560.339,311.102L565.527,311.102L565.263,305.445C566.611,305.543 567.959,305.592 569.308,305.592C570.675,305.572 572.034,305.562 573.382,305.562C573.519,307.223 573.597,308.874 573.616,310.516C573.636,312.157 573.646,313.808 573.646,315.469ZM595.006,314.912L590.551,315.586C590.239,314.59 589.926,313.603 589.613,312.626C589.301,311.629 588.998,310.633 588.705,309.636L581.495,309.9L580.586,313.798L576.072,313.798C576.346,310.477 576.629,307.174 576.922,303.892C577.215,300.609 577.499,297.316 577.772,294.014C579.179,293.78 580.576,293.584 581.964,293.428C583.371,293.272 584.787,293.194 586.214,293.194C587.953,293.194 589.692,293.223 591.431,293.281C591.743,295.314 592.046,297.346 592.339,299.378C592.652,301.391 592.974,303.413 593.307,305.445C593.541,307.047 593.795,308.63 594.069,310.193C594.362,311.756 594.674,313.329 595.006,314.912ZM587.679,305.65C587.66,305.474 587.611,305.152 587.532,304.683C587.454,304.194 587.366,303.686 587.269,303.159C587.171,302.612 587.054,302.123 586.917,301.693C586.8,301.244 586.683,300.98 586.565,300.902C586.526,300.882 586.428,300.863 586.272,300.843C586.135,300.824 585.979,300.804 585.803,300.785C585.647,300.765 585.491,300.755 585.334,300.755L584.602,300.755C584.445,300.755 584.269,300.765 584.074,300.785C583.898,300.785 583.722,300.804 583.546,300.843C583.39,300.882 583.283,300.931 583.224,300.99C583.185,301.009 583.136,301.136 583.077,301.371C583.019,301.605 582.941,301.899 582.843,302.25C582.765,302.582 582.677,302.944 582.579,303.335C582.501,303.726 582.423,304.097 582.345,304.448C582.267,304.8 582.198,305.103 582.14,305.357C582.1,305.611 582.071,305.758 582.052,305.797L587.679,305.65ZM617.657,300.257C617.657,301.859 617.169,303.12 616.192,304.038C615.215,304.957 613.925,305.455 612.323,305.533C614.257,308.757 615.947,312.059 617.393,315.44L608.835,315.645C608.678,314.062 608.444,312.606 608.131,311.278C607.819,309.949 607.379,308.552 606.812,307.086C606.168,307.125 605.523,307.174 604.878,307.233C604.253,307.292 603.627,307.34 603.002,307.379L603.149,314.033C602.035,314.091 600.921,314.121 599.807,314.121C599.241,314.121 598.684,314.111 598.137,314.091C597.609,314.072 597.072,314.033 596.525,313.974C596.661,312.176 596.789,310.389 596.906,308.61C597.023,306.813 597.091,305.025 597.111,303.247C597.17,300.081 597.257,296.916 597.375,293.75C599.211,293.653 601.038,293.545 602.856,293.428C604.692,293.311 606.529,293.252 608.366,293.252C608.835,293.252 609.343,293.262 609.89,293.281C610.437,293.301 610.984,293.36 611.531,293.457C612.098,293.536 612.635,293.653 613.143,293.809C613.671,293.965 614.14,294.171 614.55,294.425C615.547,295.05 616.309,295.89 616.836,296.945C617.383,297.981 617.657,299.085 617.657,300.257ZM610.857,299.788C610.857,299.632 610.847,299.417 610.828,299.143C610.828,298.87 610.808,298.596 610.769,298.323C610.73,298.03 610.672,297.766 610.593,297.531C610.515,297.277 610.408,297.092 610.271,296.975C610.173,296.896 610.007,296.838 609.773,296.799C609.538,296.76 609.284,296.73 609.011,296.711C608.757,296.672 608.503,296.652 608.249,296.652C608.014,296.633 607.848,296.623 607.75,296.623C606.969,296.623 606.197,296.662 605.435,296.74C604.692,296.818 603.95,296.916 603.207,297.033L603.999,302.719C604.429,302.817 604.878,302.885 605.347,302.924C605.816,302.963 606.275,302.983 606.725,302.983C606.92,302.983 607.203,302.973 607.574,302.954C607.965,302.934 608.356,302.895 608.747,302.836C609.157,302.778 609.528,302.7 609.861,302.602C610.212,302.485 610.457,302.338 610.593,302.162C610.652,302.084 610.701,301.938 610.74,301.723C610.779,301.488 610.799,301.254 610.799,301.019C610.818,300.765 610.828,300.521 610.828,300.287C610.847,300.052 610.857,299.886 610.857,299.788Z" style="fill:rgb(71,0,0);"/>
                </g>
            </g>
        </g>
    </g>
</svg>
