<?xml version="1.0" encoding="UTF-8" standalone="no"?>
<!DOCTYPE svg PUBLIC "-//W3C//DTD SVG 1.1//EN" "http://www.w3.org/Graphics/SVG/1.1/DTD/svg11.dtd">
<svg width="100%" height="100%" viewBox="0 0 243 47" version="1.1" xmlns="http://www.w3.org/2000/svg" xmlns:xlink="http://www.w3.org/1999/xlink" xml:space="preserve" xmlns:serif="http://www.serif.com/" style="fill-rule:evenodd;clip-rule:evenodd;stroke-linejoin:round;stroke-miterlimit:2;">
    <g transform="matrix(1,0,0,1,-1026.62,-228.862)">
        <g transform="matrix(6.12323e-17,-1,5.13241,3.14269e-16,0,1920)">
            <g transform="matrix(6.12323e-17,0.19484,-1,1.19305e-17,1868.77,111.579)">
                <g>
                    <g transform="matrix(0.0821561,0,0,0.0736733,727.776,89.4728)">
                        <path d="M-3276,1274C-3276,1274 -3123.42,1237.28 -2797,1237C-2470.58,1236.72 -2169.4,1266.16 -1803,1237C-1436.6,1207.84 -1367.68,1245.94 -1044,1237C-720.318,1228.06 -486,1237 -486,1237L-397,1274L-397,1592L-443,1592L-397,1644L-397,1745C-397,1745 -1283.93,1730.3 -1535,1768C-1786.07,1805.7 -2832.42,1797.18 -2884,1800C-2935.58,1802.82 -3038.91,1770.73 -3097,1768C-3155.09,1765.27 -3198,1745 -3198,1745L-3312,1604C-3312,1604 -3297.14,1515.23 -3222,1514C-3222,1514 -3270.94,1515.32 -3276,1476C-3283.41,1418.44 -3278.49,1311.28 -3276,1274Z" style="fill:rgb(220,115,57);"/>
                    </g>
                    <g transform="matrix(0.0821561,0,0,0.0736733,727.361,89.4728)">
                        <path d="M-481.504,1233.89C-471.354,1251.34 -469.07,1269.84 -481.504,1290.31C-481.504,1290.31 -464.542,1321.39 -486,1352C-486,1352 -482.296,1398.92 -508,1414C-508,1414 -494.915,1470.32 -508,1517C-508,1517 -464.936,1562.81 -486,1599L-460.831,1611L-386,1599L-386,1269.43L-424,1247.46L-481.504,1233.89Z" style="fill:rgb(169,54,24);"/>
                    </g>
                    <g transform="matrix(0.0821561,0,0,0.0736733,85.0315,89.4728)">
                        <path d="M6711,1522L7310,1516C7310,1516 7314.32,1522.46 7316,1504C7316,1504 6718.35,1525.94 6711,1522Z" style="fill:rgb(255,162,87);"/>
                    </g>
                    <g transform="matrix(0.0821561,0,0,0.0736733,85.0315,89.4728)">
                        <path d="M4716,1509L4716,1519L4633,1564L4620,1576L4592,1564L4556,1538L4556,1519L4580,1509L4716,1509Z" style="fill:rgb(208,80,31);"/>
                    </g>
                    <g transform="matrix(0.0821561,0,0,0.0736733,727.361,89.4728)">
                        <path d="M-2383.25,1729.98C-2443.45,1746.54 -2674.4,1731.89 -2714.3,1731.6C-2881.15,1730.37 -2941.14,1775.48 -2955.57,1799.95L-2968.43,1792.05C-2956.63,1772.81 -2901.73,1707.01 -2668.8,1725.04C-2646.01,1726.81 -2436.79,1743 -2383.25,1729.98Z" style="fill:rgb(174,63,7);"/>
                    </g>
                    <g transform="matrix(0.0821561,0,0,0.0736733,727.361,89.4728)">
                        <path d="M-390.034,1353.88L-390.42,1370.67C-536.737,1362.52 -638.959,1336.95 -778.562,1349.42C-931.463,1363.09 -976.504,1384.11 -1196,1389C-965.03,1379.08 -918.927,1354.15 -758.65,1338.66C-642.402,1327.42 -502.858,1350.69 -390.034,1353.88Z" style="fill:rgb(113,21,10);"/>
                    </g>
                    <g transform="matrix(0.0821561,0,0,0.0736733,85.0315,89.4728)">
                        <path d="M4566,1614.1C4566,1614.1 4584.23,1633.84 4612,1673C4639.77,1712.16 4652.95,1737.83 4687,1750C4721.05,1762.17 4821.77,1779.14 4848,1773C4874.23,1766.86 4885,1761 4885,1761C4885,1761 4805.8,1781.16 4755.43,1750C4705.05,1718.84 4664,1673 4664,1673L4641,1614.1L4566,1587L4566,1614.1Z" style="fill:rgb(183,58,30);"/>
                    </g>
                    <g transform="matrix(0.0821561,0,0,0.0736733,727.361,89.4728)">
                        <path d="M-619,1237C-619,1237 -764.084,1262.18 -843,1274C-921.916,1285.82 -1561.35,1218.21 -1661,1237C-1760.65,1255.79 -1982.1,1262.12 -2248,1237C-2248,1237 -1699.78,1216.12 -1617,1214C-1534.22,1211.88 -1131.62,1245.94 -1088,1237C-1044.38,1228.06 -619,1237 -619,1237Z" style="fill:rgb(250,170,85);"/>
                    </g>
                    <g transform="matrix(0.0821561,0,0,0.0736733,727.361,89.4728)">
                        <path d="M-3191,1615C-3191,1615 -3195.26,1619.86 -3050,1615C-2904.74,1610.14 -2892.2,1596.76 -2828,1615C-2763.8,1633.24 -2590.54,1615.24 -2542,1615C-2493.46,1614.76 -1860.55,1610.62 -1805,1615C-1749.45,1619.38 -1625,1592 -1625,1592L-3230,1592L-3191,1615Z" style="fill:rgb(250,170,85);"/>
                    </g>
                    <g transform="matrix(0.0821561,0,0,0.0736733,727.361,89.4728)">
                        <path d="M-2845.31,1536.94C-2932.1,1521.61 -2973.66,1517.64 -3110.7,1536.94C-2988.22,1503.14 -2953.33,1500.75 -2845.31,1536.94Z" style="fill:rgb(250,170,85);"/>
                    </g>
                    <g transform="matrix(0.0821561,0,0,0.0736733,727.361,89.4728)">
                        <path d="M-3275,1547C-3275,1547 -3271.24,1520.31 -3250,1527C-3228.76,1533.69 -3223.49,1561.47 -3193,1560C-3193,1560 -3229.84,1593.27 -3250,1583C-3270.16,1572.73 -3271.56,1560.31 -3275,1547Z" style="fill:rgb(155,44,17);"/>
                    </g>
                    <g transform="matrix(0.0821561,0,0,0.0736733,727.361,89.4728)">
                        <path d="M-3300,1611C-3300,1611 -3280.64,1578.97 -3251,1611C-3221.36,1643.03 -3207.09,1654.25 -3195,1679C-3182.91,1703.75 -3170.08,1739.1 -3124,1751C-3077.92,1762.9 -2994.16,1780.51 -2917,1751L-2892,1751C-2892,1751 -2946.28,1763.51 -2967,1795L-3081,1795L-3195,1766L-3251,1708L-3328,1611L-3300,1611Z" style="fill:rgb(145,41,30);"/>
                    </g>
                    <g transform="matrix(0.0821561,0,0,0.0736733,727.361,89.5465)">
                        <path d="M-2550.69,1663.43L-2543.22,1672.56C-2547.81,1676.54 -2568.72,1694.68 -2611.45,1700.56C-2660.92,1707.35 -2706.87,1692.34 -2719.14,1688.61L-2718.86,1687.39C-2706.87,1690.24 -2660.56,1702.31 -2612.53,1692.64C-2570.45,1684.17 -2551.23,1663.92 -2550.69,1663.43Z" style="fill:rgb(176,58,20);"/>
                    </g>
                    <g transform="matrix(0.0821561,0,0,0.0736733,727.361,89.4728)">
                        <path d="M-390.322,1408.38L-390.605,1432.7C-555.165,1427.73 -610.517,1434.1 -735.139,1460.73C-774.239,1469.09 -821.988,1479.33 -887.689,1486.75C-940.604,1492.72 -871.845,1485.7 -794.029,1467.35C-734.157,1453.23 -686.171,1437.68 -623.291,1426.46C-526.531,1409.17 -428.283,1409.01 -390.322,1408.38Z" style="fill:rgb(71,0,0);"/>
                    </g>
                    <g transform="matrix(0.0821561,0,0,0.0736733,727.361,89.4728)">
                        <path d="M-398.293,1400.7C-624.289,1363.39 -710.326,1353.91 -852.617,1368.71C-951.628,1379.01 -1016.1,1387.21 -1181.08,1389.51C-901.485,1376.65 -870.634,1353.05 -744.837,1348.4C-629.025,1344.11 -483.318,1364.85 -395.303,1376.61L-398.293,1400.7Z" style="fill:rgb(169,54,24);"/>
                    </g>
                    <g transform="matrix(0.0821561,0,0,0.0736733,727.361,89.4728)">
                        <path d="M-387.13,1514.79L-387.176,1530.18C-744.289,1525.66 -744.294,1530.4 -1074.97,1523.44C-1186.79,1521.08 -1027.44,1523.49 -834.863,1520.98C-639.314,1518.43 -639.364,1516.81 -387.13,1514.79Z" style="fill:rgb(73,11,2);"/>
                    </g>
                    <g transform="matrix(0.0821561,0,0,0.0736733,727.361,89.4728)">
                        <path d="M-413.933,1592.97L-415.476,1619.6C-448.994,1617.02 -601.201,1605.33 -834.839,1594.45C-1051.9,1584.35 -1159.07,1584.2 -1186.97,1583.93C-1162.75,1583.31 -1054.9,1579.61 -834.552,1582.24C-741.002,1583.36 -547.943,1586.91 -413.933,1592.97Z" style="fill:rgb(71,0,0);"/>
                    </g>
                    <g transform="matrix(0.0821561,0,0,0.0736733,727.361,89.4728)">
                        <path d="M-1181.13,1769.12L-1189.47,1746.65C-977.157,1654.4 -866.677,1614.59 -718.843,1632.86C-670.954,1638.78 -628.05,1648.29 -517.265,1671.12L-517.455,1672.38C-696.469,1641.66 -773.588,1623.44 -896.666,1654.89C-998.494,1680.92 -1121.64,1740.95 -1181.13,1769.12Z" style="fill:rgb(173,62,17);"/>
                    </g>
                    <g transform="matrix(0.0821561,0,0,0.0736733,727.361,89.4728)">
                        <path d="M-1639.31,1351.31C-1705.2,1338.41 -1760.5,1327.85 -1829.22,1332.42C-1886.79,1336.24 -1922.87,1346.55 -2033.21,1351.22C-1893.41,1332.09 -1877.44,1321.37 -1820.59,1318.22C-1757.17,1314.7 -1689.95,1335.26 -1639.31,1351.31Z" style="fill:rgb(173,62,17);"/>
                    </g>
                    <g transform="matrix(0.0821561,0,0,0.0736733,727.361,89.4728)">
                        <path d="M-2035.64,1262.62L-2035.54,1259.61C-1842.37,1265.67 -1841.88,1270.38 -1696.77,1249.02C-1647.38,1241.75 -1601.14,1233.19 -1530.86,1235.42C-1450.01,1237.99 -1427.7,1246.4 -1239.08,1251.9L-1239.82,1276.2C-1513.73,1260.9 -1521.8,1239.78 -1661.92,1256.93C-1715.66,1263.51 -1774.1,1270.89 -1819.17,1272.51C-1864.73,1274.13 -1879.11,1271.72 -2035.64,1262.62Z" style="fill:rgb(213,82,30);"/>
                    </g>
                    <g transform="matrix(0.0821561,0,0,0.0736733,727.361,89.4728)">
                        <path d="M-3266.04,1415.11L-3265.45,1401.49C-3003.18,1416.87 -2944.97,1394.87 -2767.2,1469.77L-2767.96,1472.05C-2946.28,1401.41 -3003.1,1424.69 -3266.04,1415.11Z" style="fill:rgb(173,62,17);"/>
                    </g>
                    <g transform="matrix(0.0821561,0,0,0.0736733,727.361,89.4728)">
                        <path d="M-2179.28,1552.57L-2187.61,1574.93C-2266.47,1538.42 -2327.89,1520.92 -2461.58,1513.92C-2573.39,1508.06 -2639.58,1508.96 -2747.01,1479.74L-2746.7,1478.29C-2562.25,1520.71 -2449.91,1483.01 -2289.3,1516.87C-2229.01,1529.58 -2180.86,1551.9 -2179.28,1552.57Z" style="fill:rgb(173,62,17);"/>
                    </g>
                    <g transform="matrix(0.0821561,0,0,0.0736733,726.95,89.0308)">
                        <path d="M-2483.24,1369.81L-2484.45,1374.23C-2485.54,1373.89 -2723.06,1289.54 -3021.01,1307.4C-3068.76,1310.27 -3087.23,1313.63 -3092.93,1314.67L-3096.85,1290.75C-3053.87,1284.62 -2931.55,1278.82 -2783.06,1298.41C-2623.23,1319.51 -2514.12,1359.1 -2483.24,1369.81Z" style="fill:rgb(212,104,40);"/>
                    </g>
                    <g transform="matrix(0.0821561,0,0,0.0736733,727.361,89.4728)">
                        <path d="M-1200,1416C-1200,1416 -1017.01,1430.96 -938,1416C-858.989,1401.04 -660.275,1371.99 -604,1376C-604,1376 -760.75,1360.74 -920,1396C-1016.45,1417.35 -1168.06,1418.34 -1200,1416Z" style="fill:rgb(255,189,93);"/>
                    </g>
                    <g transform="matrix(0.0821561,0,0,0.0736733,727.361,89.4728)">
                        <path d="M-1099,1733C-1099,1733 -453.558,1729.28 -406,1725C-406,1725 -375.041,1752.44 -406,1752C-436.959,1751.56 -1160,1752 -1160,1752L-1099,1733Z" style="fill:rgb(109,21,7);"/>
                    </g>
                    <g transform="matrix(0.0821561,0,0,0.0736733,727.361,89.4728)">
                        <path d="M-386,1653C-386,1653 -507.711,1668.08 -548,1693C-588.289,1717.92 -637.989,1710.52 -681,1703C-724.011,1695.49 -800.753,1672.38 -828,1703C-855.247,1733.62 -902.871,1721.11 -920,1724C-937.129,1726.89 -1083.85,1722.67 -1112,1736C-1140.15,1749.33 -728,1736 -728,1736L-398,1736L-386,1653Z" style="fill:rgb(188,68,33);"/>
                    </g>
                    <g transform="matrix(0.0821561,0,0,0.0736733,727.361,89.4728)">
                        <path d="M-390.359,1294.91L-391.665,1305.58C-405.655,1303.06 -479.857,1288.73 -513.974,1286.01C-547.111,1283.37 -571.039,1287.14 -581.814,1288.39C-571.073,1286.54 -547.264,1281.41 -513.817,1282.19C-479.398,1282.99 -404.642,1293.15 -390.359,1294.91Z" style="fill:rgb(100,11,3);"/>
                    </g>
                    <g transform="matrix(0.0821561,0,0,0.0736733,727.361,89.4728)">
                        <path d="M-2542,1753C-2542,1753 -2530.35,1778.7 -2520,1788C-2509.65,1797.3 -2873,1788 -2873,1788C-2873,1788 -2579.14,1750.58 -2542,1753Z" style="fill:rgb(251,167,77);"/>
                    </g>
                    <g transform="matrix(0.0821561,0,0,0.0736733,727.361,89.4728)">
                        <path d="M-2494.62,1798.54L-2665.28,1803.42C-2715.75,1804.09 -2895.12,1801.78 -2915.11,1801.53C-2844.68,1796.67 -2704.84,1786.5 -2646.81,1784.84L-2495.04,1780.51L-2494.62,1798.54Z" style="fill:rgb(173,62,17);"/>
                    </g>
                    <g transform="matrix(0.0821561,0,0,0.0736733,727.361,89.4728)">
                        <path d="M-2916,1770C-2916,1770 -2847.78,1760.95 -2784,1754C-2720.22,1747.05 -2494,1733 -2494,1733L-2541,1733C-2541,1733 -2690.88,1736.9 -2757,1733C-2823.12,1729.1 -2896.41,1751.07 -2916,1770Z" style="fill:rgb(251,167,77);"/>
                    </g>
                    <g transform="matrix(0.0821561,0,0,0.0736733,727.361,89.4728)">
                        <path d="M-3172,1686C-3172,1686 -2972.92,1643.7 -2804,1677L-2722,1686C-2722,1686 -2885.68,1628.41 -2965,1640C-3044.32,1651.59 -3161.85,1660 -3172,1686Z" style="fill:rgb(255,162,87);"/>
                    </g>
                    <g transform="matrix(0.0821561,0,0,0.0736733,727.361,89.4728)">
                        <path d="M-3199.2,1690.92L-3196.81,1675C-3187.2,1677.57 -3114.26,1697.09 -3079.64,1718.47C-3067.34,1726.08 -3083.58,1716.59 -3104.94,1710.16C-3143.07,1698.66 -3183.93,1693.14 -3199.2,1690.92Z" style="fill:rgb(144,40,31);"/>
                    </g>
                    <g transform="matrix(0.0821561,0,0,0.0736733,727.607,89.4728)">
                        <path d="M-2810.2,1667.87C-2833.05,1663.84 -2877.15,1652.17 -3027.59,1659.87C-3125.3,1664.87 -3169.65,1677.35 -3174.85,1679.97C-3175.22,1680.16 -3175.77,1679.79 -3175.86,1679.86C-3176.14,1680.07 -3176.85,1681.58 -3176.87,1679.92C-3176.92,1675.27 -3107.24,1646.84 -3029.17,1637.31C-2944.09,1626.92 -2871.37,1643.24 -2809.8,1666.13L-2810.2,1667.87Z" style="fill:rgb(255,162,87);"/>
                    </g>
                    <g transform="matrix(0.0821561,0,0,0.0736733,727.361,89.4728)">
                        <path d="M-3197.78,1688.56L-3204.27,1665.4C-3103.46,1635.04 -2980.81,1622.09 -2877.22,1642.43C-2744.3,1668.51 -2731.87,1690.5 -2663.95,1696.73L-2664.05,1699.27C-2732.73,1695.72 -2745.52,1674.28 -2878.78,1653.57C-3035.83,1629.18 -3194.72,1687.52 -3197.78,1688.56Z" style="fill:rgb(144,40,31);"/>
                    </g>
                    <g transform="matrix(0.0821561,0,0,0.0736733,727.361,89.4728)">
                        <path d="M-3262.41,1616.31L-3268.25,1592.88C-3193.9,1571.01 -3186.7,1556.35 -3128.47,1527.73C-3072.75,1500.35 -3016.61,1494.96 -2998.81,1492.61L-2998.15,1498.13C-3029.77,1504.43 -3075.99,1512.75 -3129.68,1544.48C-3181.16,1574.9 -3189.95,1589.83 -3262.41,1616.31Z" style="fill:rgb(110,16,4);"/>
                    </g>
                    <g transform="matrix(0.0821561,0,0,0.0736733,725.307,89.0308)">
                        <path d="M-3050,1425C-3050,1425 -2982.93,1439.66 -2942,1453C-2901.07,1466.34 -2615.13,1539.23 -2566,1542C-2516.87,1544.77 -2513,1565.37 -2493,1579L-2478,1595L-2627,1595L-2648,1579C-2648,1579 -2851.18,1488.35 -2918,1480C-2984.82,1471.65 -3090.16,1436.91 -3090,1437C-3089.84,1437.09 -3050,1425 -3050,1425Z" style="fill:rgb(208,90,40);"/>
                    </g>
                    <g transform="matrix(0.0821561,0,0,0.0736733,727.361,89.4728)">
                        <path d="M-2996,1250C-2996,1250 -2380.34,1252.7 -2353,1250C-2325.66,1247.3 -2276,1250 -2276,1250C-2276,1250 -2518.22,1286.03 -2571,1285C-2623.78,1283.98 -3175.15,1265.67 -3212,1264L-2996,1250Z" style="fill:rgb(250,170,85);"/>
                    </g>
                    <g transform="matrix(0.0821561,0,0,0.0736733,727.361,89.4728)">
                        <path d="M-2489,1367C-2489,1367 -2563.6,1352.81 -2612,1353C-2660.4,1353.19 -2776.88,1333.53 -2818,1329C-2859.12,1324.48 -2929.5,1309.83 -2975,1306C-3013.53,1302.75 -3091,1306 -3091,1306C-3091,1306 -2830.56,1263.92 -2489,1367Z" style="fill:rgb(250,170,85);"/>
                    </g>
                    <g transform="matrix(0.0821561,0,0,0.0736733,727.361,89.4728)">
                        <path d="M-3190,1395C-3190,1395 -3046.11,1397.55 -2922,1406.68C-2797.89,1415.81 -2654,1419 -2654,1419C-2654,1419 -2677.48,1410.2 -2727,1395C-2806.04,1370.74 -2887.23,1369.88 -2929,1368C-2970.77,1366.12 -3142.41,1376.91 -3190,1395Z" style="fill:rgb(219,115,54);"/>
                    </g>
                    <g transform="matrix(0.0821561,0,0,0.0736733,727.361,89.4728)">
                        <path d="M-3266.56,1418.41L-3272.33,1394.95C-3190.59,1371.91 -3062.35,1335.66 -2925.99,1343.13C-2777.41,1351.27 -2673.14,1408.16 -2625.39,1434.48L-2626.4,1436.77C-2673.19,1412.88 -2776.73,1360.35 -2921.46,1356.1C-3057.53,1352.1 -3184.26,1392.31 -3266.56,1418.41Z" style="fill:rgb(173,62,17);"/>
                    </g>
                    <g transform="matrix(0.0821561,0,0,0.0736733,727.361,89.4728)">
                        <path d="M-2877,1513C-2877,1513 -2795.69,1543.97 -2767,1553C-2738.31,1562.03 -2683.99,1566.36 -2668,1571C-2668,1571 -2783.7,1534.3 -2877,1513Z" style="fill:rgb(250,170,85);"/>
                    </g>
                    <g transform="matrix(0.0821561,0,0,0.0736733,727.361,89.4728)">
                        <path d="M-1326.14,1311.38L-1329.52,1287.35C-1241.65,1275.01 -1189.01,1282.91 -1094.4,1289.83C-988.285,1297.59 -932.754,1290.12 -885.12,1283.4C-951.748,1296.53 -1001.63,1303.42 -1107.89,1301.08C-1194.1,1299.18 -1245.26,1295.48 -1326.14,1311.38Z" style="fill:rgb(255,189,93);"/>
                    </g>
                    <g transform="matrix(0.0821561,0,0,0.0736733,727.361,89.4728)">
                        <path d="M-1150,1616C-1150,1616 -838.567,1612.35 -774.546,1605.37C-710.526,1598.4 -446.89,1629.33 -403,1652C-403,1652 -419.243,1617.72 -439.312,1616C-771.038,1587.59 -1162,1590 -1162,1590L-1150,1616Z" style="fill:rgb(253,183,98);"/>
                    </g>
                    <g transform="matrix(0.0821561,0,0,0.0736733,727.361,89.4728)">
                        <path d="M-520,1414L-386,1414L-386,1354C-386,1354 -383.472,1412.66 -520,1414Z" style="fill:rgb(113,21,10);"/>
                    </g>
                    <g transform="matrix(0.0821561,0,0,0.0736733,727.361,89.4728)">
                        <path d="M-1137,1494C-1137,1494 -1135.77,1506.74 -1116,1506C-1096.23,1505.26 -1095,1494 -1095,1494C-1095,1494 -1111.22,1481.73 -1137,1494Z" style="fill:rgb(215,100,43);"/>
                    </g>
                    <g transform="matrix(0.0821561,0,0,0.0736733,727.361,89.4728)">
                        <path d="M-1151,1668C-1151,1668 -1078.24,1669.75 -999,1647C-919.762,1624.25 -836.736,1606.89 -788,1607L-1151,1607L-1151,1668Z" style="fill:rgb(237,144,67);"/>
                    </g>
                    <g transform="matrix(0.0821561,0,0,0.0736733,727.361,89.4728)">
                        <path d="M-1020,1698C-1020,1698 -700.22,1623.01 -570,1668C-570,1668 -792.52,1603.35 -1020,1698Z" style="fill:rgb(237,144,67);"/>
                    </g>
                    <g transform="matrix(0.0821561,0,0,0.0736733,727.361,89.4728)">
                        <path d="M-739,1292C-739,1292 -776.795,1332.29 -875,1325C-912.601,1322.21 -970.62,1289.22 -860.117,1285.05C-780.389,1282.04 -739,1292 -739,1292Z" style="fill:rgb(218,109,42);"/>
                    </g>
                    <g transform="matrix(0.0821561,0,0,0.0736733,727.361,89.4728)">
                        <path d="M-751,1292C-751,1292 -854.439,1272.34 -875,1292C-895.561,1311.66 -854.1,1308.38 -835,1308C-815.9,1307.62 -751,1292 -751,1292Z" style="fill:rgb(206,89,45);"/>
                    </g>
                    <g transform="matrix(0.0821561,0,0,0.0736733,727.114,89.2518)">
                        <path d="M-3295.79,1628.24L-3304.3,1605.83C-3239.16,1577.87 -3211.87,1579.25 -3180.83,1578.64C-3006.52,1575.21 -2414.88,1590.73 -1886.38,1590.33C-1656.85,1590.15 -1600.4,1609.05 -1599.91,1595.52L-1599.91,1600.52C-1679.4,1593.07 -1865.17,1595.12 -1952.47,1595.52C-2272.46,1597 -3090.86,1598.43 -3204.41,1603.17C-3238.61,1604.6 -3273.36,1618.61 -3295.79,1628.24Z" style="fill:rgb(71,0,0);"/>
                    </g>
                    <g transform="matrix(0.0821561,0,0,0.0736733,727.361,89.4728)">
                        <path d="M-3281.41,1505.55L-3274.57,1482.45C-3200.17,1509.63 -3108.84,1501.02 -3094.43,1499.66C-3026.95,1493.3 -3001.42,1483.37 -2946.49,1490.94C-2882.01,1499.82 -2771.82,1535.4 -2665.88,1569.5L-2666.12,1570.5C-2950.3,1490.43 -2958.04,1494.72 -3054.41,1511.1C-3065.06,1512.91 -3184.07,1537.12 -3281.41,1505.55Z" style="fill:rgb(71,0,0);"/>
                    </g>
                    <g transform="matrix(0.995898,0,0,1,-11.3706,113.519)">
                        <path d="M702.228,65.114L711,68L710.97,95.179L709.895,95.179L710.94,96.209L710.91,106.477C710.91,106.477 636.009,106.082 620,108C603.991,109.918 521.887,111.419 504.429,110.436C502.344,110.806 492.909,109.134 491.779,108.772C490.296,108.297 481.67,108.237 477.631,106.034L467.233,94.662C467.233,94.662 468.229,88.653 471.427,87.251C471.427,87.251 470.145,86.933 470,81C469.855,75.067 470,68 470,68C470,68 493.66,63.3 553,65C553,65 581.312,66.063 591.951,64.886C611.342,63.486 620.519,64.327 633.403,64.801C647.738,65.742 680.499,63.891 702.228,65.114ZM476.753,87.505C470.593,87.605 469.374,94.135 469.374,94.135L478.74,104.523C478.74,104.523 482.265,106.016 487.037,106.217C491.81,106.419 500.299,108.782 504.537,108.575C506.089,108.499 518.613,108.535 534.874,108.475C562.995,108.37 602.296,107.978 615.365,106.217C635.992,103.44 708.859,104.523 708.859,104.523L708.859,97.082L705.08,93.251L708.859,93.251L708.859,69.823L701.547,67.097C701.547,67.097 682.296,66.438 655.704,67.097C629.111,67.756 623.45,64.949 593.347,67.097C563.245,69.245 538.502,67.077 511.684,67.097C484.867,67.117 472.331,69.823 472.331,69.823C472.127,72.569 471.723,80.465 472.331,84.705C472.732,87.5 476.49,87.508 476.753,87.505Z" style="fill:rgb(71,0,0);"/>
                    </g>
                    <g transform="matrix(0.0821561,0,0,0.0736733,85.0315,89.4728)">
                        <path d="M4564,1594C4984.5,1631.06 5574.27,1618.76 6073,1625L6165.83,1594C6539.5,1580.96 6941.42,1583.67 7357,1594L7431,1594L7431,1753C7431,1753 6791.53,1746.81 6546,1753C6220.91,1761.2 6057.08,1813.95 5963,1815C5757.86,1817.3 4858,1815 4858,1815L4625,1753L4504,1594L4564,1594Z" style="fill:rgb(100,22,12);fill-opacity:0.2;"/>
                    </g>
                </g>
            </g>
            <g transform="matrix(1,4.62223e-33,0,0.19484,1238.31,133.716)">
                <g transform="matrix(2.77229e-17,0.45275,-0.45275,2.77229e-17,564.219,133.964)">
                    <path d="M545.078,313.908C545.102,314.025 545.127,314.141 545.151,314.257L545.791,317.307L533.22,319.21L532.465,316.802C531.976,315.243 531.486,313.699 530.995,312.162L530.992,312.154C530.726,311.305 530.464,310.455 530.206,309.606C530.206,309.606 523.413,309.854 523.413,309.854L521.967,316.058L509.346,316.058L509.608,312.872C510.038,307.65 510.484,302.459 510.944,297.298C511.404,292.151 511.848,286.988 512.277,281.81L512.466,279.525L514.728,279.148C516.988,278.772 519.234,278.457 521.466,278.206C523.782,277.949 526.116,277.82 528.464,277.82C531.228,277.82 533.991,277.866 536.754,277.96L539.195,278.042L539.566,280.455C540.045,283.569 540.509,286.683 540.959,289.797C541.273,288.617 541.659,287.469 542.124,286.336L542.137,286.306C542.746,284.909 543.482,283.62 544.369,282.399L544.399,282.362C544.633,282.06 544.935,281.691 545.303,281.255C545.913,280.534 546.543,280.031 547.134,279.709C548.135,279.152 549.247,278.685 550.482,278.311L550.494,278.308C551.662,277.964 552.864,277.705 554.088,277.533C555.277,277.336 556.45,277.204 557.607,277.137C558.785,277.039 559.866,276.992 560.85,276.992C562.71,276.992 564.571,277.105 566.431,277.333C568.351,277.536 570.221,277.908 572.04,278.447L572.936,278.713L572.901,277.505L575.971,277.544C578.376,277.574 580.766,277.59 583.14,277.59C585.57,277.559 588.014,277.544 590.474,277.544C592.386,277.544 594.282,277.591 596.139,277.683C598.026,277.745 599.913,277.823 601.801,277.915L604.378,278.042L604.543,280.04C604.603,279.985 604.663,279.931 604.723,279.878C605.704,278.98 606.901,278.234 608.349,277.654L608.369,277.647C610.419,276.861 612.606,276.312 614.931,276.004C617.18,275.711 619.333,275.565 621.387,275.565C623.781,275.565 626.142,275.711 628.471,276.002C630.745,276.286 633.019,276.649 635.294,277.092L637.762,277.572L637.585,282.702L637.585,285.274C637.585,286.067 637.626,286.873 637.708,287.693L637.726,287.866C637.786,287.4 637.866,286.944 637.963,286.499C638.237,285.207 638.672,284.014 639.278,282.882L639.298,282.847C639.947,281.711 640.757,280.717 641.71,279.878C642.691,278.98 643.888,278.234 645.336,277.654L645.356,277.647C647.406,276.861 649.592,276.312 651.918,276.004C654.167,275.711 656.32,275.565 658.374,275.565C660.768,275.565 663.129,275.711 665.458,276.002C667.732,276.286 670.006,276.649 672.281,277.092L674.748,277.572L674.686,279.381L675.789,279.34C679.118,279.218 682.417,279.081 685.685,278.928C688.655,278.763 691.65,278.573 694.67,278.358L694.474,276.451L712.916,276.901L712.922,276.901C714.053,276.933 715.489,277.044 717.208,277.234C718.928,277.394 720.679,277.617 722.454,277.902C724.303,278.194 726.038,278.551 727.646,278.969C729.506,279.444 730.959,279.993 732.018,280.577C732.116,280.63 732.213,280.686 732.308,280.745L732.247,279.449L735.222,279.34C738.551,279.218 741.85,279.081 745.118,278.928C748.411,278.745 751.734,278.532 755.087,278.288L755.523,278.256L755.49,277.451L758.514,277.406C760.539,277.376 762.533,277.315 764.496,277.225C766.462,277.134 768.442,277.013 770.438,276.862L774.115,276.583L773.573,280.231C773.239,282.481 772.919,284.746 772.615,287.027C772.347,289.237 772.138,291.462 771.988,293.703C771.867,295.611 771.761,297.519 771.67,299.427C771.641,300.343 771.611,301.262 771.582,302.185C772.571,302.2 773.552,302.208 774.526,302.208C776.55,302.208 778.574,302.239 780.598,302.301L783.232,302.382L783.418,304.698L783.687,304.694C783.575,302.867 783.45,301.051 783.312,299.24L783.311,299.224C783.18,297.204 783.04,295.176 782.892,293.14L778.457,292.579L778.339,290.108C778.278,288.821 778.216,287.549 778.153,286.255L778.152,286.219C778.122,284.954 778.077,283.688 778.017,282.423L777.875,279.449L780.85,279.34C784.18,279.218 787.479,279.081 790.747,278.928C794.039,278.745 797.362,278.532 800.715,278.288L804.145,278.038L804.104,278.541L804.568,278.558C807.152,278.65 809.72,278.758 812.273,278.881C814.846,278.974 817.45,279.114 820.115,279.302L820.145,279.304C820.806,279.365 821.769,279.44 823.028,279.53C824.394,279.625 825.807,279.767 827.25,279.955C828.748,280.118 830.148,280.331 831.451,280.591C833.209,280.936 834.451,281.434 835.283,281.989L835.341,282.032C836.322,282.757 837.211,283.726 837.979,284.964C838.682,286.095 839.183,287.212 839.498,288.305C839.554,288.493 839.609,288.717 839.659,288.977C839.864,286.591 840.065,284.202 840.264,281.81L840.453,279.525L842.714,279.148C844.975,278.772 847.221,278.457 849.452,278.206C851.769,277.949 854.102,277.82 856.451,277.82C859.214,277.82 861.977,277.866 864.741,277.96L867.181,278.042L867.552,280.455C868.044,283.649 868.52,286.843 868.98,290.037C869.469,293.184 869.973,296.346 870.497,299.548L870.5,299.573C870.864,302.055 871.257,304.507 871.681,306.929C871.743,307.259 871.805,307.589 871.868,307.92C871.588,304.763 871.318,301.622 871.057,298.495C870.594,292.935 870.238,287.313 869.991,281.629L869.853,278.444L873.039,278.558C875.622,278.65 878.19,278.758 880.743,278.881C883.316,278.974 885.921,279.114 888.585,279.302L888.615,279.304C889.277,279.365 890.24,279.44 891.498,279.53C892.864,279.625 894.277,279.767 895.72,279.955C897.218,280.118 898.618,280.331 899.921,280.591C901.68,280.936 902.922,281.434 903.754,281.989L903.811,282.032C904.63,282.636 905.383,283.41 906.056,284.368C906.019,283.109 905.983,281.844 905.946,280.574L905.857,277.505L908.927,277.544C911.332,277.574 913.722,277.59 916.097,277.59C918.526,277.559 920.97,277.544 923.43,277.544C925.342,277.544 927.238,277.591 929.095,277.683C930.982,277.745 932.869,277.823 934.757,277.915L937.334,278.042L938.304,289.763L935.268,289.918C934.123,289.976 932.98,290.037 931.839,290.1L931.912,290.598C932.075,291.71 932.19,292.807 932.257,293.887C932.354,294.972 932.403,296.074 932.403,297.192C932.403,297.653 932.388,298.13 932.357,298.622L932.357,302.325L921.626,304.248C921.626,304.248 921.644,304.394 921.644,304.394C922.982,304.276 924.315,304.138 925.643,303.979C928.007,303.668 930.386,303.404 932.781,303.186L935.575,302.932L935.964,305.711C936.179,307.245 936.394,308.795 936.609,310.36C936.806,311.77 937.088,313.152 937.455,314.506L938.468,318.248L934.591,318.221C930.252,318.19 925.944,318.19 921.666,318.221C917.361,318.282 913.026,318.313 908.66,318.313L905.638,318.313L905.716,315.293C905.762,313.463 905.813,311.638 905.868,309.816C905.63,310.085 905.366,310.354 905.07,310.627L905.022,310.668C904.52,311.092 903.908,311.52 903.182,311.945C902.832,312.15 902.095,312.471 900.888,312.796L897.852,313.497C896.667,313.777 895.327,314.073 893.833,314.385C892.381,314.693 890.884,315.002 889.317,315.315L889.295,315.32C887.81,315.592 886.326,315.88 884.819,316.188L884.796,316.192C883.336,316.466 881.998,316.724 880.753,316.973L880.724,316.978C879.565,317.186 878.57,317.379 877.698,317.566L877.657,317.574C876.724,317.746 876.101,317.846 875.789,317.881L872.809,318.212L872.74,317.465L861.206,319.21L860.451,316.802C859.962,315.243 859.473,313.699 858.981,312.162L858.979,312.154C858.712,311.305 858.45,310.455 858.192,309.606C858.192,309.606 851.399,309.854 851.399,309.854L849.953,316.058L837.332,316.058L837.595,312.872C837.695,311.646 837.797,310.422 837.9,309.2C837.544,309.678 837.121,310.146 836.6,310.627L836.551,310.668C836.05,311.092 835.438,311.52 834.711,311.945C834.362,312.15 833.624,312.471 832.418,312.796L829.382,313.497C828.197,313.777 826.857,314.073 825.362,314.385C823.911,314.693 822.413,315.002 820.847,315.315L820.824,315.32C819.34,315.592 817.856,315.88 816.348,316.188L816.325,316.192C814.866,316.466 813.527,316.724 812.282,316.973L812.254,316.978C811.095,317.186 810.099,317.379 809.227,317.566L809.187,317.574C808.253,317.746 807.63,317.846 807.319,317.881L804.339,318.212L804.061,315.226C803.779,312.186 803.506,309.16 803.241,306.147L803.223,306.414C803.166,307.237 803.138,308.074 803.138,308.926L803.138,311.687C803.138,312.394 803.151,313.101 803.182,313.84C803.234,314.452 803.321,315.053 803.444,315.642L804.17,319.127L781.096,319.513L781.096,316.811C777.547,317.078 774.012,317.331 770.493,317.57C766.895,317.816 763.265,318.047 759.605,318.262L758.376,318.334L758.542,319.127L735.468,319.513L735.468,316.518C735.468,315.037 735.453,313.585 735.423,312.163C735.407,311.435 735.384,310.703 735.354,309.967C735.169,310.373 734.908,310.836 734.545,311.349L734.52,311.383C734.091,311.955 733.592,312.546 733.02,313.153C732.486,313.721 731.95,314.256 731.414,314.759C730.85,315.285 730.412,315.658 730.094,315.896L730.077,315.909C729.65,316.22 729.222,316.493 728.806,316.722C728.394,316.966 727.944,317.192 727.516,317.369C727.084,317.561 726.163,317.796 724.722,317.892C723.811,317.955 722.839,318.002 721.826,318.033C720.78,318.096 719.795,318.128 718.892,318.128C717.968,318.16 717.346,318.175 717.025,318.175C714.539,318.175 712.085,318.129 709.661,318.036C707.251,317.974 704.809,317.881 702.337,317.757L699.459,317.613L699.54,314.733C699.601,312.569 699.647,310.42 699.678,308.286C699.708,306.122 699.723,303.942 699.723,301.748C699.723,299.324 699.649,296.916 699.499,294.523C699.398,292.91 699.291,291.297 699.177,289.683L698.64,289.635C698.632,290.576 698.612,291.517 698.581,292.459L698.482,295.41L693.387,295.226L693.382,295.395L693.382,298.527L693.382,302.309C693.39,302.614 693.398,302.921 693.405,303.23L698.374,303.327L698.161,306.414C698.104,307.237 698.076,308.074 698.076,308.926L698.076,311.687C698.076,312.394 698.09,313.101 698.12,313.84C698.172,314.452 698.26,315.053 698.382,315.642L699.108,319.127L676.035,319.513L676.035,316.518C676.035,315.418 676.026,314.334 676.01,313.267C675.138,314.091 674.054,314.797 672.741,315.36C671.489,315.896 669.919,316.339 667.998,316.666L667.971,316.67C666.27,316.926 664.505,317.119 662.65,317.249L662.624,317.251C660.841,317.345 659.09,317.407 657.369,317.438C655.661,317.469 654.232,317.485 653.082,317.485C651.118,317.485 649.169,317.454 647.234,317.391C645.334,317.329 643.401,317.235 641.438,317.111L638.597,316.93L638.681,314.085C638.686,313.911 638.691,313.737 638.695,313.563C637.884,314.261 636.907,314.866 635.754,315.36C634.502,315.896 632.933,316.339 631.011,316.666L630.984,316.67C629.283,316.926 627.518,317.119 625.663,317.249L625.637,317.251C623.854,317.345 622.103,317.407 620.382,317.438C618.674,317.469 617.245,317.485 616.096,317.485C614.131,317.485 612.182,317.454 610.248,317.391C608.594,317.337 606.917,317.259 605.217,317.158L605.512,318.248L601.635,318.221C597.296,318.19 592.988,318.19 588.71,318.221C584.405,318.282 580.07,318.313 575.703,318.313L572.682,318.313L572.759,315.293C572.766,315.019 572.774,314.746 572.781,314.473C571.899,314.639 571.024,314.8 570.154,314.955C568.729,315.208 567.289,315.429 565.824,315.62L565.817,315.621C564.324,315.808 562.832,315.979 561.339,316.135C559.765,316.299 558.191,316.38 556.616,316.38C556.162,316.38 555.497,316.365 554.621,316.332C553.73,316.299 552.807,316.234 551.85,316.135C550.909,316.037 550.018,315.924 549.12,315.786L549.066,315.775C547.838,315.539 546.957,315.206 546.34,314.846L546.292,314.816C545.871,314.547 545.466,314.245 545.078,313.908ZM637.855,293.545L628.7,293.737C628.957,293.781 629.212,293.826 629.463,293.873C630.933,294.113 632.215,294.407 633.35,294.762L633.391,294.776C634.637,295.206 635.781,295.884 636.815,296.821C637.789,297.648 638.631,298.626 639.337,299.759C639.778,300.447 640.157,301.166 640.469,301.907L641.427,301.933L642.519,301.962C641.701,301.51 640.956,300.856 640.286,299.963L640.248,299.906C639.59,298.939 639.045,297.858 638.6,296.606L638.584,296.552C638.274,295.56 638.033,294.568 637.855,293.545ZM675.224,292.81L675.299,293.535L665.687,293.737C665.944,293.781 666.199,293.826 666.45,293.873C667.92,294.113 669.202,294.407 670.337,294.762L670.378,294.776C671.624,295.206 672.768,295.884 673.802,296.821C674.776,297.648 675.618,298.626 676.324,299.759C677.004,300.82 677.535,301.955 677.906,303.13C678.092,303.656 678.238,304.179 678.346,304.698L678.625,304.694C678.513,302.867 678.389,301.051 678.251,299.24L678.25,299.224C678.118,297.204 677.978,295.176 677.831,293.14L675.224,292.81ZM890.088,293.761C889.987,293.745 889.874,293.729 889.765,293.717L889.711,293.709C888.987,293.602 888.195,293.536 887.29,293.508L887.244,293.505C886.328,293.448 885.469,293.419 884.615,293.419L884.562,293.417L884.373,293.41C884.492,294.703 884.602,295.987 884.702,297.262C884.827,298.597 884.941,299.948 885.045,301.315C885.881,301.19 886.729,301.046 887.604,300.88C888.584,300.666 889.5,300.415 890.373,300.115C890.717,299.988 891.004,299.889 891.199,299.71C891.232,299.511 891.247,299.301 891.247,299.079C891.247,298.819 891.235,298.548 891.212,298.265L891.201,298.143L891.201,298.02C891.201,297.737 891.192,297.475 891.167,297.198C891.119,296.834 891.048,296.458 890.958,296.072L890.935,295.978L890.919,295.882C890.86,295.524 890.772,295.185 890.643,294.84L890.633,294.813C890.528,294.516 890.4,294.244 890.218,293.961L890.195,293.922C890.161,293.866 890.126,293.813 890.088,293.761ZM735.679,304.731L738.058,304.694C737.946,302.867 737.822,301.051 737.684,299.24L737.683,299.224C737.551,297.204 737.411,295.176 737.264,293.14L737.062,293.114C737.042,293.449 737.011,293.772 736.97,294.084C736.887,294.702 736.745,295.341 736.523,296.051L736.506,296.102C736.183,297.015 735.602,297.925 734.654,298.817L734.619,298.848C734.453,298.994 734.283,299.139 734.107,299.282L734.292,299.47L734.341,299.543L734.386,299.62C734.721,300.194 735.004,300.9 735.193,301.722C735.385,302.389 735.522,303.113 735.599,303.878C735.629,304.162 735.655,304.447 735.679,304.731ZM712.37,293.39C713.254,293.336 714.18,293.272 715.147,293.197C716.31,293.11 717.39,293.008 718.42,292.887C718.58,292.862 718.749,292.83 718.905,292.799C718.939,292.533 718.958,292.279 718.958,292.038C718.958,291.784 718.944,291.466 718.918,291.078L718.917,291.072C718.894,290.701 718.848,290.329 718.778,289.958C718.749,289.806 718.717,289.658 718.68,289.514C718.588,289.51 718.497,289.508 718.405,289.508L717.807,289.508C716.394,289.508 714.995,289.592 713.58,289.766L713.551,289.769C713.033,289.821 712.516,289.88 711.998,289.944C712.06,290.512 712.12,291.08 712.178,291.647C712.238,292.228 712.301,292.809 712.37,293.39ZM756.074,295.344L752.821,295.226L752.816,295.395L752.816,298.527L752.816,302.309C752.823,302.614 752.831,302.921 752.838,303.23L756.214,303.296C756.18,301.503 756.148,299.714 756.12,297.929C756.106,297.068 756.091,296.206 756.074,295.344ZM601.241,303.057L601.132,301.845L604.44,301.933L605.532,301.962C604.714,301.51 603.969,300.856 603.299,299.963L603.261,299.906C602.603,298.939 602.058,297.858 601.614,296.606L601.597,296.552C601.246,295.429 600.983,294.306 600.801,293.139L600.795,293.094C600.655,291.968 600.588,291.018 600.588,290.244C600.588,290.165 600.589,290.086 600.59,290.008C600.02,290.038 599.451,290.069 598.883,290.1L598.956,290.598C599.119,291.71 599.234,292.807 599.301,293.887C599.398,294.972 599.447,296.074 599.447,297.192C599.447,297.653 599.432,298.13 599.401,298.622L599.401,302.325L588.67,304.248C588.67,304.248 588.688,304.394 588.688,304.394C590.026,304.276 591.359,304.138 592.687,303.979C595.051,303.668 597.43,303.404 599.825,303.186L601.241,303.057ZM853.583,297.51L855.306,297.465C855.275,297.291 855.243,297.115 855.21,296.937L855.208,296.928C855.122,296.444 855.025,295.995 854.916,295.582L854.048,295.582C854.038,295.617 854.028,295.653 854.018,295.689C853.899,296.195 853.766,296.743 853.626,297.298C853.612,297.369 853.597,297.44 853.583,297.51ZM802.338,295.367L798.449,295.226L798.444,295.395L798.444,298.527L798.444,302.309C798.452,302.614 798.459,302.921 798.467,303.23L802.995,303.319C802.856,301.707 802.72,300.099 802.586,298.495C802.5,297.454 802.417,296.412 802.338,295.367ZM573.256,296.255L570.116,295.069C568.935,294.623 567.701,294.309 566.386,294.121L566.357,294.117C565.014,293.897 563.684,293.787 562.368,293.787C562.132,293.787 561.791,293.816 561.342,293.863L561.266,293.871L561.189,293.875C560.668,293.902 560.078,293.958 559.36,294.048L559.3,294.053C558.631,294.109 557.936,294.192 557.212,294.304C556.558,294.408 555.943,294.539 555.367,294.696C555.013,294.792 554.687,294.898 554.387,295.018C554.344,295.329 554.301,295.655 554.258,295.997C554.231,296.424 554.204,296.84 554.178,297.243L554.178,298.251C554.178,298.49 554.208,298.97 554.262,299.689C554.321,300.496 554.396,301.362 554.486,302.287C554.534,302.77 554.587,303.23 554.645,303.672C555.823,303.649 557.068,303.579 558.379,303.462C560.042,303.313 561.72,303.121 563.412,302.883C565.169,302.611 566.897,302.338 568.594,302.065C570.235,301.772 571.763,301.493 573.179,301.228C573.218,299.577 573.243,297.92 573.256,296.255ZM821.617,293.761C821.517,293.745 821.403,293.729 821.294,293.717L821.241,293.709C820.516,293.602 819.725,293.536 818.82,293.508L818.774,293.505C817.858,293.448 816.999,293.419 816.144,293.419L816.092,293.417L815.903,293.41C816.021,294.703 816.131,295.987 816.232,297.262C816.357,298.597 816.471,299.948 816.575,301.315C817.411,301.19 818.259,301.046 819.133,300.88C820.113,300.666 821.029,300.415 821.903,300.115C822.247,299.988 822.533,299.889 822.729,299.71C822.762,299.511 822.777,299.301 822.777,299.079C822.777,298.819 822.765,298.548 822.741,298.265L822.731,298.143L822.731,298.02C822.731,297.737 822.722,297.475 822.697,297.198C822.648,296.834 822.578,296.458 822.487,296.072L822.465,295.978L822.449,295.882C822.389,295.524 822.302,295.185 822.172,294.84L822.163,294.813C822.058,294.516 821.929,294.244 821.748,293.961L821.724,293.922C821.691,293.866 821.655,293.813 821.617,293.761ZM712.37,306.642C713.254,306.606 714.18,306.563 715.147,306.514C716.31,306.455 717.39,306.388 718.42,306.306C718.58,306.29 718.749,306.269 718.905,306.248C718.939,306.071 718.958,305.901 718.958,305.741C718.958,305.571 718.944,305.359 718.918,305.1L718.917,305.096C718.894,304.848 718.848,304.6 718.778,304.353C718.749,304.251 718.717,304.152 718.68,304.056C718.588,304.054 718.497,304.052 718.405,304.052L717.807,304.052C716.394,304.052 714.995,304.109 713.58,304.224L713.551,304.226C713.033,304.261 712.516,304.301 711.998,304.343C712.06,304.722 712.12,305.101 712.178,305.48C712.238,305.867 712.301,306.255 712.37,306.642ZM525.597,297.51L527.32,297.465C527.289,297.291 527.256,297.115 527.223,296.937L527.222,296.928C527.136,296.444 527.039,295.995 526.93,295.582L526.062,295.582C526.052,295.617 526.042,295.653 526.032,295.689C525.913,296.195 525.78,296.743 525.639,297.298C525.625,297.369 525.611,297.44 525.597,297.51Z" style="fill:rgb(249,246,189);"/>
                </g>
                <g transform="matrix(2.77229e-17,0.45275,-0.45275,2.77229e-17,564.219,133.964)">
                    <path d="M542.269,314.862L535.275,315.92C534.784,314.356 534.293,312.807 533.802,311.273C533.311,309.708 532.836,308.144 532.376,306.579L521.056,306.993L519.629,313.113L512.543,313.113C512.973,307.898 513.417,302.714 513.878,297.56C514.338,292.407 514.783,287.238 515.212,282.053C517.421,281.685 519.614,281.378 521.792,281.133C524.001,280.887 526.225,280.765 528.464,280.765C531.195,280.765 533.925,280.811 536.655,280.903C537.146,284.093 537.621,287.284 538.082,290.474C538.572,293.634 539.079,296.809 539.6,299.999C539.968,302.515 540.367,304.999 540.796,307.454C541.257,309.908 541.747,312.377 542.269,314.862ZM530.765,300.321C530.734,300.045 530.658,299.539 530.535,298.803C530.412,298.036 530.274,297.238 530.121,296.41C529.968,295.551 529.783,294.784 529.569,294.109C529.385,293.404 529.201,292.989 529.017,292.867C528.955,292.836 528.802,292.805 528.556,292.775C528.342,292.744 528.096,292.713 527.82,292.683C527.575,292.652 527.329,292.637 527.084,292.637L525.934,292.637C525.688,292.637 525.412,292.652 525.105,292.683C524.829,292.683 524.553,292.713 524.277,292.775C524.032,292.836 523.863,292.913 523.771,293.005C523.709,293.035 523.633,293.235 523.541,293.603C523.449,293.971 523.326,294.431 523.173,294.983C523.05,295.505 522.912,296.072 522.759,296.686C522.636,297.3 522.513,297.882 522.39,298.435C522.268,298.987 522.16,299.462 522.068,299.861C522.007,300.26 521.961,300.49 521.93,300.551L530.765,300.321ZM573.872,304.094L573.826,311.273C572.415,311.549 571.019,311.81 569.639,312.055C568.258,312.3 566.862,312.515 565.451,312.699C563.979,312.883 562.506,313.052 561.034,313.205C559.561,313.359 558.089,313.435 556.616,313.435C556.187,313.435 555.558,313.42 554.73,313.389C553.902,313.359 553.043,313.297 552.153,313.205C551.263,313.113 550.42,313.006 549.622,312.883C548.825,312.73 548.242,312.546 547.874,312.331C547.536,312.116 547.214,311.871 546.907,311.595C546.6,311.288 546.324,310.981 546.079,310.675C545.435,309.877 544.898,309.003 544.468,308.052C544.039,307.101 543.702,306.119 543.456,305.107C543.211,304.094 543.027,303.067 542.904,302.024C542.812,300.981 542.766,299.953 542.766,298.941C542.766,297.714 542.827,296.441 542.95,295.121C543.103,293.802 543.333,292.499 543.64,291.21C543.947,289.922 544.346,288.679 544.837,287.483C545.358,286.287 545.987,285.182 546.723,284.17C546.938,283.894 547.214,283.556 547.551,283.158C547.889,282.759 548.226,282.467 548.564,282.283C549.392,281.823 550.312,281.44 551.325,281.133C552.368,280.826 553.441,280.596 554.546,280.443C555.65,280.259 556.739,280.136 557.813,280.075C558.917,279.983 559.93,279.936 560.85,279.936C562.598,279.936 564.347,280.044 566.096,280.259C567.844,280.443 569.547,280.78 571.203,281.271C571.142,282.099 571.096,282.943 571.065,283.802C571.034,284.63 571.019,285.458 571.019,286.287C571.019,288.281 571.065,290.29 571.157,292.315C569.777,291.793 568.335,291.425 566.832,291.21C565.329,290.965 563.841,290.842 562.368,290.842C562.062,290.842 561.617,290.873 561.034,290.934C560.451,290.965 559.791,291.026 559.055,291.118C558.319,291.18 557.552,291.272 556.754,291.394C555.988,291.517 555.267,291.67 554.592,291.854C553.917,292.038 553.319,292.253 552.797,292.499C552.306,292.744 551.984,293.005 551.831,293.281C551.708,293.526 551.601,293.879 551.509,294.339C551.447,294.769 551.386,295.229 551.325,295.72C551.294,296.211 551.263,296.686 551.233,297.146L551.233,298.251C551.233,298.527 551.263,299.079 551.325,299.907C551.386,300.735 551.463,301.625 551.555,302.576C551.647,303.496 551.754,304.34 551.877,305.107C552.03,305.874 552.184,306.318 552.337,306.441C552.49,306.533 552.736,306.595 553.073,306.625L553.81,306.625C555.313,306.625 556.923,306.549 558.641,306.395C560.359,306.242 562.092,306.042 563.841,305.797C565.62,305.521 567.369,305.245 569.087,304.969C570.804,304.662 572.4,304.371 573.872,304.094ZM602.162,286.977C599.156,287.13 596.165,287.299 593.189,287.483C590.244,287.636 587.269,287.836 584.262,288.081L584.17,291.716L596.042,291.026C596.196,292.069 596.303,293.097 596.364,294.109C596.456,295.121 596.502,296.149 596.502,297.192C596.502,297.622 596.487,298.066 596.456,298.527L596.456,299.861L585.413,301.84L586.103,307.546C588.434,307.392 590.75,307.177 593.051,306.901C595.383,306.595 597.729,306.334 600.091,306.119C600.306,307.653 600.521,309.202 600.736,310.767C600.95,312.3 601.257,313.804 601.656,315.276C597.3,315.245 592.974,315.245 588.68,315.276C584.385,315.337 580.06,315.368 575.703,315.368C575.796,311.779 575.903,308.205 576.026,304.647C576.148,301.088 576.21,297.499 576.21,293.879L576.21,293.005C576.21,290.919 576.179,288.848 576.118,286.793C576.056,284.707 575.995,282.605 575.934,280.489C578.357,280.519 580.765,280.535 583.158,280.535C585.581,280.504 588.02,280.489 590.474,280.489C592.346,280.489 594.202,280.535 596.042,280.627C597.913,280.688 599.785,280.765 601.656,280.857L602.162,286.977ZM638.643,306.901C638.643,308.374 638.29,309.57 637.585,310.491C636.879,311.38 635.882,312.101 634.594,312.653C633.52,313.113 632.17,313.482 630.544,313.758C628.918,314.003 627.231,314.187 625.483,314.31C623.734,314.402 622.016,314.463 620.329,314.494C618.642,314.525 617.231,314.54 616.096,314.54C614.163,314.54 612.246,314.509 610.344,314.448C608.472,314.386 606.57,314.294 604.638,314.172C604.73,311.043 604.638,307.944 604.362,304.877C606.662,304.938 608.948,304.999 611.218,305.061C613.519,305.091 615.819,305.137 618.12,305.199L620.789,305.291C621.709,305.321 622.63,305.337 623.55,305.337L624.24,305.337C624.547,305.337 624.869,305.321 625.207,305.291C625.544,305.26 625.851,305.214 626.127,305.153C626.434,305.091 626.664,304.999 626.817,304.877C626.94,304.754 627.016,304.585 627.047,304.371C627.078,304.125 627.093,303.91 627.093,303.726C627.093,303.389 627.047,302.99 626.955,302.53C626.863,302.039 626.725,301.64 626.541,301.334C626.51,301.303 626.403,301.272 626.219,301.241C626.065,301.211 625.881,301.195 625.667,301.195C625.452,301.165 625.253,301.149 625.068,301.149C624.884,301.119 624.777,301.103 624.746,301.103C622.783,300.95 620.82,300.843 618.856,300.781C616.924,300.72 614.976,300.613 613.013,300.459C612.123,300.367 611.203,300.275 610.252,300.183C609.331,300.091 608.472,299.922 607.675,299.677C606.908,299.462 606.248,298.987 605.696,298.251C605.175,297.484 604.745,296.625 604.408,295.674C604.101,294.692 603.871,293.71 603.717,292.729C603.595,291.747 603.533,290.919 603.533,290.244C603.533,289.14 603.641,288.097 603.856,287.115C604.07,286.103 604.408,285.167 604.868,284.308C605.359,283.449 605.972,282.697 606.708,282.053C607.445,281.378 608.35,280.826 609.423,280.397C611.264,279.691 613.227,279.2 615.313,278.924C617.43,278.648 619.455,278.51 621.387,278.51C623.657,278.51 625.897,278.648 628.105,278.924C630.314,279.2 632.523,279.553 634.732,279.983L634.64,282.651L634.64,285.274C634.64,286.164 634.686,287.069 634.778,287.989L635.054,290.658L626.311,290.842C623.427,290.873 620.513,290.949 617.568,291.072C617.2,291.072 616.694,291.087 616.05,291.118C615.436,291.149 614.838,291.195 614.255,291.256C613.672,291.287 613.166,291.318 612.736,291.348L612.092,291.394C611.939,291.732 611.847,292.084 611.816,292.453C611.785,292.79 611.77,293.143 611.77,293.511L611.77,294.201C611.801,294.477 611.877,294.692 612,294.845C612.031,294.876 612.292,294.922 612.782,294.983C613.273,295.045 613.81,295.106 614.393,295.167C615.007,295.229 615.574,295.29 616.096,295.352C616.648,295.413 616.985,295.444 617.108,295.444L620.651,295.766C622.031,295.888 623.427,296.026 624.838,296.18C626.28,296.333 627.661,296.533 628.98,296.778C630.299,296.993 631.449,297.254 632.431,297.56C633.321,297.867 634.133,298.358 634.87,299.033C635.637,299.677 636.296,300.444 636.848,301.334C637.401,302.192 637.83,303.113 638.137,304.094C638.474,305.045 638.643,305.981 638.643,306.901ZM675.63,306.901C675.63,308.374 675.277,309.57 674.572,310.491C673.866,311.38 672.869,312.101 671.581,312.653C670.507,313.113 669.157,313.482 667.531,313.758C665.905,314.003 664.218,314.187 662.47,314.31C660.721,314.402 659.003,314.463 657.316,314.494C655.629,314.525 654.218,314.54 653.082,314.54C651.15,314.54 649.233,314.509 647.331,314.448C645.459,314.386 643.557,314.294 641.625,314.172C641.717,311.043 641.625,307.944 641.349,304.877C643.649,304.938 645.935,304.999 648.205,305.061C650.506,305.091 652.806,305.137 655.107,305.199L657.776,305.291C658.696,305.321 659.617,305.337 660.537,305.337L661.227,305.337C661.534,305.337 661.856,305.321 662.193,305.291C662.531,305.26 662.838,305.214 663.114,305.153C663.421,305.091 663.651,304.999 663.804,304.877C663.927,304.754 664.003,304.585 664.034,304.371C664.065,304.125 664.08,303.91 664.08,303.726C664.08,303.389 664.034,302.99 663.942,302.53C663.85,302.039 663.712,301.64 663.528,301.334C663.497,301.303 663.39,301.272 663.206,301.241C663.052,301.211 662.868,301.195 662.654,301.195C662.439,301.165 662.239,301.149 662.055,301.149C661.871,301.119 661.764,301.103 661.733,301.103C659.77,300.95 657.807,300.843 655.843,300.781C653.911,300.72 651.963,300.613 649.999,300.459C649.11,300.367 648.19,300.275 647.239,300.183C646.318,300.091 645.459,299.922 644.662,299.677C643.895,299.462 643.235,298.987 642.683,298.251C642.162,297.484 641.732,296.625 641.395,295.674C641.088,294.692 640.858,293.71 640.704,292.729C640.582,291.747 640.52,290.919 640.52,290.244C640.52,289.14 640.628,288.097 640.842,287.115C641.057,286.103 641.395,285.167 641.855,284.308C642.346,283.449 642.959,282.697 643.695,282.053C644.432,281.378 645.337,280.826 646.41,280.397C648.251,279.691 650.214,279.2 652.3,278.924C654.417,278.648 656.442,278.51 658.374,278.51C660.644,278.51 662.884,278.648 665.092,278.924C667.301,279.2 669.51,279.553 671.719,279.983L671.627,282.651L671.627,285.274C671.627,286.164 671.673,287.069 671.765,287.989L672.041,290.658L663.298,290.842C660.414,290.873 657.5,290.949 654.555,291.072C654.187,291.072 653.681,291.087 653.036,291.118C652.423,291.149 651.825,291.195 651.242,291.256C650.659,291.287 650.153,291.318 649.723,291.348L649.079,291.394C648.926,291.732 648.834,292.084 648.803,292.453C648.772,292.79 648.757,293.143 648.757,293.511L648.757,294.201C648.788,294.477 648.864,294.692 648.987,294.845C649.018,294.876 649.279,294.922 649.769,294.983C650.26,295.045 650.797,295.106 651.38,295.167C651.993,295.229 652.561,295.29 653.082,295.352C653.635,295.413 653.972,295.444 654.095,295.444L657.638,295.766C659.018,295.888 660.414,296.026 661.825,296.18C663.267,296.333 664.648,296.533 665.967,296.778C667.286,296.993 668.436,297.254 669.418,297.56C670.307,297.867 671.12,298.358 671.857,299.033C672.624,299.677 673.283,300.444 673.835,301.334C674.387,302.192 674.817,303.113 675.124,304.094C675.461,305.045 675.63,305.981 675.63,306.901ZM695.867,281.225C695.714,283.096 695.653,284.967 695.683,286.839C695.714,288.679 695.699,290.52 695.637,292.361L690.53,292.177C690.499,293.25 690.468,294.309 690.438,295.352L690.438,302.346C690.468,303.573 690.499,304.831 690.53,306.119L695.223,306.211C695.162,307.101 695.131,308.006 695.131,308.926L695.131,311.687C695.131,312.454 695.146,313.221 695.177,313.988C695.238,314.755 695.346,315.506 695.499,316.242L678.98,316.518C678.98,315.015 678.964,313.543 678.934,312.101C678.903,310.629 678.842,309.141 678.75,307.638L681.741,307.592C681.587,304.708 681.403,301.855 681.188,299.033C681.004,296.211 680.805,293.373 680.59,290.52L676.219,289.968C676.158,288.679 676.096,287.406 676.035,286.149C676.004,284.86 675.958,283.572 675.897,282.283C679.241,282.161 682.554,282.023 685.836,281.869C689.149,281.685 692.493,281.47 695.867,281.225ZM734.143,292.223C734.143,292.744 734.112,293.235 734.051,293.695C733.989,294.155 733.882,294.631 733.729,295.121C733.544,295.643 733.192,296.149 732.67,296.64C732.149,297.1 731.566,297.545 730.922,297.974C730.277,298.373 729.618,298.726 728.943,299.033C728.268,299.309 727.701,299.524 727.24,299.677L728.161,299.861C728.621,299.922 729.096,300.014 729.587,300.137C730.109,300.26 730.584,300.413 731.014,300.597C731.443,300.751 731.719,300.919 731.842,301.103C732.057,301.472 732.225,301.932 732.348,302.484C732.501,303.005 732.609,303.573 732.67,304.186C732.732,304.769 732.778,305.352 732.808,305.935C732.839,306.487 732.854,306.978 732.854,307.408L732.854,307.914C732.854,308.067 732.839,308.22 732.808,308.374C732.747,308.681 732.532,309.095 732.164,309.616C731.796,310.107 731.366,310.613 730.876,311.135C730.385,311.656 729.894,312.147 729.403,312.607C728.943,313.037 728.59,313.343 728.345,313.528C728.007,313.773 727.67,313.988 727.332,314.172C727.026,314.356 726.688,314.525 726.32,314.678C726.044,314.801 725.446,314.893 724.526,314.954C723.636,315.015 722.685,315.061 721.673,315.092C720.66,315.153 719.709,315.184 718.82,315.184C717.93,315.215 717.332,315.23 717.025,315.23C714.571,315.23 712.147,315.184 709.755,315.092C707.362,315.031 704.938,314.939 702.484,314.816C702.546,312.638 702.592,310.475 702.622,308.328C702.653,306.15 702.668,303.956 702.668,301.748C702.668,299.263 702.592,296.793 702.438,294.339C702.285,291.885 702.116,289.431 701.932,286.977L698.389,286.655C698.236,285.428 698.113,284.231 698.021,283.066C697.959,281.869 697.867,280.673 697.745,279.476L712.838,279.844C713.911,279.875 715.276,279.983 716.933,280.167C718.59,280.32 720.277,280.535 721.995,280.811C723.743,281.087 725.384,281.424 726.918,281.823C728.483,282.222 729.71,282.667 730.599,283.158C731.274,283.526 731.827,284.078 732.256,284.814C732.716,285.55 733.084,286.363 733.36,287.253C733.636,288.112 733.836,288.986 733.959,289.876C734.081,290.765 734.143,291.548 734.143,292.223ZM721.535,305.015C721.535,304.555 721.473,304.094 721.35,303.634C721.228,303.143 720.982,302.745 720.614,302.438C720.522,302.346 720.307,302.269 719.97,302.208C719.633,302.146 719.28,302.116 718.912,302.116C718.544,302.085 718.191,302.07 717.853,302.07C717.516,302.039 717.286,302.024 717.163,302.024C715.844,302.024 714.54,302.1 713.252,302.254C711.963,302.377 710.675,302.515 709.387,302.668L710.123,308.512C710.276,308.512 710.629,308.497 711.181,308.466C711.764,308.435 712.424,308.405 713.16,308.374C713.927,308.312 714.724,308.251 715.553,308.19C716.412,308.128 717.209,308.052 717.945,307.96C718.682,307.868 719.31,307.776 719.832,307.684C720.353,307.561 720.676,307.423 720.798,307.269C721.074,306.932 721.258,306.579 721.35,306.211C721.473,305.843 721.535,305.444 721.535,305.015ZM721.903,292.038C721.903,291.732 721.887,291.348 721.857,290.888C721.826,290.397 721.765,289.906 721.673,289.416C721.581,288.925 721.458,288.465 721.304,288.035C721.151,287.606 720.967,287.253 720.752,286.977C720.691,286.885 720.522,286.808 720.246,286.747C719.97,286.685 719.663,286.639 719.326,286.609C719.019,286.578 718.712,286.563 718.405,286.563L717.807,286.563C716.273,286.563 714.755,286.655 713.252,286.839C711.749,286.992 710.245,287.192 708.742,287.437C708.926,288.94 709.095,290.443 709.248,291.946C709.402,293.45 709.586,294.953 709.801,296.456C710.169,296.456 710.89,296.425 711.963,296.364C713.037,296.303 714.172,296.226 715.369,296.134C716.596,296.042 717.731,295.934 718.774,295.812C719.817,295.658 720.492,295.49 720.798,295.306C721.32,294.968 721.627,294.477 721.719,293.833C721.841,293.189 721.903,292.591 721.903,292.038ZM755.3,281.225C755.147,283.096 755.086,284.967 755.116,286.839C755.147,288.679 755.132,290.52 755.07,292.361L749.963,292.177C749.932,293.25 749.901,294.309 749.871,295.352L749.871,302.346C749.901,303.573 749.932,304.831 749.963,306.119L754.656,306.211C754.595,307.101 754.564,308.006 754.564,308.926L754.564,311.687C754.564,312.454 754.579,313.221 754.61,313.988C754.672,314.755 754.779,315.506 754.932,316.242L738.413,316.518C738.413,315.015 738.398,313.543 738.367,312.101C738.336,310.629 738.275,309.141 738.183,307.638L741.174,307.592C741.02,304.708 740.836,301.855 740.622,299.033C740.438,296.211 740.238,293.373 740.023,290.52L735.652,289.968C735.591,288.679 735.529,287.406 735.468,286.149C735.437,284.86 735.391,283.572 735.33,282.283C738.674,282.161 741.987,282.023 745.269,281.869C748.582,281.685 751.926,281.47 755.3,281.225ZM781.198,313.85C777.547,314.126 773.912,314.386 770.292,314.632C766.703,314.877 763.083,315.107 759.433,315.322C759.279,309.463 759.156,303.65 759.064,297.882C758.972,292.084 758.804,286.241 758.558,280.351C760.614,280.32 762.638,280.259 764.632,280.167C766.626,280.075 768.636,279.952 770.66,279.798C770.323,282.069 770.001,284.354 769.694,286.655C769.418,288.925 769.203,291.21 769.05,293.511C768.927,295.444 768.82,297.376 768.728,299.309C768.666,301.211 768.605,303.128 768.544,305.061C770.568,305.122 772.562,305.153 774.526,305.153C776.519,305.153 778.513,305.183 780.507,305.245L781.198,313.85ZM800.929,281.225C800.776,283.096 800.714,284.967 800.745,286.839C800.776,288.679 800.76,290.52 800.699,292.361L795.591,292.177C795.561,293.25 795.53,294.309 795.499,295.352L795.499,302.346C795.53,303.573 795.561,304.831 795.591,306.119L800.285,306.211C800.223,307.101 800.193,308.006 800.193,308.926L800.193,311.687C800.193,312.454 800.208,313.221 800.239,313.988C800.3,314.755 800.407,315.506 800.561,316.242L784.041,316.518C784.041,315.015 784.026,313.543 783.995,312.101C783.965,310.629 783.903,309.141 783.811,307.638L786.802,307.592C786.649,304.708 786.465,301.855 786.25,299.033C786.066,296.211 785.867,293.373 785.652,290.52L781.281,289.968C781.219,288.679 781.158,287.406 781.096,286.149C781.066,284.86 781.02,283.572 780.958,282.283C784.302,282.161 787.615,282.023 790.898,281.869C794.211,281.685 797.555,281.47 800.929,281.225ZM837.18,298.481L837.18,301.288C837.18,302.269 837.072,303.205 836.858,304.094C836.704,304.769 836.535,305.368 836.351,305.889C836.167,306.38 835.937,306.84 835.661,307.269C835.385,307.668 835.048,308.052 834.649,308.42C834.25,308.757 833.759,309.095 833.176,309.432C832.992,309.555 832.501,309.724 831.704,309.938L828.713,310.629C827.547,310.905 826.228,311.196 824.756,311.503C823.314,311.81 821.826,312.116 820.292,312.423C818.789,312.699 817.286,312.991 815.783,313.297C814.31,313.574 812.96,313.834 811.733,314.08C810.537,314.294 809.509,314.494 808.65,314.678C807.822,314.831 807.27,314.923 806.994,314.954C806.472,309.34 805.981,303.772 805.521,298.251C805.061,292.729 804.708,287.146 804.463,281.501C807.04,281.593 809.601,281.7 812.147,281.823C814.694,281.915 817.27,282.053 819.878,282.237C820.553,282.299 821.535,282.375 822.823,282.467C824.142,282.559 825.507,282.697 826.918,282.881C828.329,283.035 829.649,283.234 830.876,283.48C832.133,283.725 833.038,284.032 833.59,284.4C834.296,284.921 834.925,285.627 835.477,286.517C836.029,287.406 836.428,288.281 836.673,289.14C836.796,289.538 836.888,290.167 836.95,291.026C837.011,291.854 837.057,292.744 837.088,293.695C837.118,294.646 837.134,295.566 837.134,296.456C837.164,297.346 837.18,298.02 837.18,298.481ZM825.722,299.079C825.722,298.741 825.707,298.389 825.676,298.02C825.676,297.622 825.661,297.254 825.63,296.916C825.569,296.425 825.476,295.919 825.354,295.398C825.262,294.845 825.124,294.324 824.94,293.833C824.756,293.312 824.526,292.836 824.249,292.407C823.973,291.946 823.636,291.548 823.237,291.21C823.022,291.026 822.501,290.888 821.673,290.796C820.844,290.673 819.939,290.597 818.958,290.566C817.976,290.505 817.056,290.474 816.197,290.474C815.338,290.443 814.786,290.428 814.54,290.428L812.654,290.428C812.899,292.821 813.114,295.183 813.298,297.514C813.513,299.815 813.697,302.162 813.85,304.555C814.433,304.524 815.261,304.447 816.335,304.324C817.439,304.171 818.559,303.987 819.694,303.772C820.829,303.527 821.887,303.235 822.869,302.898C823.851,302.53 824.556,302.1 824.986,301.61C825.323,301.241 825.523,300.858 825.584,300.459C825.676,300.03 825.722,299.57 825.722,299.079ZM870.255,314.862L863.261,315.92C862.77,314.356 862.279,312.807 861.789,311.273C861.298,309.708 860.822,308.144 860.362,306.579L849.042,306.993L847.616,313.113L840.53,313.113C840.959,307.898 841.404,302.714 841.864,297.56C842.324,292.407 842.769,287.238 843.198,282.053C845.407,281.685 847.601,281.378 849.779,281.133C851.987,280.887 854.211,280.765 856.451,280.765C859.181,280.765 861.911,280.811 864.641,280.903C865.132,284.093 865.608,287.284 866.068,290.474C866.559,293.634 867.065,296.809 867.586,299.999C867.955,302.515 868.353,304.999 868.783,307.454C869.243,309.908 869.734,312.377 870.255,314.862ZM858.752,300.321C858.721,300.045 858.644,299.539 858.521,298.803C858.399,298.036 858.261,297.238 858.107,296.41C857.954,295.551 857.77,294.784 857.555,294.109C857.371,293.404 857.187,292.989 857.003,292.867C856.942,292.836 856.788,292.805 856.543,292.775C856.328,292.744 856.083,292.713 855.807,292.683C855.561,292.652 855.316,292.637 855.07,292.637L853.92,292.637C853.675,292.637 853.398,292.652 853.092,292.683C852.816,292.683 852.54,292.713 852.263,292.775C852.018,292.836 851.849,292.913 851.757,293.005C851.696,293.035 851.619,293.235 851.527,293.603C851.435,293.971 851.312,294.431 851.159,294.983C851.036,295.505 850.898,296.072 850.745,296.686C850.622,297.3 850.499,297.882 850.377,298.435C850.254,298.987 850.147,299.462 850.055,299.861C849.993,300.26 849.947,300.49 849.917,300.551L858.752,300.321ZM905.65,298.481L905.65,301.288C905.65,302.269 905.543,303.205 905.328,304.094C905.175,304.769 905.006,305.368 904.822,305.889C904.638,306.38 904.408,306.84 904.132,307.269C903.856,307.668 903.518,308.052 903.119,308.42C902.72,308.757 902.23,309.095 901.647,309.432C901.463,309.555 900.972,309.724 900.174,309.938L897.183,310.629C896.018,310.905 894.699,311.196 893.226,311.503C891.784,311.81 890.296,312.116 888.763,312.423C887.259,312.699 885.756,312.991 884.253,313.297C882.781,313.574 881.431,313.834 880.204,314.08C879.007,314.294 877.98,314.494 877.121,314.678C876.292,314.831 875.74,314.923 875.464,314.954C874.943,309.34 874.452,303.772 873.992,298.251C873.532,292.729 873.179,287.146 872.933,281.501C875.51,281.593 878.072,281.7 880.618,281.823C883.164,281.915 885.741,282.053 888.348,282.237C889.023,282.299 890.005,282.375 891.293,282.467C892.613,282.559 893.978,282.697 895.389,282.881C896.8,283.035 898.119,283.234 899.346,283.48C900.604,283.725 901.509,284.032 902.061,284.4C902.767,284.921 903.395,285.627 903.948,286.517C904.5,287.406 904.899,288.281 905.144,289.14C905.267,289.538 905.359,290.167 905.42,291.026C905.481,291.854 905.527,292.744 905.558,293.695C905.589,294.646 905.604,295.566 905.604,296.456C905.635,297.346 905.65,298.02 905.65,298.481ZM894.192,299.079C894.192,298.741 894.177,298.389 894.146,298.02C894.146,297.622 894.131,297.254 894.1,296.916C894.039,296.425 893.947,295.919 893.824,295.398C893.732,294.845 893.594,294.324 893.41,293.833C893.226,293.312 892.996,292.836 892.72,292.407C892.444,291.946 892.106,291.548 891.708,291.21C891.493,291.026 890.971,290.888 890.143,290.796C889.315,290.673 888.41,290.597 887.428,290.566C886.446,290.505 885.526,290.474 884.667,290.474C883.808,290.443 883.256,290.428 883.011,290.428L881.124,290.428C881.369,292.821 881.584,295.183 881.768,297.514C881.983,299.815 882.167,302.162 882.32,304.555C882.903,304.524 883.732,304.447 884.805,304.324C885.91,304.171 887.029,303.987 888.164,303.772C889.299,303.527 890.358,303.235 891.339,302.898C892.321,302.53 893.027,302.1 893.456,301.61C893.794,301.241 893.993,300.858 894.054,300.459C894.146,300.03 894.192,299.57 894.192,299.079ZM935.118,286.977C932.112,287.13 929.121,287.299 926.145,287.483C923.2,287.636 920.225,287.836 917.218,288.081L917.126,291.716L928.998,291.026C929.152,292.069 929.259,293.097 929.32,294.109C929.412,295.121 929.458,296.149 929.458,297.192C929.458,297.622 929.443,298.066 929.412,298.527L929.412,299.861L918.369,301.84L919.059,307.546C921.39,307.392 923.706,307.177 926.007,306.901C928.339,306.595 930.685,306.334 933.048,306.119C933.262,307.653 933.477,309.202 933.692,310.767C933.906,312.3 934.213,313.804 934.612,315.276C930.256,315.245 925.931,315.245 921.636,315.276C917.341,315.337 913.016,315.368 908.66,315.368C908.752,311.779 908.859,308.205 908.982,304.647C909.104,301.088 909.166,297.499 909.166,293.879L909.166,293.005C909.166,290.919 909.135,288.848 909.074,286.793C909.012,284.707 908.951,282.605 908.89,280.489C911.313,280.519 913.721,280.535 916.114,280.535C918.537,280.504 920.976,280.489 923.43,280.489C925.302,280.489 927.158,280.535 928.998,280.627C930.869,280.688 932.741,280.765 934.612,280.857L935.118,286.977Z" style="fill:rgb(71,0,0);"/>
                </g>
            </g>
        </g>
    </g>
</svg>
