<?xml version="1.0" encoding="UTF-8" standalone="no"?>
<!DOCTYPE svg PUBLIC "-//W3C//DTD SVG 1.1//EN" "http://www.w3.org/Graphics/SVG/1.1/DTD/svg11.dtd">
<svg width="100%" height="100%" viewBox="0 0 129 37" version="1.1" xmlns="http://www.w3.org/2000/svg" xmlns:xlink="http://www.w3.org/1999/xlink" xml:space="preserve" xmlns:serif="http://www.serif.com/" style="fill-rule:evenodd;clip-rule:evenodd;stroke-linejoin:round;stroke-miterlimit:2;">
    <g transform="matrix(1,0,0,1,-1272.31,-921.069)">
        <g transform="matrix(6.12323e-17,-1,5.13241,3.14269e-16,0,1920)">
            <g transform="matrix(1,0,0,1,148.265,-88.8513)">
                <g transform="matrix(5.30393e-17,0.16877,-0.72093,8.60108e-18,1616.51,46.984)">
                    <path d="M1856.99,1062.3C1859.13,1062.3 1861.19,1063.33 1862.71,1065.15C1864.23,1066.97 1865.08,1069.44 1865.08,1072.02L1865.08,1102.98C1865.08,1105.56 1864.23,1108.03 1862.71,1109.85C1861.19,1111.67 1859.13,1112.7 1856.99,1112.7L1725.01,1112.7C1722.87,1112.7 1720.81,1111.67 1719.29,1109.85C1717.77,1108.03 1716.92,1105.56 1716.92,1102.98L1716.92,1072.02C1716.92,1069.44 1717.77,1066.97 1719.29,1065.15C1720.81,1063.33 1722.87,1062.3 1725.01,1062.3L1856.99,1062.3Z" style="fill:rgb(0,71,20);"/>
                </g>
                <g transform="matrix(5.30393e-17,0.16877,-0.72093,8.60108e-18,1616.51,46.984)">
                    <path d="M1856.99,1066C1858.32,1066 1859.59,1066.63 1860.53,1067.76C1861.47,1068.89 1862,1070.42 1862,1072.02C1862,1080.21 1862,1094.79 1862,1102.98C1862,1104.58 1861.47,1106.11 1860.53,1107.24C1859.59,1108.37 1858.32,1109 1856.99,1109C1834.98,1109 1747.02,1109 1725.01,1109C1723.68,1109 1722.41,1108.37 1721.47,1107.24C1720.53,1106.11 1720,1104.58 1720,1102.98C1720,1094.79 1720,1080.21 1720,1072.02C1720,1070.42 1720.53,1068.89 1721.47,1067.76C1722.41,1066.63 1723.68,1066 1725.01,1066C1747.02,1066 1834.98,1066 1856.99,1066Z" style="fill:rgb(69,125,28);"/>
                </g>
                <g transform="matrix(3.89821e-17,0.12404,-0.636626,7.59528e-18,1523.28,146.503)">
                    <g transform="matrix(28,0,0,28,1710,1096.54)">
                    </g>
                    <text x="1595.95px" y="1096.54px" style="font-family:'Slackey-Regular', 'Slackey';font-size:28px;fill:rgb(249,246,189);">V<tspan x="1614.02px 1638.76px 1651.36px 1667.84px 1687.06px " y="1096.54px 1096.54px 1096.54px 1096.54px 1096.54px ">OLTAR</tspan></text>
                </g>
                <g transform="matrix(-0.636626,1.51906e-17,-7.79642e-17,-0.12404,1883.96,475.751)">
                    <path d="M1662.27,1075.35C1661.54,1078.9 1660.02,1082.34 1659.23,1085.82C1658.47,1089.3 1655.94,1093.72 1655.12,1097.24L1650.18,1100.54C1649.73,1098.57 1647.95,1092.61 1647.48,1090.66C1647.02,1088.69 1646.5,1086.73 1645.92,1084.78C1645.5,1083.3 1645.06,1081.85 1644.6,1080.4C1644.17,1078.96 1643.71,1077.52 1643.24,1076.06C1643.88,1076.13 1644.51,1076.19 1645.15,1076.25C1645.81,1076.3 1646.45,1076.33 1647.09,1076.33L1647.5,1076.33C1647.63,1076.33 1647.77,1076.31 1647.91,1076.28C1648.64,1078.57 1649.4,1080.83 1650.18,1083.06C1650.97,1085.26 1651.77,1087.5 1652.59,1089.76C1653.13,1088.44 1653.66,1087.13 1654.17,1085.82C1654.7,1084.49 1655.23,1083.16 1655.76,1081.83C1655.8,1081.74 1655.88,1081.51 1656.01,1081.14C1656.13,1080.78 1656.28,1080.36 1656.44,1079.89C1656.63,1079.39 1656.81,1078.88 1656.99,1078.35C1657.19,1077.81 1657.36,1077.31 1657.51,1076.85C1657.67,1076.39 1657.8,1076.02 1657.89,1075.73C1658,1075.42 1658.06,1075.27 1658.06,1075.27C1658.26,1075.3 1658.45,1075.32 1658.63,1075.32L1659.23,1075.32C1659.76,1075.34 1660.27,1075.35 1660.76,1075.35L1662.27,1075.35Z" style="fill:rgb(249,246,189);fill-rule:nonzero;"/>
                </g>
            </g>
        </g>
    </g>
</svg>
